<svg width="151" height="136" viewBox="0 0 151 136" fill="none" xmlns="http://www.w3.org/2000/svg">
<path d="M24.2326 26.0256C24.3549 26.0256 24.3345 23.6614 25.1293 20.6859C25.5981 18.9331 25.9242 17.8326 26.8821 16.8543C28.2476 15.4888 30.0615 15.2443 30.9175 15.1831C30.2653 14.9385 29.2462 14.4494 28.3495 13.4915C27.0655 12.1464 26.719 10.6179 26.3318 8.94665C26.0872 7.86647 25.8223 6.27679 25.9446 4.29987C25.9446 3.97378 25.7408 9.15045 22.7652 11.7592C21.3589 12.982 19.6877 13.3285 18.6483 13.4508C19.647 13.7565 21.3182 14.4494 22.378 16.0799C22.8467 16.7932 23.1524 17.4861 23.397 19.2796C23.9473 23.1723 24.0492 26.046 24.2122 26.046L24.2326 26.0256Z" fill="#111112"/>
<path d="M13.7976 26.8615C13.7976 26.8615 13.8384 25.8628 14.1849 24.5992C14.3887 23.8655 14.5109 23.3968 14.9389 22.9892C15.5096 22.4185 16.2841 22.2962 16.6509 22.2758C16.3656 22.1739 15.9376 21.9701 15.5708 21.5625C15.0205 20.9919 14.8778 20.3397 14.7148 19.6467C14.6128 19.1984 14.511 18.5258 14.5517 17.6902C14.5517 17.5475 14.4702 19.7486 13.2066 20.8492C12.6156 21.3587 11.9022 21.5218 11.4742 21.5625C11.9022 21.6848 12.5952 21.9905 13.0436 22.6631C13.2474 22.9688 13.3697 23.2541 13.4716 24.0082C13.6958 25.659 13.7569 26.8615 13.818 26.8615H13.7976Z" fill="#111112"/>
<path d="M140.769 61.2638C140.769 61.2638 140.81 60.2652 141.156 59.0016C141.36 58.2679 141.482 57.7991 141.91 57.3915C142.481 56.8209 143.255 56.6986 143.622 56.6782C143.337 56.5763 142.909 56.3725 142.542 55.9649C141.992 55.3942 141.849 54.742 141.686 54.0491C141.584 53.6007 141.482 52.9282 141.523 52.0926C141.523 51.9499 141.441 54.151 140.178 55.2515C139.587 55.7611 138.874 55.9241 138.446 55.9649C138.874 56.0872 139.566 56.3929 140.035 57.0654C140.239 57.3711 140.361 57.6565 140.463 58.4105C140.687 60.0614 140.749 61.2638 140.81 61.2638H140.769Z" fill="#111112"/>
<path d="M115.171 112.093C115.273 112.093 115.252 110.075 115.945 107.528C116.353 106.04 116.618 105.102 117.454 104.267C118.615 103.105 120.164 102.881 120.877 102.84C120.307 102.616 119.451 102.208 118.697 101.393C117.596 100.231 117.291 98.927 116.964 97.5207C116.761 96.6036 116.536 95.2381 116.618 93.5669C116.618 93.2816 116.455 97.7041 113.907 99.9256C112.705 100.965 111.278 101.271 110.402 101.373C111.237 101.638 112.664 102.229 113.581 103.615C113.989 104.206 114.254 104.817 114.458 106.346C114.926 109.668 115.028 112.113 115.151 112.113L115.171 112.093Z" fill="#111112"/>
<path d="M145.783 73.8186C145.783 73.8186 145.844 72.2289 146.394 70.2112C146.72 69.0291 146.924 68.2751 147.576 67.6229C148.493 66.7057 149.716 66.5223 150.287 66.5019C149.838 66.3389 149.166 65.9924 148.554 65.3606C147.678 64.4435 147.454 63.4041 147.189 62.2831C147.026 61.5494 146.842 60.4897 146.924 59.1445C146.924 58.9204 146.781 62.4258 144.784 64.1786C143.826 65.0142 142.705 65.2383 142.012 65.3199C142.685 65.5237 143.806 65.9924 144.539 67.093C144.845 67.5617 145.069 68.0509 145.232 69.2533C145.599 71.8824 145.681 73.8186 145.783 73.8186Z" fill="#111112"/>
<path d="M76.7737 24.5381L101.312 24.5381V-0.000167847L76.7737 -0.000167847V24.5381Z" fill="#5CD9EA"/>
<path d="M27.1675 73.6348H26.1485C11.719 73.6348 0.00012207 61.9159 0.00012207 47.4864L0.00012207 41.0869L53.2954 41.0869L53.2954 47.4864C53.2954 61.9159 41.5766 73.6348 27.1471 73.6348H27.1675Z" fill="#FFBF3E"/>
<path d="M126.666 66.6238C126.666 66.6238 126.503 66.5831 126.462 66.5219L124.974 64.4227C124.892 64.3004 124.913 64.1578 125.035 64.0763C125.157 63.9947 125.3 64.0151 125.382 64.1374L126.869 66.2366C126.951 66.3589 126.93 66.5015 126.808 66.5831C126.767 66.6238 126.706 66.6238 126.666 66.6238Z" fill="#111112"/>
<path d="M114.723 72.1275L117.352 72.7593C122.304 73.9617 128.479 75.6126 135.572 77.8137L132.8 89.2676C128.439 88.8192 124.077 88.432 119.716 87.9836C117.82 87.8002 115.945 87.6167 114.05 87.4129C110.259 87.0461 106.468 86.6996 102.678 86.292C95.1571 81.8898 87.657 77.4468 80.1162 73.0242C80.4015 72.5962 80.85 71.944 81.5021 71.2307C84.9261 67.8068 91.509 66.5839 114.723 72.1071V72.1275Z" fill="url(#paint0_radial_106_6947)"/>
<path d="M45.3672 77.3652C45.5099 80.7891 45.8563 84.4168 46.3658 88.2892C46.5492 89.6139 46.753 90.9794 46.9976 92.3653C47.9351 97.8884 49.3006 103.799 51.2776 109.913C52.4392 113.48 53.7028 116.822 55.0276 119.94C54.7219 124.689 54.3958 129.397 54.0697 134.125C59.2667 134.574 64.7491 134.879 70.5169 135.002C78.5264 135.144 86.0877 134.94 93.1393 134.472C92.9967 130.09 92.8133 125.708 92.6298 121.326C93.6489 119.37 94.6475 117.332 95.5646 115.212C98.9886 107.447 101.149 99.8246 102.474 92.6506C102.677 91.387 102.902 90.1234 103.065 88.9006C103.656 84.641 104.002 80.5853 104.145 76.8149C101.088 75.4698 96.7263 73.7578 91.3051 72.4942C90.5918 72.3515 89.8377 72.1681 89.0836 72.0051C87.1882 71.6382 85.1909 71.3121 83.0917 71.1083C80.483 70.8026 77.7927 70.6192 74.8987 70.6599C71.4747 70.6803 68.2954 70.9656 65.2994 71.414C63.5059 71.679 61.8551 71.9847 60.2858 72.3108C59.654 72.4534 59.063 72.6165 58.4516 72.7591C52.908 74.145 48.465 75.9385 45.3672 77.3855V77.3652Z" fill="#D763AA"/>
<path d="M64.525 80.9521H84.0293C83.2548 73.1055 82.5211 65.2386 81.7467 57.3921H66.3389C66.1351 60.2046 65.9109 62.9968 65.6867 65.8093C65.2995 70.8637 64.9123 75.8977 64.525 80.9521Z" fill="url(#paint1_radial_106_6947)"/>
<path d="M65.6865 65.8093C68.5602 67.6028 72.9828 65.6055 75.5915 61.4071C76.4271 60.1027 76.957 58.7168 77.2627 57.3921H66.3387C66.1349 60.2046 65.9107 62.9968 65.6865 65.8093Z" fill="#111112"/>
<path d="M76.8553 81.4614C76.1624 82.9084 74.7153 83.4791 73.7778 83.0715C72.983 82.725 72.7384 81.7671 72.6976 81.6041L76.8553 81.4614Z" fill="#111112"/>
<path d="M94.3011 81.3394C93.3432 82.0119 91.6923 82.9698 89.4708 83.3978C85.8431 84.1111 82.9287 83.0106 81.7874 82.501L94.3011 81.3394Z" fill="#111112"/>
<path d="M67.5821 82.6846C66.5019 83.1329 64.688 83.724 62.4258 83.6832C58.7369 83.6221 56.1078 81.9305 55.0887 81.1968L67.5821 82.7049V82.6846Z" fill="#111112"/>
<path d="M28.6551 78.4651L26.1075 79.3415C21.2977 81.0127 15.3058 83.2545 8.45789 86.1282L12.3302 97.256C16.6305 96.4 20.9308 95.5848 25.2311 94.7288C27.1061 94.362 28.9404 94.0155 30.8154 93.6079C34.5655 92.8742 38.2747 92.1609 42.0247 91.4068C49.0764 86.2912 56.1281 81.1553 63.2002 76.0398C62.8741 75.6526 62.3646 75.0208 61.6513 74.389C57.9216 71.3115 51.2368 70.7205 28.6754 78.4651H28.6551Z" fill="url(#paint2_radial_106_6947)"/>
<path fill-rule="evenodd" clip-rule="evenodd" d="M116.659 70.8235C117.025 71.7202 117.351 72.6578 117.616 73.6972C119.512 81.0953 116.842 87.8005 115.11 91.2245L107.257 89.6415C107.219 90.2305 107.181 90.8192 107.141 91.4073C107.12 92.2225 107.059 93.0378 106.998 93.8122C106.593 100.224 106.193 106.636 105.793 113.046L105.793 113.046C105.367 119.859 104.942 126.668 104.512 133.473C101.067 133.86 97.4599 134.166 93.6895 134.431C86.6378 134.9 79.0766 135.103 71.067 134.961C65.2993 134.838 59.817 134.533 54.6199 134.084C50.8088 133.799 47.181 133.412 43.6959 132.984C43.6857 126.394 43.6704 119.813 43.6551 113.236C43.6398 106.673 43.6245 100.113 43.6143 93.5473V93.3636C40.6823 94.2558 37.7506 95.1495 34.8172 96.0436C33.246 96.5225 31.6744 97.0015 30.1021 97.4806C28.0436 94.2401 24.7419 87.8202 25.924 80.2793C26.0667 79.2195 26.3113 78.2413 26.5966 77.3242H26.617C30.198 76.1456 46.0457 71.0686 55.664 71.4366C55.7304 71.4221 55.7968 71.4078 55.8631 71.3936C60.2042 70.5376 63.7096 70.7821 65.2789 70.9452H65.442L65.2789 71.3732C65.6866 71.9031 68.7844 75.6939 74.0834 75.8365C76.7043 75.9098 78.8348 75.0643 80.4157 74.0725C80.2996 73.7183 80.2007 73.3879 80.1161 73.0858C80.0753 72.3724 80.218 71.7406 80.4422 71.2107C83.805 63.7107 111.665 69.7229 116.638 70.8439L116.659 70.8235Z" fill="#111112"/>
<mask id="mask0_106_6947" style="mask-type:alpha" maskUnits="userSpaceOnUse" x="25" y="67" width="94" height="69">
<path fill-rule="evenodd" clip-rule="evenodd" d="M116.659 70.8235C117.025 71.7202 117.351 72.6578 117.616 73.6972C119.512 81.0953 116.842 87.8005 115.11 91.2245L107.257 89.6415C107.219 90.2305 107.181 90.8192 107.141 91.4073C107.12 92.2225 107.059 93.0378 106.998 93.8122C106.593 100.224 106.193 106.636 105.793 113.046L105.793 113.046C105.367 119.859 104.942 126.668 104.512 133.473C101.067 133.86 97.4599 134.166 93.6895 134.431C86.6378 134.9 79.0766 135.103 71.067 134.961C65.2993 134.838 59.817 134.533 54.6199 134.084C50.8088 133.799 47.181 133.412 43.6959 132.984C43.6857 126.394 43.6704 119.813 43.6551 113.236C43.6398 106.673 43.6245 100.113 43.6143 93.5473V93.3636C40.6823 94.2558 37.7506 95.1495 34.8172 96.0436C33.246 96.5225 31.6744 97.0015 30.1021 97.4806C28.0436 94.2401 24.7419 87.8202 25.924 80.2793C26.0667 79.2195 26.3113 78.2413 26.5966 77.3242H26.617C30.198 76.1456 46.0457 71.0686 55.664 71.4366C55.7304 71.4221 55.7968 71.4078 55.8631 71.3936C60.2042 70.5376 63.7096 70.7821 65.2789 70.9452H65.442L65.2789 71.3732C65.6866 71.9031 68.7844 75.6939 74.0834 75.8365C76.7043 75.9098 78.8348 75.0643 80.4157 74.0725C80.2996 73.7183 80.2007 73.3879 80.1161 73.0858C80.0753 72.3724 80.218 71.7406 80.4422 71.2107C83.805 63.7107 111.665 69.7229 116.638 70.8439L116.659 70.8235Z" fill="#111112"/>
</mask>
<g mask="url(#mask0_106_6947)">
<path d="M111.808 64.9121H102.596V74.1241H111.808V64.9121Z" fill="#B6B6FF"/>
<path d="M120.999 74.1245H111.787V83.3365H120.999V74.1245Z" fill="#B6B6FF"/>
<path d="M111.808 83.3154H102.596V92.5275H111.808V83.3154Z" fill="#B6B6FF"/>
<path d="M120.999 92.5278H111.787V101.74H120.999V92.5278Z" fill="#B6B6FF"/>
<path d="M111.808 101.719H102.596V110.931H111.808V101.719Z" fill="#B6B6FF"/>
<path d="M120.999 110.932H111.787V120.144H120.999V110.932Z" fill="#B6B6FF"/>
<path d="M111.808 120.123H102.596V129.335H111.808V120.123Z" fill="#B6B6FF"/>
<path d="M120.999 129.335H111.787V138.547H120.999V129.335Z" fill="#B6B6FF"/>
<path d="M93.4041 64.9121H84.192V74.1241H93.4041V64.9121Z" fill="#B6B6FF"/>
<path d="M102.596 74.1245H93.3837V83.3365H102.596V74.1245Z" fill="#B6B6FF"/>
<path d="M93.4041 83.3154H84.192V92.5275H93.4041V83.3154Z" fill="#B6B6FF"/>
<path d="M102.596 92.5278H93.3837V101.74H102.596V92.5278Z" fill="#B6B6FF"/>
<path d="M93.4041 101.719H84.192V110.931H93.4041V101.719Z" fill="#B6B6FF"/>
<path d="M102.596 110.932H93.3837V120.144H102.596V110.932Z" fill="#B6B6FF"/>
<path d="M93.4041 120.123H84.192V129.335H93.4041V120.123Z" fill="#B6B6FF"/>
<path d="M102.596 129.335H93.3837V138.547H102.596V129.335Z" fill="#B6B6FF"/>
<path d="M75.0004 64.9121H65.7883V74.1241H75.0004V64.9121Z" fill="#B6B6FF"/>
<path d="M84.192 74.1245H74.98V83.3365H84.192V74.1245Z" fill="#B6B6FF"/>
<path d="M75.0004 83.3154H65.7883V92.5275H75.0004V83.3154Z" fill="#B6B6FF"/>
<path d="M84.192 92.5278H74.98V101.74H84.192V92.5278Z" fill="#B6B6FF"/>
<path d="M75.0004 101.719H65.7883V110.931H75.0004V101.719Z" fill="#B6B6FF"/>
<path d="M84.192 110.932H74.98V120.144H84.192V110.932Z" fill="#B6B6FF"/>
<path d="M75.0004 120.123H65.7883V129.335H75.0004V120.123Z" fill="#B6B6FF"/>
<path d="M84.192 129.335H74.98V138.547H84.192V129.335Z" fill="#B6B6FF"/>
<path d="M56.5764 64.9121H47.3644V74.1241H56.5764V64.9121Z" fill="#B6B6FF"/>
<path d="M65.7886 74.1245H56.5765V83.3365H65.7886V74.1245Z" fill="#B6B6FF"/>
<path d="M56.5764 83.3154H47.3644V92.5275H56.5764V83.3154Z" fill="#B6B6FF"/>
<path d="M65.7886 92.5278H56.5765V101.74H65.7886V92.5278Z" fill="#B6B6FF"/>
<path d="M56.5764 101.719H47.3644V110.931H56.5764V101.719Z" fill="#B6B6FF"/>
<path d="M65.7886 110.932H56.5765V120.144H65.7886V110.932Z" fill="#B6B6FF"/>
<path d="M56.5764 120.123H47.3644V129.335H56.5764V120.123Z" fill="#B6B6FF"/>
<path d="M65.7886 129.335H56.5765V138.547H65.7886V129.335Z" fill="#B6B6FF"/>
<path d="M38.1727 64.9121H28.9607V74.1241H38.1727V64.9121Z" fill="#B6B6FF"/>
<path d="M47.3847 74.1245H38.1727V83.3365H47.3847V74.1245Z" fill="#B6B6FF"/>
<path d="M38.1727 83.3154H28.9607V92.5275H38.1727V83.3154Z" fill="#B6B6FF"/>
<path d="M47.3847 92.5278H38.1727V101.74H47.3847V92.5278Z" fill="#B6B6FF"/>
<path d="M38.1727 101.719H28.9607V110.931H38.1727V101.719Z" fill="#B6B6FF"/>
<path d="M47.3847 110.932H38.1727V120.144H47.3847V110.932Z" fill="#B6B6FF"/>
<path d="M38.1727 120.123H28.9607V129.335H38.1727V120.123Z" fill="#B6B6FF"/>
<path d="M47.3847 129.335H38.1727V138.547H47.3847V129.335Z" fill="#B6B6FF"/>
<path d="M56.5769 64.9121H47.3649V74.1241H56.5769V64.9121Z" fill="#B6B6FF"/>
<path d="M65.7889 74.1245H56.5769V83.3365H65.7889V74.1245Z" fill="#B6B6FF"/>
<path d="M56.5769 83.3154H47.3649V92.5275H56.5769V83.3154Z" fill="#B6B6FF"/>
<path d="M65.7889 92.5278H56.5769V101.74H65.7889V92.5278Z" fill="#B6B6FF"/>
<path d="M56.5769 101.719H47.3649V110.931H56.5769V101.719Z" fill="#B6B6FF"/>
<path d="M38.173 64.9121H28.9609V74.1241H38.173V64.9121Z" fill="#B6B6FF"/>
<path d="M47.385 74.1245H38.173V83.3365H47.385V74.1245Z" fill="#B6B6FF"/>
<path d="M38.173 83.3154H28.9609V92.5275H38.173V83.3154Z" fill="#B6B6FF"/>
<path d="M47.385 92.5278H38.173V101.74H47.385V92.5278Z" fill="#B6B6FF"/>
<path d="M38.173 101.719H28.9609V110.931H38.173V101.719Z" fill="#B6B6FF"/>
<path d="M28.9813 74.1245H19.7693V83.3365H28.9813V74.1245Z" fill="#B6B6FF"/>
<path d="M28.9813 92.5278H19.7693V101.74H28.9813V92.5278Z" fill="#B6B6FF"/>
<path d="M111.808 64.9121H102.596V74.1241H111.808V64.9121Z" fill="#B6B6FF"/>
<path d="M121 74.1245H111.788V83.3365H121V74.1245Z" fill="#B6B6FF"/>
<path d="M111.808 83.3154H102.596V92.5275H111.808V83.3154Z" fill="#B6B6FF"/>
<path d="M93.4043 64.9121H84.1923V74.1241H93.4043V64.9121Z" fill="#B6B6FF"/>
<path d="M102.596 74.1245H93.384V83.3365H102.596V74.1245Z" fill="#B6B6FF"/>
<path d="M93.4043 83.3154H84.1923V92.5275H93.4043V83.3154Z" fill="#B6B6FF"/>
<path d="M75.0006 64.9121H65.7886V74.1241H75.0006V64.9121Z" fill="#B6B6FF"/>
<path d="M84.1922 74.1245H74.9802V83.3365H84.1922V74.1245Z" fill="#B6B6FF"/>
<path d="M75.0006 83.3154H65.7886V92.5275H75.0006V83.3154Z" fill="#B6B6FF"/>
</g>
<path fill-rule="evenodd" clip-rule="evenodd" d="M32.6152 59.1457C31.8604 60.0912 30.8805 61.407 29.8779 63.0172C26.7797 67.9622 25.5865 72.0887 24.1392 77.0936C23.1587 80.4842 22.0616 84.278 20.1768 89.0025C19.5042 90.6941 18.424 93.262 16.8955 96.3599C16.5898 96.5637 13.4919 98.561 9.82341 97.2159C6.053 95.83 5.03397 92.1615 4.95245 91.8354C4.72826 90.2865 4.54483 87.9019 5.07473 85.1302C6.04689 79.9655 8.80786 76.7256 13.1213 71.6637C14.5953 69.934 16.2505 67.9917 18.0776 65.6871C19.9178 63.3574 22.4539 60.0122 25.2883 55.7418C25.2762 54.103 25.2783 52.2964 25.3128 50.3405C25.3332 48.5062 25.4351 44.3893 27.1674 41.7398C27.3916 41.3934 28.3291 40.0279 29.0425 40.2113C29.2512 40.2635 29.3744 40.4279 29.4833 40.5732C29.587 40.7116 29.6777 40.8327 29.8169 40.8227C30.0397 40.8049 30.1222 40.4714 30.228 40.0438C30.3642 39.4936 30.5389 38.7874 31.1009 38.3974C31.9161 37.8268 33.4039 38.0713 33.893 38.7643C33.9703 38.8759 34.0187 38.9948 34.0594 39.095C34.1154 39.2326 34.157 39.3349 34.2395 39.3349C34.3494 39.3349 34.4032 39.1492 34.475 38.9014C34.5764 38.5513 34.7137 38.0773 35.0955 37.8268C35.6661 37.4599 36.6036 37.7045 37.1335 38.1936C37.5627 38.5838 37.6931 39.0652 37.7737 39.3626C37.8194 39.5312 37.849 39.6406 37.908 39.6406C38.0568 39.6406 38.1405 39.0324 38.2783 38.0312C38.5557 36.0153 39.0524 32.4064 40.7409 28.9612C41.495 27.4326 41.7396 27.4123 41.8211 27.4326C42.0657 27.4938 42.2491 28.2275 41.1893 38.0713C41.1051 38.8716 40.9821 39.5485 40.868 40.1771C40.6507 41.3735 40.4653 42.3947 40.639 43.7575C40.7972 44.9443 41.0611 45.5984 41.2791 46.1389C41.5104 46.7123 41.6901 47.158 41.6377 47.9763C41.4543 50.7888 37.2762 54.5389 37.2762 54.5389C35.9795 55.6838 34.4026 57.1837 32.6152 59.1457Z" fill="url(#paint3_radial_106_6947)"/>
<path d="M29.7353 48.2204C29.1851 48.2204 28.4717 47.5886 27.2693 43.6144C27.2285 43.4717 27.31 43.3291 27.4323 43.2883C27.575 43.2476 27.7177 43.3291 27.7584 43.4514C28.9813 47.446 29.613 47.6905 29.7557 47.6905C30.041 47.6498 30.306 46.6715 30.4283 46.2435C30.8359 44.6946 30.7544 43.0641 30.1633 41.3522C30.1226 41.2095 30.1837 41.0668 30.3264 41.0261C30.4486 40.9853 30.6117 41.0464 30.6525 41.1891C31.2639 43.003 31.3658 44.7353 30.9378 46.3658C30.734 47.1606 30.469 48.1389 29.8372 48.2C29.8169 48.2 29.7761 48.2 29.7557 48.2L29.7353 48.2204Z" fill="#111112"/>
<path d="M34.2189 43.1868C34.0763 43.1868 33.954 43.0645 33.9744 42.9218C33.9744 41.964 33.9744 40.8634 33.954 39.6609C33.954 39.5183 34.0559 39.396 34.1985 39.396C34.3412 39.396 34.4635 39.4979 34.4635 39.6406C34.5043 40.8634 34.5043 41.964 34.4839 42.9422C34.4839 43.0849 34.3616 43.1868 34.2393 43.1868H34.2189Z" fill="#111112"/>
<path d="M32.5275 49.0765C32.0995 49.0765 31.6307 48.832 31.1008 48.3021C30.9989 48.2002 30.9989 48.0371 31.1008 47.9352C31.2027 47.8333 31.3658 47.8333 31.4677 47.9352C31.9568 48.404 32.3644 48.6282 32.6702 48.5466C33.0981 48.4447 33.4242 47.7926 33.6688 46.6512C33.6892 46.5086 33.8319 46.4271 33.9745 46.4474C34.1172 46.4678 34.1987 46.6105 34.1783 46.7531C33.893 48.139 33.4446 48.8727 32.8128 49.0358C32.7313 49.0562 32.6498 49.0765 32.5478 49.0765H32.5275Z" fill="#111112"/>
<path d="M31.7326 55.4561C31.59 55.4561 31.4677 55.3338 31.4881 55.1912C31.4881 54.5186 31.6104 53.846 31.8345 53.2142C32.2014 52.1952 33.1796 51.0131 34.5248 49.9126C35.3604 49.2196 36.0329 48.8324 36.5221 48.5267C36.8889 48.3025 37.2354 48.0987 37.215 47.9968C37.215 47.8338 36.6647 47.7115 36.196 47.5892C35.2177 47.3446 33.893 47.0185 32.9555 45.8568C32.5071 45.3066 31.7938 44.0633 32.2625 43.35C32.6905 42.6775 34.0764 42.2495 41.0058 45.0009C41.1281 45.062 41.2096 45.2047 41.1485 45.3269C41.0873 45.4492 40.9446 45.5104 40.8224 45.4696C34.1375 42.7997 32.9147 43.2889 32.6905 43.615C32.446 43.9818 32.8536 44.899 33.3631 45.5308C34.1987 46.5498 35.4215 46.8759 36.3183 47.1001C37.0723 47.2835 37.6634 47.4465 37.7245 47.9357C37.7857 48.3637 37.3985 48.5878 36.787 48.9547C36.3183 49.24 35.6661 49.6273 34.8305 50.2998C33.0777 51.7265 32.4867 52.8474 32.2829 53.3977C32.0791 53.9683 31.9568 54.5797 31.9568 55.1912C31.9568 55.3338 31.8345 55.4357 31.7123 55.4357L31.7326 55.4561Z" fill="#111112"/>
<path d="M37.1538 43.6353C37.1538 43.6353 37.0723 43.6353 37.052 43.6149C36.9297 43.5538 36.8685 43.4111 36.9296 43.2685C37.1538 42.7793 37.3169 42.2902 37.4188 41.7603C37.5411 41.1285 37.5818 40.4967 37.5411 39.8445C37.5411 39.7019 37.643 39.5796 37.7856 39.5796C37.9283 39.5796 38.0506 39.6815 38.0506 39.8242C38.0913 40.5171 38.0506 41.21 37.9079 41.8622C37.7856 42.4125 37.6226 42.9628 37.378 43.4723C37.3372 43.5742 37.2354 43.6149 37.1538 43.6149V43.6353Z" fill="#111112"/>
<path fill-rule="evenodd" clip-rule="evenodd" d="M107.842 53.0436C108.683 53.9128 109.784 55.129 110.936 56.6361C114.492 61.2628 116.074 65.2565 117.992 70.1005C119.292 73.382 120.746 77.0537 123.073 81.5767C123.904 83.1963 125.225 85.6494 127.042 88.5872C127.366 88.7609 130.64 90.4534 134.164 88.7642C137.784 87.0247 138.449 83.2757 138.499 82.9433C138.574 81.3801 138.529 78.9889 137.737 76.2804C136.276 71.2321 133.219 68.2705 128.442 63.6436C126.809 62.0625 124.976 60.287 122.937 58.1673C120.883 56.024 118.039 52.9361 114.81 48.9558C114.666 47.3233 114.491 45.5252 114.27 43.5815C114.075 41.7576 113.58 37.6692 111.603 35.1972C111.347 34.8737 110.283 33.6039 109.591 33.8546C109.388 33.9265 109.281 34.102 109.186 34.257C109.096 34.4047 109.018 34.5338 108.878 34.5372C108.655 34.5407 108.541 34.2166 108.395 33.8011C108.206 33.2663 107.965 32.58 107.368 32.2455C106.502 31.7553 105.045 32.1408 104.624 32.8772C104.558 32.9958 104.521 33.1187 104.49 33.2224C104.447 33.3646 104.416 33.4705 104.334 33.4784C104.224 33.4889 104.153 33.3092 104.058 33.0693C103.924 32.7305 103.742 32.2718 103.338 32.0588C102.735 31.7481 101.825 32.0811 101.344 32.6185C100.954 33.0479 100.87 33.5396 100.818 33.8433C100.789 34.0155 100.77 34.1273 100.711 34.1329C100.563 34.1471 100.422 33.5496 100.189 32.5661C99.7203 30.5859 98.8813 27.0409 96.8716 23.7726C95.9751 22.3231 95.7297 22.3261 95.6505 22.3542C95.4129 22.4384 95.3003 23.1863 97.295 32.884C97.4552 33.6725 97.6422 34.3347 97.8158 34.9495C98.1463 36.1197 98.4284 37.1185 98.3856 38.4917C98.3414 39.6881 98.1412 40.3644 97.9757 40.9233C97.8003 41.5162 97.6639 41.977 97.7942 42.7865C98.2453 45.5687 102.762 48.9028 102.762 48.9028C104.162 49.9187 105.875 51.2612 107.842 53.0436Z" fill="url(#paint4_radial_106_6947)"/>
<path d="M109.665 41.8937C110.213 41.8411 110.863 41.1441 111.681 37.0733C111.708 36.9274 111.613 36.7931 111.487 36.7642C111.341 36.7373 111.207 36.832 111.178 36.9577C110.342 41.0508 109.737 41.3545 109.595 41.3681C109.307 41.3548 108.95 40.4063 108.787 39.9919C108.233 38.489 108.159 36.8582 108.584 35.0976C108.611 34.9517 108.536 34.8155 108.39 34.7886C108.265 34.7597 108.108 34.8361 108.081 34.982C107.646 36.846 107.71 38.5801 108.291 40.1623C108.57 40.934 108.927 41.8826 109.562 41.8831C109.582 41.8812 109.623 41.8773 109.643 41.8753L109.665 41.8937Z" fill="#111112"/>
<path d="M104.722 37.3105C104.864 37.2969 104.974 37.1635 104.94 37.0234C104.848 36.0699 104.743 34.9744 104.649 33.7755C104.635 33.6334 104.522 33.5214 104.38 33.5351C104.238 33.5487 104.126 33.6618 104.14 33.8038C104.216 35.025 104.321 36.1205 104.435 37.0923C104.448 37.2343 104.58 37.3241 104.701 37.3124L104.722 37.3105Z" fill="#111112"/>
<path d="M106.968 43.0117C107.394 42.9708 107.837 42.6827 108.314 42.1046C108.406 41.9934 108.39 41.8311 108.279 41.7394C108.168 41.6477 108.006 41.6633 107.914 41.7744C107.472 42.2877 107.087 42.5498 106.775 42.4978C106.339 42.4373 105.953 41.8192 105.6 40.7064C105.566 40.5664 105.417 40.4988 105.276 40.5328C105.136 40.5667 105.069 40.7165 105.103 40.8565C105.519 42.2088 106.035 42.8964 106.68 42.9984C106.763 43.0109 106.846 43.0234 106.948 43.0136L106.968 43.0117Z" fill="#111112"/>
<path d="M108.368 49.2863C108.51 49.2727 108.62 49.1393 108.586 48.9993C108.522 48.3298 108.336 47.672 108.053 47.0644C107.59 46.0851 106.504 45.0018 105.059 44.0347C104.162 43.4247 103.455 43.1034 102.939 42.8458C102.552 42.6576 102.188 42.4878 102.199 42.3845C102.183 42.2222 102.719 42.0479 103.174 41.8814C104.125 41.5446 105.412 41.0935 106.234 39.8476C106.628 39.2571 107.22 37.9514 106.685 37.2861C106.195 36.6575 104.774 36.3638 98.1392 39.7641C98.0233 39.8366 97.9558 39.9864 98.0283 40.1023C98.1008 40.2182 98.2487 40.2654 98.3665 40.2132C104.766 36.9174 106.03 37.2875 106.284 37.5907C106.563 37.9326 106.244 38.8844 105.798 39.562C105.063 40.6561 103.877 41.0974 103.006 41.4062C102.273 41.6608 101.7 41.8795 101.686 42.3722C101.666 42.8041 102.072 42.9903 102.716 43.2971C103.21 43.5364 103.896 43.8596 104.792 44.4493C106.673 45.7021 107.368 46.7615 107.624 47.2898C107.881 47.8384 108.061 48.4354 108.12 49.044C108.133 49.186 108.265 49.2758 108.386 49.2641L108.368 49.2863Z" fill="#111112"/>
<path d="M101.843 38.0375C101.843 38.0375 101.924 38.0297 101.943 38.0075C102.059 37.9349 102.106 37.7871 102.031 37.6509C101.762 37.1854 101.553 36.7141 101.4 36.1963C101.218 35.5791 101.118 34.954 101.096 34.301C101.082 34.1589 100.969 34.0469 100.827 34.0606C100.685 34.0742 100.573 34.1873 100.587 34.3293C100.612 35.023 100.719 35.7089 100.923 36.3444C101.098 36.8805 101.312 37.4127 101.605 37.8966C101.655 37.9941 101.76 38.025 101.841 38.0172L101.843 38.0375Z" fill="#111112"/>
<path d="M64.953 40.497L64.8511 40.8027C64.5046 41.9644 64.3009 42.6777 64.1786 43.2484C63.934 44.2674 63.9747 44.4712 63.7709 45.103C63.4245 46.122 63.078 46.3462 62.6908 47.2226C62.3239 48.0786 62.222 48.7715 62.1201 49.6683C61.5698 54.2947 61.2845 56.6181 62.2831 58.4931C64.8715 63.3233 74.7765 62.6711 78.5061 60.7757C80.2793 59.879 81.7058 58.5542 81.7058 58.5542C82.5415 57.7594 83.1937 56.9645 83.6624 56.3124C84.7222 54.7227 85.9043 52.6235 86.8214 50.0351C88.4111 45.6125 88.5741 41.6791 88.4722 39.1111C87.3717 37.766 84.1515 34.1994 78.608 32.6505C73.5536 31.2238 69.3348 32.2429 67.6432 32.7524C66.9707 34.4847 66.1962 36.5839 65.4218 39.0092C65.2587 39.4983 65.116 39.9875 64.953 40.497Z" fill="url(#paint5_radial_106_6947)"/>
<path d="M76.631 48.5672C76.5088 48.5672 76.4069 48.4857 76.3865 48.343C76.2031 47.1406 75.4082 46.1827 74.3688 45.9177C73.5128 45.6935 72.7587 46.0196 72.4734 46.1623C72.3511 46.2234 72.1881 46.1623 72.1269 46.0604C72.0658 45.9381 72.1269 45.7751 72.2288 45.7139C72.6568 45.4897 73.5128 45.1637 74.4911 45.4286C75.7139 45.7547 76.6514 46.8756 76.8756 48.2819C76.8756 48.4246 76.7941 48.5468 76.6514 48.5672H76.6106H76.631Z" fill="#111112"/>
<path d="M74.7561 46.896C74.5523 47.5482 73.9001 47.9354 73.3091 47.752C72.718 47.5686 72.3919 46.896 72.5957 46.2438C72.7995 45.5917 73.4518 45.2044 74.0428 45.3879C74.6338 45.5713 74.9599 46.2438 74.7561 46.896Z" fill="#111112"/>
<path d="M67.9489 45.7142C67.8266 45.7142 67.7247 45.6327 67.7043 45.49C67.5209 44.2875 66.7261 43.3297 65.6867 43.0647C64.8715 42.8609 64.1581 43.1259 63.7913 43.3093C63.669 43.3704 63.5059 43.3093 63.4448 43.2074C63.3837 43.0851 63.4448 42.922 63.5467 42.8609C63.9747 42.6367 64.8103 42.3106 65.809 42.5756C67.0318 42.9017 67.9693 44.0226 68.1935 45.4289C68.1935 45.5715 68.112 45.6938 67.9693 45.7142H67.9286H67.9489Z" fill="#111112"/>
<path d="M66.0738 44.0425C65.87 44.6947 65.2179 45.0819 64.6268 44.8985C64.0358 44.7151 63.7097 44.0425 63.9135 43.3903C64.1173 42.7382 64.7695 42.3509 65.3605 42.5343C65.9515 42.7178 66.2776 43.3903 66.0738 44.0425Z" fill="#111112"/>
<path d="M78.6485 44.5342C78.6485 44.5342 78.241 44.0858 77.7926 43.8005C77.0385 43.3113 75.2654 42.5776 72.8401 41.9051C72.8197 41.7013 72.779 41.151 73.0847 40.56C73.3496 40.0708 73.7368 39.7855 73.8999 39.6836C75.2858 40.56 76.3659 41.0695 77.1404 41.4159C77.4257 41.5382 78.3021 41.9051 79.1173 42.6999C79.5045 43.0872 79.6268 43.3317 79.688 43.454C80.0956 44.3304 79.7288 45.2679 79.5861 45.5736C79.3619 45.2883 79.0358 44.9418 78.6282 44.5342H78.6485Z" fill="#111112"/>
<path d="M64.953 40.4969L64.8511 40.8026C65.7682 41.2103 66.9706 41.8421 68.3361 42.6777C68.4992 42.5554 68.9272 42.2089 69.1514 41.5771C69.3348 41.0472 69.2737 40.5785 69.2533 40.3747C67.684 39.9263 66.563 39.4983 65.7886 39.1518C65.707 39.1111 65.5848 39.0499 65.4013 38.9888C65.2383 39.4779 65.0957 39.967 64.9326 40.4766L64.953 40.4969Z" fill="#111112"/>
<path d="M66.889 51.6037C66.7667 51.6445 65.9515 51.889 65.1771 51.3999C64.6879 51.0942 64.4841 50.6254 64.4026 50.4624L66.889 51.6241V51.6037Z" fill="#111112"/>
<path d="M65.1771 57.0249C65.1771 57.0249 65.116 57.0249 65.0753 57.0045L63.7301 56.4135C63.6078 56.3523 63.5467 56.2097 63.6078 56.0874C63.669 55.9651 63.8116 55.9039 63.9339 55.9447L65.279 56.5357C65.4013 56.5969 65.4624 56.7395 65.4013 56.8618C65.3605 56.9637 65.2587 57.0249 65.1771 57.0249Z" fill="#111112"/>
<path d="M67.1053 55.4056C66.9831 55.4056 66.8608 55.4056 66.7181 55.4056C66.3513 55.3853 65.6787 55.2834 64.3336 55.0999C63.661 54.998 63.1311 54.9165 62.7643 54.8554C62.6216 54.835 62.5401 54.7127 62.5605 54.57C62.5605 54.4274 62.7031 54.3255 62.8458 54.3662C63.2127 54.4274 63.7426 54.5089 64.3947 54.5904C65.7399 54.7942 66.4124 54.8757 66.7589 54.8961C67.7983 54.9776 68.8988 54.7331 70.0605 54.2032C70.1828 54.142 70.3459 54.2032 70.407 54.3255C70.4681 54.4478 70.407 54.6108 70.2847 54.6719C69.2046 55.1611 68.1448 55.426 67.1257 55.426L67.1053 55.4056Z" fill="#111112"/>
<path d="M64.4842 33.1594C65.279 33.9543 66.3999 33.1798 67.847 33.9747C68.703 34.4434 69.0494 35.1364 69.3755 35.5847C71.4747 38.4584 76.9979 35.7478 79.6881 38.3973C82.6637 41.3321 81.1759 47.3443 82.8879 47.6297C83.6216 47.752 84.1311 46.7737 84.5998 46.9775C85.9042 47.5889 82.8063 55.9653 83.6419 56.3118C83.9273 56.4341 84.498 55.5781 86.5972 52.3987C90.0822 47.0998 90.4287 46.4884 90.6529 45.4286C91.2643 42.5345 90.2045 40.0685 89.6338 38.7437C86.2507 30.8972 76.3253 27.6974 73.2275 28.5127C72.453 28.7165 70.8633 29.4909 69.2532 28.8999C68.7845 28.7165 68.1935 28.3904 67.6228 28.6349C67.0725 28.8795 67.154 29.389 66.5426 29.8578C65.707 30.51 64.9325 29.9597 64.3822 30.51C63.7912 31.0806 63.8116 32.5073 64.4842 33.2002V33.1594Z" fill="#111112"/>
<path d="M122.182 84.7224C122.182 84.7224 122.039 84.6817 121.978 84.6409L118.146 80.096C118.065 79.9941 118.065 79.8311 118.167 79.7292C118.269 79.6477 118.432 79.6477 118.534 79.7699L122.365 84.3148C122.447 84.4167 122.447 84.5798 122.345 84.6817C122.304 84.7224 122.243 84.7428 122.182 84.7428V84.7224Z" fill="#111112"/>
<path d="M19.0354 92.7526C18.8112 92.6915 18.7501 92.5488 18.7908 92.4062L22.7651 80.8708C22.8058 80.7281 22.9485 80.6669 23.0911 80.7077C23.2338 80.7485 23.2949 80.8911 23.2542 81.0338L19.28 92.5692C19.2392 92.6711 19.1373 92.7323 19.0354 92.7323V92.7526Z" fill="#111112"/>
<path d="M95.6462 45.8567C95.6462 45.8567 95.5036 45.816 95.4424 45.7548L90.9791 40.3744C90.8975 40.2724 90.8975 40.1094 91.0198 40.0075C91.1217 39.926 91.2847 39.926 91.3866 40.0483L95.85 45.4287C95.9315 45.5306 95.9315 45.6937 95.8093 45.7956C95.7685 45.8364 95.7074 45.8567 95.6462 45.8567Z" fill="#111112"/>
<path d="M97.297 41.8616C97.297 41.8616 97.2155 41.8616 97.1747 41.8208L90.2249 37.6428C90.1026 37.5612 90.0618 37.4186 90.1434 37.2963C90.2249 37.174 90.3675 37.1333 90.4898 37.2148L97.4396 41.3928C97.5619 41.4743 97.6027 41.617 97.5211 41.7393C97.4804 41.8208 97.3785 41.8616 97.297 41.8616Z" fill="#111112"/>
<path d="M85.8227 38.7032C85.7208 38.7032 85.6189 38.6217 85.5781 38.5198C85.5374 38.3771 85.6189 38.2345 85.7615 38.2141L89.3485 37.1951C89.4708 37.1543 89.6135 37.2358 89.6542 37.3785C89.695 37.5212 89.6134 37.6638 89.4708 37.6842L85.8838 38.7032C85.8838 38.7032 85.8431 38.7032 85.8227 38.7032Z" fill="#111112"/>
<path d="M96.0945 56.0063C95.9926 56.0063 95.8907 55.9451 95.8499 55.8432L93.5877 49.4029C93.547 49.2603 93.6081 49.1176 93.7507 49.0768C93.8934 49.0361 94.0361 49.0972 94.0768 49.2399L96.3391 55.6802C96.3799 55.8228 96.3187 55.9655 96.176 56.0063C96.1557 56.0063 96.1149 56.0063 96.0945 56.0063Z" fill="#111112"/>
<path d="M23.9269 35.5029C35.2585 35.7474 46.6105 35.992 57.9422 36.2366C52.5413 25.4349 47.1608 14.6128 41.7599 3.81104C35.8088 14.3682 29.8576 24.9253 23.9269 35.4825V35.5029Z" fill="#5CD9EA"/>
<path d="M114.784 65.931C122.671 66.094 130.538 66.2774 138.425 66.4405C134.675 58.9404 130.925 51.42 127.175 43.9199C123.038 51.2569 118.921 58.594 114.784 65.931Z" fill="#111112"/>
<path d="M113.479 53.3358C122.732 38.5394 118.208 18.9944 103.411 9.74163C88.615 0.488833 69.0699 5.01333 59.8171 19.8097L68.6216 25.3124C74.8377 15.3667 87.9628 12.3503 97.9085 18.5461C107.854 24.7621 110.871 37.8873 104.675 47.833L113.479 53.3358Z" fill="#E8E8E8"/>
<path d="M122.141 34.1577C122.141 38.4376 125.606 41.9023 129.886 41.9023C134.166 41.9023 137.63 38.4376 137.63 34.1577C137.63 29.8778 134.166 26.4131 129.886 26.4131C125.606 26.4131 122.141 29.8778 122.141 34.1577Z" fill="#FFBF3E"/>
<path d="M133.35 49.9934C133.208 49.7488 133.269 49.4431 133.513 49.3004C133.758 49.1578 134.064 49.2189 134.206 49.4635C134.369 49.708 134.288 50.0138 134.043 50.1564C133.962 50.2176 133.88 50.2379 133.778 50.2379C133.615 50.2379 133.432 50.1564 133.35 49.9934ZM135.042 48.8521C134.858 48.6279 134.879 48.3018 135.103 48.1387C135.307 47.9553 135.633 47.9757 135.816 48.1795C136 48.4037 135.959 48.7298 135.755 48.9132C135.653 48.9947 135.531 49.0355 135.429 49.0355C135.286 49.0355 135.144 48.9743 135.042 48.8521ZM136.55 47.4866C136.346 47.2827 136.326 46.9567 136.509 46.7529C136.713 46.549 137.019 46.5287 137.243 46.7529C137.447 46.9363 137.447 47.2624 137.243 47.4662C137.141 47.5681 137.019 47.6292 136.876 47.6292C136.754 47.6292 136.632 47.5885 136.53 47.5069L136.55 47.4866ZM137.875 45.9376C137.651 45.7746 137.589 45.4485 137.752 45.2243C137.915 45.0001 138.221 44.939 138.466 45.102C138.69 45.2447 138.751 45.5708 138.588 45.795C138.486 45.958 138.323 46.0192 138.16 46.0192C138.058 46.0192 137.956 45.9988 137.875 45.9376ZM138.975 44.2257C138.731 44.083 138.629 43.7773 138.751 43.5327C138.873 43.2882 139.179 43.1862 139.444 43.3085C139.689 43.4308 139.791 43.7365 139.668 44.0015C139.566 44.1645 139.403 44.2664 139.2 44.2664C139.138 44.2664 139.057 44.246 138.975 44.2257ZM139.831 42.371C139.566 42.2691 139.403 41.9838 139.505 41.7188C139.587 41.4539 139.872 41.3112 140.137 41.3928C140.402 41.4743 140.545 41.7596 140.463 42.0246C140.402 42.2487 140.198 42.3914 139.974 42.3914C139.933 42.3914 139.872 42.3914 139.831 42.3914V42.371ZM140.382 40.4145C140.096 40.3533 139.913 40.0884 139.954 39.8235C139.994 39.5381 140.259 39.3547 140.524 39.3955C140.81 39.4362 140.993 39.7012 140.952 39.9865C140.911 40.2311 140.708 40.4145 140.463 40.4145H140.382ZM140.076 37.8873C140.076 37.602 140.3 37.3574 140.585 37.3574C140.85 37.3574 141.095 37.5816 141.095 37.8669C141.095 38.1319 140.871 38.3764 140.606 38.3764C140.32 38.3764 140.076 38.1522 140.076 37.8873ZM139.913 35.9104C139.852 35.6454 140.055 35.3805 140.32 35.3397C140.606 35.299 140.871 35.4824 140.911 35.7677C140.952 36.0327 140.769 36.2976 140.483 36.3384C140.157 36.3384 139.933 36.1753 139.913 35.9104ZM139.485 33.9946C139.403 33.7296 139.546 33.4443 139.831 33.3628C140.096 33.2813 140.382 33.4443 140.463 33.7093C140.545 33.9742 140.382 34.2595 140.117 34.3411C140.055 34.3411 140.015 34.3411 139.974 34.3411C139.75 34.3411 139.546 34.1984 139.485 33.9742V33.9946ZM138.792 32.1603C138.67 31.8954 138.792 31.5897 139.036 31.4674C139.301 31.3655 139.607 31.4674 139.709 31.7323C139.831 31.9973 139.709 32.2826 139.464 32.4049C139.403 32.4253 139.322 32.4457 139.261 32.4457C139.057 32.4457 138.873 32.3438 138.792 32.1603ZM137.854 30.428C137.691 30.2038 137.773 29.8777 137.997 29.735C138.242 29.572 138.547 29.6331 138.71 29.8777C138.853 30.1223 138.792 30.428 138.547 30.591C138.466 30.6318 138.364 30.6726 138.282 30.6726C138.119 30.6726 137.956 30.591 137.854 30.428ZM136.672 28.8791C136.468 28.6753 136.489 28.3492 136.713 28.1657C136.917 27.9619 137.243 27.9823 137.426 28.2065C137.61 28.4103 137.589 28.7364 137.386 28.9198C137.284 29.0013 137.161 29.0421 137.039 29.0421C136.897 29.0421 136.754 28.981 136.672 28.8791ZM135.246 27.5136C135.042 27.3301 135.001 27.004 135.185 26.8002C135.368 26.5761 135.694 26.5557 135.898 26.7391C136.122 26.9021 136.142 27.2282 135.979 27.4524C135.877 27.5747 135.735 27.6358 135.572 27.6358C135.47 27.6358 135.348 27.5951 135.246 27.5136ZM133.656 26.3722C133.411 26.2296 133.35 25.9239 133.493 25.6793C133.636 25.4347 133.941 25.3532 134.186 25.4959C134.43 25.6589 134.512 25.9646 134.349 26.2092C134.267 26.3722 134.084 26.4538 133.921 26.4538C133.839 26.4538 133.738 26.4538 133.656 26.3722ZM131.924 25.4755C131.659 25.3532 131.536 25.0475 131.638 24.8029C131.761 24.538 132.066 24.4157 132.311 24.538C132.576 24.6399 132.698 24.9456 132.576 25.2106C132.494 25.394 132.311 25.5163 132.127 25.5163C132.046 25.5163 131.985 25.4959 131.924 25.4755ZM130.049 24.8029C129.784 24.7418 129.621 24.4565 129.702 24.1711C129.784 23.9062 130.069 23.7431 130.334 23.8247C130.599 23.9062 130.762 24.1915 130.68 24.4565C130.619 24.6807 130.415 24.8233 130.191 24.8233C130.15 24.8233 130.11 24.8233 130.049 24.8029ZM121.631 24.1711C121.57 23.9062 121.754 23.6209 122.019 23.5801C122.304 23.519 122.569 23.682 122.63 23.9673C122.691 24.2323 122.508 24.5176 122.243 24.5584C122.202 24.5788 122.161 24.5788 122.121 24.5788C121.896 24.5788 121.672 24.4157 121.631 24.1711ZM128.133 24.3953C127.847 24.3546 127.664 24.0896 127.705 23.8043C127.746 23.5393 128.011 23.3355 128.275 23.3763C128.561 23.4171 128.744 23.682 128.703 23.9673C128.703 24.2119 128.459 24.3953 128.214 24.3953H128.133ZM123.629 23.8043C123.629 23.5393 123.812 23.2948 124.097 23.254C124.383 23.2336 124.627 23.4374 124.648 23.7228C124.668 24.0081 124.464 24.2527 124.199 24.273C123.873 24.273 123.649 24.0692 123.629 23.8043ZM126.176 24.2119C125.891 24.2119 125.667 23.9673 125.667 23.682C125.667 23.4171 125.911 23.1929 126.197 23.1929C126.482 23.1929 126.686 23.4374 126.686 23.7228C126.686 23.9877 126.462 24.2119 126.176 24.2119Z" fill="#111112"/>
<path d="M106.733 33.5873C106.733 33.3019 106.937 33.0778 107.222 33.0574C107.508 33.0574 107.752 33.2612 107.752 33.5465C107.773 33.8318 107.549 34.056 107.284 34.0764C106.978 34.0764 106.754 33.8726 106.733 33.5873ZM105.184 34.056C104.899 34.056 104.675 33.7911 104.695 33.5057C104.716 33.2204 104.96 33.0166 105.246 33.037C105.531 33.0574 105.735 33.3019 105.714 33.5873C105.714 33.8522 105.47 34.056 105.205 34.056H105.184ZM108.771 33.4446C108.731 33.1593 108.914 32.8943 109.199 32.8536C109.485 32.8128 109.729 33.0166 109.79 33.2816C109.831 33.5669 109.627 33.8318 109.362 33.8726C109.036 33.8726 108.812 33.6892 108.771 33.4446ZM103.106 33.7707C102.82 33.7299 102.637 33.465 102.698 33.1797C102.739 32.9147 103.004 32.7313 103.289 32.772C103.554 32.8332 103.737 33.0981 103.697 33.3631C103.656 33.6077 103.432 33.7911 103.187 33.7911C103.167 33.7911 103.126 33.7911 103.106 33.7707ZM110.789 33.0778C110.708 32.7924 110.871 32.5275 111.136 32.446C111.4 32.3644 111.686 32.5275 111.767 32.8128C111.828 33.0778 111.665 33.3631 111.4 33.4242C111.36 33.4446 111.319 33.4446 111.278 33.4446C111.054 33.4446 110.85 33.3019 110.789 33.0778ZM101.067 33.2612C100.803 33.1797 100.64 32.8943 100.741 32.6294C100.823 32.3644 101.108 32.2218 101.373 32.3033C101.638 32.3848 101.781 32.6701 101.699 32.9351C101.638 33.1593 101.434 33.3019 101.21 33.3019C101.169 33.3019 101.108 33.3019 101.067 33.2612ZM112.725 32.4867C112.623 32.2218 112.766 31.9161 113.011 31.8142C113.275 31.7326 113.581 31.8549 113.683 32.1199C113.785 32.3644 113.642 32.6701 113.398 32.772C113.337 32.772 113.275 32.8128 113.194 32.8128C112.99 32.8128 112.807 32.6905 112.725 32.4867ZM99.111 32.5275C98.846 32.4052 98.7441 32.0995 98.846 31.8345C98.9683 31.59 99.274 31.4677 99.5186 31.59C99.7835 31.7123 99.9058 32.018 99.7836 32.2625C99.702 32.446 99.4982 32.5682 99.3148 32.5682C99.2536 32.5682 99.1721 32.5682 99.111 32.5275ZM114.6 31.6919C114.478 31.4473 114.6 31.1416 114.824 30.9989C115.069 30.8766 115.375 30.9989 115.517 31.2231C115.64 31.4677 115.517 31.7734 115.293 31.9161C115.232 31.9568 115.13 31.9568 115.069 31.9568C114.886 31.9568 114.702 31.8753 114.6 31.6919ZM97.2563 31.5288C97.0117 31.3862 96.9303 31.0805 97.0933 30.8359C97.236 30.5913 97.5417 30.5098 97.7862 30.6728C98.0308 30.8155 98.0919 31.1212 97.9492 31.3658C97.8677 31.5288 97.6843 31.6104 97.5213 31.6104C97.4194 31.6104 97.3378 31.6103 97.2563 31.5288ZM116.394 30.7136C116.231 30.469 116.312 30.1633 116.536 30.0003C116.781 29.8372 117.087 29.9188 117.25 30.1429C117.392 30.3875 117.331 30.6932 117.087 30.8563C117.005 30.9174 116.924 30.9378 116.822 30.9378C116.659 30.9378 116.496 30.8563 116.394 30.7136ZM95.524 30.3468C95.3201 30.1633 95.2794 29.8372 95.4425 29.6334C95.6259 29.4092 95.9316 29.3685 96.1558 29.5315C96.38 29.715 96.4207 30.041 96.2577 30.2448C96.1558 30.3875 95.9927 30.4487 95.85 30.4487C95.7278 30.4487 95.6259 30.4079 95.524 30.3468ZM118.065 29.5519C117.882 29.3277 117.922 29.0016 118.146 28.8182C118.35 28.6552 118.676 28.6755 118.86 28.8997C119.023 29.1239 119.002 29.4296 118.778 29.613C118.697 29.6946 118.574 29.7353 118.452 29.7353C118.309 29.7353 118.167 29.6742 118.065 29.5519ZM93.9547 28.9609C93.7509 28.7571 93.7509 28.431 93.9547 28.2272C94.1585 28.0234 94.4846 28.0234 94.668 28.2272C94.8718 28.431 94.8718 28.7367 94.668 28.9405C94.5661 29.0424 94.4234 29.1035 94.3012 29.1035C94.1585 29.1035 94.0362 29.0424 93.9343 28.9609H93.9547ZM119.614 28.2272C119.41 28.0234 119.41 27.6973 119.614 27.4935C119.818 27.31 120.144 27.31 120.327 27.4935C120.531 27.6973 120.531 28.0234 120.327 28.2272C120.225 28.3087 120.103 28.3698 119.981 28.3698C119.838 28.3698 119.716 28.3087 119.614 28.2272ZM92.5484 27.4119C92.3854 27.1878 92.4058 26.8617 92.6299 26.6986C92.8337 26.5152 93.1598 26.5356 93.3433 26.7598C93.5267 26.984 93.4859 27.31 93.2821 27.4731C93.1802 27.5546 93.0579 27.5954 92.956 27.5954C92.793 27.5954 92.6503 27.5342 92.5484 27.4119ZM91.3052 25.7204C91.1422 25.4962 91.2236 25.1701 91.4478 25.007C91.6924 24.8644 91.9981 24.9255 92.1612 25.1497C92.3242 25.3943 92.2427 25.7 92.0185 25.863C91.937 25.9242 91.8351 25.9445 91.7332 25.9445C91.5701 25.9445 91.4071 25.863 91.3052 25.7204ZM90.2454 23.9269C90.1027 23.6823 90.2046 23.3766 90.4492 23.2339C90.7141 23.1116 91.0198 23.2339 91.1421 23.4581C91.2848 23.7027 91.1829 24.0084 90.9383 24.151C90.8568 24.1918 90.7753 24.1918 90.6938 24.1918C90.5103 24.1918 90.3269 24.1103 90.2454 23.9269Z" fill="#111112"/>
<path d="M40.9855 18.5869C40.7205 18.4647 40.6186 18.1589 40.7409 17.9144C40.8836 17.6494 41.1893 17.5475 41.4339 17.6902C41.6784 17.8125 41.7803 18.1182 41.658 18.3628C41.5765 18.5462 41.3931 18.6481 41.2096 18.6481C41.1281 18.6481 41.0466 18.6481 40.9855 18.5869ZM41.923 16.7934C41.6784 16.6508 41.5969 16.3247 41.7395 16.0801C41.8822 15.8559 42.2083 15.7744 42.4529 15.9171C42.6771 16.0597 42.7586 16.3654 42.6159 16.61C42.5344 16.7731 42.351 16.8546 42.1879 16.8546C42.086 16.8546 42.0045 16.8342 41.923 16.7934ZM43.0031 15.0611C42.7789 14.898 42.7178 14.572 42.8809 14.3478C43.0439 14.1236 43.3496 14.0624 43.5942 14.2255C43.8184 14.3885 43.8795 14.6942 43.7165 14.9388C43.6146 15.0815 43.4515 15.1426 43.2885 15.1426C43.1866 15.1426 43.0847 15.1222 43.0031 15.0611ZM44.2056 13.4103C43.9814 13.2268 43.961 12.9007 44.124 12.6969C44.3075 12.4728 44.6336 12.432 44.8374 12.6154C45.0616 12.7988 45.1023 13.1249 44.9189 13.3287C44.817 13.451 44.6743 13.5325 44.5317 13.5325C44.4094 13.5325 44.2871 13.4918 44.2056 13.4103ZM45.51 11.8613C45.3265 11.6575 45.3062 11.3314 45.51 11.1276C45.6934 10.9238 46.0195 10.9238 46.2233 11.1276C46.4271 11.3111 46.4271 11.6371 46.2233 11.841C46.1214 11.9429 45.9787 12.004 45.8564 12.004C45.7341 12.004 45.5915 11.9429 45.4896 11.8613H45.51ZM77.7317 10.8627C77.5483 10.6385 77.5687 10.3328 77.7929 10.1494C77.9967 9.96594 78.3228 9.98632 78.5062 10.2105C78.6896 10.4143 78.6489 10.7404 78.445 10.9238C78.3431 11.0053 78.2209 11.0461 78.119 11.0461C77.9763 11.0461 77.8336 10.985 77.7317 10.8627ZM46.957 10.4143C46.7736 10.2105 46.7939 9.88442 46.9977 9.70099C47.2015 9.49718 47.5276 9.51756 47.7111 9.72137C47.8945 9.94556 47.8741 10.2716 47.6703 10.4551C47.5888 10.5366 47.4665 10.5774 47.3442 10.5774C47.2016 10.5774 47.0589 10.5162 46.957 10.4143ZM76.3662 9.39528C76.1624 9.21185 76.1624 8.88577 76.3662 8.68196C76.57 8.47815 76.8757 8.47815 77.0795 8.68196C77.2833 8.86538 77.2833 9.19147 77.0795 9.39528C76.9776 9.49718 76.835 9.53794 76.7127 9.53794C76.57 9.53794 76.4478 9.49718 76.3458 9.39528H76.3662ZM48.5059 9.08957C48.3225 8.86538 48.3836 8.53929 48.6078 8.37625C48.8116 8.19282 49.1377 8.23359 49.3211 8.45777C49.4842 8.68196 49.4434 9.00805 49.2192 9.17109C49.1173 9.25262 49.0154 9.29338 48.9135 9.29338C48.7505 9.29338 48.6078 9.21185 48.5059 9.08957ZM74.8784 8.07054C74.6746 7.9075 74.6339 7.58141 74.8173 7.35722C74.9803 7.15341 75.3064 7.11265 75.5306 7.2757C75.7344 7.45912 75.7751 7.78521 75.5917 8.0094C75.4898 8.13168 75.3471 8.19282 75.2045 8.19282C75.0822 8.19282 74.9803 8.15206 74.8784 8.07054ZM50.1567 7.88711C49.9937 7.64255 50.0549 7.33684 50.2994 7.17379C50.544 7.03113 50.8497 7.09227 51.0127 7.33684C51.1554 7.56103 51.0943 7.88712 50.8497 8.02978C50.7682 8.09092 50.6662 8.1113 50.5847 8.1113C50.4013 8.1113 50.2383 8.02978 50.1567 7.88711ZM51.8891 6.82732C51.7465 6.56238 51.8279 6.25667 52.0929 6.114C52.3171 5.99172 52.6432 6.07324 52.7655 6.31781C52.9081 6.56238 52.8266 6.86808 52.582 7.01075C52.5005 7.05151 52.419 7.07189 52.3375 7.07189C52.1541 7.07189 51.9706 6.99037 51.8891 6.82732ZM73.2684 6.90885C73.0442 6.7458 72.983 6.44009 73.1257 6.19552C73.2887 5.97134 73.5944 5.9102 73.839 6.05286C74.0632 6.2159 74.1447 6.52161 73.9817 6.76618C73.8798 6.90885 73.7167 6.99037 73.5537 6.99037C73.4518 6.99037 73.3703 6.96999 73.2684 6.90885ZM53.6826 5.84905C53.5603 5.58411 53.6622 5.2784 53.9272 5.15611C54.1717 5.03383 54.4774 5.15611 54.5997 5.40068C54.722 5.66563 54.6201 5.97134 54.3552 6.09362C54.294 6.09362 54.2125 6.13438 54.1309 6.13438C53.9475 6.13438 53.7641 6.03248 53.6826 5.84905ZM71.5564 5.9102C71.3118 5.76753 71.2099 5.46182 71.3526 5.21725C71.4749 4.97269 71.7805 4.87078 72.0251 4.99307C72.2901 5.13573 72.3716 5.44144 72.2493 5.68601C72.1678 5.86943 71.9844 5.97134 71.8009 5.97134C71.7194 5.97134 71.6379 5.95096 71.5564 5.9102ZM55.5372 4.99307C55.4353 4.72812 55.5576 4.44279 55.8226 4.34089C56.0875 4.23899 56.3932 4.36127 56.4748 4.62622C56.5767 4.89117 56.4747 5.17649 56.1894 5.2784C56.1283 5.31916 56.0671 5.31916 56.006 5.31916C55.8022 5.31916 55.6187 5.19687 55.5372 4.99307ZM69.7629 5.09497C69.4979 4.99307 69.3553 4.70774 69.4572 4.44279C69.5591 4.17784 69.8648 4.03518 70.1297 4.13708C70.3947 4.23899 70.517 4.54469 70.4151 4.80964C70.3336 5.01345 70.1501 5.13573 69.9463 5.13573C69.8852 5.13573 69.824 5.11535 69.7629 5.09497ZM57.453 4.30013C57.3715 4.03518 57.5345 3.74985 57.7995 3.66833C58.0644 3.58681 58.3498 3.74985 58.4313 4.0148C58.4924 4.30013 58.3497 4.56508 58.0848 4.6466C58.0236 4.66698 57.9829 4.66698 57.9422 4.66698C57.718 4.66698 57.5141 4.52431 57.453 4.30013ZM67.8675 4.48355C67.6026 4.40203 67.4395 4.13708 67.5006 3.85175C67.5821 3.58681 67.8675 3.42376 68.1325 3.50528C68.3974 3.56643 68.5604 3.85175 68.4993 4.1167C68.4382 4.34089 68.2343 4.50393 68.0101 4.50393C67.9694 4.50393 67.9286 4.50393 67.8675 4.50393V4.48355ZM59.4299 3.79061C59.3688 3.50528 59.5522 3.24034 59.8375 3.19957C60.1025 3.13843 60.3674 3.32186 60.4285 3.60719C60.4693 3.89252 60.2859 4.13708 60.021 4.19822C59.6745 4.19822 59.4707 4.03518 59.4299 3.79061ZM65.9313 4.07594C65.646 4.03518 65.4626 3.79061 65.5033 3.50528C65.5441 3.21996 65.8091 3.03653 66.074 3.07729C66.3593 3.11805 66.5631 3.383 66.502 3.64795C66.4816 3.9129 66.2574 4.09632 66.0129 4.09632C65.9721 4.09632 65.9517 4.09632 65.9313 4.09632V4.07594ZM61.4272 3.46452C61.4272 3.19957 61.631 2.95501 61.8959 2.91425C62.1813 2.89387 62.4259 3.11805 62.4463 3.40338C62.4463 3.66833 62.2628 3.9129 61.9775 3.93328C61.6922 3.93328 61.4476 3.74985 61.4272 3.46452ZM63.9544 3.9129C63.6691 3.9129 63.4653 3.64795 63.4653 3.383C63.4653 3.09767 63.7098 2.87348 63.9951 2.89387C64.2805 2.89387 64.5047 3.11805 64.4843 3.40338C64.4843 3.68871 64.2601 3.9129 63.9748 3.9129H63.9544Z" fill="#111112"/>
<path d="M49.6676 28.0843C49.6676 27.799 49.8918 27.5748 50.1771 27.5748C50.4421 27.5748 50.6867 27.799 50.6867 28.0639C50.6867 28.3493 50.4625 28.5938 50.1771 28.5938C49.8918 28.5938 49.6676 28.3696 49.6676 28.0843ZM48.0983 28.5123C47.813 28.4919 47.6092 28.2474 47.6296 27.962C47.6703 27.6767 47.9149 27.4729 48.1799 27.4933C48.4652 27.4933 48.669 27.7786 48.6486 28.0435C48.6486 28.3085 48.404 28.5123 48.1391 28.5123H48.0983ZM51.7057 28.0028C51.6649 27.7175 51.8687 27.4729 52.1541 27.4321C52.4394 27.4321 52.684 27.6156 52.7247 27.8805C52.7451 28.1658 52.5413 28.4308 52.2763 28.4512C51.9503 28.4512 51.7261 28.2677 51.7057 28.0028ZM46.0399 28.2474C45.7546 28.1862 45.5711 27.9213 45.6119 27.6359C45.6731 27.371 45.938 27.1876 46.2234 27.2283C46.4883 27.2895 46.6717 27.5544 46.6309 27.8194C46.5698 28.0843 46.366 28.2474 46.1214 28.2474H46.0399ZM53.7234 27.7175C53.6623 27.4525 53.8253 27.1672 54.1107 27.106C54.3756 27.0449 54.6609 27.2283 54.722 27.4933C54.7832 27.7786 54.5998 28.0435 54.3348 28.1047C54.294 28.1047 54.2533 28.1047 54.2125 28.1047C53.9883 28.1047 53.7846 27.9416 53.7234 27.6971V27.7175ZM44.0018 27.7786C43.7165 27.6971 43.5738 27.4117 43.635 27.1468C43.7165 26.8615 44.0018 26.7188 44.2668 26.8003C44.5317 26.8615 44.6948 27.1468 44.6336 27.4117C44.5725 27.6359 44.3687 27.799 44.1445 27.799C44.0834 27.799 44.0426 27.7786 44.0018 27.7786ZM55.7003 27.2283C55.5984 26.9634 55.7411 26.678 56.0264 26.5761C56.2914 26.4946 56.5767 26.6373 56.6582 26.9022C56.7601 27.1672 56.6174 27.4525 56.3525 27.5544C56.2913 27.5544 56.2302 27.5544 56.1895 27.5544C55.9653 27.5544 55.7615 27.4117 55.7003 27.2079V27.2283ZM42.0249 27.1264C41.76 27.0245 41.6173 26.7392 41.7192 26.4742C41.8211 26.2093 42.1065 26.0666 42.3714 26.1685C42.6363 26.2704 42.779 26.5558 42.6771 26.8207C42.5956 27.0245 42.3918 27.1468 42.188 27.1468C42.1472 27.1468 42.086 27.1468 42.0249 27.1468V27.1264ZM57.6161 26.515C57.4938 26.2704 57.6161 25.9647 57.8607 25.8424C58.1256 25.7202 58.4109 25.8424 58.5332 26.1074C58.6555 26.352 58.5332 26.6577 58.2887 26.7799C58.2275 26.7799 58.146 26.8207 58.0848 26.8207C57.881 26.8207 57.6976 26.7188 57.6161 26.515ZM59.4504 25.6386C59.3077 25.3941 59.3892 25.068 59.6134 24.9253C59.8579 24.7826 60.184 24.8642 60.3267 25.1087C60.4694 25.3533 60.3879 25.659 60.1433 25.8017C60.0618 25.8628 59.9802 25.8832 59.8783 25.8832C59.7153 25.8832 59.5319 25.7813 59.4504 25.6386ZM61.1623 24.5585C60.9993 24.3139 61.0604 24.0082 61.2846 23.8451C61.5088 23.6617 61.8145 23.7229 61.9979 23.947C62.161 24.1712 62.0998 24.4973 61.8757 24.6604C61.7941 24.7215 61.6922 24.7623 61.5903 24.7623C61.4273 24.7623 61.2642 24.6807 61.1623 24.5585ZM62.7724 23.2949C62.589 23.0911 62.6093 22.765 62.8131 22.5815C63.017 22.3981 63.3431 22.3981 63.5265 22.6223C63.7303 22.8261 63.7099 23.1522 63.5061 23.3356C63.4042 23.4171 63.2819 23.4579 63.1596 23.4579C63.017 23.4579 62.8743 23.4171 62.7724 23.2949ZM64.2602 21.8886C64.036 21.7052 64.036 21.3791 64.2194 21.1753C64.4028 20.9511 64.7289 20.9511 64.9327 21.1345C65.1366 21.3179 65.1569 21.644 64.9735 21.8478C64.8716 21.9701 64.7289 22.0313 64.5863 22.0313C64.464 22.0313 64.3417 21.9701 64.2602 21.8886ZM65.5849 20.3397C65.3608 20.1766 65.32 19.8505 65.483 19.6264C65.646 19.4022 65.9721 19.3614 66.1963 19.5245C66.4205 19.6875 66.4613 20.0136 66.2982 20.2378C66.1963 20.3804 66.0537 20.4416 65.8906 20.4416C65.7887 20.4416 65.6665 20.4416 65.5849 20.3397ZM66.767 18.6888C66.5224 18.5462 66.4409 18.2201 66.5836 17.9755C66.7262 17.7513 67.0523 17.6698 67.2969 17.8125C67.5211 17.9551 67.6026 18.2609 67.4599 18.5054C67.358 18.6685 67.195 18.75 67.0319 18.75C66.93 18.75 66.8485 18.7296 66.767 18.6888ZM67.786 16.9157C67.5211 16.7934 67.4192 16.4877 67.5415 16.2432C67.6434 15.9782 67.949 15.8763 68.214 15.9986C68.4586 16.1005 68.5808 16.4062 68.4586 16.6712C68.377 16.8546 68.1936 16.9565 67.9898 16.9565C67.9287 16.9565 67.8472 16.9565 67.786 16.9157Z" fill="#111112"/>
<path d="M40.9243 62.9966C40.8224 62.7316 40.9855 62.4463 41.2504 62.3648C41.5154 62.2629 41.8007 62.4259 41.8822 62.6909C41.9638 62.9558 41.8211 63.2411 41.5561 63.3227C41.495 63.3431 41.4542 63.3431 41.3931 63.3431C41.1893 63.3431 40.9855 63.2004 40.9243 62.9966ZM42.8401 62.3444C42.7382 62.0795 42.8401 61.7737 43.1254 61.6718C43.37 61.5699 43.6757 61.6922 43.7776 61.9368C43.8999 62.2017 43.7776 62.5074 43.5127 62.6094C43.4515 62.6501 43.3904 62.6501 43.3088 62.6501C43.1254 62.6501 42.9217 62.5278 42.8401 62.3444ZM44.7151 61.5088C44.5724 61.2642 44.6744 60.9585 44.9189 60.8159C45.1635 60.6936 45.4692 60.8159 45.6119 61.04C45.7341 61.2846 45.6119 61.5903 45.3877 61.733C45.3266 61.7738 45.245 61.7941 45.1635 61.7941C44.9801 61.7941 44.7966 61.6922 44.7151 61.5088ZM46.4882 60.5102C46.3252 60.286 46.3863 59.9599 46.6309 59.8172C46.8551 59.6542 47.1812 59.7357 47.3442 59.9599C47.4869 60.2044 47.4257 60.5102 47.1811 60.6732C47.0996 60.714 46.9978 60.7547 46.9163 60.7547C46.7532 60.7547 46.5901 60.6732 46.4882 60.5102ZM48.1594 59.3688C47.9964 59.1446 48.0168 58.8186 48.241 58.6555C48.4652 58.4721 48.7709 58.5128 48.9543 58.7167C49.1377 58.9408 49.097 59.2669 48.8728 59.4504C48.7709 59.5115 48.669 59.5523 48.5467 59.5523C48.404 59.5523 48.2613 59.4911 48.1594 59.3688ZM49.7287 58.0441C49.5249 57.8607 49.5249 57.5346 49.7287 57.3308C49.9325 57.127 50.2586 57.1473 50.4421 57.3512C50.6459 57.555 50.6459 57.8607 50.4421 58.0645C50.3402 58.1664 50.2179 58.2071 50.0956 58.2071C49.953 58.2071 49.8102 58.146 49.7287 58.0441ZM51.1554 56.5971C50.9312 56.4136 50.9108 56.0876 51.0739 55.8838C51.2573 55.6596 51.5834 55.6392 51.8076 55.8226C52.0114 56.006 52.0521 56.3117 51.8687 56.5359C51.7668 56.6582 51.6241 56.7194 51.4611 56.7194C51.3592 56.7194 51.2369 56.6786 51.1554 56.5971ZM52.419 55.0074C52.1948 54.8443 52.1336 54.5386 52.2763 54.2941C52.4393 54.0699 52.7654 54.0087 52.9896 54.1718C53.2342 54.3348 53.2954 54.6405 53.1323 54.8851C53.0304 55.0278 52.8674 55.0889 52.7043 55.0889C52.6024 55.0889 52.5005 55.0889 52.419 55.0074ZM53.5195 53.2954C53.275 53.1528 53.1731 52.847 53.3157 52.6025C53.4584 52.3579 53.7641 52.256 54.0087 52.3987C54.2532 52.521 54.3551 52.847 54.2125 53.0916C54.1106 53.2547 53.9475 53.3566 53.7641 53.3566C53.6826 53.3566 53.6011 53.3362 53.5195 53.2954ZM54.4367 51.4815C54.1718 51.3796 54.0495 51.0739 54.1717 50.809C54.2736 50.5644 54.5589 50.4217 54.8239 50.544C55.0888 50.6459 55.2111 50.9313 55.1092 51.1962C55.0277 51.4 54.8239 51.5223 54.6405 51.5223C54.5589 51.5223 54.4978 51.5223 54.4367 51.4815ZM55.1704 49.5658C54.885 49.4842 54.7424 49.2193 54.8035 48.934C54.8851 48.669 55.1704 48.506 55.4353 48.5875C55.7207 48.669 55.8633 48.9543 55.7818 49.2193C55.7206 49.4435 55.5168 49.5861 55.2927 49.5861C55.2519 49.5861 55.2111 49.5861 55.1704 49.5658ZM55.6595 47.6092C55.3945 47.5481 55.1908 47.2831 55.2519 47.0182C55.2927 46.7329 55.5576 46.5494 55.8429 46.5902C56.1079 46.631 56.2913 46.8959 56.2505 47.1812C56.2098 47.4258 55.9856 47.6092 55.741 47.6092H55.6595ZM55.9448 45.5712C55.6595 45.5712 55.4557 45.3266 55.4761 45.0413C55.4761 44.7559 55.7207 44.5521 56.006 44.5521C56.2913 44.5725 56.4951 44.8171 56.4748 45.1024C56.4748 45.3674 56.2505 45.5712 55.9856 45.5712H55.9448ZM55.4761 43.0643C55.4353 42.779 55.6595 42.5345 55.9448 42.5345C56.2302 42.5141 56.4748 42.7179 56.4748 43.0032C56.4951 43.2885 56.2913 43.5331 56.006 43.5331C55.7003 43.5535 55.4761 43.3293 55.4761 43.0643ZM55.2519 41.0874C55.2112 40.8225 55.3945 40.5575 55.6595 40.5168C55.9448 40.4556 56.2098 40.6594 56.2505 40.9244C56.2913 41.2097 56.1079 41.4747 55.8429 41.5154C55.4964 41.5154 55.2927 41.332 55.2519 41.0874ZM54.8239 39.1513C54.7627 38.8863 54.9054 38.601 55.1908 38.5195C55.4557 38.4583 55.741 38.601 55.8022 38.8863C55.8837 39.1513 55.7207 39.4366 55.4557 39.5181C55.415 39.5181 55.3742 39.5181 55.3131 39.5181C55.0889 39.5181 54.885 39.3551 54.8239 39.1309V39.1513ZM54.2125 37.2559C54.1106 36.9909 54.2532 36.7056 54.5182 36.6037C54.7831 36.5018 55.0685 36.6445 55.1704 36.9094C55.2723 37.154 55.1296 37.4597 54.8647 37.5616C54.8035 37.5616 54.7627 37.5616 54.7016 37.5616C54.4774 37.5616 54.294 37.4393 54.2125 37.2355V37.2559ZM53.438 35.4216C53.3157 35.1771 53.4177 34.8713 53.6622 34.7491C53.9272 34.6268 54.2329 34.7491 54.3552 34.9936C54.4774 35.2382 54.3552 35.5439 54.1106 35.6662C54.0495 35.7069 53.9679 35.707 53.8864 35.707C53.703 35.707 53.5195 35.605 53.438 35.4216ZM52.4801 33.6689C52.3375 33.4243 52.419 33.1186 52.6635 32.9759C52.8877 32.8333 53.2139 32.9148 53.3565 33.139C53.4992 33.3836 53.4176 33.7097 53.1731 33.8523C53.0915 33.8931 53.01 33.9135 52.9285 33.9135C52.7451 33.9135 52.582 33.8319 52.4801 33.6689ZM51.3796 32.0181C51.2166 31.7939 51.2573 31.4882 51.4815 31.3047C51.7057 31.1417 52.0318 31.1825 52.1948 31.4066C52.3579 31.6308 52.3171 31.9569 52.0929 32.12C51.991 32.2015 51.8891 32.2219 51.7872 32.2219C51.6241 32.2219 51.4815 32.1607 51.3796 32.0181Z" fill="#111112"/>
<path d="M9.23243 56.3728C9.08977 56.1283 9.17128 55.8022 9.41585 55.6799C9.66042 55.5372 9.96612 55.5984 10.1088 55.8429C10.2514 56.0875 10.1699 56.4136 9.92537 56.5563C9.84384 56.597 9.76233 56.6174 9.68081 56.6174C9.49738 56.6174 9.33434 56.5359 9.23243 56.3728ZM8.25414 54.5182C8.13186 54.2736 8.25416 53.9679 8.49873 53.8456C8.76368 53.7234 9.06938 53.8456 9.19166 54.0902C9.31395 54.3348 9.19167 54.6405 8.94711 54.7628C8.86558 54.8035 8.80444 54.8239 8.72292 54.8239C8.53949 54.8239 8.35604 54.7016 8.25414 54.5182ZM7.4593 52.6024C7.3574 52.3375 7.50008 52.0521 7.76503 51.9502C8.02997 51.8483 8.31529 51.991 8.41719 52.256C8.51909 52.5209 8.37644 52.8062 8.11149 52.9081C8.05035 52.9285 7.98921 52.9285 7.94844 52.9285C7.72426 52.9285 7.54082 52.8062 7.4593 52.6024ZM6.84791 50.6255C6.76638 50.3402 6.92942 50.0548 7.19437 49.9937C7.4797 49.9122 7.74464 50.0752 7.82617 50.3606C7.88731 50.6255 7.72425 50.9108 7.4593 50.972C7.41854 50.9924 7.37778 50.9924 7.33702 50.9924C7.09245 50.9924 6.88867 50.8497 6.84791 50.6255ZM6.39953 48.5671C6.35877 48.3021 6.54218 48.0372 6.82751 47.9964C7.09245 47.9353 7.3574 48.1391 7.39816 48.404C7.4593 48.6893 7.2555 48.9543 6.99055 48.9951C6.66446 48.9951 6.44029 48.832 6.39953 48.5671ZM6.15494 46.5086C6.15494 46.2233 6.35877 45.9787 6.62372 45.9583C6.90905 45.9583 7.15359 46.1418 7.17397 46.4271C7.17397 46.7124 6.99056 46.957 6.70523 46.9774C6.39952 46.9774 6.17532 46.7736 6.15494 46.5086ZM6.60332 44.9393C6.31799 44.9393 6.09382 44.6947 6.1142 44.4298C6.1142 44.1445 6.35877 43.9203 6.62372 43.9203C6.90905 43.9407 7.13323 44.1649 7.13323 44.4502C7.13323 44.7151 6.88867 44.9393 6.62372 44.9393H6.60332ZM6.70523 42.9013C6.44028 42.9013 6.23646 42.6159 6.27722 42.351C6.2976 42.0656 6.56256 41.8618 6.82751 41.9026C7.11283 41.9434 7.31664 42.1879 7.27588 42.4733C7.23512 42.7178 7.03131 42.9216 6.76637 42.9216C6.76637 42.9216 6.72561 42.9216 6.70523 42.9013ZM7.01092 40.904C6.72559 40.8224 6.56258 40.5575 6.62372 40.2925C6.68486 40.0072 6.97016 39.8442 7.23511 39.9053C7.52044 39.9664 7.68349 40.2314 7.62235 40.5167C7.56121 40.7409 7.3574 40.904 7.11283 40.904H7.01092ZM7.52044 38.927C7.25549 38.8251 7.11285 38.5398 7.19437 38.2749C7.29628 38.0099 7.58159 37.8672 7.84654 37.9488C8.11148 38.0507 8.25416 38.336 8.17263 38.6009C8.09111 38.8048 7.88729 38.9474 7.68349 38.9474C7.62235 38.9474 7.5612 38.9474 7.52044 38.9474V38.927ZM8.23377 37.0113C7.96882 36.889 7.86691 36.5833 7.96881 36.3387C8.0911 36.0737 8.39683 35.9718 8.66178 36.0941C8.90635 36.196 9.02862 36.5017 8.90634 36.7667C8.82481 36.9501 8.6414 37.052 8.43759 37.052C8.37645 37.052 8.29491 37.0316 8.23377 37.0113ZM9.13052 35.1974C8.90634 35.0343 8.82481 34.7286 8.96748 34.4841C9.11014 34.2395 9.43622 34.1784 9.66041 34.321C9.90498 34.4637 9.98649 34.7694 9.84383 35.014C9.74192 35.177 9.57891 35.2585 9.39548 35.2585C9.31396 35.2585 9.21205 35.2585 9.13052 35.1974ZM10.2515 33.4854C10.0273 33.302 9.9865 32.9963 10.1699 32.7721C10.3533 32.5479 10.6591 32.5071 10.8833 32.6906C11.1074 32.8536 11.1482 33.1797 10.9648 33.4039C10.8629 33.5262 10.7202 33.5873 10.5775 33.5873C10.4552 33.5873 10.3534 33.5873 10.2515 33.4854ZM11.5558 31.9161C11.3724 31.7327 11.3724 31.4066 11.5558 31.2028C11.7596 30.999 12.0653 31.0194 12.2691 31.2028C12.4729 31.4066 12.4525 31.7327 12.2691 31.9365C12.1672 32.018 12.045 32.0792 11.9023 32.0792C11.78 32.0792 11.6373 32.018 11.5354 31.9161H11.5558ZM13.064 30.5506C12.9009 30.3264 12.9417 30.0003 13.1659 29.8373C13.3901 29.6539 13.6958 29.715 13.8792 29.9392C14.0423 30.1634 14.0015 30.4691 13.7773 30.6525C13.6754 30.7137 13.5735 30.7544 13.4716 30.7544C13.3086 30.7544 13.1659 30.6729 13.064 30.5506ZM14.7352 29.3685C14.5925 29.124 14.674 28.8183 14.9186 28.6756C15.1632 28.5329 15.4689 28.6144 15.6115 28.859C15.7542 29.1036 15.6727 29.4297 15.4281 29.552C15.3466 29.6131 15.2651 29.6335 15.1632 29.6335C15.0001 29.6335 14.8167 29.5316 14.7352 29.3685ZM32.609 29.5112C32.344 29.3889 32.2421 29.1036 32.3644 28.8386C32.4867 28.5941 32.7924 28.4718 33.0573 28.5941C33.3019 28.7163 33.4242 29.0221 33.2815 29.287C33.2 29.4704 33.0166 29.5723 32.8332 29.5723C32.7517 29.5723 32.6905 29.5723 32.609 29.5112ZM30.7747 28.7367C30.5098 28.6552 30.3671 28.3495 30.469 28.0846C30.5709 27.8196 30.8562 27.6973 31.1212 27.7788C31.3861 27.8807 31.5288 28.1865 31.4269 28.431C31.3454 28.6552 31.1619 28.7775 30.9581 28.7775C30.897 28.7775 30.8359 28.7571 30.7747 28.7367ZM16.5287 28.431C16.4268 28.1661 16.5287 27.8604 16.814 27.7585C17.079 27.6566 17.3643 27.7585 17.4866 28.0438C17.5885 28.3087 17.4458 28.5941 17.2012 28.696C17.1401 28.7367 17.0586 28.7367 16.9974 28.7367C16.7936 28.7367 16.6102 28.6144 16.5287 28.431ZM28.8793 28.1457C28.6144 28.0642 28.4513 27.7992 28.5125 27.5139C28.594 27.2489 28.8589 27.0859 29.1443 27.1674C29.4092 27.2286 29.5723 27.5139 29.4907 27.7788C29.4296 28.003 29.2258 28.1661 29.0016 28.1661C28.9609 28.1661 28.9201 28.1661 28.8793 28.1661V28.1457ZM18.4444 27.7177C18.3629 27.4324 18.526 27.1674 18.8113 27.0859C19.0763 27.0044 19.3412 27.1674 19.4227 27.4528C19.5043 27.7177 19.3412 28.003 19.0763 28.0642C19.0151 28.0642 18.9744 28.0642 18.9336 28.0642C18.7094 28.0642 18.5056 27.9215 18.4444 27.6973V27.7177ZM26.9432 27.7177C26.6578 27.6769 26.4744 27.412 26.5152 27.147C26.5559 26.8617 26.8209 26.6783 27.1062 26.719C27.3712 26.7598 27.5546 27.0248 27.5138 27.3101C27.4731 27.5547 27.2489 27.7381 27.0043 27.7381C27.0043 27.7381 26.9635 27.7381 26.9432 27.7381V27.7177ZM20.4214 27.2489C20.3806 26.9636 20.564 26.6987 20.8494 26.6579C21.1347 26.6171 21.3793 26.8006 21.4404 27.0859C21.4812 27.3712 21.2774 27.6158 21.0124 27.6566C20.6863 27.6769 20.4621 27.4935 20.4214 27.2489ZM24.9663 27.4935C24.6809 27.4935 24.4567 27.2489 24.4771 26.9636C24.4771 26.6783 24.7421 26.4745 25.0274 26.4949C25.3127 26.4949 25.5165 26.7394 25.4961 27.0248C25.4758 27.2897 25.2516 27.4935 24.9866 27.4935H24.9663ZM22.4391 26.984C22.4391 26.719 22.6429 26.4745 22.9282 26.4541C23.2135 26.4541 23.4581 26.6579 23.4581 26.9432C23.4581 27.2286 23.2543 27.4731 22.9689 27.4731C22.6836 27.4731 22.4594 27.2693 22.4391 26.984Z" fill="#111112"/>
<defs>
<radialGradient id="paint0_radial_106_6947" cx="0" cy="0" r="1" gradientUnits="userSpaceOnUse" gradientTransform="translate(103.308 90.4475) rotate(-64.0065) scale(27.1464 56.9403)">
<stop stop-color="#38C67B"/>
<stop offset="0.235294" stop-color="#448CE0"/>
<stop offset="0.45454" stop-color="#C42EB5"/>
<stop offset="0.660072" stop-color="#D23131"/>
<stop offset="0.833494" stop-color="#F87226"/>
<stop offset="1" stop-color="#EEC32B"/>
</radialGradient>
<radialGradient id="paint1_radial_106_6947" cx="0" cy="0" r="1" gradientUnits="userSpaceOnUse" gradientTransform="translate(72.6819 82.2787) rotate(-81.3276) scale(27.7509 22.0254)">
<stop stop-color="#38C67B"/>
<stop offset="0.235294" stop-color="#448CE0"/>
<stop offset="0.45454" stop-color="#C42EB5"/>
<stop offset="0.660072" stop-color="#D23131"/>
<stop offset="0.833494" stop-color="#F87226"/>
<stop offset="1" stop-color="#EEC32B"/>
</radialGradient>
<radialGradient id="paint2_radial_106_6947" cx="0" cy="0" r="1" gradientUnits="userSpaceOnUse" gradientTransform="translate(31.3517 98.6634) rotate(-68.0254) scale(31.3856 57.9903)">
<stop stop-color="#38C67B"/>
<stop offset="0.235294" stop-color="#448CE0"/>
<stop offset="0.45454" stop-color="#C42EB5"/>
<stop offset="0.660072" stop-color="#D23131"/>
<stop offset="0.833494" stop-color="#F87226"/>
<stop offset="1" stop-color="#EEC32B"/>
</radialGradient>
<radialGradient id="paint3_radial_106_6947" cx="0" cy="0" r="1" gradientUnits="userSpaceOnUse" gradientTransform="translate(20.3209 101.634) rotate(-84.4157) scale(82.1891 42.3829)">
<stop stop-color="#38C67B"/>
<stop offset="0.235294" stop-color="#448CE0"/>
<stop offset="0.45454" stop-color="#C42EB5"/>
<stop offset="0.660072" stop-color="#D23131"/>
<stop offset="0.833494" stop-color="#F87226"/>
<stop offset="1" stop-color="#EEC32B"/>
</radialGradient>
<radialGradient id="paint4_radial_106_6947" cx="0" cy="0" r="1" gradientUnits="userSpaceOnUse" gradientTransform="translate(124.136 94.164) rotate(-101.062) scale(82.1891 42.3829)">
<stop stop-color="#38C67B"/>
<stop offset="0.235294" stop-color="#448CE0"/>
<stop offset="0.45454" stop-color="#C42EB5"/>
<stop offset="0.660072" stop-color="#D23131"/>
<stop offset="0.833494" stop-color="#F87226"/>
<stop offset="1" stop-color="#EEC32B"/>
</radialGradient>
<radialGradient id="paint5_radial_106_6947" cx="0" cy="0" r="1" gradientUnits="userSpaceOnUse" gradientTransform="translate(72.8599 63.8991) rotate(-80.7102) scale(35.719 30.2989)">
<stop stop-color="#38C67B"/>
<stop offset="0.235294" stop-color="#448CE0"/>
<stop offset="0.45454" stop-color="#C42EB5"/>
<stop offset="0.660072" stop-color="#D23131"/>
<stop offset="0.833494" stop-color="#F87226"/>
<stop offset="1" stop-color="#EEC32B"/>
</radialGradient>
</defs>
</svg>
