<svg xmlns="http://www.w3.org/2000/svg" width="200" height="200" fill="none" viewBox="0 0 200 200"><g id="Framework-Agnostic"><g id="Asset 1 2"><path id="Vector" fill="#F4F7FA" d="M172.649 90.2712C168.602 63.7855 152.012 31.2459 119.236 27.8405C119.236 27.8405 94.351 24.8135 69.82 29.4011C55.261 32.124 42.4944 40.2286 34.4163 51.8777C26.3381 63.5262 23.64 77.7305 26.9144 91.2723C29.0411 100.068 30.4788 109.171 30.0842 118.209C29.3979 133.939 29.7925 148.621 45.0578 158.002C58.688 166.377 75.8416 173.765 92.2066 175.059C103.328 175.938 115.8 174.515 126.519 171.619C181.146 156.863 176.694 116.756 172.648 90.2707L172.649 90.2712Z"/><path id="Vector_2" fill="url(#paint0_linear_165_426)" d="M83.8291 116.529C92.2922 107.468 90.7768 91.8069 85.2539 88.5449C82.3811 86.8478 79.6134 89.2074 76.8803 87.0392C73.8523 84.6365 75.7531 80.5524 73.8722 72.7168C72.9002 68.6683 71.138 61.3265 66.3245 59.5114C61.5509 57.7114 58.5364 63.1406 53.2938 61.4877C48.3364 59.9249 49.1477 54.4764 42.7558 50.768C42.1612 50.423 35.4242 46.623 31.1331 49.4392C26.7736 52.3001 26.4787 60.9788 29.9029 65.7761C33.014 70.1346 38.2798 70.0085 38.5019 72.8672C38.7466 76.0176 32.4318 77.2031 32.3719 80.4635C32.2862 85.1761 45.4172 86.1384 47.0323 93.2629C47.9816 97.4521 43.8668 98.9977 43.9067 104.502C43.9574 111.607 50.8744 117.756 56.3989 120.444C64.4048 124.341 76.4949 124.382 83.8302 116.529H83.8291Z"/><g id="Vector_3" opacity=".7" style="mix-blend-mode:soft-light"><path fill="#fff" d="M80.0513 124.165L80.4066 123.998C73.9235 110.231 67.0405 97.6212 59.9489 86.5161C54.2739 77.6299 48.4535 69.6822 42.6491 62.8935C32.7575 51.3247 26.2464 47.0757 26.1818 47.0342L25.9694 47.3646C26.0335 47.4061 32.5101 51.6358 42.3688 63.1706C51.4691 73.8175 65.3936 93.0423 80.0513 124.165Z"/></g><g id="Vector_4" opacity=".7" style="mix-blend-mode:soft-light"><path fill="#fff" d="M43.5585 64.0354C43.4356 51.8564 37.7424 42.9966 37.6847 42.9087L37.3558 43.1232C37.413 43.2106 43.0437 51.9793 43.1655 64.0392L43.5585 64.0354Z"/></g><g id="Vector_5" opacity=".7" style="mix-blend-mode:soft-light"><path fill="#fff" d="M60.9979 88.0872C64.9984 75.4365 65.2486 66.9605 64.7537 62.078C64.2146 56.7594 62.7386 54.4748 62.6766 54.3799L62.3488 54.5966C62.3639 54.6192 63.8437 56.9217 64.3677 62.1616C64.8518 67.0031 64.5952 75.4101 60.6238 87.9691L60.9984 88.0877L60.9979 88.0872Z"/></g><g id="Vector_6" opacity=".7" style="mix-blend-mode:soft-light"><path fill="#fff" d="M74.6319 112.445C86.4173 92.4667 84.3995 78.9395 84.378 78.8047L83.9898 78.8678C83.9952 78.9017 84.5079 82.4095 83.4863 88.4139C82.5866 93.7012 80.2621 102.128 74.2933 112.245L74.6319 112.445V112.445Z"/></g><g id="Vector_7" opacity=".7" style="mix-blend-mode:soft-light"><path fill="#fff" d="M54.5801 85.4427C55.9402 85.4141 57.3219 85.3111 58.7176 85.1198L58.6642 84.7306C49.5434 85.9828 40.9984 83.4082 35.4362 81.0276C29.4065 78.447 25.4911 75.5359 25.4529 75.5068L25.2173 75.8211C25.2566 75.8502 29.2092 78.7899 35.282 81.3888C40.0399 83.4249 46.9655 85.6023 54.5806 85.4427H54.5801Z"/></g><g id="Vector_8" opacity=".7" style="mix-blend-mode:soft-light"><path fill="#fff" d="M69.8491 108.133C70.5833 108.117 71.3273 108.076 72.0809 108.006L72.0448 107.614C62.4874 108.5 54.4415 104.749 49.3742 101.446C43.8793 97.8641 40.6108 94.0285 40.5785 93.9902L40.2782 94.2436C40.3111 94.2824 43.6173 98.1622 49.1596 101.775C53.8804 104.852 61.1628 108.314 69.8491 108.133Z"/></g><path id="Vector_9" fill="url(#paint1_linear_165_426)" d="M83.256 123.641C69.5153 122.151 59.3946 107.825 61.683 101.05C62.8733 97.526 66.9277 97.5039 67.6571 93.6834C68.4652 89.4505 63.8873 87.3858 59.7714 79.3998C57.6447 75.2737 53.7892 67.7917 56.5321 62.7556C59.2523 57.761 65.7499 60.1508 68.9736 54.9389C72.0215 50.0106 67.3703 46.0004 70.0684 38.2165C70.3197 37.4926 73.242 29.3799 78.9148 28.6343C84.6782 27.8764 91.2447 34.9901 91.8458 41.5335C92.3919 47.478 87.8534 51.2052 89.7472 53.7804C91.8339 56.6187 98.0286 53.0225 100.452 55.7324C103.955 59.6494 93.5682 70.0203 97.3903 77.2111C99.6383 81.4397 105.475 79.7211 106.718 85.7308C108.721 95.4182 107.695 98.2925 104.988 104.584C101.065 113.702 95.1655 124.934 83.2555 123.642L83.256 123.641Z"/><g id="Vector_10" opacity=".7" style="mix-blend-mode:soft-light"><path fill="#fff" d="M92.0043 127.339L91.5822 127.457C87.0356 111.114 83.6679 95.4561 81.5725 80.917C79.896 69.283 79.0248 58.3353 78.9844 48.3779C78.9154 31.4092 81.3202 23.0819 81.3445 23L81.7644 23.124C81.7402 23.2059 79.3509 31.4916 79.4226 48.4075C79.4889 64.0216 81.7256 90.3903 92.0043 127.339Z"/></g><g id="Vector_11" opacity=".7" style="mix-blend-mode:soft-light"><path fill="#fff" d="M79.0485 50.0045C70.2868 39.6315 68.6453 28.0067 68.6296 27.8903L69.0636 27.832C69.0787 27.9469 70.7078 39.4504 79.3833 49.7221L79.0485 50.0045Z"/></g><g id="Vector_12" opacity=".7" style="mix-blend-mode:soft-light"><path fill="#fff" d="M81.8307 83.0068C69.2442 75.237 62.8631 68.2624 59.7267 63.7793C56.31 58.8963 55.8932 55.8926 55.8771 55.7675L56.3116 55.7114C56.3154 55.7416 56.7423 58.7626 60.1137 63.568C63.2291 68.0079 69.5655 74.92 82.0609 82.6338L81.8307 83.0068Z"/></g><g id="Vector_13" opacity=".7" style="mix-blend-mode:soft-light"><path fill="#fff" d="M88.0497 113.499C63.5554 105.208 55.4125 92.3175 55.3333 92.1881L55.7063 91.959C55.7262 91.9913 57.847 95.3266 63.0799 99.6528C67.688 103.462 75.785 108.885 88.1893 113.084L88.0492 113.499H88.0497Z"/></g><g id="Vector_14" opacity=".7" style="mix-blend-mode:soft-light"><path fill="#fff" d="M85.3245 76.1017C84.1553 77.0678 82.9143 77.9864 81.5957 78.8408L81.3574 78.4732C89.9704 72.8915 95.3111 64.4969 98.2749 58.4381C101.487 51.8699 102.674 46.5621 102.686 46.5093L103.114 46.6031C103.102 46.6564 101.904 52.0155 98.669 58.63C96.1337 63.8128 91.8712 70.6926 85.3251 76.1012L85.3245 76.1017Z"/></g><g id="Vector_15" opacity=".7" style="mix-blend-mode:soft-light"><path fill="#fff" d="M88.9489 106.376C88.3176 106.898 87.6594 107.404 86.972 107.893L86.7181 107.537C95.433 101.328 99.4955 92.3031 101.37 85.8255C103.402 78.8012 103.37 73.1834 103.37 73.1274L103.808 73.123C103.808 73.1797 103.841 78.8621 101.791 85.9473C100.045 91.9818 96.4157 100.206 88.9489 106.375V106.376Z"/></g><path id="Vector_16" fill="url(#paint2_linear_165_426)" d="M114.622 35.8385L86.1636 40.9692L100.092 118.223L128.55 113.092L114.622 35.8385Z"/><path id="Vector_17" fill="url(#paint3_linear_165_426)" d="M111.272 39.9249L89.8065 43.7949L92.1497 56.7919L113.616 52.9218L111.272 39.9249Z"/><path id="Vector_18" fill="url(#paint4_linear_165_426)" d="M114.014 55.1363L92.5487 59.0063L94.892 72.0038L116.358 68.1338L114.014 55.1363Z"/><path id="Vector_19" fill="url(#paint5_linear_165_426)" d="M116.757 70.3482L95.2915 74.2183L97.6347 87.2152L119.1 83.3452L116.757 70.3482Z"/><path id="Vector_20" fill="url(#paint6_linear_165_426)" d="M119.499 85.5596L98.0332 89.4297L100.376 102.427L121.842 98.5571L119.499 85.5596Z"/><path id="Vector_21" fill="url(#paint7_linear_165_426)" d="M114.622 35.8408L99.4933 38.568C101.67 40.8462 103.626 43.7012 104.68 47.2171C106.687 53.9077 104.009 58.2543 103.674 67.312C103.326 76.7648 105.906 81.1901 107.927 89.981C109.402 96.3945 110.591 105.188 109.767 116.481L128.548 113.095L114.622 35.8414L114.622 35.8408Z" opacity=".3" style="mix-blend-mode:multiply"/><path id="Vector_22" fill="url(#paint8_linear_165_426)" d="M147.564 46.4815L120.162 37.2437L95.085 111.63L122.487 120.867L147.564 46.4815Z"/><path id="Vector_23" fill="url(#paint9_linear_165_426)" d="M142.657 48.4445L121.988 41.4766L117.769 53.991L138.438 60.9589L142.657 48.4445Z"/><path id="Vector_24" fill="url(#paint10_linear_165_426)" d="M137.72 63.0915L117.051 56.1235L112.832 68.638L133.501 75.6059L137.72 63.0915Z"/><path id="Vector_25" fill="url(#paint11_linear_165_426)" d="M132.782 77.7379L112.113 70.77L107.895 83.2845L128.563 90.2524L132.782 77.7379Z"/><path id="Vector_26" fill="url(#paint12_linear_165_426)" d="M127.845 92.3844L107.176 85.4165L102.957 97.931L123.626 104.899L127.845 92.3844Z"/><path id="Vector_27" fill="url(#paint13_linear_165_426)" d="M147.569 46.4751L129.521 40.3921C131.135 45.2643 130.889 48.9145 130.228 51.5258C128.37 58.8638 122.685 60.1889 118.89 68.9123C115.33 77.0924 117.329 82.8207 117.011 89.736C116.707 96.3155 114.26 104.941 105.593 115.165L122.497 120.863L147.569 46.4751Z" opacity=".3" style="mix-blend-mode:multiply"/><path id="Vector_28" fill="url(#paint14_linear_165_426)" d="M174.072 71.2421L154.524 49.9321L96.6764 102.996L116.224 124.306L174.072 71.2421Z"/><path id="Vector_29" fill="url(#paint15_linear_165_426)" d="M168.828 70.5942L154.084 54.5205L144.352 63.4478L159.096 79.5214L168.828 70.5942Z"/><path id="Vector_30" fill="url(#paint16_linear_165_426)" d="M157.438 81.0429L142.693 64.9692L132.961 73.8965L147.706 89.9702L157.438 81.0429Z"/><path id="Vector_31" fill="url(#paint17_linear_165_426)" d="M146.047 91.4912L131.303 75.4175L121.571 84.3447L136.315 100.418L146.047 91.4912Z"/><path id="Vector_32" fill="url(#paint18_linear_165_426)" d="M134.656 101.94L119.912 85.8662L110.179 94.7935L124.924 110.867L134.656 101.94Z"/><path id="Vector_33" fill="url(#paint19_linear_165_426)" d="M174.067 71.245L161.522 57.5679C161.039 64.638 158.676 68.6342 156.493 71.025C151.389 76.6148 145.752 75.0973 138.286 80.9927C131.285 86.521 130.341 92.514 126.792 98.459C123.647 103.729 118.02 109.686 107.178 114.452L116.217 124.306L174.067 71.245H174.067Z" opacity=".3" style="mix-blend-mode:multiply"/><path id="Vector_34" fill="url(#paint20_linear_165_426)" d="M113.049 111.763C114.25 110.562 114.25 108.615 113.049 107.414C111.848 106.213 109.9 106.213 108.699 107.414C107.498 108.615 107.498 110.562 108.699 111.763C109.9 112.964 111.848 112.964 113.049 111.763Z"/><path id="Vector_35" fill="#97A6B7" d="M120.959 170.431C118.984 169.776 117.508 168.1 117.092 166.04L114.218 151.814L89.6308 152.687L86.6049 167.507C86.1812 169.583 87.8777 171.665 89.8314 172.43L100.118 176.454C102.031 177.203 104.088 177.501 106.132 177.326L127.872 175.466C128.507 175.412 129.017 174.912 129.091 174.272C129.165 173.631 129.61 172.911 129.004 172.71L120.96 170.431H120.959Z"/><path id="Vector_36" fill="url(#paint21_linear_165_426)" d="M121.202 169.565C119.229 168.918 117.755 167.263 117.339 165.23L114.468 151.183L90.4798 152.046L87.4566 166.679C87.0334 168.729 88.1537 170.784 90.1051 171.538L100.382 175.513C102.293 176.252 104.348 176.546 106.39 176.373L128.107 174.537C128.742 174.483 129.251 173.99 129.325 173.357C129.399 172.724 129.017 172.127 128.412 171.928L121.202 169.564V169.565Z"/><path id="Vector_37" fill="url(#paint22_linear_165_426)" d="M39.3898 161.269C36.7235 161.428 34.5424 159.698 34.5424 157.412V75.0232C34.5424 72.7375 36.7235 70.972 39.3898 71.0874L162.697 76.4302C164.654 76.5149 166.239 78.1655 166.239 80.1095V150.181C166.239 152.125 164.654 153.802 162.697 153.918L39.3898 161.269Z"/><path id="Vector_38" fill="url(#paint23_linear_165_426)" d="M40.4982 161.269C37.8319 161.428 35.6508 159.698 35.6508 157.412V75.0232C35.6508 72.7375 37.8319 70.972 40.4982 71.0874L163.805 76.4302C165.762 76.5149 167.348 78.1655 167.348 80.1095V150.181C167.348 152.125 165.763 153.802 163.805 153.918L40.4982 161.269Z"/><g id="Vector_39" opacity=".3" style="mix-blend-mode:multiply"><path fill="#D8DEE8" d="M163.804 78.0793L40.4976 73.0065C39.0722 72.9478 37.9132 73.8895 37.9132 75.1106V157.288C37.9132 158.508 39.0722 159.431 40.4976 159.35L163.804 152.269C164.853 152.209 165.702 151.314 165.702 150.271V80.0459C165.702 79.0027 164.853 78.1224 163.804 78.0793Z"/></g><path id="Vector_40" fill="#D8DEE8" d="M164.419 80.0018V145.48C164.419 145.887 164.15 146.235 163.742 146.255L40.4486 152.351C39.8933 152.379 39.4567 152.014 39.4567 151.54V75.1711C39.4567 74.6978 39.9251 74.328 40.4804 74.3501L163.733 79.2331C164.141 79.2503 164.418 79.5943 164.418 80.0013L164.419 80.0018Z"/><path id="Vector_41" fill="#fff" d="M164.534 80.0805L164.603 91.1037L39.4567 88.6848V75.1679C39.4567 74.6962 39.9176 74.328 40.4631 74.3501L163.793 79.3005C164.209 79.3183 164.531 79.667 164.534 80.08L164.534 80.0805Z" opacity=".7"/><path id="Vector_42" fill="#fff" d="M119.684 122.346L46.8113 123.585L46.7811 94.0322L119.392 95.0408L119.684 122.346Z" opacity=".5"/><path id="Vector_43" fill="#fff" d="M159.509 121.669L123.865 122.275L123.56 95.0986L159.093 95.5919L159.509 121.669Z" opacity=".5"/><path id="Vector_44" fill="#fff" d="M159.82 141.142L46.8345 145.672L46.8157 127.462L159.564 125.087L159.82 141.142Z" opacity=".5"/><path id="Vector_45" fill="url(#paint24_linear_165_426)" d="M92.268 118.696C92.5612 119.64 92.0944 120.553 91.2502 120.815L31.9073 139.25C31.0631 139.512 30.1618 139.025 29.8685 138.081L25.0901 122.698C24.7968 121.754 25.2432 120.776 26.0874 120.514L85.4302 102.079C86.2744 101.817 87.1963 102.37 87.4895 103.314L92.268 118.696Z"/><path id="Vector_46" fill="url(#paint25_linear_165_426)" d="M89.1931 102.786L93.9721 118.168C94.2648 119.111 93.798 120.024 92.9543 120.286L33.612 138.721C32.7683 138.983 31.8664 138.495 31.5732 137.553L26.7942 122.17C26.5009 121.225 26.9473 120.248 27.7915 119.986L87.1338 101.55C87.9775 101.288 88.8998 101.84 89.1931 102.785V102.786Z"/><path id="Vector_47" fill="#41B883" d="M75.7664 108.257L74.8965 111.902L72.1331 109.371L66.0835 111.225L78.0493 122.187L81.816 106.402L75.7664 108.257Z"/><path id="Vector_48" fill="#34495E" d="M75.7665 108.257L74.8965 111.902L72.1332 109.371L69.2301 110.261L76.4095 116.837L78.6696 107.367L75.7665 108.257Z"/><path id="Vector_49" fill="url(#paint26_linear_165_426)" d="M92.5968 113.743L93.9715 118.168C94.2642 119.111 93.7973 120.024 92.9537 120.286L33.6114 138.721C32.7677 138.983 31.8658 138.495 31.5725 137.552L26.7936 122.17C26.5003 121.225 26.9467 120.248 27.7909 119.985L35.3779 117.628C37.3537 117.522 39.3785 117.827 41.145 118.907C47.1176 122.556 47.607 127.412 63.0291 121.857C74.2642 117.81 86.0933 113.494 92.5968 113.743V113.743Z" opacity=".2" style="mix-blend-mode:multiply"/><path id="Vector_50" fill="#26264F" d="M47.007 174.641C47.1429 174.524 47.296 174.566 47.9822 174.685C48.8259 174.832 49.0016 174.84 49.2825 175.008C49.3515 175.049 49.814 175.326 49.7623 175.491C49.7229 175.617 49.4157 175.587 48.2917 175.558C47.2971 175.533 47.0405 175.544 46.9095 175.342C46.7763 175.136 46.8281 174.794 47.007 174.641Z"/><path id="Vector_51" fill="url(#paint27_linear_165_426)" d="M47.1537 173.929L47.3003 174.895C47.4858 174.993 47.6658 175 47.8389 174.895L47.8265 174.05L47.1537 173.929Z"/><path id="Vector_52" fill="url(#paint28_linear_165_426)" d="M46.1262 138.311C46.0636 139.681 46.0647 141.759 46.469 144.232C47.2324 148.902 48.5375 149.507 48.7898 153.083C49.0027 156.101 48.2852 158.677 47.4345 161.733C46.5397 164.947 45.8335 165.88 45.7343 168.211C45.6254 170.782 46.3467 172.907 46.9574 174.28C47.2998 174.296 47.6426 174.312 47.9849 174.329C48.4 172.508 49.1779 169.799 50.7256 166.792C52.3963 163.546 54.1186 161.595 54.7386 160.773C56.9402 157.857 58.2507 151.962 53.7596 138.751C51.2146 138.604 48.6701 138.457 46.1251 138.311H46.1262Z"/><path id="Vector_53" fill="url(#paint29_linear_165_426)" d="M62.703 174.075L63.0588 175.583C63.0588 175.583 63.2901 175.797 63.696 175.583V174.148L62.703 174.074V174.075Z"/><path id="Vector_54" fill="#26264F" d="M62.875 175.519C63.0108 175.403 63.1639 175.444 63.8502 175.564C64.6938 175.71 64.8696 175.719 65.1504 175.886C65.2194 175.927 65.682 176.204 65.6302 176.369C65.5909 176.496 65.2836 176.465 64.1596 176.437C63.165 176.411 62.9084 176.422 62.7774 176.22C62.6442 176.014 62.696 175.672 62.875 175.519Z"/><path id="Vector_55" fill="url(#paint30_linear_165_426)" d="M53.7607 138.751C51.2157 138.604 48.6712 138.457 46.1262 138.311C46.0636 139.681 46.0647 141.759 46.469 144.232C46.7127 145.722 47.0114 146.797 47.3138 147.688C47.5132 147.891 47.724 148.087 47.9618 148.269C49.945 149.788 51.6318 149.17 52.4394 150.545C53.2367 151.901 51.8399 152.92 51.999 156.417C52.1003 158.648 52.6868 158.637 52.4394 159.867C51.9224 162.438 49.3839 162.38 48.3283 165.226C47.6647 167.017 48.4572 167.613 47.7413 169.63C47.3698 170.677 46.7984 171.517 46.2076 172.185C46.4324 172.997 46.7035 173.707 46.9585 174.279C47.3008 174.295 47.6437 174.312 47.986 174.328C48.4017 172.508 49.179 169.799 50.7267 166.792C52.3973 163.545 54.1197 161.594 54.7397 160.773C56.9413 157.856 58.2518 151.961 53.7607 138.75V138.751Z" opacity=".3" style="mix-blend-mode:multiply"/><path id="Vector_56" fill="url(#paint31_linear_165_426)" d="M50.0901 137.626C49.3893 139.09 49.2621 140.278 49.2589 141.045C49.2416 145.204 52.8281 148.987 58.1295 154.454C59.4357 155.801 60.0691 156.378 60.5494 157.578C61.5424 160.061 60.537 161.893 60.3672 165.667C60.2087 169.196 60.5602 170.72 60.881 171.76C61.2987 173.112 61.8572 174.158 62.2756 174.843C62.8626 174.867 63.4502 174.892 64.0373 174.916C65.4324 172.7 67.516 168.681 67.8044 163.389C68.0448 158.979 66.93 155.679 65.4944 151.43C64.4707 148.401 62.7645 144.23 59.8529 139.607C56.5985 138.946 53.344 138.286 50.0896 137.625L50.0901 137.626Z"/><path id="Vector_57" fill="url(#paint32_linear_165_426)" d="M39.6653 135.077V135.576L40.5063 135.763C40.6178 135.788 40.7267 135.824 40.8313 135.869L41.1925 136.025C41.9089 136.335 42.7354 136.251 43.3736 135.801L39.6658 135.078L39.6653 135.077Z"/><path id="Vector_58" fill="url(#paint33_linear_165_426)" d="M83.2324 119.981C83.1628 119.655 82.8847 119.999 82.7197 119.873C82.3779 119.611 81.786 120.54 81.3984 120.898C80.9763 121.287 81.0723 121.727 80.8114 122.541C80.6701 122.981 80.4049 123.592 79.8572 124.266L80.8114 125.293L81.9283 123.603C82.1429 123.418 82.4534 123.098 82.6626 122.615C82.7429 122.43 82.793 122.256 82.8254 122.103L83.0771 121.346C83.1715 120.778 83.2987 120.29 83.2329 119.981H83.2324Z"/><path id="Vector_59" fill="url(#paint34_linear_165_426)" d="M40.0108 134.533C39.9693 135.074 39.9283 135.615 39.8868 136.157C39.2819 136.238 35.5148 136.686 32.766 134.101C29.4183 130.953 30.5073 126.059 30.7105 125.145C32.1315 118.76 38.9369 116.282 39.7251 116.01C42.5671 115.025 44.8981 115.251 49.2825 115.676C52.5407 115.992 55.7968 116.308 59.3407 117.84C67.0728 121.185 68.0895 126.669 72.9941 126.785C74.6739 126.825 77.1666 126.24 80.2733 123.031C80.7402 123.349 81.2076 123.667 81.6744 123.985C81.4469 124.97 80.2086 129.883 75.7089 132.339C70.7607 135.04 63.8787 133.674 59.2609 128.633C58.897 132.741 59.6636 135.65 60.5137 137.625C61.1876 139.19 61.8545 140.028 61.4679 140.928C60.7704 142.551 57.441 142.516 53.0259 142.47C48.6836 142.424 46.489 142.376 45.3396 141.111C44.1693 139.823 44.7784 138.654 44.1332 133.944C43.5806 129.909 43.173 126.933 41.6377 126.472C40.227 126.048 37.6593 127.688 37.3919 130.194C37.1989 132.003 38.2555 133.782 40.0102 134.533H40.0108Z"/><path id="Vector_60" fill="url(#paint35_linear_165_426)" d="M40.0108 134.533C39.9693 135.074 39.9283 135.615 39.8868 136.157C39.2819 136.238 35.5148 136.686 32.766 134.101C29.4183 130.953 30.5073 126.059 30.7105 125.145C32.1315 118.76 38.9369 116.282 39.7251 116.01C42.5671 115.025 44.8981 115.251 49.2825 115.676C52.5407 115.992 55.7968 116.308 59.3407 117.84C67.0728 121.185 68.0895 126.669 72.9941 126.785C74.6739 126.825 77.1666 126.24 80.2733 123.031C80.7402 123.349 81.2076 123.667 81.6744 123.985C81.4469 124.97 80.2086 129.883 75.7089 132.339C70.7607 135.04 63.8787 133.674 59.2609 128.633C58.897 132.741 59.6636 135.65 60.5137 137.625C61.1876 139.19 61.8545 140.028 61.4679 140.928C60.7704 142.551 57.441 142.516 53.0259 142.47C48.6836 142.424 46.489 142.376 45.3396 141.111C43.9644 139.598 45.0216 138.148 44.1332 133.944C43.9935 133.282 42.586 126.843 40.2464 126.715C38.9908 126.646 37.5849 128.401 37.3914 130.194C37.1952 132.012 38.2539 133.791 40.0097 134.533H40.0108Z"/><path id="Vector_61" fill="url(#paint36_linear_165_426)" d="M45.282 112.447C45.4906 114.533 45.1052 115.272 44.655 115.523C44.0415 115.866 42.6761 115.655 42.0292 116.117C41.9984 116.138 41.9434 116.178 41.9467 116.23C41.9591 116.447 43.0588 116.577 44.5116 116.924C46.2 117.328 49.4825 117.182 50.1537 116.924C50.2006 116.906 50.2949 116.867 50.3014 116.803C50.3278 116.543 48.848 116.645 47.9801 115.768C47.3305 115.112 47.5752 114.465 46.6389 113.4C46.4194 113.151 46.2135 112.968 46.0712 112.85C45.8081 112.715 45.5451 112.581 45.282 112.446V112.447Z"/><path id="Vector_62" fill="url(#paint37_linear_165_426)" d="M46.7601 114.358C46.9154 114.273 48.1784 114.12 48.352 113.44C48.5881 112.518 47.7601 111.397 47.6566 111.216C47.2242 110.46 47.1159 110.358 46.9148 110.23L46.6361 110.067C46.6361 110.067 46.6199 110.061 46.6032 110.055C46.4253 109.996 45.8232 109.991 45.7019 110.02C45.3143 110.112 44.9353 111.708 45.1046 113.948C45.0906 114.034 45.0765 114.121 45.0636 114.207C45.0296 114.434 46.7714 114.438 46.7601 114.358V114.358Z"/><path id="Vector_63" fill="#26264F" d="M47.9483 109.924C47.8028 110.347 47.226 110.784 46.9683 110.978C46.9306 111.007 46.8217 111.104 46.723 111.259C46.7084 111.281 46.696 111.308 46.6853 111.342C46.543 111.783 47.2508 112.283 47.1208 112.482C47.0265 112.626 46.5489 112.447 46.4955 112.571C46.4454 112.688 46.8438 112.918 46.7866 113.058C46.7435 113.163 46.4993 113.073 46.3505 113.237C46.2761 113.318 46.2998 113.381 46.2249 113.626C46.1823 113.766 46.1219 113.918 46.0745 114.003C45.8438 114.416 45.1667 114.581 45.0324 114.42C44.9952 114.375 45.0254 114.336 44.985 114.184C44.985 114.184 44.9473 114.044 44.8454 113.883C44.6993 113.652 44.3559 113.492 44.0076 113.253C43.3629 112.811 43.1812 112.425 43.1268 112.295C43.1208 112.28 43.1155 112.267 43.1106 112.254C43.1014 112.232 43.0934 112.21 43.0863 112.188C42.9408 111.716 43.3138 111.208 43.5149 110.971C43.8028 110.636 44.2874 110.137 44.9974 109.693C45.1904 109.572 47.0696 108.412 47.7586 108.985C48.0044 109.19 48.0481 109.637 47.9489 109.924H47.9483Z"/><path id="Vector_64" fill="url(#paint38_linear_165_426)" d="M46.8669 112.324C46.6911 112.094 46.3968 112.321 46.4022 112.624C46.4076 112.926 46.7078 113.234 46.9909 113.168C47.2744 113.102 47.103 112.634 46.8669 112.324V112.324Z"/><path id="Vector_65" fill="url(#paint39_linear_165_426)" d="M60.3671 140.635C59.3779 141.106 58.0016 141.079 57.2108 140.341C55.9811 139.194 57.2426 137.073 55.9628 136.23C54.7935 135.46 53.655 136.476 52.586 135.79C50.7455 134.608 52.8453 130.775 50.8975 128.596C49.2927 126.799 46.9585 128.386 45.0248 126.54C42.8571 124.47 44.5687 121.309 42.6021 119.934C40.9579 118.784 37.986 119.754 36.2156 121.035C33.2388 123.189 33.0453 126.666 31.6641 126.614C31.3579 126.602 30.9887 126.413 30.5779 125.807C30.2808 127.486 29.9159 131.422 32.7655 134.101C35.5137 136.685 39.2814 136.238 39.8862 136.157C39.9277 135.616 39.9687 135.074 40.0102 134.533C38.255 133.791 37.1962 132.012 37.3919 130.194C37.5854 128.401 38.9908 126.646 40.2469 126.715C42.5865 126.844 43.994 133.282 44.1337 133.944C45.0215 138.148 43.9649 139.598 45.3401 141.111C46.4895 142.376 48.6841 142.424 53.0264 142.47C57.4409 142.517 60.7709 142.552 61.4684 140.928C61.6345 140.541 61.5989 140.162 61.4587 139.736C61.166 140.114 60.8005 140.428 60.3671 140.635Z" opacity=".3" style="mix-blend-mode:multiply"/><path id="Vector_66" fill="url(#paint40_linear_165_426)" d="M153.656 111.283C153.656 112.692 152.618 113.947 151.456 113.947H111.117C109.954 113.947 108.982 112.692 108.982 111.283V86.6217C108.982 85.2125 109.954 84.1646 111.117 84.1646H151.456C152.618 84.1646 153.656 85.2131 153.656 86.6217V111.283Z"/><path id="Vector_67" fill="url(#paint41_linear_165_426)" d="M154.773 86.6223V111.284C154.773 112.229 154.356 113.109 153.726 113.565C153.417 113.789 153.066 113.947 152.683 113.947H112.344C111.181 113.947 110.098 112.692 110.098 111.284V86.6223C110.098 85.212 111.181 84.1641 112.344 84.1641H152.683C153.846 84.1641 154.773 85.212 154.773 86.6223Z"/><path id="Vector_68" fill="#61DAFB" d="M132.5 101.282C133.632 101.282 134.55 100.364 134.55 99.2316C134.55 98.0995 133.632 97.1816 132.5 97.1816C131.368 97.1816 130.45 98.0995 130.45 99.2316C130.45 100.364 131.368 101.282 132.5 101.282Z"/><path id="Vector_69" stroke="#61DAFB" d="M132.5 103.432C138.575 103.432 143.5 101.551 143.5 99.2317C143.5 96.9121 138.575 95.0317 132.5 95.0317C126.425 95.0317 121.5 96.9121 121.5 99.2317C121.5 101.551 126.425 103.432 132.5 103.432Z"/><path id="Vector_70" stroke="#61DAFB" d="M128.863 101.332C131.9 106.593 135.991 109.918 138 108.758C140.009 107.598 139.175 102.393 136.137 97.1317C133.1 91.8705 129.009 88.5457 127 89.7055C124.991 90.8653 125.825 96.0705 128.863 101.332Z"/><path id="Vector_71" stroke="#61DAFB" d="M128.863 97.1319C125.825 102.393 124.991 107.598 127 108.758C129.009 109.918 133.1 106.593 136.137 101.332C139.175 96.0707 140.009 90.8655 138 89.7057C135.991 88.5459 131.9 91.8707 128.863 97.1319Z"/><path id="Vector_72" fill="url(#paint42_linear_165_426)" d="M153.734 113.564C153.425 113.788 153.065 113.946 152.683 113.946H112.344C111.181 113.946 110.098 112.691 110.098 111.283V86.6213C110.098 85.2111 111.181 84.1631 112.344 84.1631H112.751C113.502 85.4661 114.431 87.2256 115.586 88.7852C126.167 103.076 142.893 98.9528 152.558 111.888C152.994 112.471 153.383 113.023 153.734 113.563L153.734 113.564Z" opacity=".2" style="mix-blend-mode:multiply"/><path id="Vector_73" fill="url(#paint43_linear_165_426)" d="M153.659 108.975V106.526C153.659 106.526 153.307 106.003 153.122 104.708C152.937 103.413 153.273 103.927 153.438 104.465C153.484 104.616 153.579 104.743 153.693 104.849C153.978 105.114 154.447 104.94 154.502 104.555L154.734 102.933C154.734 102.933 155.674 103.894 154.994 106.3C154.781 107.053 154.994 108.871 154.994 108.871L153.659 108.976V108.975Z"/><path id="Vector_74" fill="url(#paint44_linear_165_426)" d="M110.759 110.925L110.141 108.54C110.141 108.54 110.735 107.625 110.45 106.691C110.165 105.756 110.336 106.089 110.106 106.691C109.877 107.292 109.423 106.273 109.069 105.346C108.715 104.418 108.533 105.844 108.62 106.691C108.706 107.537 108.738 108.041 109.243 108.658C109.749 109.276 109.648 111.472 109.648 111.472L110.758 110.925H110.759Z"/><path id="Vector_75" fill="#26264F" d="M145.781 176.587C145.801 176.061 147.067 176.167 147.897 176.246C148.727 176.326 149.092 176.659 149.222 176.97C149.352 177.281 149.254 178.05 148.487 177.728C147.858 177.464 145.763 177.052 145.781 176.587V176.587Z"/><path id="Vector_76" fill="url(#paint45_linear_165_426)" d="M147.307 174.551L147.897 176.587C147.897 176.587 148.488 176.993 148.682 176.79L148.462 174.444L147.307 174.551Z"/><path id="Vector_77" fill="url(#paint46_linear_165_426)" d="M143.136 173.346L145.091 174.198L144.763 175.188L142.806 174.679L143.136 173.346Z"/><path id="Vector_78" fill="#26264F" d="M143.025 177.185C143.025 177.185 144.327 177.522 144.904 176.752C145.274 176.257 145.582 175.417 145.755 174.879C145.849 174.587 145.701 174.274 145.417 174.16C145.004 173.995 144.442 173.818 144.202 173.953C143.801 174.178 144.177 175.677 144.002 176.067C143.827 176.457 142.975 176.708 143.025 177.184V177.185Z"/><path id="Vector_79" fill="url(#paint47_linear_165_426)" d="M139.987 142.873C140.282 147.595 140.932 153.067 142.227 159.063C143.577 165.314 145.331 170.763 147.091 175.318C147.26 175.4 147.563 175.517 147.957 175.529C148.418 175.542 148.77 175.402 148.947 175.318C149.266 172.884 149.431 170.829 149.522 169.303C149.765 165.273 149.874 163.208 149.325 160.81C148.81 158.559 148.396 158.735 147.859 156.248C147.381 154.036 147.37 152.335 147.369 149.843C147.369 148.132 147.447 145.822 147.777 143.081C145.181 143.012 142.584 142.942 139.987 142.873Z"/><path id="Vector_80" fill="url(#paint48_linear_165_426)" d="M147.347 173.654C146.829 171.987 147.85 171.226 147.731 169.111C147.586 166.526 145.994 166.449 145.491 163.543C145.086 161.208 146.071 161.006 145.811 158.167C145.535 155.151 144.346 154.539 144.595 152.728C144.733 151.721 145.32 150.348 147.379 148.852C147.407 147.277 147.507 145.327 147.777 143.081C145.181 143.012 142.584 142.942 139.987 142.873C140.282 147.595 140.932 153.067 142.227 159.063C143.577 165.314 145.331 170.763 147.091 175.318C147.26 175.4 147.563 175.517 147.957 175.529C148.166 175.535 148.349 175.508 148.507 175.47C148.016 174.994 147.578 174.398 147.347 173.654Z" opacity=".3" style="mix-blend-mode:multiply"/><path id="Vector_81" fill="url(#paint49_linear_165_426)" d="M133.652 142.041C133.558 143.179 133.372 144.902 132.974 146.972C132.076 151.638 131.044 153.133 130.772 156.184C130.455 159.742 131.427 162.543 131.796 163.608C134.318 170.879 141.245 174.264 143.078 175.092C143.285 174.421 143.492 173.75 143.699 173.079C143.238 172.462 142.555 171.47 141.911 170.154C140.811 167.909 140.737 166.586 139.987 164.375C138.634 160.387 137.605 160.952 137.359 158.92C136.967 155.701 139.565 154.402 141.907 148.249C142.578 146.485 142.97 145.001 143.187 144.089C140.008 143.407 136.83 142.723 133.651 142.041H133.652Z"/><path id="Vector_82" fill="url(#paint50_linear_165_426)" d="M153.234 107.996C153.896 107.889 154.556 107.782 155.218 107.675C156.048 108.843 158.441 112.535 157.97 117.467C157.858 118.635 157.376 122.514 154.097 125.599C151.749 127.808 149.14 128.503 147.944 128.742C147.942 134.486 148.051 138.109 148.248 140.276C148.272 140.538 148.476 142.731 148.179 145.56C148.088 146.422 148.041 146.858 147.922 147.096C146.286 150.398 136.904 147.781 134.37 146.686C133.711 146.401 133.042 146.005 132.755 145.304C132.388 144.403 132.74 143.586 132.883 142.872C133.235 141.118 132.193 139.794 130.101 136.392C129.217 134.953 127.934 132.794 126.435 129.99C124.699 130.496 120.609 131.404 116.606 129.494C110.722 126.687 107.365 118.914 109.077 110.49C109.674 110.319 110.271 110.149 110.869 109.978C111.264 111.613 112.026 113.814 113.587 116.034C114.534 117.38 115.324 118.502 116.692 119.129C118.841 120.114 120.749 119.114 123.539 118.425C127.935 117.34 131.611 117.745 136.077 118.237C140.955 118.774 142.292 119.777 145.859 119.103C147.445 118.803 149.431 118.402 151.057 116.825C154.256 113.723 153.366 108.686 153.233 107.994L153.234 107.996Z"/><path id="Vector_83" fill="url(#paint51_linear_165_426)" d="M135.008 114.415C135.008 114.415 134.715 115.585 135.127 116.111C135.539 116.635 136.915 118.646 137.363 118.745C137.618 118.801 138.258 118.898 138.761 118.971C139.026 119.009 139.082 119.374 138.837 119.48C138.336 119.698 137.454 119.916 135.939 119.9C133.749 119.876 131.988 119.043 131.22 118.611C131.111 118.55 131.162 118.384 131.287 118.394L132.273 118.468C133.117 118.532 133.811 117.812 133.717 116.971L133.655 116.423L135.008 114.416V114.415Z"/><path id="Vector_84" fill="url(#paint52_linear_165_426)" d="M134.104 116.772C133.969 116.697 132.868 116.564 132.716 115.972C132.51 115.168 133.232 114.19 133.322 114.033C133.699 113.374 133.793 113.285 133.968 113.173L134.211 113.031C134.211 113.031 134.225 113.025 134.24 113.02C134.395 112.969 134.92 112.965 135.026 112.99C135.364 113.071 135.694 114.461 135.547 116.414C135.559 116.489 135.571 116.565 135.582 116.641C135.612 116.839 134.093 116.841 134.104 116.772H134.104Z"/><path id="Vector_85" fill="#26264F" d="M133.069 112.906C133.021 113.145 133.653 113.621 133.923 113.825C133.956 113.85 134.051 113.934 134.137 114.07C134.149 114.09 134.16 114.113 134.17 114.142C134.294 114.527 133.677 114.963 133.79 115.136C133.872 115.263 134.289 115.106 134.335 115.214C134.379 115.316 134.032 115.517 134.081 115.639C134.119 115.731 134.332 115.652 134.462 115.795C134.527 115.866 134.506 115.921 134.571 116.135C134.609 116.256 134.661 116.389 134.702 116.463C134.904 116.823 135.494 116.966 135.611 116.827C135.644 116.788 135.617 116.754 135.652 116.621C135.652 116.621 135.685 116.498 135.774 116.358C135.901 116.156 136.201 116.017 136.504 115.809C137.066 115.423 137.224 115.087 137.272 114.973C137.278 114.96 137.283 114.949 137.286 114.938C137.294 114.919 137.301 114.899 137.307 114.88C137.426 114.492 136.934 113.819 136.934 113.819C136.539 113.287 136.04 112.931 135.641 112.704C134.912 112.561 134.318 112.579 133.907 112.624C133.572 112.662 133.106 112.717 133.068 112.906L133.069 112.906Z"/><path id="Vector_86" fill="#26264F" d="M132.842 114.916C132.842 114.916 133.308 115.476 133.924 114.804L134.228 114.893C134.228 114.893 133.484 116.529 133.325 116.529C133.166 116.529 132.702 116.423 132.702 116.423C132.528 116.35 132.43 116.164 132.47 115.979C132.543 115.643 132.734 115.153 132.842 114.916V114.916Z"/><path id="Vector_87" fill="url(#paint53_linear_165_426)" d="M134.071 114.999C134.224 114.799 134.481 114.996 134.477 115.26C134.472 115.524 134.21 115.793 133.963 115.735C133.717 115.677 133.865 115.269 134.071 114.999Z"/><path id="Vector_88" fill="url(#paint54_linear_165_426)" d="M145.427 146.137C142.248 147.257 138.544 145.619 137.619 143.385C136.935 141.733 138.396 140.158 137.363 138.457C136.368 136.819 134.571 137.553 133.331 135.898C131.98 134.093 133.57 132.494 132.371 130.074C131.469 128.253 129.31 126.615 127.187 126.618C124.665 126.623 123.723 128.945 121.555 128.474C120.423 128.229 120.45 127.545 118.868 126.426C116.122 124.485 114.281 125.298 112.02 123.931C111.356 123.528 110.614 122.912 109.925 121.921C111.275 125.352 113.612 128.066 116.606 129.494C120.609 131.404 124.699 130.497 126.435 129.991C127.934 132.795 129.217 134.954 130.102 136.393C132.192 139.795 133.235 141.119 132.883 142.873C132.74 143.587 132.387 144.404 132.755 145.305C133.042 146.006 133.711 146.402 134.37 146.687C136.904 147.782 146.286 150.399 147.923 147.097C148.041 146.859 148.088 146.423 148.179 145.561C148.235 145.024 148.273 144.51 148.298 144.028C147.644 144.866 146.72 145.681 145.427 146.136L145.427 146.137Z" opacity=".3" style="mix-blend-mode:multiply"/><path id="Vector_89" fill="url(#paint55_linear_165_426)" d="M109.301 162.811C109.301 155.164 102.247 149.194 93.8459 149.468C89.0615 149.623 84.8987 151.78 82.2998 154.964L82.2987 154.961C82.2825 154.981 82.2674 155.002 82.2513 155.022C82.2065 155.077 82.1629 155.134 82.1186 155.19C82.0383 155.293 81.9591 155.396 81.882 155.501C81.8367 155.563 81.7914 155.625 81.7472 155.689C81.6728 155.793 81.6006 155.899 81.53 156.005C81.4895 156.066 81.4486 156.127 81.4087 156.188C81.3294 156.311 81.2534 156.436 81.1785 156.561C81.1515 156.607 81.123 156.651 81.0965 156.697C80.9979 156.867 80.903 157.039 80.8124 157.213C80.7882 157.259 80.7666 157.306 80.7429 157.353C80.6771 157.483 80.6125 157.615 80.551 157.747C80.5208 157.813 80.4922 157.878 80.4637 157.944C80.4119 158.061 80.3612 158.179 80.3133 158.298C80.2852 158.367 80.2577 158.437 80.2308 158.506C80.1839 158.629 80.1391 158.752 80.0965 158.876C80.0739 158.94 80.0507 159.005 80.0292 159.07C79.9779 159.225 79.93 159.382 79.8852 159.541C79.8761 159.574 79.8647 159.606 79.8556 159.639C79.8027 159.83 79.7553 160.023 79.7122 160.216C79.6992 160.273 79.689 160.331 79.6771 160.388C79.648 160.527 79.6205 160.666 79.5963 160.807C79.5839 160.879 79.5731 160.951 79.5623 161.022C79.5424 161.152 79.5246 161.283 79.5089 161.414C79.5003 161.487 79.4917 161.561 79.4841 161.635C79.4701 161.773 79.4593 161.912 79.4502 162.051C79.4459 162.116 79.4405 162.181 79.4372 162.246C79.427 162.45 79.4205 162.654 79.4205 162.861C79.4205 167.768 82.3925 172.096 86.848 174.414C87.2577 174.627 87.6804 174.823 88.1143 175.001C88.3316 175.091 88.5521 175.175 88.7753 175.256C90.3434 175.819 92.0507 176.153 93.8459 176.206C94.0933 176.213 94.3391 176.214 94.5844 176.21C94.6669 176.209 94.7488 176.204 94.8313 176.202C94.993 176.197 95.1553 176.193 95.316 176.183C95.4141 176.177 95.5116 176.169 95.6092 176.161C95.7526 176.151 95.8965 176.14 96.0389 176.125C96.1434 176.114 96.247 176.101 96.3505 176.089C96.4852 176.072 96.62 176.056 96.7537 176.036C96.8604 176.021 96.9666 176.003 97.0723 175.986C97.2017 175.964 97.3305 175.942 97.4588 175.917C97.5661 175.897 97.6728 175.875 97.7796 175.852C97.9052 175.826 98.0302 175.798 98.1542 175.768C98.261 175.743 98.3672 175.717 98.4728 175.69C98.5957 175.658 98.7176 175.625 98.8394 175.59C98.944 175.561 99.0486 175.531 99.1526 175.499C99.1909 175.487 99.2302 175.478 99.2685 175.466C99.2674 175.465 99.2669 175.464 99.2658 175.463C105.078 173.643 109.3 168.707 109.3 162.811L109.301 162.811Z"/><path id="Vector_90" fill="url(#paint56_linear_165_426)" d="M108.147 162.813C108.147 170.44 101.129 176.418 92.7698 176.174C84.7218 175.939 78.4146 169.982 78.4146 162.862C78.4146 155.741 84.7218 149.764 92.7698 149.502C101.129 149.23 108.147 155.185 108.147 162.813Z"/><path id="Vector_91" fill="#fff" d="M88.9978 166.507L83.0302 163.47V162.492L88.9978 159.036V160.701L84.869 162.906L88.9978 164.849V166.507Z"/><path id="Vector_92" fill="#fff" d="M95.3461 157.688L91.9521 167.945L90.2469 167.928L93.6141 157.712L95.3456 157.689L95.3461 157.688Z"/><path id="Vector_93" fill="#fff" d="M96.608 164.872L100.969 162.882L96.608 160.65V158.956L102.969 162.442V163.466L96.608 166.559V164.872Z"/><path id="Vector_94" fill="url(#paint57_linear_165_426)" d="M96.4048 172.854C94.5908 168.861 96.4248 165.171 93.9757 162.609C91.5154 160.036 88.3601 162.441 85.0156 160.383C83.7364 159.595 82.3234 158.089 81.2792 154.981C79.4776 157.193 78.4146 159.92 78.4146 162.861C78.4146 169.981 84.7218 175.938 92.7698 176.173C94.6566 176.228 96.4771 175.965 98.1666 175.435C97.3321 174.565 96.7811 173.681 96.4054 172.854H96.4048Z" opacity=".3" style="mix-blend-mode:multiply"/></g></g><defs><linearGradient id="paint0_linear_165_426" x1="63.414" x2="162.603" y1="78.076" y2="-5.082" gradientUnits="userSpaceOnUse"><stop stop-color="#E38DDD"/><stop offset="1" stop-color="#9571F6"/></linearGradient><linearGradient id="paint1_linear_165_426" x1="55.582" x2="107.768" y1="76.16" y2="76.16" gradientUnits="userSpaceOnUse"><stop stop-color="#FF9085"/><stop offset="1" stop-color="#FB6FBB"/></linearGradient><linearGradient id="paint2_linear_165_426" x1="97.75" x2="120.39" y1="70.084" y2="86.446" gradientUnits="userSpaceOnUse"><stop stop-color="#fff"/><stop offset="1" stop-color="#F4F7FA"/></linearGradient><linearGradient id="paint3_linear_165_426" x1="96.256" x2="120.099" y1="34.475" y2="95.09" gradientUnits="userSpaceOnUse"><stop stop-color="#FFC444"/><stop offset="1" stop-color="#F36F56"/></linearGradient><linearGradient id="paint4_linear_165_426" x1="91.506" x2="115.349" y1="30.642" y2="91.257" gradientUnits="userSpaceOnUse"><stop stop-color="#FFC444"/><stop offset="1" stop-color="#F36F56"/></linearGradient><linearGradient id="paint5_linear_165_426" x1="88.655" x2="112.498" y1="31.632" y2="92.247" gradientUnits="userSpaceOnUse"><stop stop-color="#FFC444"/><stop offset="1" stop-color="#F36F56"/></linearGradient><linearGradient id="paint6_linear_165_426" x1="87.46" x2="111.303" y1="36.835" y2="97.449" gradientUnits="userSpaceOnUse"><stop stop-color="#FFC444"/><stop offset="1" stop-color="#F36F56"/></linearGradient><linearGradient id="paint7_linear_165_426" x1="114.61" x2="113.933" y1="35.223" y2="82.103" gradientUnits="userSpaceOnUse"><stop stop-color="#FFC444"/><stop offset="1" stop-color="#F36F56"/></linearGradient><linearGradient id="paint8_linear_165_426" x1="126.161" x2="120.141" y1="42.284" y2="88.036" gradientUnits="userSpaceOnUse"><stop stop-color="#fff"/><stop offset="1" stop-color="#F4F7FA"/></linearGradient><linearGradient id="paint9_linear_165_426" x1="131.892" x2="124.204" y1="39.441" y2="93.602" gradientUnits="userSpaceOnUse"><stop stop-color="#E38DDD"/><stop offset="1" stop-color="#9571F6"/></linearGradient><linearGradient id="paint10_linear_165_426" x1="129.09" x2="121.403" y1="39.044" y2="93.204" gradientUnits="userSpaceOnUse"><stop stop-color="#E38DDD"/><stop offset="1" stop-color="#9571F6"/></linearGradient><linearGradient id="paint11_linear_165_426" x1="126.287" x2="118.6" y1="38.646" y2="92.807" gradientUnits="userSpaceOnUse"><stop stop-color="#E38DDD"/><stop offset="1" stop-color="#9571F6"/></linearGradient><linearGradient id="paint12_linear_165_426" x1="124.894" x2="117.206" y1="28.324" y2="82.484" gradientUnits="userSpaceOnUse"><stop stop-color="#E38DDD"/><stop offset="1" stop-color="#9571F6"/></linearGradient><linearGradient id="paint13_linear_165_426" x1="131.557" x2="125.545" y1="42.972" y2="88.725" gradientUnits="userSpaceOnUse"><stop stop-color="#E38DDD"/><stop offset="1" stop-color="#9571F6"/></linearGradient><linearGradient id="paint14_linear_165_426" x1="129.095" x2="144.935" y1="78.655" y2="100.003" gradientUnits="userSpaceOnUse"><stop stop-color="#fff"/><stop offset="1" stop-color="#F4F7FA"/></linearGradient><linearGradient id="paint15_linear_165_426" x1="157.884" x2="125.022" y1="65.31" y2="109.048" gradientUnits="userSpaceOnUse"><stop stop-color="#FF9085"/><stop offset="1" stop-color="#FB6FBB"/></linearGradient><linearGradient id="paint16_linear_165_426" x1="157.634" x2="124.772" y1="60.929" y2="104.667" gradientUnits="userSpaceOnUse"><stop stop-color="#FF9085"/><stop offset="1" stop-color="#FB6FBB"/></linearGradient><linearGradient id="paint17_linear_165_426" x1="156.547" x2="123.686" y1="57.66" y2="101.398" gradientUnits="userSpaceOnUse"><stop stop-color="#FF9085"/><stop offset="1" stop-color="#FB6FBB"/></linearGradient><linearGradient id="paint18_linear_165_426" x1="156.278" x2="123.417" y1="53.304" y2="97.042" gradientUnits="userSpaceOnUse"><stop stop-color="#FF9085"/><stop offset="1" stop-color="#FB6FBB"/></linearGradient><linearGradient id="paint19_linear_165_426" x1="148.967" x2="141.673" y1="49.522" y2="87.409" gradientUnits="userSpaceOnUse"><stop stop-color="#FF9085"/><stop offset="1" stop-color="#FB6FBB"/></linearGradient><linearGradient id="paint20_linear_165_426" x1="107.856" x2="113.909" y1="110.134" y2="109.043" gradientUnits="userSpaceOnUse"><stop stop-color="#E38DDD"/><stop offset="1" stop-color="#9571F6"/></linearGradient><linearGradient id="paint21_linear_165_426" x1="105.579" x2="108.645" y1="197.1" y2="167.463" gradientUnits="userSpaceOnUse"><stop stop-color="#444B8C"/><stop offset="1" stop-color="#26264F"/></linearGradient><linearGradient id="paint22_linear_165_426" x1="84.302" x2="51.941" y1="114.408" y2="118.155" gradientUnits="userSpaceOnUse"><stop stop-color="#444B8C"/><stop offset=".39" stop-color="#383C74"/><stop offset="1" stop-color="#26264F"/></linearGradient><linearGradient id="paint23_linear_165_426" x1="139.38" x2="52.514" y1="54.979" y2="187.152" gradientUnits="userSpaceOnUse"><stop stop-color="#444B8C"/><stop offset="1" stop-color="#26264F"/></linearGradient><linearGradient id="paint24_linear_165_426" x1="27.471" x2="89.868" y1="130.354" y2="110.967" gradientUnits="userSpaceOnUse"><stop stop-color="#AB316D"/><stop offset="1" stop-color="#792D3D"/></linearGradient><linearGradient id="paint25_linear_165_426" x1="29.174" x2="91.571" y1="129.825" y2="110.438" gradientUnits="userSpaceOnUse"><stop stop-color="#FF9085"/><stop offset="1" stop-color="#FB6FBB"/></linearGradient><linearGradient id="paint26_linear_165_426" x1="29.174" x2="91.57" y1="129.825" y2="110.438" gradientUnits="userSpaceOnUse"><stop stop-color="#FF9085"/><stop offset="1" stop-color="#FB6FBB"/></linearGradient><linearGradient id="paint27_linear_165_426" x1="47.772" x2="47.074" y1="172.615" y2="177.166" gradientUnits="userSpaceOnUse"><stop stop-color="#311944"/><stop offset="1" stop-color="#A03976"/></linearGradient><linearGradient id="paint28_linear_165_426" x1="45.724" x2="56.761" y1="156.32" y2="156.32" gradientUnits="userSpaceOnUse"><stop stop-color="#AB316D"/><stop offset="1" stop-color="#792D3D"/></linearGradient><linearGradient id="paint29_linear_165_426" x1="63.807" x2="62.376" y1="172.647" y2="177.786" gradientUnits="userSpaceOnUse"><stop stop-color="#311944"/><stop offset="1" stop-color="#A03976"/></linearGradient><linearGradient id="paint30_linear_165_426" x1="45.724" x2="56.761" y1="156.32" y2="156.32" gradientUnits="userSpaceOnUse"><stop stop-color="#AB316D"/><stop offset="1" stop-color="#792D3D"/></linearGradient><linearGradient id="paint31_linear_165_426" x1="49.259" x2="67.837" y1="156.271" y2="156.271" gradientUnits="userSpaceOnUse"><stop stop-color="#AB316D"/><stop offset="1" stop-color="#792D3D"/></linearGradient><linearGradient id="paint32_linear_165_426" x1="51.315" x2="40.451" y1="111.148" y2="138.088" gradientUnits="userSpaceOnUse"><stop stop-color="#311944"/><stop offset="1" stop-color="#A03976"/></linearGradient><linearGradient id="paint33_linear_165_426" x1="81.253" x2="81.672" y1="133.724" y2="117.705" gradientUnits="userSpaceOnUse"><stop stop-color="#311944"/><stop offset="1" stop-color="#A03976"/></linearGradient><linearGradient id="paint34_linear_165_426" x1="60.315" x2="46.074" y1="114.971" y2="148.297" gradientUnits="userSpaceOnUse"><stop stop-color="#AA80F9"/><stop offset="1" stop-color="#6165D7"/></linearGradient><linearGradient id="paint35_linear_165_426" x1="60.315" x2="46.074" y1="114.971" y2="148.297" gradientUnits="userSpaceOnUse"><stop stop-color="#AA80F9"/><stop offset="1" stop-color="#6165D7"/></linearGradient><linearGradient id="paint36_linear_165_426" x1="41.946" x2="50.301" y1="114.811" y2="114.811" gradientUnits="userSpaceOnUse"><stop stop-color="#311944"/><stop offset="1" stop-color="#A03976"/></linearGradient><linearGradient id="paint37_linear_165_426" x1="42.996" x2="47.593" y1="117.426" y2="110.913" gradientUnits="userSpaceOnUse"><stop stop-color="#311944"/><stop offset="1" stop-color="#A03976"/></linearGradient><linearGradient id="paint38_linear_165_426" x1="43.316" x2="47.914" y1="117.653" y2="111.139" gradientUnits="userSpaceOnUse"><stop stop-color="#311944"/><stop offset="1" stop-color="#A03976"/></linearGradient><linearGradient id="paint39_linear_165_426" x1="54.878" x2="40.637" y1="112.647" y2="145.975" gradientUnits="userSpaceOnUse"><stop stop-color="#AA80F9"/><stop offset="1" stop-color="#6165D7"/></linearGradient><linearGradient id="paint40_linear_165_426" x1="138.176" x2="112.021" y1="93.458" y2="114.61" gradientUnits="userSpaceOnUse"><stop stop-color="#AA80F9"/><stop offset="1" stop-color="#6165D7"/></linearGradient><linearGradient id="paint41_linear_165_426" x1="128.816" x2="185.34" y1="101.829" y2="58.558" gradientUnits="userSpaceOnUse"><stop stop-color="#AA80F9"/><stop offset="1" stop-color="#6165D7"/></linearGradient><linearGradient id="paint42_linear_165_426" x1="110.098" x2="153.734" y1="99.055" y2="99.055" gradientUnits="userSpaceOnUse"><stop stop-color="#AA80F9"/><stop offset="1" stop-color="#6165D7"/></linearGradient><linearGradient id="paint43_linear_165_426" x1="154.607" x2="156.398" y1="107.801" y2="120.536" gradientUnits="userSpaceOnUse"><stop stop-color="#FFC444"/><stop offset="1" stop-color="#F36F56"/></linearGradient><linearGradient id="paint44_linear_165_426" x1="110.565" x2="112.356" y1="113.997" y2="126.733" gradientUnits="userSpaceOnUse"><stop stop-color="#FFC444"/><stop offset="1" stop-color="#F36F56"/></linearGradient><linearGradient id="paint45_linear_165_426" x1="146.601" x2="149.309" y1="170.818" y2="178.877" gradientUnits="userSpaceOnUse"><stop stop-color="#FFC444"/><stop offset="1" stop-color="#F36F56"/></linearGradient><linearGradient id="paint46_linear_165_426" x1="143.133" x2="145.821" y1="172.013" y2="180.012" gradientUnits="userSpaceOnUse"><stop stop-color="#FFC444"/><stop offset="1" stop-color="#F36F56"/></linearGradient><linearGradient id="paint47_linear_165_426" x1="154.073" x2="141.36" y1="166.685" y2="152.35" gradientUnits="userSpaceOnUse"><stop stop-color="#444B8C"/><stop offset="1" stop-color="#3E4177"/></linearGradient><linearGradient id="paint48_linear_165_426" x1="154.073" x2="141.36" y1="166.685" y2="152.35" gradientUnits="userSpaceOnUse"><stop stop-color="#444B8C"/><stop offset="1" stop-color="#3E4177"/></linearGradient><linearGradient id="paint49_linear_165_426" x1="138.086" x2="119.314" y1="158.515" y2="155.016" gradientUnits="userSpaceOnUse"><stop stop-color="#444B8C"/><stop offset="1" stop-color="#3E4177"/></linearGradient><linearGradient id="paint50_linear_165_426" x1="129.098" x2="140.788" y1="100.431" y2="143.351" gradientUnits="userSpaceOnUse"><stop stop-color="#FF9085"/><stop offset="1" stop-color="#FB6FBB"/></linearGradient><linearGradient id="paint51_linear_165_426" x1="134.442" x2="136.553" y1="116.989" y2="123.218" gradientUnits="userSpaceOnUse"><stop stop-color="#FFC444"/><stop offset="1" stop-color="#F36F56"/></linearGradient><linearGradient id="paint52_linear_165_426" x1="161.05" x2="163.162" y1="194.422" y2="200.651" gradientUnits="userSpaceOnUse"><stop stop-color="#FFC444"/><stop offset="1" stop-color="#F36F56"/></linearGradient><linearGradient id="paint53_linear_165_426" x1="206.592" x2="212.032" y1="232.132" y2="240.899" gradientUnits="userSpaceOnUse"><stop stop-color="#FFC444"/><stop offset="1" stop-color="#F36F56"/></linearGradient><linearGradient id="paint54_linear_165_426" x1="120.859" x2="132.549" y1="102.676" y2="145.595" gradientUnits="userSpaceOnUse"><stop stop-color="#FF9085"/><stop offset="1" stop-color="#FB6FBB"/></linearGradient><linearGradient id="paint55_linear_165_426" x1="74.531" x2="96.582" y1="123.028" y2="167.279" gradientUnits="userSpaceOnUse"><stop stop-color="#311944"/><stop offset="1" stop-color="#893976"/></linearGradient><linearGradient id="paint56_linear_165_426" x1="87.498" x2="108.916" y1="152.093" y2="191.819" gradientUnits="userSpaceOnUse"><stop stop-color="#FF9085"/><stop offset="1" stop-color="#FB6FBB"/></linearGradient><linearGradient id="paint57_linear_165_426" x1="81.616" x2="102.424" y1="154.733" y2="196.489" gradientUnits="userSpaceOnUse"><stop stop-color="#FF9085"/><stop offset="1" stop-color="#FB6FBB"/></linearGradient></defs></svg>