<svg xmlns="http://www.w3.org/2000/svg" width="200" height="200" fill="none" viewBox="0 0 200 200"><path fill="#F4F7FA" d="M62.1606 29.6438C56.9984 37.0336 63.0512 49.0142 55.3919 54.5716C47.9358 59.9818 38.7763 51.1139 31.7498 55.771C21.3261 62.6794 23.2296 94.2902 38.4701 113.931C43.0533 119.837 46.883 122.135 48.5789 128.815C52.221 143.159 39.421 151.691 41.8571 158.786C47.3418 174.759 131.691 188.162 165.535 140.157C181.341 117.737 183.707 85.3608 169.584 60.7716C144.063 16.3392 73.7434 13.0627 62.1606 29.6438Z"/><path fill="url(#paint0_linear_165_424)" d="M73.5337 105.265L71.0798 105.244C70.8825 104.134 70.5941 103.053 70.2135 102.016L72.3418 100.81C72.9224 100.481 73.1213 99.7417 72.786 99.1579L70.6879 95.5035C70.3521 94.9186 69.6076 94.7099 69.0254 95.0377L66.869 96.2517C66.1504 95.394 65.3591 94.5973 64.503 93.8727L65.7537 91.7326C66.0911 91.1558 65.8906 90.4086 65.3062 90.0636L61.6453 87.9035C61.0588 87.5574 60.3084 87.745 59.9693 88.3234L58.7105 90.47C57.6685 90.0792 56.5817 89.7779 55.4626 89.5671V87.0528C55.4626 86.3779 54.9106 85.8215 54.2292 85.8097L49.9591 85.738C49.275 85.7266 48.7197 86.2657 48.7197 86.9428V89.4647C47.593 89.6426 46.4965 89.9116 45.4432 90.2738L44.1682 88.0749C43.8243 87.4819 43.0626 87.2684 42.4663 87.5983L38.7316 89.6647C38.1332 89.9957 37.9278 90.7461 38.2739 91.3401L39.5537 93.5401C38.6782 94.2501 37.868 95.0355 37.1305 95.8862L34.9132 94.5994C34.3127 94.2512 33.5445 94.4431 33.1979 95.0291L31.0254 98.6965C30.6777 99.2835 30.8841 100.041 31.4863 100.389L33.6879 101.659C33.2949 102.706 32.9973 103.799 32.793 104.924L30.2502 104.903C29.5542 104.897 28.9893 105.446 28.9893 106.129V110.399C28.9893 111.082 29.5537 111.638 30.2502 111.642L32.7725 111.656C32.9709 112.791 33.2658 113.894 33.655 114.953L31.4863 116.174C30.8841 116.513 30.6777 117.267 31.0254 117.859L33.1979 121.557C33.5451 122.148 34.3132 122.35 34.9132 122.01L37.0658 120.791C37.8076 121.666 38.6265 122.474 39.5106 123.208L38.2739 125.316C37.9283 125.905 38.1332 126.658 38.7316 126.998L42.4663 129.116C43.0626 129.454 43.8243 129.251 44.1682 128.662L45.3893 126.574C46.4593 126.959 47.5736 127.249 48.7197 127.446V129.858C48.7197 130.535 49.275 131.082 49.9591 131.08L54.2292 131.067C54.9106 131.065 55.4626 130.516 55.4626 129.841V127.437C56.6006 127.238 57.7052 126.946 58.7639 126.561L59.9693 128.633C60.3084 129.216 61.0588 129.414 61.6453 129.076L65.3062 126.967C65.8906 126.63 66.0906 125.886 65.7537 125.304L64.5451 123.22C65.4092 122.496 66.2087 121.699 66.9321 120.837L69.0248 122.045C69.607 122.381 70.3515 122.182 70.6874 121.602L72.7855 117.977C73.1208 117.398 72.9219 116.655 72.3413 116.319L70.2448 115.102C70.6216 114.063 70.9068 112.981 71.0987 111.867L73.5327 111.88C74.2022 111.884 74.7451 111.344 74.7451 110.675V106.489C74.7451 105.82 74.2022 105.273 73.5327 105.267L73.5337 105.265ZM52.0971 96.1169C58.9715 96.2016 64.5138 101.774 64.5138 108.563C64.5138 115.353 58.9715 120.848 52.0971 120.838C45.1812 120.828 39.544 115.255 39.544 108.391C39.544 101.527 45.1812 96.0312 52.0971 96.1164V96.1169Z"/><path fill="url(#paint1_linear_165_424)" d="M100.443 56.9267L98.2227 56.8658C98.0437 55.883 97.7828 54.9256 97.4378 54.0038L99.365 52.9795C99.8906 52.7003 100.071 52.0523 99.7672 51.5316L97.8674 48.2701C97.5634 47.7477 96.889 47.5488 96.3612 47.827L94.406 48.8561C93.7537 48.0852 93.0356 47.3661 92.2583 46.7095L93.3941 44.8453C93.7003 44.3429 93.5187 43.6793 92.9882 43.3628L89.661 41.3785C89.1273 41.0604 88.4443 41.2103 88.1359 41.7143L86.9898 43.586C86.0399 43.2189 85.0496 42.9299 84.0292 42.7197V40.4949C84.0292 39.8976 83.5257 39.393 82.9036 39.3682L79.0022 39.2119C78.3763 39.1871 77.8685 39.6529 77.8685 40.2529V42.4879C76.8367 42.6221 75.8329 42.8378 74.8674 43.137L73.6982 41.1591C73.3828 40.6254 72.6836 40.4194 72.137 40.6998L68.7057 42.4555C68.1553 42.7369 67.9666 43.3995 68.2847 43.9343L69.4615 45.9148C68.6567 46.5278 67.9111 47.2097 67.2329 47.951L65.1914 46.7634C64.6383 46.4415 63.9305 46.5973 63.6103 47.1111L61.6065 50.3321C61.2858 50.848 61.4761 51.5267 62.0319 51.8469L64.062 53.0178C63.6998 53.9423 63.4254 54.9089 63.2367 55.9068L60.8906 55.8426C60.248 55.8248 59.7262 56.3035 59.7262 56.9116V60.7143C59.7262 61.3224 60.2475 61.8275 60.8906 61.8421L63.2184 61.8954C63.4011 62.9084 63.6728 63.8944 64.0319 64.8421L62.0319 65.8949C61.4761 66.1876 61.2858 66.8561 61.6065 67.3882L63.6103 70.71C63.93 71.2405 64.6383 71.4318 65.1914 71.1375L67.1731 70.0847C67.8556 70.8728 68.6087 71.6022 69.4216 72.2663L68.2847 74.1224C67.9666 74.6415 68.1553 75.3132 68.7057 75.6227L72.137 77.5515C72.6841 77.8593 73.3833 77.6884 73.6982 77.1709L74.8178 75.3332C75.7984 75.689 76.8195 75.9607 77.868 76.1499V78.2874C77.868 78.8874 78.3758 79.379 79.0017 79.3855L82.903 79.4259C83.5246 79.4324 84.0286 78.9531 84.0286 78.3558V76.2281C85.0664 76.0669 86.0734 75.8232 87.0378 75.496L88.1354 77.3434C88.4437 77.8626 89.1267 78.0475 89.6604 77.7558L92.9877 75.9391C93.5181 75.6496 93.6998 74.9952 93.3936 74.4771L92.296 72.6205C93.0809 71.993 93.8065 71.3008 94.4631 70.5504L96.3612 71.6453C96.889 71.9499 97.5634 71.7849 97.8674 71.2782L99.7672 68.1122C100.071 67.6065 99.8906 66.9493 99.365 66.6437L97.4669 65.5391C97.8081 64.6291 98.0664 63.6793 98.2405 62.7003L100.443 62.751C101.049 62.765 101.54 62.2981 101.54 61.7089V58.0221C101.54 57.4324 101.049 56.9413 100.443 56.9245V56.9267ZM80.9553 48.4507C87.2265 48.6593 92.2674 53.6874 92.2674 59.6825C92.2674 65.6776 87.2265 70.4518 80.9553 70.345C74.6259 70.2367 69.4513 65.2059 69.4513 59.1084C69.4513 53.0108 74.6259 48.2405 80.9553 48.4507Z"/><path fill="url(#paint2_linear_165_424)" fill-rule="evenodd" d="M80.1719 34.0946C76.2398 34.0326 72.5035 34.8041 69.1477 36.2531L64.9202 29.1097C69.5423 27.0617 74.7223 25.9938 80.1719 26.1485V34.0946ZM59.0501 44.111L59.0502 44.1108L59.0506 44.111H59.0501ZM59.0502 44.1108L51.5913 39.7762C54.6695 35.5784 58.7563 32.145 63.5099 29.7725L67.7412 36.9132C64.3046 38.6484 61.3338 41.112 59.0502 44.1108ZM109.098 42.0087L102.174 45.6583H102.173C100.023 42.5866 97.2054 39.9645 93.9159 37.9957L97.9622 31.3726C102.449 34.0922 106.258 37.7424 109.098 42.0087ZM49.9806 74.9393L57.4318 71.0029C59.5553 74.7226 62.6 77.8924 66.2544 80.2353L62.0097 87.1744C57.0356 84.121 52.8825 79.9107 49.9806 74.9393ZM54.1524 57.9177L54.1524 57.9177C54.1431 58.1688 54.1337 58.42 54.1337 58.6734L54.1332 58.6739C54.1332 62.572 55.0588 66.2842 56.703 69.6216L49.2205 73.565C46.8313 68.9952 45.483 63.8615 45.483 58.4556C45.483 58.1505 45.4879 57.8464 45.4965 57.5435L54.158 57.7672L54.1524 57.9177ZM106.755 59.9993C106.755 63.7492 105.898 67.285 104.369 70.4457L111.269 74.4554C113.442 70.1691 114.661 65.3351 114.661 60.1982C114.661 59.9082 114.657 59.6192 114.65 59.3308L106.733 59.126L106.737 59.2561C106.746 59.5031 106.755 59.7498 106.755 59.9987L106.755 59.9993ZM95.3439 80.5168C98.8264 78.3039 101.7 75.2969 103.689 71.7578L110.575 75.7503C107.91 80.4511 104.059 84.4398 99.3854 87.3454L95.3439 80.5168ZM103.011 46.9244C104.99 50.1357 106.267 53.7794 106.638 57.6489L114.575 57.8629C114.195 52.6047 112.542 47.6451 109.907 43.2812L103.011 46.9244H103.011ZM67.6146 81.0488C71.3483 83.1486 75.6291 84.4068 80.172 84.5642V92.5103C74.1089 92.3771 68.3806 90.7475 63.3833 87.975L67.6146 81.0488ZM94.0383 81.2886L94.0381 81.2887L94.0378 81.2881L94.0383 81.2886ZM94.0381 81.2887L98.0825 88.1134C93.3008 90.7964 87.7332 92.3873 81.738 92.5113V84.5743C86.2404 84.4773 90.4279 83.293 94.0381 81.2887ZM54.2592 56.2364C54.6603 52.2375 56.035 48.5405 58.1568 45.3566L50.7099 41.0386C47.8226 45.4025 45.9989 50.4941 45.5784 56.0019L54.2592 56.2359V56.2364ZM92.5612 37.2346C89.3035 35.5279 85.6388 34.4444 81.7385 34.1635H81.7391V26.2266C87.1326 26.6099 92.1806 28.163 96.6205 30.5996L92.5612 37.2346Z" clip-rule="evenodd"/><path fill="url(#paint3_linear_165_424)" d="M44.9477 72.1502L43.8647 72.1593C43.7773 71.6882 43.6501 71.2305 43.4825 70.7911L44.4215 70.2623C44.6782 70.1178 44.766 69.8014 44.6178 69.5556L43.6916 68.0154C43.5434 67.769 43.2151 67.686 42.9579 67.83L42.007 68.3631C41.69 68.0035 41.3412 67.6709 40.9644 67.369L41.5159 66.4488C41.6647 66.2008 41.5763 65.8844 41.3186 65.7426L39.7056 64.8531C39.4474 64.7108 39.117 64.7965 38.9676 65.0451L38.4135 65.9674C37.9547 65.8095 37.4771 65.6903 36.9849 65.6095V64.541C36.9849 64.2542 36.7423 64.0224 36.4426 64.023L34.5666 64.0273C34.2663 64.0278 34.0221 64.2612 34.0221 64.5491V65.6197C33.5272 65.7038 33.0463 65.8273 32.5838 65.989L32.0242 65.0655C31.8733 64.8165 31.5396 64.7324 31.2782 64.8769L29.6415 65.7831C29.3795 65.9281 29.2895 66.2477 29.441 66.4973L30.0016 67.4203C29.6178 67.7281 29.2631 68.0677 28.9401 68.4337L27.9693 67.9049C27.7067 67.762 27.3703 67.8494 27.2183 68.1L26.2679 69.6709C26.1159 69.9221 26.2059 70.2418 26.4695 70.3847L27.4329 70.907C27.2609 71.3539 27.1304 71.8192 27.0415 72.2979L25.9294 72.307C25.6253 72.3097 25.3784 72.5459 25.3784 72.8353V74.6445C25.3784 74.934 25.6253 75.1658 25.9294 75.1626L27.0329 75.1513C27.1197 75.631 27.2485 76.0963 27.4188 76.5426L26.4701 77.0747C26.2065 77.2224 26.1164 77.5437 26.2684 77.7922L27.2189 79.3453C27.3709 79.5933 27.7067 79.6747 27.9698 79.5265L28.9121 78.996C29.2372 79.362 29.5957 79.7 29.9833 80.0052L29.4415 80.907C29.29 81.1593 29.38 81.4774 29.642 81.6176L31.2787 82.4936C31.5401 82.6332 31.8744 82.5426 32.0248 82.2909L32.5606 81.3971C33.0302 81.5545 33.5191 81.6704 34.0226 81.7469V82.7707C34.0226 83.058 34.2663 83.2871 34.5671 83.2823L36.4431 83.2515C36.7428 83.2467 36.9854 83.01 36.9854 82.7232V81.7017C37.4857 81.61 37.972 81.4796 38.4377 81.3092L38.9682 82.1825C39.1175 82.4283 39.448 82.5081 39.7062 82.361L41.3191 81.4413C41.5768 81.2946 41.6647 80.9766 41.5164 80.7313L40.9838 79.8521C41.3649 79.5383 41.717 79.1944 42.0361 78.823L42.959 79.3232C43.2162 79.4623 43.5445 79.3734 43.6927 79.1243L44.6188 77.5674C44.7671 77.3184 44.6792 77.0041 44.4226 76.8645L43.4976 76.3604C43.6641 75.9157 43.7897 75.4531 43.8744 74.9777L44.9488 74.9663C45.2447 74.9631 45.4841 74.7297 45.4841 74.4445V72.6618C45.4841 72.3766 45.2442 72.1475 44.9488 72.1502H44.9477ZM35.5051 68.4186C38.5283 68.4025 40.9687 70.7302 40.9687 73.6186C40.9687 76.507 38.5277 78.8801 35.5051 78.92C32.4684 78.9599 29.9973 76.6321 29.9973 73.7205C29.9973 70.8089 32.469 68.4354 35.5051 68.4186Z"/><path fill="url(#paint4_linear_165_424)" d="M132.624 158.582C130.699 157.943 129.261 156.31 128.856 154.303L126.054 140.44L102.095 141.291L99.1461 155.733C98.7332 157.755 100.387 159.784 102.29 160.529L112.314 164.451C114.179 165.181 116.183 165.471 118.175 165.301L139.359 163.488C139.978 163.436 140.475 162.949 140.547 162.324C140.619 161.7 141.053 160.998 140.463 160.802L132.623 158.581L132.624 158.582Z"/><path fill="url(#paint5_linear_165_424)" d="M132.861 157.738C130.939 157.108 129.501 155.495 129.096 153.513L126.299 139.825L102.923 140.666L99.9773 154.926C99.5649 156.923 100.657 158.926 102.558 159.661L112.572 163.534C114.435 164.254 116.437 164.541 118.427 164.373L139.59 162.583C140.209 162.531 140.705 162.05 140.777 161.433C140.85 160.817 140.477 160.234 139.887 160.041L132.861 157.738L132.861 157.738Z"/><path fill="url(#paint6_linear_165_424)" d="M53.137 149.654C50.5386 149.809 48.413 148.124 48.413 145.896V65.6103C48.413 63.3828 50.5386 61.6626 53.137 61.7753L173.816 70.13C175.724 70.2124 176.747 68.6728 176.747 70.5672V138.85C176.747 140.744 175.203 142.377 173.295 142.491L53.1364 149.654H53.137Z"/><path fill="url(#paint7_linear_165_424)" d="M54.2173 149.654C51.6189 149.809 49.4933 148.124 49.4933 145.896V65.6103C49.4933 63.3828 51.6189 61.6626 54.2173 61.7753L174.376 66.9817C176.284 67.0642 177.828 68.6728 177.828 70.5672V138.85C177.828 140.744 176.284 142.377 174.376 142.491L54.2173 149.654Z"/><g style="mix-blend-mode:multiply" opacity=".3"><path fill="#D8DEE8" d="M174.375 68.5884L54.2167 63.6456C52.8275 63.5885 51.6981 64.5065 51.6981 65.6957V145.775C51.6981 146.965 52.8275 147.864 54.2167 147.784L174.375 140.884C175.398 140.825 176.224 139.954 176.224 138.937V70.5049C176.224 69.4882 175.397 68.6305 174.375 68.5884Z"/></g><path fill="url(#paint8_linear_165_424)" d="M173.482 135.106L55.5191 140.929C54.2808 140.99 53.2749 140.172 53.2749 139.101V66.747C53.2749 65.6759 54.2814 64.8451 55.5191 64.8915L173.482 69.2699C174.408 69.3044 175.157 70.0802 175.157 71.0031V133.352C175.157 134.275 174.408 135.06 173.482 135.106Z"/><g style="mix-blend-mode:soft-light" opacity=".6"><path fill="#fff" d="M84.9471 72.5326L58.007 71.7401V69.1714L84.9471 70.0431V72.5326Z"/></g><g style="mix-blend-mode:soft-light" opacity=".36"><path fill="#fff" d="M97.634 72.1953L91.4103 72.0072V70.252L97.634 70.4536V72.1953Z"/></g><g style="mix-blend-mode:soft-light" opacity=".36"><path fill="#fff" d="M97.634 74.6155L91.4103 74.4452V72.6899L97.634 72.8732V74.6155Z"/></g><path fill="url(#paint9_linear_165_424)" d="M128.648 75.4643L104.504 74.8034V73.0762L128.648 73.7872V75.4643Z"/><path fill="url(#paint10_linear_165_424)" d="M132.607 77.8914L108.703 77.3065V75.5874L132.607 76.2224V77.8914Z" opacity=".5"/><path fill="url(#paint11_linear_165_424)" d="M132.607 80.2106L108.703 79.6947V77.9756L132.607 78.5416V80.2106Z" opacity=".5"/><g style="mix-blend-mode:soft-light" opacity=".6"><path fill="#fff" d="M132.607 82.5298L108.703 82.0829V80.3638L132.607 80.8608V82.5298Z"/></g><g style="mix-blend-mode:soft-light" opacity=".36"><path fill="#fff" d="M97.634 77.0357L91.4103 76.8831V75.1284L97.634 75.2939V77.0357Z"/></g><g style="mix-blend-mode:soft-light" opacity=".36"><path fill="#fff" d="M97.634 79.4554L91.4103 79.3211V77.5664L97.634 77.7136V79.4554Z"/></g><g style="mix-blend-mode:soft-light" opacity=".36"><path fill="#fff" d="M97.634 81.876L91.4103 81.7596V80.0049L97.634 80.1343V81.876Z"/></g><g style="mix-blend-mode:soft-light" opacity=".36"><path fill="#fff" d="M97.634 84.2962L91.4103 84.1981V82.4434L97.634 82.5544V84.2962Z"/></g><g style="mix-blend-mode:soft-light" opacity=".6"><path fill="#fff" d="M114.311 84.5597L98.9919 84.3177V82.5786L114.311 82.853V84.5597Z"/></g><g style="mix-blend-mode:soft-light" opacity=".36"><path fill="#fff" d="M97.634 86.7164L91.4103 86.6361V84.8813L97.634 84.9746V86.7164Z"/></g><g style="mix-blend-mode:soft-light" opacity=".36"><path fill="#fff" d="M97.634 89.1366L91.4103 89.0746V87.3193L97.634 87.3948V89.1366Z"/></g><g style="mix-blend-mode:soft-light" opacity=".36"><path fill="#fff" d="M97.634 91.5568L91.4103 91.5126V89.7573L97.634 89.815V91.5568Z"/></g><path fill="url(#paint12_linear_165_424)" d="M121.488 87.0243L104.504 86.8049V85.0776L121.488 85.3321V87.0243Z" opacity=".5"/><g style="mix-blend-mode:soft-light" opacity=".6"><path fill="#fff" d="M130.311 89.4641L108.703 89.2474V87.5288L130.311 87.7903V89.4641Z"/></g><path fill="url(#paint13_linear_165_424)" d="M130.311 91.7898L108.703 91.6356V89.917L130.311 90.1159V91.7898Z"/><g style="mix-blend-mode:soft-light" opacity=".36"><path fill="#fff" d="M97.634 93.9769L91.4103 93.9505V92.1958L97.634 92.2352V93.9769Z"/></g><g style="mix-blend-mode:soft-light" opacity=".36"><path fill="#fff" d="M97.634 96.3971L91.4103 96.3885V94.6338L97.634 94.6554V96.3971Z"/></g><g style="mix-blend-mode:soft-light" opacity=".36"><path fill="#fff" d="M97.634 98.8173L91.4103 98.827V97.0723L97.634 97.0755V98.8173Z"/></g><g style="mix-blend-mode:soft-light" opacity=".36"><path fill="#fff" d="M97.634 101.238L91.4103 101.265V99.5107L97.634 99.4961V101.238Z"/></g><g style="mix-blend-mode:soft-light" opacity=".36"><path fill="#fff" d="M97.634 103.658L91.4103 103.704V101.949L97.634 101.916V103.658Z"/></g><g style="mix-blend-mode:soft-light" opacity=".36"><path fill="#fff" d="M97.634 106.078L91.4103 106.142V104.387L97.634 104.336V106.078Z"/></g><g style="mix-blend-mode:soft-light" opacity=".36"><path fill="#fff" d="M97.634 108.498L91.4103 108.58V106.825L97.634 106.756V108.498Z"/></g><g style="mix-blend-mode:soft-light" opacity=".36"><path fill="#fff" d="M97.634 110.919L91.4103 111.018V109.263L97.634 109.176V110.919Z"/></g><g style="mix-blend-mode:soft-light" opacity=".36"><path fill="#fff" d="M97.634 113.338L91.4103 113.456V111.701L97.634 111.597V113.338Z"/></g><g style="mix-blend-mode:soft-light" opacity=".36"><path fill="#fff" d="M97.634 115.759L91.4103 115.894V114.14L97.634 114.017V115.759Z"/></g><g style="mix-blend-mode:soft-light" opacity=".36"><path fill="#fff" d="M97.634 118.179L91.4103 118.332V116.578L97.634 116.437V118.179Z"/></g><g style="mix-blend-mode:soft-light" opacity=".36"><path fill="#fff" d="M97.634 120.599L91.4103 120.771V119.015L97.634 118.857V120.599Z"/></g><g style="mix-blend-mode:soft-light" opacity=".36"><path fill="#fff" d="M97.634 123.02L91.4103 123.209V121.454L97.634 121.278V123.02Z"/></g><g style="mix-blend-mode:soft-light" opacity=".36"><path fill="#fff" d="M97.634 125.44L91.4103 125.647V123.892L97.634 123.698V125.44Z"/></g><g style="mix-blend-mode:soft-light" opacity=".36"><path fill="#fff" d="M97.634 127.86L91.4103 128.085V126.331L97.634 126.118V127.86Z"/></g><g style="mix-blend-mode:soft-light" opacity=".36"><path fill="#fff" d="M97.634 130.28L91.4103 130.524V128.769L97.634 128.538V130.28Z"/></g><g style="mix-blend-mode:soft-light" opacity=".36"><path fill="#fff" d="M97.634 132.7L91.4103 132.962V131.207L97.634 130.958V132.7Z"/></g><g style="mix-blend-mode:soft-light" opacity=".36"><path fill="#fff" d="M97.634 135.12L91.4103 135.4V133.645L97.634 133.378V135.12Z"/></g><path fill="url(#paint14_linear_165_424)" d="M115.922 72.7489L98.9498 72.2352V70.4961L115.922 71.0449V72.7489Z" opacity=".5"/><g style="mix-blend-mode:soft-light" opacity=".6"><path fill="#fff" d="M128.648 122.075L104.504 122.81V121.083L128.648 120.398V122.075Z"/></g><path fill="url(#paint15_linear_165_424)" d="M132.607 124.273L108.703 125.071V123.352L132.607 122.604V124.273Z" opacity=".5"/><path fill="url(#paint16_linear_165_424)" d="M132.607 126.592L108.703 127.459V125.74L132.607 124.923V126.592Z" opacity=".5"/><path fill="url(#paint17_linear_165_424)" d="M142.908 128.509L119.623 129.42V127.723L142.908 126.861V128.509Z" opacity=".5"/><path fill="url(#paint18_linear_165_424)" d="M142.908 130.798L119.623 131.776V130.08L142.908 129.15V130.798Z"/><g style="mix-blend-mode:soft-light" opacity=".6"><path fill="#fff" d="M142.908 133.087L119.623 134.133V132.437L142.908 131.439V133.087Z"/></g><path fill="url(#paint19_linear_165_424)" d="M115.922 120.096L98.9498 120.563V118.824L115.922 118.392V120.096Z" opacity=".5"/><path fill="url(#paint20_linear_165_424)" d="M128.648 96.4388L104.504 96.4065V94.6787L128.648 94.7617V96.4388Z" opacity=".5"/><g style="mix-blend-mode:soft-light" opacity=".6"><path fill="#fff" d="M132.607 98.7635L108.703 98.8007V97.0815L132.607 97.0945V98.7635Z"/></g><path fill="url(#paint21_linear_165_424)" d="M132.607 101.083L108.703 101.189V99.4696L132.607 99.4136V101.083Z" opacity=".5"/><path fill="url(#paint22_linear_165_424)" d="M132.607 103.401L108.703 103.577V101.857L132.607 101.732V103.401Z" opacity=".5"/><path fill="url(#paint23_linear_165_424)" d="M114.311 105.908L98.9919 106.064V104.325L114.311 104.201V105.908Z" opacity=".5"/><g style="mix-blend-mode:soft-light" opacity=".6"><path fill="#fff" d="M121.488 108.185L104.504 108.408V106.68L121.488 106.493V108.185Z"/></g><path fill="url(#paint24_linear_165_424)" d="M130.311 110.396L108.703 110.741V109.022L130.311 108.722V110.396Z"/><path fill="url(#paint25_linear_165_424)" d="M130.311 112.721L108.703 113.129V111.411L130.311 111.047V112.721Z" opacity=".5"/><path fill="url(#paint26_linear_165_424)" d="M135.101 114.943L113.753 115.408V113.699L135.101 113.279V114.943Z" opacity=".5"/><path fill="url(#paint27_linear_165_424)" d="M135.101 117.255L113.753 117.781V116.073L135.101 115.591V117.255Z" opacity=".5"/><path fill="url(#paint28_linear_165_424)" d="M115.922 94.0544L98.9498 93.9827V92.2437L115.922 92.3509V94.0544Z"/><g style="mix-blend-mode:soft-light"><path fill="#fff" d="M84.9472 76.4224L69.5272 76.0397V73.5049L84.9472 73.9329V76.4224Z"/></g><g style="mix-blend-mode:soft-light" opacity=".6"><path fill="#fff" d="M65.5386 75.9407L68.4432 76.0129V73.4749L65.5386 73.394V75.9407Z"/></g><g style="mix-blend-mode:soft-light" opacity=".6"><path fill="#fff" d="M84.9472 80.0018L69.5272 79.6837V77.1489L84.9472 77.5117V80.0018Z"/></g><g style="mix-blend-mode:soft-light" opacity=".6"><path fill="#fff" d="M65.5386 79.6013L68.4432 79.6611V77.1231L65.5386 77.0552V79.6013Z"/></g><g style="mix-blend-mode:soft-light" opacity=".6"><path fill="#fff" d="M84.9472 83.5806L69.5272 83.3273V80.7925L84.9472 81.0906V83.5806Z"/></g><g style="mix-blend-mode:soft-light" opacity=".6"><path fill="#fff" d="M65.5386 83.262L68.4432 83.3094V80.7714L65.5386 80.7153V83.262Z"/></g><g style="mix-blend-mode:soft-light"><path fill="#fff" d="M84.9471 108.984L58.007 109.347V106.778L84.9471 106.494V108.984Z"/></g><g style="mix-blend-mode:soft-light" opacity=".6"><path fill="#fff" d="M84.9472 112.874L69.5272 113.152V110.618L84.9472 110.384V112.874Z"/></g><g style="mix-blend-mode:soft-light" opacity=".6"><path fill="#fff" d="M65.5386 113.225L68.4432 113.172V110.634L65.5386 110.678V113.225Z"/></g><g style="mix-blend-mode:soft-light" opacity=".6"><path fill="#fff" d="M84.9472 116.453L69.5272 116.796V114.261L84.9472 113.963V116.453Z"/></g><g style="mix-blend-mode:soft-light" opacity=".6"><path fill="#fff" d="M65.5386 116.885L68.4432 116.82V114.282L65.5386 114.338V116.885Z"/></g><g style="mix-blend-mode:soft-light" opacity=".6"><path fill="#fff" d="M84.9472 120.032L69.5272 120.44V117.905L84.9472 117.542V120.032Z"/></g><g style="mix-blend-mode:soft-light" opacity=".6"><path fill="#fff" d="M65.5386 120.546L68.4432 120.469V117.931L65.5386 118V120.546Z"/></g><g style="mix-blend-mode:soft-light"><path fill="#fff" d="M84.9471 87.1831L58.007 86.8554V84.2866L84.9471 84.6936V87.1831Z"/></g><g style="mix-blend-mode:soft-light" opacity=".6"><path fill="#fff" d="M84.9472 91.0731L69.5272 90.9562V88.4214L84.9472 88.5837V91.0731Z"/></g><g style="mix-blend-mode:soft-light" opacity=".6"><path fill="#fff" d="M65.5386 90.926L68.4432 90.9481V88.4101L65.5386 88.3794V90.926Z"/></g><g style="mix-blend-mode:soft-light" opacity=".6"><path fill="#fff" d="M84.9472 94.6525L69.5272 94.6002V92.0654L84.9472 92.163V94.6525Z"/></g><g style="mix-blend-mode:soft-light" opacity=".6"><path fill="#fff" d="M65.5386 94.5866L68.4432 94.5969V92.0589L65.5386 92.0405V94.5866Z"/></g><g style="mix-blend-mode:soft-light" opacity=".6"><path fill="#fff" d="M84.9472 101.857L69.5272 101.935V99.4006L84.9472 99.3672V101.857Z"/></g><g style="mix-blend-mode:soft-light" opacity=".6"><path fill="#fff" d="M65.5386 101.955L68.4432 101.941V99.4028L65.5386 99.4093V101.955Z"/></g><g style="mix-blend-mode:soft-light" opacity=".6"><path fill="#fff" d="M84.9472 105.435L69.5272 105.579V103.044L84.9472 102.945V105.435Z"/></g><g style="mix-blend-mode:soft-light" opacity=".6"><path fill="#fff" d="M65.5386 105.616L68.4432 105.589V103.051L65.5386 103.07V105.616Z"/></g><g style="mix-blend-mode:soft-light" opacity=".6"><path fill="#fff" d="M84.9472 98.2313L69.5272 98.2442V95.7095L84.9472 95.7418V98.2313Z"/></g><g style="mix-blend-mode:soft-light" opacity=".6"><path fill="#fff" d="M65.5386 98.2473L68.4432 98.2446V95.7066L65.5386 95.7007V98.2473Z"/></g><g style="mix-blend-mode:soft-light"><path fill="#fff" d="M84.9471 123.609L58.007 124.436V121.868L84.9471 121.12V123.609Z"/></g><g style="mix-blend-mode:soft-light" opacity=".6"><path fill="#fff" d="M84.9472 127.5L69.5272 128.043V125.508L84.9472 125.01V127.5Z"/></g><g style="mix-blend-mode:soft-light" opacity=".6"><path fill="#fff" d="M65.5386 128.184L68.4432 128.081V125.543L65.5386 125.638V128.184Z"/></g><g style="mix-blend-mode:soft-light" opacity=".6"><path fill="#fff" d="M84.9472 131.078L69.5272 131.688V129.153L84.9472 128.589V131.078Z"/></g><g style="mix-blend-mode:soft-light" opacity=".6"><path fill="#fff" d="M65.5386 131.845L68.4432 131.73V129.192L65.5386 129.298V131.845Z"/></g><g style="mix-blend-mode:soft-light" opacity=".6"><path fill="#fff" d="M84.9472 134.657L69.5272 135.331V132.796L84.9472 132.167V134.657Z"/></g><g style="mix-blend-mode:soft-light" opacity=".6"><path fill="#fff" d="M65.5386 135.505L68.4432 135.378V132.84L65.5386 132.958V135.505Z"/></g><g style="mix-blend-mode:soft-light" opacity=".6"><path fill="#fff" d="M88.2204 134.527L87.6274 134.553V70.1294L88.2204 70.1488V134.527Z"/></g><g style="mix-blend-mode:soft-light" opacity=".6"><path fill="#fff" d="M161.831 137.521C135.674 138.068 129.792 141.803 122.36 137.328C112.147 131.179 116.798 120.241 106.848 114.503C94.338 107.289 79.9148 120.5 73.386 114.059C66.8841 107.645 79.1666 92.5494 72.0566 75.7219C69.2032 68.9688 64.3444 64.5828 60.9881 62.068L54.2178 61.7748C51.6194 61.6621 49.4938 63.3823 49.4938 65.6098V145.896C49.4938 148.123 51.6194 149.809 54.2178 149.654L174.376 142.491C176.284 142.377 177.829 140.743 177.829 138.849V137.635C174.227 137.507 168.649 137.379 161.832 137.521H161.831Z"/></g><path fill="url(#paint29_linear_165_424)" d="M127.43 98.7515L125.744 96.9121C125.432 96.5434 124.944 96.048 124.245 95.6194C122.889 94.7876 121.023 94.3795 120.743 94.8544C120.426 95.393 122.199 96.9898 122.802 97.5164C123.636 98.1218 124.47 98.7272 125.303 99.3331L127.43 98.752V98.7515Z"/><path fill="url(#paint30_linear_165_424)" d="M163.443 86.249C163.9 86.4221 170.883 89.1989 172.319 96.4873C172.434 97.076 173.556 103.337 169.31 107.761C164.548 112.721 155.38 112.598 151.74 108.452C150.892 107.485 150.444 106.413 150.193 105.513L151.152 102.965C152.322 101.553 153.915 101.218 154.766 101.008C156.864 100.491 158.447 101.425 159.649 100.414C160.313 99.8544 160.445 99.049 160.563 98.3293C160.965 95.8787 159.582 94.3703 159.481 92.8587C159.406 91.7288 159.011 89.2533 160.485 87.6393C161.419 86.6172 162.712 86.3385 163.443 86.249H163.443Z"/><path fill="url(#paint31_linear_165_424)" d="M166.163 167.472C166.245 167.024 167.694 166.617 168.411 167.218C168.768 167.517 169.013 168.122 168.806 168.395C168.732 168.494 169.039 168.669 168.744 168.672C167.768 168.684 166.082 167.918 166.163 167.472Z"/><path fill="url(#paint32_linear_165_424)" d="M167.682 167.636L169.172 167.425C168.481 166.594 168.61 163.947 168.61 163.947L167.025 164.3C167.025 164.3 167.205 165.027 167.513 166.099C167.618 166.466 167.665 167.04 167.682 167.636Z"/><path fill="url(#paint33_linear_165_424)" d="M167.55 167.452C167.55 167.452 169.344 167.038 169.538 167.394C169.732 167.75 169.882 168.703 168.744 168.672C167.606 168.641 167.448 167.754 167.55 167.452Z"/><path fill="url(#paint34_linear_165_424)" d="M145.717 169.155C145.86 168.722 147.352 168.522 147.978 169.218C148.289 169.563 148.447 170.196 148.205 170.438C148.117 170.526 148.397 170.742 148.105 170.704C147.137 170.579 145.575 169.584 145.718 169.154L145.717 169.155Z"/><path fill="url(#paint35_linear_165_424)" d="M147.198 169.529H148.703C148.136 168.609 148.633 166.006 148.633 166.006L147.014 166.135C147.014 166.135 147.091 166.879 147.245 167.984C147.298 168.362 147.264 168.937 147.198 169.529V169.529Z"/><path fill="url(#paint36_linear_165_424)" d="M143.298 112.617C142.6 114.92 141.605 118.635 140.964 123.297C139.136 136.594 143.021 137.018 142.295 151.754C142.064 156.457 146.37 167.303 146.75 167.542C146.934 167.56 147.133 167.572 147.346 167.565C147.72 167.554 148.248 167.497 148.862 167.313C149.544 167.195 152.004 160.534 151.434 156.572C151.031 153.769 151.148 150.761 151.381 144.744C151.419 143.769 153.914 125.776 153.914 125.776C154.673 132.435 155.545 138.095 156.302 142.482C158.733 156.579 166.635 165.11 167.047 165.247C167.129 165.28 167.871 165.549 168.477 165.15C168.747 164.972 168.838 164.742 168.838 164.742C169.05 164.577 168.776 150.669 166.365 140.202C162.867 125.009 164.39 121.454 163.282 114.668C162.323 108.796 143.298 112.617 143.298 112.617V112.617Z"/><path fill="url(#paint37_linear_165_424)" d="M157.43 85.0631C155.107 84.9946 149.768 84.1747 146.826 86.821C146.775 86.8669 147.378 87.1887 147.081 87.5364C146.805 87.8593 145.861 88.9887 145.004 90.5159C144.384 91.6221 143.824 92.9111 143.259 94.8324C142.263 98.221 141.977 101.106 141.881 102.363C141.344 109.433 141.877 112.695 142.361 114.913C144.461 115.992 149.873 117.922 156.321 116.963C159.266 116.525 161.622 115.546 163.28 114.671C161.607 109.605 162.92 106.894 163.539 104.395C164.422 100.832 164.437 101.101 165.163 98.2712C166.363 93.6011 166.56 88.8291 165.735 87.8528C163.513 85.22 159.508 85.1245 157.428 85.0636L157.43 85.0631Z"/><path fill="url(#paint38_linear_165_424)" d="M147.093 169.329C147.093 169.329 148.927 169.171 149.069 169.551C149.211 169.93 149.227 170.894 148.105 170.705C146.982 170.515 146.95 169.614 147.093 169.329Z"/><path fill="url(#paint39_linear_165_424)" d="M150.892 82.4C150.172 81.1833 150.493 79.7936 150.565 79.4933C150.868 78.2362 150.981 78.0453 151.214 77.7796L151.544 77.4308C151.544 77.4308 151.564 77.4157 151.586 77.4006C151.816 77.2426 152.672 76.986 152.857 76.9769C153.448 76.9472 154.65 79.0658 155.339 82.3305C155.395 82.4469 155.45 82.565 155.505 82.6836C155.846 83.4243 156.139 84.1526 156.39 84.8631C160.383 85.2006 160.937 85.6691 160.955 85.9397C160.992 86.5089 158.717 87.1672 157.006 87.4178C153.275 87.9639 149.439 86.9801 149.457 86.2841C149.465 85.9812 150.206 85.5866 153.369 85.172C153.295 84.6486 153.222 84.1251 153.147 83.6017C152.89 83.5445 151.421 83.296 150.891 82.3995L150.892 82.4Z"/><path fill="url(#paint40_linear_165_424)" d="M150.142 76.8249C150.411 77.8217 151.165 78.7613 151.45 78.8686C151.487 78.8826 151.698 78.9737 151.916 79.1667C151.946 79.1931 151.975 79.2255 152.005 79.2691C152.391 79.8395 151.589 80.8454 151.857 81.0756C152.051 81.2427 152.657 80.7883 152.785 80.943C152.906 81.0886 152.433 81.5829 152.572 81.7586C152.678 81.8913 152.989 81.6616 153.269 81.833C153.409 81.9182 153.401 82.0179 153.61 82.3365C153.728 82.5171 153.877 82.709 153.98 82.8109C154.481 83.3047 155.514 83.2584 155.639 82.9737C155.674 82.8945 155.615 82.8514 155.61 82.6179C155.61 82.6179 155.605 82.4018 155.684 82.129C155.796 81.7398 156.219 81.37 156.617 80.8842C157.354 79.9856 157.452 79.3603 157.476 79.1516C157.485 79.0772 157.487 79.0222 157.489 78.9824C157.53 78.184 157.244 77.1036 156.736 76.5279C155.886 75.5629 154.777 76.4239 153.461 75.5942C151.942 74.6368 152.182 72.7112 151.49 72.6896C150.728 72.6659 149.644 74.9813 150.142 76.8239V76.8249Z"/><path fill="url(#paint41_linear_165_424)" d="M152.153 80.746C152.307 80.3449 152.822 80.546 152.94 80.9799C153.058 81.4139 152.757 81.9778 152.326 82.0009C151.895 82.0241 151.944 81.2856 152.153 80.746Z"/><path fill="#9B305E" d="M162.542 111.451C162.514 111.451 162.491 111.431 162.488 111.403C162.211 108.908 162.726 107.1 163.181 105.506C163.292 105.117 163.397 104.749 163.487 104.382C163.989 102.357 164.209 101.575 164.442 100.747C164.593 100.21 164.749 99.6539 164.991 98.7256C164.998 98.6965 165.029 98.6793 165.057 98.6868C165.086 98.6944 165.103 98.724 165.095 98.7526C164.853 99.682 164.697 100.238 164.546 100.776C164.313 101.603 164.094 102.383 163.592 104.407C163.5 104.776 163.395 105.145 163.284 105.535C162.832 107.12 162.32 108.916 162.595 111.391C162.598 111.421 162.576 111.447 162.547 111.451C162.545 111.451 162.542 111.451 162.541 111.451L162.542 111.451Z"/><path fill="url(#paint42_linear_165_424)" d="M152.157 79.9658L151.787 80.8548C151.787 80.8548 151.416 81.9216 150.927 81.5216C150.528 81.1949 150.454 81.224 150.441 81.2456C150.438 81.2499 150.439 81.2548 150.438 81.2548C150.432 81.2548 150.427 81.0418 150.423 80.8548C150.329 81.1119 150.215 81.5189 150.215 82.0257C150.215 82.5178 150.215 83.0445 150.601 83.4483C150.623 83.4715 151.043 83.8984 151.608 83.8779C151.608 83.8779 151.831 83.8699 152.675 83.478C152.675 83.478 151.519 83.0332 151.46 82.8704C151.299 82.4273 151.863 82.0138 152.082 80.9588C152.167 80.5518 152.169 80.2025 152.156 79.9658H152.157Z"/><path fill="url(#paint43_linear_165_424)" d="M126.497 97.4372C125.657 98.0248 125.206 98.8231 124.973 99.3331C125.591 100.783 126.991 103.474 129.891 105.458C134.644 108.711 141.615 108.82 146.47 105.111C152.27 100.68 153.239 92.1816 150.803 88.5428C150.522 88.1239 149.6 86.7466 148.169 86.5886C147.265 86.4889 146.034 86.8614 144.091 89.1374C140.04 93.8803 141.471 96.8415 139.078 98.2291C135.489 100.31 130.156 94.877 126.498 97.4377L126.497 97.4372Z"/><path fill="#9B305E" d="M142.825 107.105C142.801 107.105 142.778 107.087 142.773 107.062C142.766 107.033 142.785 107.004 142.814 106.998C142.871 106.986 148.498 105.69 151.032 98.6982C151.043 98.6702 151.073 98.6556 151.102 98.6659C151.13 98.6761 151.144 98.7069 151.134 98.7349C149.799 102.418 147.616 104.497 146.019 105.592C144.288 106.78 142.851 107.1 142.837 107.104C142.833 107.105 142.83 107.105 142.826 107.105H142.825Z"/><defs><linearGradient id="paint0_linear_165_424" x1="77.079" x2="-4.116" y1="123.713" y2="74.522" gradientUnits="userSpaceOnUse"><stop stop-color="#FF9085"/><stop offset="1" stop-color="#FB6FBB"/></linearGradient><linearGradient id="paint1_linear_165_424" x1="84.204" x2="72.154" y1="38.553" y2="108.592" gradientUnits="userSpaceOnUse"><stop stop-color="#FF9085"/><stop offset="1" stop-color="#FB6FBB"/></linearGradient><linearGradient id="paint2_linear_165_424" x1="86.171" x2="102.079" y1="17.095" y2="97.94" gradientUnits="userSpaceOnUse"><stop stop-color="#FFC444"/><stop offset="1" stop-color="#F36F56"/></linearGradient><linearGradient id="paint3_linear_165_424" x1="37.151" x2="31.35" y1="63.641" y2="97.357" gradientUnits="userSpaceOnUse"><stop stop-color="#FFC444"/><stop offset="1" stop-color="#F36F56"/></linearGradient><linearGradient id="paint4_linear_165_424" x1="99.082" x2="140.769" y1="152.894" y2="152.894" gradientUnits="userSpaceOnUse"><stop stop-color="#444B8C"/><stop offset="1" stop-color="#26264F"/></linearGradient><linearGradient id="paint5_linear_165_424" x1="119.919" x2="120.264" y1="194.128" y2="164.806" gradientUnits="userSpaceOnUse"><stop stop-color="#E38DDD"/><stop offset="1" stop-color="#9571F6"/></linearGradient><linearGradient id="paint6_linear_165_424" x1="48.413" x2="176.748" y1="105.717" y2="105.717" gradientUnits="userSpaceOnUse"><stop stop-color="#444B8C"/><stop offset="1" stop-color="#26264F"/></linearGradient><linearGradient id="paint7_linear_165_424" x1="49.493" x2="177.828" y1="105.717" y2="105.717" gradientUnits="userSpaceOnUse"><stop stop-color="#E38DDD"/><stop offset="1" stop-color="#9571F6"/></linearGradient><linearGradient id="paint8_linear_165_424" x1="83.721" x2="140.512" y1="49.116" y2="153.277" gradientUnits="userSpaceOnUse"><stop stop-color="#444B8C"/><stop offset="1" stop-color="#26264F"/></linearGradient><linearGradient id="paint9_linear_165_424" x1="114.006" x2="124.201" y1="58.633" y2="120.77" gradientUnits="userSpaceOnUse"><stop stop-color="#E38DDD"/><stop offset="1" stop-color="#9571F6"/></linearGradient><linearGradient id="paint10_linear_165_424" x1="108.703" x2="132.607" y1="76.739" y2="76.739" gradientUnits="userSpaceOnUse"><stop stop-color="#FF9085"/><stop offset="1" stop-color="#FB6FBB"/></linearGradient><linearGradient id="paint11_linear_165_424" x1="108.703" x2="132.607" y1="79.093" y2="79.093" gradientUnits="userSpaceOnUse"><stop stop-color="#FF9085"/><stop offset="1" stop-color="#FB6FBB"/></linearGradient><linearGradient id="paint12_linear_165_424" x1="104.504" x2="121.488" y1="86.051" y2="86.051" gradientUnits="userSpaceOnUse"><stop stop-color="#FF9085"/><stop offset="1" stop-color="#FB6FBB"/></linearGradient><linearGradient id="paint13_linear_165_424" x1="114.223" x2="123.551" y1="58.671" y2="115.525" gradientUnits="userSpaceOnUse"><stop stop-color="#E38DDD"/><stop offset="1" stop-color="#9571F6"/></linearGradient><linearGradient id="paint14_linear_165_424" x1="98.95" x2="115.922" y1="71.622" y2="71.622" gradientUnits="userSpaceOnUse"><stop stop-color="#FF9085"/><stop offset="1" stop-color="#FB6FBB"/></linearGradient><linearGradient id="paint15_linear_165_424" x1="108.703" x2="132.607" y1="123.838" y2="123.838" gradientUnits="userSpaceOnUse"><stop stop-color="#FF9085"/><stop offset="1" stop-color="#FB6FBB"/></linearGradient><linearGradient id="paint16_linear_165_424" x1="108.703" x2="132.607" y1="126.191" y2="126.191" gradientUnits="userSpaceOnUse"><stop stop-color="#FF9085"/><stop offset="1" stop-color="#FB6FBB"/></linearGradient><linearGradient id="paint17_linear_165_424" x1="119.623" x2="142.908" y1="128.14" y2="128.14" gradientUnits="userSpaceOnUse"><stop stop-color="#FF9085"/><stop offset="1" stop-color="#FB6FBB"/></linearGradient><linearGradient id="paint18_linear_165_424" x1="121.472" x2="128.757" y1="70.769" y2="115.178" gradientUnits="userSpaceOnUse"><stop stop-color="#E38DDD"/><stop offset="1" stop-color="#9571F6"/></linearGradient><linearGradient id="paint19_linear_165_424" x1="98.95" x2="115.922" y1="119.477" y2="119.477" gradientUnits="userSpaceOnUse"><stop stop-color="#FF9085"/><stop offset="1" stop-color="#FB6FBB"/></linearGradient><linearGradient id="paint20_linear_165_424" x1="104.504" x2="128.648" y1="95.559" y2="95.559" gradientUnits="userSpaceOnUse"><stop stop-color="#FF9085"/><stop offset="1" stop-color="#FB6FBB"/></linearGradient><linearGradient id="paint21_linear_165_424" x1="108.703" x2="132.607" y1="100.301" y2="100.301" gradientUnits="userSpaceOnUse"><stop stop-color="#FF9085"/><stop offset="1" stop-color="#FB6FBB"/></linearGradient><linearGradient id="paint22_linear_165_424" x1="108.703" x2="132.607" y1="102.654" y2="102.654" gradientUnits="userSpaceOnUse"><stop stop-color="#FF9085"/><stop offset="1" stop-color="#FB6FBB"/></linearGradient><linearGradient id="paint23_linear_165_424" x1="98.992" x2="114.311" y1="105.132" y2="105.132" gradientUnits="userSpaceOnUse"><stop stop-color="#FF9085"/><stop offset="1" stop-color="#FB6FBB"/></linearGradient><linearGradient id="paint24_linear_165_424" x1="111.747" x2="120.215" y1="62.433" y2="114.044" gradientUnits="userSpaceOnUse"><stop stop-color="#E38DDD"/><stop offset="1" stop-color="#9571F6"/></linearGradient><linearGradient id="paint25_linear_165_424" x1="108.703" x2="130.311" y1="112.088" y2="112.088" gradientUnits="userSpaceOnUse"><stop stop-color="#FF9085"/><stop offset="1" stop-color="#FB6FBB"/></linearGradient><linearGradient id="paint26_linear_165_424" x1="113.753" x2="135.101" y1="114.343" y2="114.343" gradientUnits="userSpaceOnUse"><stop stop-color="#FF9085"/><stop offset="1" stop-color="#FB6FBB"/></linearGradient><linearGradient id="paint27_linear_165_424" x1="113.753" x2="135.101" y1="116.686" y2="116.686" gradientUnits="userSpaceOnUse"><stop stop-color="#FF9085"/><stop offset="1" stop-color="#FB6FBB"/></linearGradient><linearGradient id="paint28_linear_165_424" x1="102.03" x2="111.413" y1="60.212" y2="117.405" gradientUnits="userSpaceOnUse"><stop stop-color="#E38DDD"/><stop offset="1" stop-color="#9571F6"/></linearGradient><linearGradient id="paint29_linear_165_424" x1="120.774" x2="129.634" y1="92.884" y2="104.032" gradientUnits="userSpaceOnUse"><stop stop-color="#FFC444"/><stop offset="1" stop-color="#F36F56"/></linearGradient><linearGradient id="paint30_linear_165_424" x1="159.598" x2="165.631" y1="110.272" y2="86.138" gradientUnits="userSpaceOnUse"><stop stop-color="#FFC444"/><stop offset="1" stop-color="#F36F56"/></linearGradient><linearGradient id="paint31_linear_165_424" x1="165.358" x2="168.549" y1="166.163" y2="168.283" gradientUnits="userSpaceOnUse"><stop stop-color="#444B8C"/><stop offset="1" stop-color="#26264F"/></linearGradient><linearGradient id="paint32_linear_165_424" x1="168.448" x2="167.749" y1="168.305" y2="163.368" gradientUnits="userSpaceOnUse"><stop stop-color="#FFC444"/><stop offset="1" stop-color="#F36F56"/></linearGradient><linearGradient id="paint33_linear_165_424" x1="165.598" x2="168.788" y1="165.803" y2="167.923" gradientUnits="userSpaceOnUse"><stop stop-color="#444B8C"/><stop offset="1" stop-color="#26264F"/></linearGradient><linearGradient id="paint34_linear_165_424" x1="145.101" x2="147.963" y1="167.76" y2="170.306" gradientUnits="userSpaceOnUse"><stop stop-color="#444B8C"/><stop offset="1" stop-color="#26264F"/></linearGradient><linearGradient id="paint35_linear_165_424" x1="147.858" x2="147.858" y1="170.31" y2="165.324" gradientUnits="userSpaceOnUse"><stop stop-color="#FFC444"/><stop offset="1" stop-color="#F36F56"/></linearGradient><linearGradient id="paint36_linear_165_424" x1="135.558" x2="172.834" y1="143.937" y2="134.739" gradientUnits="userSpaceOnUse"><stop stop-color="#FF9085"/><stop offset="1" stop-color="#FB6FBB"/></linearGradient><linearGradient id="paint37_linear_165_424" x1="172.816" x2="132.755" y1="114.308" y2="86.447" gradientUnits="userSpaceOnUse"><stop stop-color="#FFC444"/><stop offset="1" stop-color="#F36F56"/></linearGradient><linearGradient id="paint38_linear_165_424" x1="145.389" x2="148.251" y1="167.437" y2="169.982" gradientUnits="userSpaceOnUse"><stop stop-color="#444B8C"/><stop offset="1" stop-color="#26264F"/></linearGradient><linearGradient id="paint39_linear_165_424" x1="155.322" x2="149.37" y1="86.347" y2="74.721" gradientUnits="userSpaceOnUse"><stop stop-color="#FFC444"/><stop offset="1" stop-color="#F36F56"/></linearGradient><linearGradient id="paint40_linear_165_424" x1="153.676" x2="154.376" y1="74.627" y2="98.928" gradientUnits="userSpaceOnUse"><stop stop-color="#AB316D"/><stop offset="1" stop-color="#792D3D"/></linearGradient><linearGradient id="paint41_linear_165_424" x1="148.57" x2="164.069" y1="76.43" y2="95.93" gradientUnits="userSpaceOnUse"><stop stop-color="#FFC444"/><stop offset="1" stop-color="#F36F56"/></linearGradient><linearGradient id="paint42_linear_165_424" x1="151.211" x2="151.911" y1="74.697" y2="98.999" gradientUnits="userSpaceOnUse"><stop stop-color="#AB316D"/><stop offset="1" stop-color="#792D3D"/></linearGradient><linearGradient id="paint43_linear_165_424" x1="172.397" x2="127.296" y1="119.034" y2="87.668" gradientUnits="userSpaceOnUse"><stop stop-color="#FFC444"/><stop offset="1" stop-color="#F36F56"/></linearGradient></defs></svg>