<svg width="145" height="148" viewBox="0 0 145 148" fill="none" xmlns="http://www.w3.org/2000/svg">
<path d="M45.0207 76.4889C50.9514 72.8408 57.3713 69.213 64.0969 65.6872C72.8402 61.1015 81.6446 56.9439 89.5523 53.6626L88.9613 52.2563C80.9924 55.558 72.1473 59.736 63.3836 64.3421C56.6376 67.8883 50.177 71.5364 44.2054 75.2049L45.0003 76.5093L45.0207 76.4889Z" fill="#E8E8E8"/>
<path d="M54.9869 80.2795C55.5779 80.2387 56.1893 80.0553 58.8999 77.7319C64.6269 72.8405 65.3606 70.6802 68.4585 68.2345C73.2275 64.4641 75.1637 66.869 79.9124 63.2413C80.6664 62.6706 86.8214 57.9219 86.2711 52.7045C85.6189 46.5088 75.8159 42.4327 68.4788 42.1066C59.0018 41.699 49.1784 47.3648 45.7544 55.7412C45.5303 56.2915 44.4705 58.941 44.4297 62.5687C44.3074 71.3731 50.2586 80.6056 55.0072 80.2795H54.9869Z" fill="url(#paint0_radial_106_7281)"/>
<path d="M48.6689 129.906C48.9135 129.906 49.1376 129.723 49.1784 129.458L54.0901 91.8759C54.1309 91.5906 53.9271 91.346 53.6417 91.3053C53.3564 91.2849 53.1119 91.4683 53.0711 91.7536L48.1594 129.335C48.1186 129.621 48.3224 129.865 48.6077 129.906C48.6281 129.906 48.6485 129.906 48.6689 129.906Z" fill="#111112"/>
<path d="M82.562 134.41C82.8473 134.41 83.0715 134.186 83.0715 133.9L83.3365 113.927C83.3365 113.642 83.1123 113.418 82.827 113.418C82.5416 113.418 82.3174 113.642 82.3174 113.927L82.0525 133.9C82.0525 134.186 82.2767 134.41 82.562 134.41Z" fill="#111112"/>
<path d="M71.1284 97.623C71.8214 106.427 76.8146 113.275 82.8677 113.418C82.9288 108.73 83.0103 104.002 83.0715 99.335C79.8717 99.3146 75.8363 98.907 71.1284 97.623Z" fill="#111112"/>
<path d="M83.9069 99.8648C85.1502 99.8648 86.2303 99.7833 87.1678 99.7221C94.0565 99.1311 101.597 96.8484 101.842 93.2818C101.923 92.0794 101.129 90.3674 100.415 88.8592C100.008 88.0033 99.4166 86.7193 99.4777 86.3932C99.6204 86.3117 99.8446 86.1282 100.048 85.8022C100.211 85.5372 100.456 85.0277 100.354 84.5589C100.252 84.1921 100.008 83.9271 99.6815 83.7437C100.028 83.438 100.374 82.9692 100.701 82.2763C100.701 82.2763 100.762 82.154 100.762 82.1336C101.047 81.4203 101.312 80.5236 100.802 80.0141C100.517 79.7695 100.211 79.7491 100.008 79.7491C99.9669 79.7491 99.9057 79.7491 99.865 79.7491C99.8853 79.7491 99.9057 79.6472 99.9057 79.5861C99.9872 78.9135 99.7834 78.2817 99.4166 77.4869C100.313 77.12 101.067 76.5494 101.679 75.8157C102.107 75.2858 103.228 73.9203 102.861 72.4529C102.657 71.6988 102.188 71.3727 101.516 70.9243C101.169 70.6797 100.721 70.374 100.171 69.9257C99.7631 69.5792 99.6204 69.4365 98.9886 68.7232C98.6421 68.336 98.1326 67.7653 97.3582 66.9297C96.8079 66.3183 95.9927 65.4419 95.0144 64.4229V63.1593C95.0348 62.5479 95.0348 61.9365 95.0551 61.3047C95.0755 61.2028 95.0551 60.9174 95.0144 60.6321C94.9329 60.1837 94.6883 59.8576 94.5864 59.7557C94.5456 59.6538 92.8337 56.3522 88.5945 47.9961C87.9831 46.8344 87.229 45.7746 86.3322 44.8371C80.5849 38.7026 62.9353 36.4811 51.2776 46.1007C44.6947 51.522 40.9039 59.6946 41.1077 67.9691C41.3319 76.1417 45.2857 82.154 48.567 85.7614C48.7504 85.9652 49.0765 85.9856 49.2803 85.8022C49.4841 85.6187 49.5045 85.2926 49.3211 85.0888C46.1621 81.6241 42.3305 75.836 42.1267 67.9691C41.9229 60.0003 45.5914 52.1334 51.9298 46.9159C63.1799 37.6428 80.1162 39.7012 85.5985 45.5708C86.4138 46.4472 87.1271 47.4255 87.6977 48.5056C91.7331 56.4948 93.6693 60.2041 93.7915 60.4283C93.8527 60.5098 93.975 60.6525 94.0157 60.8767C94.0565 61.0805 94.0361 61.2231 94.0361 61.2435C94.0157 61.9568 94.0157 62.5683 93.9954 63.1797V64.6471C93.9954 64.7897 94.0157 64.912 94.1176 65.0139C95.1367 66.0941 95.9927 67.0112 96.5837 67.6634C97.3582 68.499 97.8473 69.0697 98.2141 69.4569C98.8867 70.211 99.0497 70.374 99.4981 70.7613C100.089 71.2504 100.558 71.5561 100.925 71.8211C101.557 72.249 101.76 72.4121 101.862 72.7586C102.107 73.7165 101.23 74.7966 100.884 75.2042C100.293 75.9379 99.4981 76.4475 98.5606 76.7532C98.4179 76.7939 98.316 76.8958 98.2549 77.0385C98.1938 77.1812 98.1938 77.3238 98.2549 77.4665C98.744 78.4855 98.9478 79.0358 98.8867 79.5045C98.8663 79.7899 98.8256 80.116 99.0497 80.4421C99.3555 80.8089 99.7427 80.8293 99.9669 80.8293C100.008 80.8293 100.089 80.8293 100.13 80.8293C100.089 80.8497 100.11 81.1146 99.8242 81.8076C99.2128 83.0712 98.6625 83.3157 98.3772 83.3565C98.1326 83.3972 97.9492 83.601 97.9492 83.8456C97.9492 84.0902 98.1122 84.3144 98.3568 84.3551C99.0905 84.5182 99.3758 84.7627 99.3962 84.8443C99.3962 84.885 99.3351 85.0888 99.1924 85.313C99.0905 85.4964 98.9886 85.578 98.8867 85.6595C98.8256 85.7002 98.7644 85.7614 98.7237 85.8022C98.153 86.4339 98.7033 87.5956 99.5185 89.328C100.13 90.6527 100.904 92.3036 100.843 93.2615C100.68 95.6867 94.6475 98.0917 87.1067 98.7642C85.9858 98.8457 84.661 98.9476 83.0917 98.9069C79.3009 98.8865 75.3267 98.3158 71.271 97.2153C69.987 96.8688 68.6419 96.4612 67.2356 95.9517C66.9707 95.8498 66.6853 95.9925 66.5834 96.2574C66.4815 96.5224 66.6242 96.8077 66.8891 96.9096C68.3158 97.4191 69.6813 97.8471 71.006 98.1936C75.1433 99.3145 79.199 99.9055 83.0713 99.9259C83.3567 99.9259 83.6624 99.9259 83.9273 99.9259L83.9069 99.8648Z" fill="#111112"/>
<path d="M81.4205 68.9074C81.6243 68.9074 81.8077 68.7851 81.8892 68.6017C82.2153 67.8476 83.0102 66.4006 84.5998 65.4427C87.2086 63.853 90.0211 64.6886 90.551 64.8517C90.6936 64.8924 90.8363 64.8924 90.9586 64.8109C91.0809 64.7294 91.1828 64.6071 91.2032 64.4644L91.6719 62.1411C91.7331 61.8761 91.5496 61.5908 91.2643 61.5296C90.9994 61.4889 90.714 61.6519 90.6733 61.9372L90.3064 63.7104C89.0632 63.3843 86.5156 63.0582 84.0496 64.546C82.3172 65.6058 81.4001 67.0935 80.9313 68.1737C80.8294 68.4387 80.9313 68.724 81.1963 68.8463C81.2574 68.8667 81.3389 68.887 81.4001 68.887L81.4205 68.9074Z" fill="#111112"/>
<path d="M90.9586 65.279C91.3254 66.6852 90.5714 68.0711 89.2874 68.4176C88.0034 68.7437 86.6787 67.8877 86.3118 66.4814C85.945 65.0752 86.699 63.6893 87.983 63.3428C89.267 62.9963 90.5917 63.8727 90.9586 65.279Z" fill="#111112"/>
<path d="M77.2425 62.854C77.2425 62.854 78.3023 62.1814 79.4232 61.835C81.2371 61.2643 85.2725 60.7752 90.5714 60.7344C90.7345 60.3268 91.1217 59.2263 90.816 57.8404C90.551 56.6787 89.9396 55.9042 89.6339 55.5781C86.3322 56.5768 83.8254 57.0251 82.0523 57.2697C81.3798 57.3512 79.4028 57.6162 77.2833 58.7983C76.2642 59.3689 75.877 59.8173 75.6936 60.0211C74.3688 61.6108 74.593 63.6896 74.7153 64.4029C75.3471 63.9546 76.2031 63.4043 77.2629 62.854H77.2425Z" fill="#111112"/>
<path d="M92.2835 85.2107L98.3773 84.3548C98.6626 84.314 98.846 84.049 98.8053 83.7841C98.7645 83.4988 98.52 83.295 98.2346 83.3561L92.2223 84.2121C91.937 84.2528 91.7536 84.5178 91.7943 84.7827C91.8351 85.0273 92.0389 85.2107 92.3039 85.2107H92.2835Z" fill="#111112"/>
<path d="M61.1418 54.4982C61.1418 55.0892 61.5902 55.6803 62.3442 55.6599C63.1391 55.6599 63.7097 56.4547 63.4244 57.1884C63.3633 57.3311 63.3633 57.4534 63.3633 57.596C63.3633 58.4724 64.4231 59.1042 65.2179 58.4928C65.4217 58.3297 65.6663 58.2482 65.9109 58.2482C66.4 58.2482 66.8687 58.5539 67.0114 59.0634C67.1744 59.6137 67.6432 59.8787 68.112 59.8787C68.5807 59.8787 69.0495 59.5933 69.2125 59.0634C69.3756 58.5539 69.8443 58.2482 70.3334 58.2482C70.578 58.2482 70.8226 58.3094 71.0264 58.4928C71.2506 58.6558 71.4951 58.7374 71.7193 58.7374C72.453 58.7374 73.0848 58.0037 72.7995 57.1884C72.7587 57.0661 72.7384 56.9439 72.7384 56.8216C72.7384 56.1898 73.2479 55.6395 73.9612 55.6599C75.0617 55.6599 75.5305 54.2129 74.593 53.5607C74.2669 53.3365 74.1038 52.9696 74.1038 52.6232C74.1038 52.2563 74.2669 51.9099 74.593 51.6857C74.9395 51.4411 75.0821 51.0946 75.0821 50.7482C75.0821 50.1571 74.6338 49.5661 73.8797 49.5865C73.0848 49.5865 72.5345 48.812 72.7995 48.0579C72.8606 47.9153 72.8606 47.793 72.8606 47.6503C72.8606 46.7739 71.8008 46.1625 71.006 46.7739C70.8022 46.937 70.5576 47.0185 70.3131 47.0185C69.8239 47.0185 69.3552 46.7128 69.1921 46.2033C69.0291 45.653 68.5603 45.3677 68.0916 45.3677C67.6228 45.3677 67.1541 45.653 66.991 46.2033C66.7668 46.9777 65.8293 47.2835 65.1975 46.7943C64.9733 46.6109 64.7288 46.5498 64.5046 46.5498C63.7709 46.5498 63.1391 47.2631 63.4244 48.0783C63.4652 48.2006 63.4856 48.3432 63.4856 48.4655C63.4856 49.0973 62.976 49.6272 62.2831 49.6068C61.1622 49.6068 60.6934 51.0539 61.6309 51.706C61.957 51.9302 62.1201 52.2971 62.1201 52.6436C62.1201 53.0104 61.957 53.3569 61.6309 53.5811C61.2844 53.8256 61.1418 54.1721 61.1418 54.5186V54.4982ZM66.6445 52.6232C66.6445 51.808 67.2967 51.1558 68.112 51.1558C68.9272 51.1558 69.5794 51.808 69.5794 52.6232C69.5794 53.4384 68.9068 54.0906 68.112 54.0906C67.3171 54.0906 66.6445 53.4384 66.6445 52.6232Z" fill="#111112"/>
<path d="M46.7123 66.8286C46.7123 67.5827 47.3034 68.3368 48.2612 68.3164C49.2599 68.3164 49.9936 69.3354 49.6471 70.2729C49.586 70.4563 49.5656 70.6194 49.5656 70.7824C49.5656 71.9237 50.9311 72.7186 51.9501 71.9237C52.2151 71.7199 52.5208 71.618 52.8265 71.618C53.4379 71.618 54.0493 72.0053 54.2328 72.6778C54.4366 73.3708 55.048 73.7376 55.639 73.7376C56.2301 73.7376 56.8415 73.3708 57.0453 72.6778C57.2491 72.0256 57.8605 71.618 58.4719 71.618C58.7776 71.618 59.0833 71.6995 59.3483 71.9237C59.6336 72.1275 59.9393 72.2294 60.2247 72.2294C61.1622 72.2294 61.9774 71.2919 61.6105 70.2525C61.5494 70.0895 61.529 69.9264 61.529 69.7634C61.529 68.9686 62.1812 68.2552 63.0983 68.2756C64.5046 68.2756 65.0956 66.421 63.9136 65.6057C63.4856 65.3204 63.2818 64.8517 63.2818 64.4033C63.2818 63.9549 63.4856 63.4862 63.9136 63.2008C64.3619 62.8951 64.5453 62.4468 64.5453 61.9984C64.5453 61.2443 63.9543 60.4902 62.9964 60.5106C61.9774 60.5106 61.2641 59.5119 61.6105 58.5541C61.6717 58.3706 61.6921 58.2076 61.6921 58.0445C61.6921 56.9032 60.3469 56.1288 59.3279 56.9032C59.063 57.107 58.7369 57.2089 58.4515 57.2089C57.8401 57.2089 57.2287 56.8217 57.0249 56.1491C56.8211 55.4358 56.2301 55.0894 55.6186 55.0894C55.0072 55.0894 54.4162 55.4562 54.2124 56.1491C53.9271 57.1274 52.7246 57.535 51.9094 56.9032C51.624 56.679 51.3183 56.5975 51.0126 56.5975C50.0751 56.5975 49.2599 57.5146 49.6267 58.5541C49.6879 58.7171 49.7083 58.9005 49.7083 59.0432C49.7083 59.838 49.0561 60.531 48.1593 60.5106C46.7123 60.5106 46.1213 62.3652 47.3237 63.1805C47.7517 63.4658 47.9555 63.9345 47.9555 64.3829C47.9555 64.8313 47.7517 65.3 47.3237 65.5854C46.8957 65.8911 46.6919 66.3395 46.6919 66.7878L46.7123 66.8286ZM53.764 64.4237C53.764 63.3843 54.5996 62.5487 55.639 62.5487C56.6784 62.5487 57.514 63.3843 57.514 64.4237C57.514 65.4631 56.6581 66.2987 55.639 66.2987C54.62 66.2987 53.764 65.4631 53.764 64.4237Z" fill="#FFBF3E"/>
<path d="M128.704 95.7683C134.757 95.7683 138.609 94.8919 139.098 92.8742C140.545 87.0658 114.498 78.1187 103.248 74.5317L102.779 75.9787C129.254 84.3959 138.119 90.4693 137.61 92.487C136.774 95.8702 112.786 95.1161 71.6379 84.9258C30.469 74.7559 8.90634 64.2191 9.74195 60.8563C10.1088 59.3889 17.0382 57.575 40.639 61.2231L40.8835 59.715C26.6375 57.5139 9.41586 55.8427 8.27455 60.4894C6.70524 66.8278 39.5588 78.5874 71.271 86.434C92.8745 91.7737 115.782 95.7683 128.704 95.7683Z" fill="#E8E8E8"/>
<path d="M100.15 75.1631L100.599 73.6957C92.8539 71.3112 84.6201 69.0081 76.101 66.9089C64.8306 64.1168 53.6212 61.773 43.6755 60.1426L43.4309 61.6507C53.3359 63.2812 64.5045 65.625 75.7342 68.3967C84.2125 70.4959 92.4259 72.7786 100.15 75.1631Z" fill="#E8E8E8"/>
<path d="M92.1202 70.8227C99.233 66.4408 122.202 51.7464 119.267 46.1825C116.964 41.8007 100.843 47.4665 91.4476 51.2369L92.0183 52.6635C110.891 45.1023 117.168 45.4896 117.922 46.9162C118.921 48.8116 112.664 56.4136 91.3253 69.5591L92.1202 70.8634V70.8227Z" fill="#E8E8E8"/>
<path d="M69.1717 83.6827C70.313 83.0917 71.4543 82.5007 72.616 81.9096C77.9354 79.1175 83.0917 76.2438 87.9626 73.3498L87.1882 72.0454C82.358 74.9191 77.2017 77.7724 71.9231 80.5645C70.7818 81.1759 69.6405 81.767 68.4991 82.3376L69.1921 83.7031L69.1717 83.6827Z" fill="#E8E8E8"/>
<path d="M20.9106 101.638C29.0832 101.638 47.2016 94.5658 64.4232 86.0671L63.7507 84.7016C37.5616 97.6025 19.647 102.351 18.0573 99.3348C16.9975 97.3172 23.5601 90.184 40.476 79.3211L39.6608 78.0371C30.0208 84.2328 14.2258 95.2995 16.7122 100.048C17.2829 101.149 18.7503 101.638 20.9106 101.638Z" fill="#E8E8E8"/>
<path d="M90.4288 125.239C94.7087 125.239 98.3569 124.077 101.027 121.611C106.387 116.679 107.141 107.549 103.146 95.9317L101.699 96.4209C105.429 107.284 104.797 116.047 99.9873 120.49C90.0212 129.682 65.2791 119.125 44.8578 96.9711C24.4364 74.797 15.9173 49.3009 25.8834 40.1092C31.4677 34.9733 42.3306 35.9516 54.9462 42.7791L55.6799 41.434C42.2694 34.1989 31.0397 33.3021 24.8644 38.9883C14.2665 48.7506 22.7448 75.225 43.7368 98.0106C59.4299 115.028 77.7521 125.259 90.4288 125.259V125.239Z" fill="#E8E8E8"/>
<path d="M113.214 45.7547C113.214 48.5265 115.477 50.7887 118.248 50.7887C121.02 50.7887 123.282 48.5265 123.282 45.7547C123.282 42.9829 121.02 40.7207 118.248 40.7207C115.477 40.7207 113.214 42.9829 113.214 45.7547Z" fill="#111112"/>
<path d="M134.247 92.5892C134.247 95.361 136.509 97.6232 139.281 97.6232C142.053 97.6232 144.315 95.361 144.315 92.5892C144.315 89.8174 142.053 87.5552 139.281 87.5552C136.509 87.5552 134.247 89.8174 134.247 92.5892Z" fill="#111112"/>
<path d="M61.896 83.8455C61.896 86.6173 64.1582 88.8795 66.93 88.8795C69.7018 88.8795 71.964 86.6173 71.964 83.8455C71.964 81.0738 69.7018 78.8115 66.93 78.8115C64.1582 78.8115 61.896 81.0738 61.896 83.8455Z" fill="#111112"/>
<path d="M20.9918 38.703C20.9918 41.4747 23.2541 43.737 26.0258 43.737C28.7976 43.737 31.0598 41.4747 31.0598 38.703C31.0598 35.9312 28.7976 33.6689 26.0258 33.6689C23.2541 33.6689 20.9918 35.9312 20.9918 38.703Z" fill="url(#paint1_radial_106_7281)"/>
<path d="M22.2555 61.0609C23.7751 61.0609 25.0069 59.829 25.0069 58.3095C25.0069 56.7899 23.7751 55.5581 22.2555 55.5581C20.736 55.5581 19.5042 56.7899 19.5042 58.3095C19.5042 59.829 20.736 61.0609 22.2555 61.0609Z" fill="#111112"/>
<path d="M32.446 88.8795C34.9898 88.8795 37.052 86.8173 37.052 84.2735C37.052 81.7297 34.9898 79.6675 32.446 79.6675C29.9022 79.6675 27.84 81.7297 27.84 84.2735C27.84 86.8173 29.9022 88.8795 32.446 88.8795Z" fill="url(#paint2_radial_106_7281)"/>
<path d="M99.1518 126.401C101.696 126.401 103.758 124.338 103.758 121.794C103.758 119.251 101.696 117.188 99.1518 117.188C96.608 117.188 94.5458 119.251 94.5458 121.794C94.5458 124.338 96.608 126.401 99.1518 126.401Z" fill="url(#paint3_radial_106_7281)"/>
<path d="M17.6293 105.042C19.9143 105.042 21.7666 103.189 21.7666 100.904C21.7666 98.6194 19.9143 96.7671 17.6293 96.7671C15.3444 96.7671 13.4921 98.6194 13.4921 100.904C13.4921 103.189 15.3444 105.042 17.6293 105.042Z" fill="#111112"/>
<path d="M71.4545 0H62.2424V9.21204H71.4545V0Z" fill="#B6B6FF"/>
<path d="M80.6665 9.21191H71.4545V18.4239H80.6665V9.21191Z" fill="#B6B6FF"/>
<path d="M71.4545 18.4033H62.2424V27.6154H71.4545V18.4033Z" fill="#B6B6FF"/>
<path d="M80.6665 27.6152H71.4545V36.8273H80.6665V27.6152Z" fill="#B6B6FF"/>
<path d="M89.8788 0H80.6667V9.21204H89.8788V0Z" fill="#B6B6FF"/>
<path d="M99.0703 9.21191H89.8583V18.4239H99.0703V9.21191Z" fill="#B6B6FF"/>
<path d="M89.8788 18.4033H80.6667V27.6154H89.8788V18.4033Z" fill="#B6B6FF"/>
<path d="M99.0703 27.6152H89.8583V36.8273H99.0703V27.6152Z" fill="#B6B6FF"/>
<path d="M108.282 0H99.0702V9.21204H108.282V0Z" fill="#B6B6FF"/>
<path d="M117.474 9.21191H108.262V18.4239H117.474V9.21191Z" fill="#B6B6FF"/>
<path d="M108.282 18.4033H99.0702V27.6154H108.282V18.4033Z" fill="#B6B6FF"/>
<path d="M117.474 27.6152H108.262V36.8273H117.474V27.6152Z" fill="#B6B6FF"/>
<path d="M16.2432 110.443H7.03113V119.655H16.2432V110.443Z" fill="#B6B6FF"/>
<path d="M25.4553 119.655H16.2433V128.867H25.4553V119.655Z" fill="#B6B6FF"/>
<path d="M16.243 128.846H7.03101V138.058H16.243V128.846Z" fill="#B6B6FF"/>
<path d="M25.4552 138.058H16.2432V147.27H25.4552V138.058Z" fill="#B6B6FF"/>
<path d="M34.6468 110.443H25.4348V119.655H34.6468V110.443Z" fill="#B6B6FF"/>
<path d="M43.859 119.655H34.647V128.867H43.859V119.655Z" fill="#B6B6FF"/>
<path d="M34.6468 128.846H25.4348V138.058H34.6468V128.846Z" fill="#B6B6FF"/>
<path d="M43.859 138.058H34.647V147.27H43.859V138.058Z" fill="#B6B6FF"/>
<path d="M53.0505 110.443H43.8385V119.655H53.0505V110.443Z" fill="#B6B6FF"/>
<path d="M62.2627 119.655H53.0507V128.867H62.2627V119.655Z" fill="#B6B6FF"/>
<path d="M53.0505 128.846H43.8385V138.058H53.0505V128.846Z" fill="#B6B6FF"/>
<path d="M62.2627 138.058H53.0507V147.27H62.2627V138.058Z" fill="#B6B6FF"/>
<path d="M71.4542 110.443H62.2422V119.655H71.4542V110.443Z" fill="#B6B6FF"/>
<path d="M80.6663 119.655H71.4542V128.867H80.6663V119.655Z" fill="#B6B6FF"/>
<path d="M71.4542 128.846H62.2422V138.058H71.4542V128.846Z" fill="#B6B6FF"/>
<path d="M80.6663 138.058H71.4542V147.27H80.6663V138.058Z" fill="#B6B6FF"/>
<path d="M131.394 65.8903C131.373 67.052 131.394 68.1933 131.516 69.355C131.557 69.7219 131.312 70.1906 131.068 70.4352C130.803 70.7001 130.375 70.9039 129.988 70.8836C129.6 70.8836 129.172 70.7409 128.907 70.4352C128.622 70.1295 128.5 69.783 128.459 69.355C128.357 68.2137 128.316 67.052 128.337 65.8903C128.337 65.5031 128.5 65.0955 128.785 64.8101C129.05 64.5452 129.478 64.3414 129.865 64.3618C130.253 64.3618 130.681 64.5044 130.945 64.8101C131.21 65.1158 131.394 65.4827 131.394 65.8903Z" fill="#111112"/>
<path d="M125.483 68.8454C125.463 69.8033 125.443 70.7815 125.422 71.7394C125.422 72.1267 125.259 72.5343 124.974 72.8196C124.709 73.0845 124.281 73.2884 123.894 73.268C123.507 73.268 123.079 73.1253 122.814 72.8196C122.549 72.5343 122.365 72.147 122.365 71.7394C122.386 70.7815 122.406 69.8033 122.426 68.8454C122.426 68.4581 122.589 68.0505 122.875 67.7652C123.14 67.5003 123.568 67.2965 123.955 67.3168C124.342 67.3168 124.77 67.4595 125.035 67.7652C125.3 68.0505 125.483 68.4378 125.483 68.8454Z" fill="#111112"/>
<path d="M124.607 58.4725C124.668 59.6749 124.668 60.857 124.648 62.0595C124.648 62.4671 124.485 62.8543 124.199 63.1396C123.935 63.4046 123.507 63.6084 123.119 63.588C122.732 63.588 122.304 63.4453 122.039 63.1396C121.774 62.8543 121.57 62.4671 121.591 62.0595C121.632 60.857 121.591 59.6749 121.55 58.4725C121.509 57.6776 122.284 56.9032 123.079 56.9439C123.935 56.9847 124.566 57.6165 124.607 58.4725Z" fill="#111112"/>
<path d="M12.3304 82.7043V84.9665C12.3304 85.3537 12.1674 85.7614 11.882 86.0467C11.6171 86.3116 11.1891 86.5154 10.8019 86.4951C10.4146 86.4951 9.98664 86.3524 9.72169 86.0467C9.45674 85.741 9.27332 85.3741 9.27332 84.9665V82.7043C9.27332 82.317 9.43636 81.9094 9.72169 81.6241C9.98664 81.3591 10.4146 81.1553 10.8019 81.1757C11.1891 81.1757 11.6171 81.3184 11.882 81.6241C12.147 81.9298 12.3304 82.2967 12.3304 82.7043Z" fill="#111112"/>
<path d="M6.66452 87.1268L6.37919 92.0385C6.33843 92.8333 5.70663 93.6078 4.85064 93.567C4.0558 93.5263 3.28134 92.8945 3.3221 92.0385L3.60743 87.1268C3.64819 86.3319 4.27999 85.5575 5.13597 85.5982C5.93082 85.639 6.70528 86.2708 6.66452 87.1268Z" fill="#111112"/>
<path d="M3.48521 78.6699C3.32216 79.424 3.1795 80.1781 3.01645 80.9321C2.97569 81.136 2.87379 81.299 2.7515 81.462C2.6496 81.6251 2.50694 81.7678 2.32351 81.8493C2.14009 81.9512 1.95666 82.0123 1.75285 82.0327C1.54905 82.0735 1.34524 82.0735 1.14144 82.0123C0.774585 81.89 0.407734 81.6658 0.224309 81.3194L0.0612639 80.9525C-0.0202585 80.6876 -0.0202585 80.4023 0.0612639 80.1373C0.224309 79.3832 0.366973 78.6291 0.530018 77.8751C0.570779 77.6712 0.672682 77.5082 0.794966 77.3452C0.896869 77.1821 1.03953 77.0394 1.22296 76.9579C1.40638 76.856 1.58981 76.7949 1.79362 76.7745C1.99742 76.7337 2.20123 76.7337 2.40503 76.7949C2.77189 76.9172 3.13874 77.1414 3.32216 77.4878L3.48521 77.8547C3.56673 78.1196 3.56673 78.4049 3.48521 78.6699Z" fill="#111112"/>
<defs>
<radialGradient id="paint0_radial_106_7281" cx="0" cy="0" r="1" gradientUnits="userSpaceOnUse" gradientTransform="translate(61.9416 82.4389) rotate(-78.5813) scale(45.3811 46.8913)">
<stop stop-color="#38C67B"/>
<stop offset="0.235294" stop-color="#448CE0"/>
<stop offset="0.45454" stop-color="#C42EB5"/>
<stop offset="0.660072" stop-color="#D23131"/>
<stop offset="0.833494" stop-color="#F87226"/>
<stop offset="1" stop-color="#EEC32B"/>
</radialGradient>
<radialGradient id="paint1_radial_106_7281" cx="0" cy="0" r="1" gradientUnits="userSpaceOnUse" gradientTransform="translate(25.2024 44.3039) rotate(-79.5605) scale(11.9207 11.3106)">
<stop stop-color="#38C67B"/>
<stop offset="0.235294" stop-color="#448CE0"/>
<stop offset="0.45454" stop-color="#C42EB5"/>
<stop offset="0.660072" stop-color="#D23131"/>
<stop offset="0.833494" stop-color="#F87226"/>
<stop offset="1" stop-color="#EEC32B"/>
</radialGradient>
<radialGradient id="paint2_radial_106_7281" cx="0" cy="0" r="1" gradientUnits="userSpaceOnUse" gradientTransform="translate(31.6925 89.3982) rotate(-79.5605) scale(10.9072 10.3489)">
<stop stop-color="#38C67B"/>
<stop offset="0.235294" stop-color="#448CE0"/>
<stop offset="0.45454" stop-color="#C42EB5"/>
<stop offset="0.660072" stop-color="#D23131"/>
<stop offset="0.833494" stop-color="#F87226"/>
<stop offset="1" stop-color="#EEC32B"/>
</radialGradient>
<radialGradient id="paint3_radial_106_7281" cx="0" cy="0" r="1" gradientUnits="userSpaceOnUse" gradientTransform="translate(98.3983 126.919) rotate(-79.5605) scale(10.9072 10.3489)">
<stop stop-color="#38C67B"/>
<stop offset="0.235294" stop-color="#448CE0"/>
<stop offset="0.45454" stop-color="#C42EB5"/>
<stop offset="0.660072" stop-color="#D23131"/>
<stop offset="0.833494" stop-color="#F87226"/>
<stop offset="1" stop-color="#EEC32B"/>
</radialGradient>
</defs>
</svg>
