<svg width="122" height="123" viewBox="0 0 122 123" fill="none" xmlns="http://www.w3.org/2000/svg">
<path d="M22.2416 97.0114H1.37181C0.801157 97.0114 0.352783 96.563 0.352783 95.9923C0.352783 95.4217 0.801157 94.9733 1.37181 94.9733H21.6913L32.6357 78.7096C32.8395 78.4243 33.1452 78.2612 33.512 78.2612C33.8585 78.2612 34.1846 78.465 34.368 78.7707L42.6222 92.813L50.7133 66.257C50.8356 65.8698 51.182 65.5845 51.5896 65.5437C51.9972 65.5233 52.4049 65.7271 52.5883 66.094L64.3071 88.4311L88.6416 60.7747C88.8658 60.5301 89.1919 60.3874 89.5179 60.4282C89.844 60.4689 90.1498 60.6728 90.2924 60.9581L99.158 77.6702L116.726 31.3043C116.93 30.7744 117.521 30.5094 118.03 30.7132C118.56 30.9171 118.825 31.5081 118.621 32.0176L100.259 80.4827C100.116 80.8496 99.7694 81.1145 99.3618 81.1349C98.9338 81.1756 98.5873 80.9515 98.4039 80.605L89.1715 63.2203L64.837 90.8972C64.6128 91.1418 64.2867 91.2844 63.9403 91.2437C63.6142 91.2029 63.3085 90.9991 63.1658 90.7138L51.9157 69.253L43.8654 95.6663C43.7431 96.0535 43.417 96.3388 43.0094 96.3796C42.6222 96.4407 42.2146 96.2369 42.0108 95.8904L33.4101 81.2368L23.0568 96.6038C22.8734 96.8891 22.5473 97.0521 22.2212 97.0521L22.2416 97.0114Z" fill="#5CD9EA"/>
<path d="M86.0533 106.814C85.8903 106.814 85.7476 106.774 85.5846 106.712L55.6455 91.5696L49.2663 105.856C49.1033 106.223 48.7364 106.468 48.3288 106.468H7.01732C6.44666 106.468 5.99829 106.019 5.99829 105.449C5.99829 104.878 6.44666 104.43 7.01732 104.43H47.6563L54.2188 89.7761C54.3411 89.5315 54.5449 89.3277 54.8098 89.2258C55.0748 89.1443 55.3601 89.1443 55.6047 89.2869L85.5846 104.45L92.5751 90.7136C92.7178 90.4283 92.9827 90.2245 93.3088 90.1633C93.6145 90.1022 93.9406 90.2041 94.1852 90.4283L105.313 100.884L117.949 63.6889C118.132 63.159 118.703 62.8737 119.233 63.0571C119.763 63.2405 120.048 63.8112 119.865 64.3411L106.719 103.044C106.617 103.37 106.332 103.615 106.006 103.696C105.68 103.778 105.313 103.696 105.068 103.451L93.7776 92.8536L86.9501 106.284C86.7667 106.631 86.4202 106.835 86.033 106.835L86.0533 106.814Z" fill="#5CD9EA"/>
<path d="M111.244 36.8071C110.918 36.8071 110.571 36.6441 110.388 36.3384C110.082 35.8696 110.225 35.2378 110.693 34.9321L117.154 30.7948C117.623 30.4891 118.255 30.6318 118.56 31.1006C118.866 31.5693 118.723 32.2011 118.255 32.5068L111.794 36.6441C111.631 36.746 111.427 36.8071 111.244 36.8071Z" fill="#5CD9EA"/>
<path d="M119.009 40.6185C118.52 40.6185 118.092 40.2721 118.01 39.7625L116.685 31.8141C116.583 31.2638 116.971 30.7339 117.521 30.632C118.071 30.5301 118.601 30.9174 118.703 31.4676L120.028 39.4161C120.13 39.9664 119.742 40.4962 119.192 40.5982C119.131 40.5982 119.07 40.5982 119.029 40.5982L119.009 40.6185Z" fill="#5CD9EA"/>
<path d="M113.017 67.5C112.691 67.5 112.344 67.337 112.161 67.0312C111.855 66.5625 111.998 65.9307 112.467 65.625L118.927 61.4877C119.396 61.182 120.028 61.3247 120.333 61.7934C120.639 62.2622 120.496 62.894 120.028 63.1997L113.587 67.337C113.424 67.4389 113.221 67.5 113.037 67.5H113.017Z" fill="#5CD9EA"/>
<path d="M120.782 71.3119C120.293 71.3119 119.865 70.9654 119.783 70.4559L118.458 62.5075C118.357 61.9572 118.744 61.4273 119.294 61.3254C119.844 61.2235 120.374 61.6107 120.476 62.161L121.801 70.1094C121.903 70.6597 121.516 71.1896 120.965 71.2915C120.904 71.2915 120.843 71.2915 120.802 71.2915L120.782 71.3119Z" fill="#5CD9EA"/>
<path fill-rule="evenodd" clip-rule="evenodd" d="M99.3423 24.3014C99.215 24.1917 99.0152 24.0195 98.8319 24.1112L98.8115 24.0704C98.5873 24.1927 98.0166 25.2933 98.2408 27.6167C98.2408 27.6167 98.4555 29.7757 98.5473 31.3287C98.4188 31.4934 98.2827 31.6628 98.1389 31.8353C96.2428 34.1402 94.4099 35.3571 92.4325 36.67C91.3696 37.3757 90.265 38.1091 89.0863 39.0541C88.7474 37.916 88.3687 36.7436 87.9487 35.545L87.9284 35.5246C87.1947 33.405 86.3183 31.2243 85.2585 28.9824C84.2802 26.8424 83.2408 24.9063 82.2014 23.0924C80.5914 22.4198 78.7979 22.6033 77.4935 23.6223C76.2299 24.6209 75.9446 26.0068 75.8834 26.4144C76.4539 27.6776 77.0244 28.9431 77.5949 30.2086L77.595 30.2089C78.7364 32.7409 79.8779 35.2729 81.0193 37.7868C81.1518 38.0925 81.2894 38.3931 81.4269 38.6937L81.427 38.6938C81.5645 38.9944 81.7021 39.295 81.8346 39.6007C82.5976 41.2452 83.3437 42.8898 84.0893 44.5398C83.9068 45.7321 84.3454 46.9224 85.2584 47.6711C86.6239 48.792 88.2951 48.3029 88.4174 48.2621C89.1918 48.1194 90.3331 47.8341 91.5763 47.1412C93.868 45.8663 94.9731 44.0377 96.6925 41.1924C97.282 40.2168 97.9437 39.1217 98.7503 37.8884C99.4747 36.7576 100.521 35.2287 101.875 33.4608C102.734 33.3617 103.635 33.0455 104.416 32.3654C104.722 32.08 104.905 31.8966 104.905 31.8966C104.979 31.8142 105.03 31.7518 105.078 31.6932C105.148 31.6069 105.212 31.5289 105.333 31.4075C105.442 31.2988 105.551 31.2082 105.623 31.1478C105.659 31.1176 105.687 31.095 105.7 31.0814C105.722 31.065 105.742 31.0501 105.761 31.0362C105.813 30.9984 105.854 30.9686 105.884 30.9387C105.884 30.9387 106.087 30.7757 106.312 30.633C106.536 30.4903 107.657 29.8178 109.206 28.9618C109.899 28.493 110.306 28.1058 110.449 27.6167C110.49 27.5759 110.612 27.1683 110.449 27.0256C110.23 26.8615 109.701 27.2361 109.154 27.6234C109.09 27.6688 109.025 27.7144 108.961 27.7593C108.35 28.1873 107.473 28.7987 106.352 29.3694C106.271 29.1248 106.169 28.8803 106.067 28.6357L106.067 28.6357L109.878 25.334C110.632 24.9264 110.979 24.2946 110.836 23.887C110.816 23.8055 110.734 23.6425 110.49 23.5202C109.776 24.1112 109.043 24.7022 108.288 25.2933C107.392 26.027 106.495 26.6995 105.598 27.3517C106.576 26.027 107.473 25.0895 108.146 24.4781C108.269 24.3683 108.393 24.2599 108.518 24.1521C109.362 23.4188 110.176 22.7117 110.123 21.7878V21.7878C110.123 21.6858 110.123 21.421 109.98 21.3394C109.532 21.0949 108.166 22.5827 107.534 23.296C107.044 23.8331 106.645 24.3238 106.307 24.7389C105.619 25.5838 105.186 26.1155 104.763 26.0881C104.6 26.0677 104.498 25.9862 104.437 25.9251C104.763 25.1099 105.089 24.4781 105.313 24.0501C105.669 23.3973 106.036 22.8849 106.358 22.4343C106.479 22.2659 106.593 22.1061 106.699 21.9509C107.086 21.3802 107.371 20.8707 107.371 20.2796C107.31 20.1574 107.229 20.0962 107.147 20.0962C106.495 19.9128 105.496 21.849 105.415 22.012C104.579 23.0922 103.744 24.2335 103.744 24.2335C101.114 27.8205 100.462 27.8612 100.259 27.8205C100.116 27.7797 99.8917 27.637 99.8101 27.1683C99.8713 26.5161 99.8509 26.0066 99.8101 25.6397C99.7082 24.6615 99.4636 24.4169 99.3821 24.3354C99.3698 24.3251 99.3565 24.3137 99.3423 24.3014Z" fill="url(#paint0_radial_106_7135)"/>
<path d="M87.9488 35.5453C85.9108 36.8904 83.8727 38.2355 81.855 39.601C81.5901 38.9896 81.3047 38.3986 81.0398 37.7872C83.3428 37.0534 85.6662 36.2994 87.9692 35.5249L87.9488 35.5453Z" fill="#111112"/>
<path d="M88.3563 35.3614L79.8372 38.8872C78.431 34.913 77.0247 30.9592 75.6184 26.985C75.5369 26.3939 75.4962 25.2119 76.1891 24.1521C77.1878 22.6235 79.3889 21.9102 81.6919 22.4809C82.1402 22.5828 82.5071 22.8885 82.7313 23.2961C83.1593 24.0502 83.5873 24.8246 84.0153 25.6195C85.8291 29.023 87.2354 32.3043 88.3563 35.4022V35.3614Z" fill="#E8E8E8"/>
<path d="M83.4038 16.8958C82.8127 17.976 82.2217 19.0358 81.6103 20.116C80.1836 19.3007 79.9798 16.9162 81.1415 14.7559C81.916 15.4284 82.6701 16.1621 83.4038 16.8958Z" fill="#111112"/>
<path fill-rule="evenodd" clip-rule="evenodd" d="M81.6101 20.1159C82.2216 19.0357 82.8126 17.9759 83.4036 16.8957C82.6903 16.2843 81.9363 15.5506 81.1618 14.715C80.0001 13.431 79.0626 12.1878 78.3289 11.0669C77.1162 12.7483 75.9087 14.4297 74.7011 16.1111C74.137 16.8966 73.5728 17.6821 73.0082 18.4676C72.3893 18.7213 71.6507 19.0799 70.8694 19.5663C70.8694 19.5663 68.7702 20.8707 66.9563 23.031C63.4712 27.1887 62.5133 33.792 62.4114 34.6072C61.3196 37.6245 60.2345 40.6485 59.1483 43.6754C58.349 45.9031 57.5491 48.1322 56.7456 50.3614L63.3693 66.3194C66.6913 60.5721 70.0134 54.784 73.3151 48.9755L73.3168 48.9725C75.1097 45.8349 76.9026 42.6973 78.6752 39.5597C79.6942 38.6629 80.3464 37.7458 80.7947 36.9306C83.4785 32.0319 81.0066 26.1713 79.6562 23.6218L81.6101 20.1159Z" fill="url(#paint1_radial_106_7135)"/>
<path fill-rule="evenodd" clip-rule="evenodd" d="M77.6565 11.7398C79.9391 15.3675 82.4663 16.7126 83.8318 17.2629L83.8726 17.2425C85.4623 17.8743 87.3169 18.18 87.7041 17.5075C87.8404 17.2769 87.858 16.8201 87.8736 16.4195C87.8882 16.0411 87.9009 15.7128 88.0098 15.6732C88.0506 15.6732 88.1118 15.6732 88.1933 15.6121C88.1977 15.6076 88.2071 15.6012 88.2189 15.5931C88.2613 15.564 88.3359 15.5127 88.3359 15.449C88.3566 15.3457 88.2464 15.2215 88.1326 15.1241C88.3841 15.1857 88.6651 14.9568 88.7028 14.9191C88.7079 14.914 88.7158 14.9067 88.7258 14.8976C88.7955 14.8335 88.9626 14.6797 88.927 14.5727C88.9093 14.5374 88.8726 14.5174 88.8366 14.4978C88.7894 14.4721 88.7435 14.4471 88.7435 14.3892C88.7232 14.3281 88.7435 14.2873 88.7843 14.2466C88.8802 14.1187 88.9009 13.9658 88.9054 13.6699C89.0781 13.6913 89.3627 13.7068 89.6606 13.5744C89.8033 13.5132 90.1701 13.3502 90.2313 13.0445H90.2109C90.2373 12.8994 90.1868 12.8055 90.0928 12.6304C90.0414 12.5348 89.9771 12.4151 89.9052 12.2496C89.8366 12.1262 89.8234 12.0766 89.7539 11.8154C89.72 11.6883 89.6729 11.5111 89.5995 11.251C89.5511 11.0574 89.4772 10.8001 89.3879 10.4891C89.3784 10.456 89.3687 10.4223 89.3589 10.388L89.7422 9.64056C89.7626 9.62018 89.8033 9.57942 89.8033 9.51828V9.33485V5.99243C89.8033 5.72749 89.7626 5.42178 89.6607 5.07531C89.0696 3.03725 85.4419 0.673095 81.8549 1.48832C80.1429 1.87555 78.2068 3.03725 77.2081 5.15683C75.653 8.40853 77.5003 11.4801 77.6528 11.7336C77.6542 11.7359 77.6554 11.7379 77.6565 11.7398Z" fill="url(#paint2_radial_106_7135)"/>
<path d="M88.56 10.1503C88.56 10.1503 88.4174 10.13 88.3766 10.0688C88.2747 9.96692 87.7856 9.47778 87.0926 9.55931C86.6646 9.60007 86.3589 9.80387 86.1959 9.92615C86.094 10.0077 85.9309 10.0077 85.829 9.88539C85.7475 9.78349 85.7475 9.62045 85.8698 9.51854C86.0736 9.3555 86.4812 9.07017 87.0519 9.02941C87.7244 8.96827 88.2339 9.27398 88.5397 9.49816L88.7434 9.25359C88.825 9.15169 88.988 9.13131 89.1103 9.21283C89.2122 9.29436 89.2326 9.4574 89.1511 9.57968L88.7842 10.0484C88.7842 10.0484 88.6619 10.13 88.6008 10.1503H88.56Z" fill="#111112"/>
<path d="M88.4988 10.1296C88.4172 10.476 88.0911 10.7206 87.7651 10.6391C87.439 10.5575 87.2352 10.2315 87.3167 9.86461C87.3982 9.49776 87.7243 9.27357 88.0504 9.35509C88.3765 9.41623 88.5803 9.7627 88.4988 10.1296Z" fill="#111112"/>
<path d="M85.5027 7.90881C85.5027 7.90881 85.8085 7.82729 86.0938 7.82729C86.5625 7.82729 87.5612 7.99033 88.8452 8.37756C88.9063 8.29604 89.0897 8.05147 89.1101 7.705C89.1305 7.39929 89.049 7.17511 88.9878 7.0732C88.1318 7.0732 87.5001 6.99168 87.0517 6.93054C86.8886 6.91016 86.3995 6.82864 85.8085 6.93054C85.5231 6.99168 85.4008 7.0732 85.3397 7.11396C84.9117 7.39929 84.8098 7.90881 84.7894 8.09223C84.9729 8.03109 85.2174 7.96995 85.5027 7.90881Z" fill="#111112"/>
<path d="M87.6429 15.3886C87.541 15.3886 87.4391 15.3886 87.3168 15.3682C86.4812 15.2256 85.9717 14.5938 85.8087 14.3288C85.7271 14.2065 85.7679 14.0639 85.8902 13.9824C86.0124 13.9008 86.1551 13.9416 86.2366 14.0639C86.3793 14.2677 86.7665 14.7772 87.3983 14.8791C87.5818 14.8995 87.7856 14.8995 87.9894 14.8587C88.132 14.8383 88.2543 14.9199 88.2951 15.0421C88.3359 15.1848 88.2339 15.3071 88.1116 15.3479C87.9486 15.3886 87.8059 15.409 87.6429 15.409V15.3886Z" fill="#111112"/>
<path d="M67.9959 53.6017C70.9714 57.8612 70.5231 63.2825 67.0176 65.7485C63.5121 68.2146 58.2539 66.7472 55.2784 62.508C52.3028 58.2485 52.7512 52.8272 56.2567 50.3612C59.7621 47.8951 65.0203 49.3625 67.9959 53.6017Z" fill="#D763AA"/>
<path d="M80.8968 79.8111C83.2405 84.254 84.0965 88.3098 82.7921 89.3288C81.3859 90.4294 77.1263 88.3302 72.7445 83.6426L57.7852 62.2634C61.5759 58.9413 65.3667 55.5989 69.1575 52.2769C70.9714 54.5187 72.9075 57.2701 74.701 60.5514C78.7364 67.9903 80.2649 74.9605 80.8764 79.8314L80.8968 79.8111Z" fill="#D763AA"/>
<path d="M65.4688 62.5282C61.7595 66.156 56.3383 66.6247 53.3219 63.5676C50.3056 60.5105 50.8966 55.0893 54.5855 51.4412C58.2948 47.8134 63.7161 47.3447 66.7324 50.4018C69.7283 53.4588 69.1577 58.8801 65.4688 62.5282Z" fill="#D763AA"/>
<path d="M66.977 63.4856C65.0612 65.646 62.6766 68.0101 59.7418 70.3131C53.0774 75.5102 46.4537 78.18 41.7458 79.5659C41.5216 79.7493 41.277 79.9124 41.0528 80.0754C39.3612 81.2983 37.7104 82.2154 36.3245 82.7861C34.6329 83.4586 33.3286 83.5809 32.6968 83.0103C32.3503 82.7045 32.2076 82.1746 32.2076 81.4613C32.228 79.5455 33.6139 76.2846 36.243 72.7384C36.3857 72.5346 36.508 72.3716 36.671 72.1678C42.8667 66.074 49.0828 60.0005 55.2989 53.9067C59.212 57.1065 63.1046 60.2859 67.0177 63.4856H66.977Z" fill="#D763AA"/>
<path fill-rule="evenodd" clip-rule="evenodd" d="M77.4509 117.736C75.8854 113.081 74.8787 109.07 74.2324 106.02C72.0313 95.8912 72.9076 93.0176 73.3968 91.754C73.5128 91.4485 73.6435 91.1412 73.7867 90.8047C74.1212 90.0184 74.5237 89.0724 74.9661 87.6167C75.8017 84.8246 76.087 82.4196 76.1889 80.8096C77.2486 82.2259 78.3135 83.6474 79.3783 85.0688C80.4432 86.4905 81.5082 87.9121 82.568 89.3287C82.2419 90.9999 81.9566 92.7118 81.7325 94.5053C80.6859 102.392 80.7361 109.662 81.3331 116.079C84.6037 120.309 86.507 121.18 87.6633 121.122C88.1089 121.101 88.549 121.218 88.9894 121.335C89.3948 121.443 89.8005 121.55 90.2109 121.55C90.2542 121.55 90.2985 121.55 90.3434 121.55C90.8684 121.547 91.4846 121.543 91.8413 121.938C92.0247 122.141 92.0859 122.386 92.1063 122.569L92.1266 122.59L76.2502 122.631C76.0871 122.04 75.9648 121.143 76.3317 120.185C76.4545 119.869 76.5773 119.659 76.6611 119.516C76.6746 119.493 76.6872 119.471 76.6985 119.451C76.9473 119.06 77.2168 118.518 77.4509 117.736Z" fill="url(#paint3_radial_106_7135)"/>
<path d="M81.7936 116.252C80.5504 116.598 78.6346 116.945 76.4131 116.537C75.7609 116.415 75.1903 116.252 74.6808 116.068C74.0286 112.705 73.5394 109.811 73.1726 107.569C71.5829 97.8887 71.5829 94.9742 72.5204 91.9171C73.193 89.7772 74.1305 88.1671 74.8438 87.1277C70.3805 80.5448 65.9171 73.9415 61.4537 67.3585C64.1847 62.1818 66.9158 56.9848 69.6264 51.8081C74.049 57.6166 79.5925 66.686 82.2827 78.7717C83.1183 82.5421 83.5667 86.0679 83.7705 89.2677C83.1184 98.2555 82.4458 107.243 81.7936 116.231V116.252Z" fill="#E8E8E8"/>
<path d="M92.5547 122.63H75.9037C75.6795 121.672 75.8018 120.958 75.9649 120.469C76.0464 120.225 76.189 119.98 76.4336 119.491C76.7597 118.9 77.1265 118.207 77.4323 117.657C77.738 118.615 78.4105 119.369 79.2257 119.511C80.4486 119.736 81.9771 118.594 82.1605 116.719C82.5478 115.945 82.8127 115.578 82.9758 115.619C83.1592 115.68 83.1999 116.291 83.0777 117.473C84.5247 118.329 85.7883 118.798 86.6443 119.043C88.397 119.552 89.7829 119.593 91.5356 120.653C92.0248 120.958 92.412 121.244 92.6362 121.448L92.5343 122.63H92.5547Z" fill="#111112"/>
<path fill-rule="evenodd" clip-rule="evenodd" d="M6.3652 63.0172C4.70919 65.0808 3.05319 67.1445 1.39209 69.2132C1.53475 69.3151 1.77934 69.3966 2.04428 69.3966C2.57532 69.3783 2.94182 68.9158 3.26206 68.5116C3.29825 68.466 3.33384 68.421 3.36901 68.3776C3.63244 68.0556 3.97061 67.8084 4.30748 67.5621C4.67431 67.2939 5.0396 67.0268 5.30519 66.6656C5.98079 65.7198 7.86298 64.7922 13.2374 64.9045C18.6116 68.4649 24.3 73.0098 29.7824 78.7915C30.618 79.6882 31.4332 80.6054 32.2076 81.4817C32.5745 81.8893 32.921 82.297 33.2675 82.7046C34.2865 82.7453 35.3055 82.7861 36.3245 82.8065C37.7104 82.2358 39.3612 81.3187 41.0528 80.0958H41.114C40.5637 79.4233 39.993 78.6692 39.4224 77.8336C38.5509 76.5907 38.07 75.6782 37.6708 74.9208C37.5005 74.5977 37.3451 74.3028 37.1805 74.0224C36.9971 73.6963 36.7525 73.2887 36.2634 72.7384C35.0202 71.3118 32.2892 69.0903 25.5636 65.6868C22.7614 64.2857 18.9881 62.5407 14.3445 60.8145C13.8999 60.1589 13.6493 59.6161 13.4982 59.1859C13.4574 59.0433 13.3555 58.7579 13.1721 58.4318C12.6626 57.5351 11.8881 57.0663 11.3378 56.8218C9.6769 58.8903 8.02105 60.9538 6.3652 63.0172Z" fill="url(#paint4_radial_106_7135)"/>
<path d="M1.08643 69.5177L11.5621 56.5557C12.4588 56.9837 12.9276 57.5135 13.2129 57.9619C13.3555 58.1861 13.4575 58.4307 13.6613 58.9402C13.9262 59.5516 14.2116 60.2853 14.4765 60.8764C13.5594 60.5095 12.5403 60.5706 11.9085 61.1005C10.971 61.9158 10.8895 63.8112 12.2346 65.1359C12.6015 65.9307 12.7034 66.3587 12.5607 66.4606C12.3977 66.5829 11.8881 66.2161 11.0525 65.3805C9.46286 65.9715 8.32155 66.6644 7.58784 67.174C6.10006 68.2134 5.18294 69.2732 3.26717 69.9661C2.71689 70.1699 2.26852 70.2718 1.96281 70.333C1.67748 70.068 1.39212 69.7827 1.1068 69.5177H1.08643Z" fill="#111112"/>
<path d="M35.7333 83.5811C35.4276 83.7441 34.4086 84.1925 33.145 83.9276C32.2278 83.7441 31.6164 83.255 31.3515 83.0104C26.0525 78.6897 20.7739 74.3487 15.475 70.028C16.1272 67.2358 16.7997 64.4641 17.4519 61.6719C19.2658 62.426 21.1204 63.2209 22.9954 64.0565C27.8256 66.2372 32.3094 68.5198 36.467 70.8432C41.4806 66.2576 46.5146 61.6923 51.5283 57.1067C51.6098 56.0876 51.9563 53.805 53.6682 51.6447C56.4604 48.1392 60.6588 47.8743 61.3517 47.8335C61.8613 47.8335 67.2825 48.0169 69.6059 51.7873C72.0923 55.8227 70.3396 62.7317 64.1642 66.441C62.2077 68.5606 59.8639 70.7821 57.0718 72.9628C49.2864 79.0158 41.4195 82.0118 35.7129 83.5607L35.7333 83.5811Z" fill="#E8E8E8"/>
<path d="M36.1818 73.8601C35.9779 73.8193 35.8964 73.6767 35.9372 73.5544L36.5486 70.8845C36.5893 70.7418 36.7116 70.6807 36.8543 70.7011C36.997 70.7418 37.0785 70.8641 37.0377 71.0068L36.4263 73.6767C36.4059 73.7989 36.304 73.8805 36.1818 73.8805V73.8601Z" fill="#111112"/>
<path d="M38.0363 73.1662C37.914 73.1662 37.7917 73.0643 37.7917 72.942L37.6694 71.8211C37.6694 71.6784 37.751 71.5562 37.8936 71.5358C38.0159 71.495 38.1586 71.6173 38.1789 71.76L38.3012 72.8809C38.3012 73.0236 38.2197 73.1458 38.077 73.1662H38.0567H38.0363Z" fill="#111112"/>
<path d="M76.0054 87.4743L74.8233 87.3928C74.6807 87.3928 74.5787 87.2502 74.5787 87.1279C74.5787 86.9852 74.701 86.8833 74.8437 86.8833L76.0054 86.9648C76.148 86.9648 76.25 87.1075 76.25 87.2298C76.25 87.3724 76.1277 87.4743 76.0054 87.4743Z" fill="#111112"/>
<path d="M62.4726 69.1312C62.4726 69.1312 62.3911 69.1312 62.3504 69.0904C62.2281 69.0089 62.1873 68.8662 62.2689 68.744L65.9985 62.5483C66.08 62.426 66.2227 62.3852 66.345 62.4667C66.4673 62.5483 66.508 62.6909 66.4265 62.8132L62.6968 69.0089C62.6968 69.0089 62.5745 69.1312 62.4726 69.1312Z" fill="#111112"/>
<path d="M75.4145 59.4512C73.9674 59.6957 71.9498 59.8792 69.5856 59.5735C65.4076 59.0232 62.3505 57.2093 58.4782 54.8655C56.3178 53.5612 54.5855 52.2976 53.3219 51.3397C55.6453 45.9184 57.9483 40.4972 60.2717 35.0963C60.3125 34.383 61.0461 22.4807 69.015 19.0976C70.0544 18.6492 71.4403 18.262 73.193 18.2212C73.7229 19.016 74.6808 20.1981 76.2093 21.2579C77.6971 22.2973 79.1238 22.7661 80.0409 22.9903C80.7746 24.1927 83.9132 29.614 82.0789 35.83C81.4675 37.9089 80.4688 39.4985 79.5721 40.6195C78.1862 46.8967 76.8004 53.1943 75.4145 59.4715V59.4512Z" fill="#111112"/>
<path fill-rule="evenodd" clip-rule="evenodd" d="M62.5138 32.9762C60.6998 34.4961 58.8988 35.8326 57.1845 36.996C57.4584 37.4024 57.6853 37.7644 57.8668 38.0715C59.2068 40.2626 59.9354 42.1239 60.6244 43.884C61.4864 46.086 62.2864 48.1297 64.144 50.4629C64.193 50.5245 64.2418 50.5851 64.2903 50.6447C65.2282 50.3632 66.0584 50.0958 66.0584 50.0958C67.9741 49.5048 68.9932 49.7901 69.1358 49.9531C69.2581 50.0958 69.1358 50.3404 69.0543 50.4627C69.0514 50.4665 69.0483 50.4708 69.0449 50.4755C68.9763 50.5693 68.7924 50.8207 68.0353 51.0537C67.7296 51.1556 67.3016 51.2575 66.7309 51.3186C66.3641 51.4817 66.2826 51.6651 66.2622 51.8078C66.2622 51.9708 66.4048 52.5211 69.9103 54.1108C69.9103 54.1108 71.0109 54.6203 72.0707 55.1298C72.2337 55.1706 74.0272 55.6597 73.9864 56.2507C73.9864 56.3119 73.9457 56.3934 73.8845 56.4749C73.375 56.5565 72.9063 56.4342 72.356 56.21C72.2097 56.1504 72.0577 56.085 71.8976 56.0162C71.4554 55.8262 70.9518 55.6097 70.3383 55.4151C69.9511 55.2929 69.3396 55.1298 68.6059 55.0075C68.5652 55.0687 68.5244 55.1706 68.5244 55.3132C68.5788 55.6668 69.096 55.9388 69.9186 56.3712C70.3288 56.5868 70.8149 56.8424 71.3573 57.1679C72.0706 57.5755 73.5584 58.4722 73.4362 58.8798C73.3988 59.0105 73.2076 59.0557 73.1131 59.078C73.1044 59.0801 73.0965 59.0819 73.0897 59.0837C72.3163 59.2815 71.5587 58.7174 70.775 58.1339C70.6707 58.0562 70.5659 57.9782 70.4606 57.9016C69.8288 57.4532 68.8709 56.8418 67.5869 56.2507C68.2033 56.7967 68.8349 57.3427 69.4818 57.9018C69.5835 57.9897 69.6855 58.0779 69.788 58.1665C70.4198 58.6964 71.0516 59.2059 71.663 59.6951C71.6019 59.9193 71.4796 60.0212 71.4185 60.0619C71.0924 60.2657 70.5014 60.0619 70.0326 59.5116L66.5679 56.8825C66.3844 57.0252 66.201 57.1475 66.0176 57.2494C66.7106 58.085 67.3627 58.7168 67.8315 59.1652C67.8918 59.2229 67.9532 59.2806 68.014 59.3378C68.4258 59.7252 68.8144 60.0908 68.7078 60.2861C68.6263 60.4492 68.2595 60.4084 68.2187 60.388C67.7704 60.3676 67.3831 60.0823 66.8736 59.5932C65.8749 58.4315 65.1209 57.5959 64.9578 57.4328C64.7948 57.2698 64.6317 57.1271 64.6317 57.1271C64.6113 57.1169 64.591 57.0965 64.568 57.0736C64.5451 57.0507 64.5196 57.0252 64.4891 57.0048C64.4723 56.9964 64.4381 56.9707 64.3924 56.9362C64.3272 56.8871 64.2384 56.8201 64.1426 56.7603C64.0189 56.6736 63.9402 56.6321 63.8518 56.5855C63.7947 56.5553 63.7335 56.523 63.6535 56.4749L63.1643 56.1488C62.2546 55.4646 61.8124 54.5069 61.6379 53.6186C60.2426 51.999 59.0187 50.7149 58.1113 49.7904C57.0872 48.7611 56.1659 47.8965 55.3444 47.1255C52.8963 44.8279 51.3335 43.3612 50.5705 40.8433C50.1629 39.4982 50.1018 38.2957 50.1425 37.5009C50.061 37.2563 49.6534 35.9723 50.3055 34.9329C50.3919 34.7979 50.4934 34.6719 50.6081 34.5561L50.5912 34.5456C51.5899 33.5571 52.5885 32.5737 53.5872 31.5903C54.5858 30.6069 55.5844 29.6236 56.5831 28.6352C57.0518 28.1664 57.5206 27.6977 57.9893 27.2493C59.4669 25.7921 60.9496 24.3348 62.4323 22.8776C63.915 21.4204 65.3977 19.9632 66.8753 18.506C67.2625 18.4245 68.6892 18.2003 70.0343 19.0563C71.4405 19.9123 72.2354 21.5631 72.1742 23.2955C70.8291 24.8851 69.3617 26.536 67.6905 28.2072C65.9582 29.9599 64.2054 31.5496 62.4731 32.9762H62.5138Z" fill="url(#paint5_radial_106_7135)"/>
<path d="M62.5136 32.9761C60.5571 31.5291 58.5802 30.0821 56.6033 28.6554C57.072 28.1867 57.5408 27.7179 58.0095 27.2695C59.4973 29.1853 61.0055 31.0807 62.5136 32.9965V32.9761Z" fill="#111112"/>
<path d="M62.8194 33.3021L56.5829 26.5153C59.8234 23.8251 63.0639 21.1349 66.3044 18.4446C66.8343 18.1797 67.9349 17.7109 69.1577 17.9963C70.9308 18.4039 72.3575 20.2177 72.6428 22.5819C72.704 23.0303 72.5409 23.4786 72.2352 23.8251C71.6849 24.4977 71.0939 25.1702 70.5028 25.8428C67.9349 28.7165 65.3466 31.1825 62.8397 33.2817L62.8194 33.3021Z" fill="#E8E8E8"/>
<path d="M79.5315 8.66161C78.5329 8.86541 78.7163 11.8614 78.0641 11.9633C77.5342 12.0448 76.719 10.3532 76.4337 8.82465C76.3929 8.64123 76.3522 8.31514 76.3522 6.62355C76.3522 3.40341 76.556 2.97542 76.8209 2.66971C77.1674 2.2621 77.4323 2.40476 79.1035 1.8341C82.0587 0.835453 82.7313 0.427841 84.2598 0.366699C84.3006 0.366699 84.8712 0.40746 86.0126 0.468602C88.3971 0.611266 88.9881 0.672408 89.6199 1.08002C89.783 1.2023 90.7409 1.85448 90.6186 2.52704C90.5778 2.77161 90.4148 2.91428 90.1702 3.13846C89.8849 3.40341 89.2123 4.01483 88.234 4.09635C87.5411 4.15749 87.3373 3.89254 86.5628 4.05559C86.359 4.09635 86.3386 4.15749 85.9107 4.21863C85.3808 4.30016 85.1158 4.21863 84.6674 4.4632C84.0764 4.76891 83.0166 5.31919 82.3033 6.52164C81.4677 7.96867 81.8142 9.21188 81.2231 9.41569C80.6932 9.59912 80.1837 8.49856 79.5723 8.62085L79.5315 8.66161Z" fill="#111112"/>
<path d="M46.576 35.4422C45.7608 34.892 45.3735 34.0156 45.3735 33.1392C45.3735 32.2629 45.7811 31.4069 46.576 30.8362C48.8382 29.2873 47.7173 25.7614 44.9863 25.7614C43.3151 25.8022 42.0515 24.4775 42.0515 22.9693C42.0515 22.6636 42.1126 22.3579 42.2145 22.0318C42.9075 20.0549 41.3382 18.3225 39.5854 18.3225C39.0148 18.3225 38.4237 18.4856 37.8938 18.9136C36.3653 20.0956 34.0827 19.3619 33.5324 17.4869C33.1451 16.1418 32.0038 15.4692 30.8625 15.4692C29.7212 15.4692 28.5799 16.1418 28.213 17.4869C27.8258 18.7301 26.6845 19.4842 25.5228 19.4842C24.9522 19.4842 24.3611 19.3212 23.8516 18.9136C21.9154 17.4258 19.3679 18.9136 19.3679 21.0535C19.3679 21.3796 19.4086 21.6853 19.5309 22.0318C20.1627 23.866 18.8379 25.7411 16.9018 25.7411C15.0675 25.7003 13.967 27.1269 13.967 28.5536C13.967 29.4096 14.3338 30.2452 15.1695 30.8362C15.9847 31.3865 16.3719 32.2629 16.3719 33.1392C16.3719 34.0156 15.9643 34.8716 15.1695 35.4422C12.8868 36.9912 14.0281 40.517 16.698 40.517H16.7999C18.4304 40.4762 19.6736 41.8214 19.6736 43.3295C19.6736 43.6352 19.6328 43.941 19.5309 44.2467C18.838 46.2236 20.4073 47.9763 22.16 47.9763C22.7103 47.9763 23.3013 47.7929 23.8312 47.3853C24.3407 46.9777 24.9318 46.8146 25.5024 46.8146C26.6641 46.8146 27.8258 47.5483 28.1927 48.8119C28.5799 50.1367 29.7008 50.8092 30.8421 50.8092C31.9835 50.8092 33.1452 50.1367 33.512 48.8119C33.8789 47.5687 35.0202 46.8146 36.1819 46.8146C36.7729 46.8146 37.3436 46.9777 37.8531 47.3853C39.7892 48.8731 42.3572 47.3649 42.3572 45.2249C42.3572 44.8988 42.3164 44.5931 42.1941 44.2467C41.542 42.4328 42.9075 40.5374 44.8232 40.5374C46.6575 40.5985 47.758 39.1719 47.758 37.7249C47.758 36.8689 47.3708 36.0333 46.5556 35.4422H46.576ZM30.8625 36.7262C28.906 36.7262 27.2959 35.1365 27.2959 33.1596C27.2959 31.1827 28.906 29.6134 30.8625 29.6134C32.8191 29.6134 34.4291 31.2031 34.4291 33.1596C34.4291 35.1161 32.8394 36.7262 30.8625 36.7262Z" fill="#FFBF3E"/>
<path d="M21.7933 46.5907C21.3856 46.3053 21.1615 45.857 21.1615 45.4086C21.1615 44.9602 21.3653 44.5119 21.7933 44.2265C22.9549 43.4317 22.3843 41.6178 20.978 41.6178C20.122 41.6382 19.4699 40.9656 19.4699 40.1912C19.4699 40.0281 19.5106 39.8651 19.5514 39.702C19.9182 38.683 19.103 37.7863 18.2062 37.7863C17.9209 37.7863 17.6152 37.8678 17.3299 38.092C16.5351 38.7034 15.3733 38.3161 15.088 37.3583C14.8842 36.6653 14.2932 36.3188 13.7021 36.3188C13.1111 36.3188 12.5405 36.6653 12.3367 37.3583C12.1328 38.0104 11.5418 38.3773 10.9508 38.3773C10.6654 38.3773 10.3597 38.2958 10.0948 38.092C9.09612 37.3175 7.79178 38.092 7.79178 39.1925C7.79178 39.3556 7.81215 39.5186 7.87329 39.702C8.19938 40.6395 7.50643 41.6178 6.52816 41.6178C5.59066 41.5974 5.02002 42.3311 5.02002 43.0648C5.02002 43.4928 5.20344 43.9412 5.65181 44.2265C6.05943 44.5119 6.28361 44.9602 6.28361 45.4086C6.28361 45.857 6.07981 46.3053 5.65181 46.5907C4.49012 47.3855 5.06077 49.1994 6.44666 49.1994C7.3434 49.179 7.9752 49.872 7.9752 50.6464C7.9752 50.8095 7.9548 50.9725 7.89366 51.1152C7.52681 52.1342 8.34204 53.0309 9.23879 53.0309C9.52412 53.0309 9.82982 52.929 10.0948 52.7252C10.3597 52.5214 10.6654 52.4399 10.9508 52.4399C11.5418 52.4399 12.1328 52.8271 12.3367 53.4589C12.5405 54.1315 13.1111 54.478 13.7021 54.478C14.2932 54.478 14.8842 54.1315 15.088 53.4589C15.2714 52.8068 15.8625 52.4399 16.4739 52.4399C16.7796 52.4399 17.0649 52.5214 17.3299 52.7252C18.3285 53.4997 19.6533 52.7252 19.6533 51.6043C19.6533 51.4413 19.6329 51.2782 19.5718 51.0948C19.2253 50.1573 19.9386 49.179 20.9169 49.179C21.8544 49.2198 22.425 48.4861 22.425 47.732C22.425 47.304 22.2212 46.8556 21.7933 46.5703V46.5907ZM13.7225 47.2429C12.7239 47.2429 11.8883 46.4276 11.8883 45.4086C11.8883 44.3896 12.7239 43.5947 13.7225 43.5947C14.7212 43.5947 15.5568 44.41 15.5568 45.4086C15.5568 46.4073 14.7415 47.2429 13.7225 47.2429Z" fill="#5CD9EA"/>
<defs>
<radialGradient id="paint0_radial_106_7135" cx="0" cy="0" r="1" gradientUnits="userSpaceOnUse" gradientTransform="translate(90.5141 49.9976) rotate(-77.1774) scale(33.8185 38.9665)">
<stop stop-color="#38C67B"/>
<stop offset="0.235294" stop-color="#448CE0"/>
<stop offset="0.45454" stop-color="#C42EB5"/>
<stop offset="0.660072" stop-color="#D23131"/>
<stop offset="0.833494" stop-color="#F87226"/>
<stop offset="1" stop-color="#EEC32B"/>
</radialGradient>
<radialGradient id="paint1_radial_106_7135" cx="0" cy="0" r="1" gradientUnits="userSpaceOnUse" gradientTransform="translate(75.5 29) rotate(-70.4633) scale(32.8938 15.4473)">
<stop stop-color="#38C67B"/>
<stop offset="0.235294" stop-color="#448CE0"/>
<stop offset="0.439917" stop-color="#C42EB5"/>
<stop offset="0.660072" stop-color="#D23131"/>
<stop offset="0.833494" stop-color="#F87226"/>
<stop offset="1" stop-color="#EEC32B"/>
</radialGradient>
<radialGradient id="paint2_radial_106_7135" cx="0" cy="0" r="1" gradientUnits="userSpaceOnUse" gradientTransform="translate(82.2945 18.8194) rotate(-81.3713) scale(19.5076 15.4072)">
<stop stop-color="#38C67B"/>
<stop offset="0.235294" stop-color="#448CE0"/>
<stop offset="0.45454" stop-color="#C42EB5"/>
<stop offset="0.660072" stop-color="#D23131"/>
<stop offset="0.833494" stop-color="#F87226"/>
<stop offset="1" stop-color="#EEC32B"/>
</radialGradient>
<radialGradient id="paint3_radial_106_7135" cx="0" cy="0" r="1" gradientUnits="userSpaceOnUse" gradientTransform="translate(78.5 131.5) rotate(-80.0958) scale(31.9766 14.3884)">
<stop stop-color="#38C67B"/>
<stop offset="0.235294" stop-color="#448CE0"/>
<stop offset="0.45454" stop-color="#C42EB5"/>
<stop offset="0.660072" stop-color="#D23131"/>
<stop offset="0.833494" stop-color="#F87226"/>
<stop offset="1" stop-color="#EEC32B"/>
</radialGradient>
<radialGradient id="paint4_radial_106_7135" cx="0" cy="0" r="1" gradientUnits="userSpaceOnUse" gradientTransform="translate(18.0042 84.2696) rotate(-74.2701) scale(31.4341 43.6759)">
<stop stop-color="#38C67B"/>
<stop offset="0.235294" stop-color="#448CE0"/>
<stop offset="0.45454" stop-color="#C42EB5"/>
<stop offset="0.660072" stop-color="#D23131"/>
<stop offset="0.833494" stop-color="#F87226"/>
<stop offset="1" stop-color="#EEC32B"/>
</radialGradient>
<radialGradient id="paint5_radial_106_7135" cx="0" cy="0" r="1" gradientUnits="userSpaceOnUse" gradientTransform="translate(59.9978 62.7722) rotate(-83.9772) scale(49.1651 27.3158)">
<stop stop-color="#38C67B"/>
<stop offset="0.235294" stop-color="#448CE0"/>
<stop offset="0.45454" stop-color="#C42EB5"/>
<stop offset="0.660072" stop-color="#D23131"/>
<stop offset="0.833494" stop-color="#F87226"/>
<stop offset="1" stop-color="#EEC32B"/>
</radialGradient>
</defs>
</svg>
