<svg width="200" height="200" viewBox="0 0 200 200" fill="none" xmlns="http://www.w3.org/2000/svg">
<path d="M178.664 95.9719C181.224 109.033 186.412 135.505 173.997 153.213C151.465 185.353 74.8356 183.088 42.4674 142.567C39.669 139.064 25.6313 120.79 27.1628 95.7666C29.8194 52.3633 77.7736 13.8927 116.205 21.4485C138.698 25.8706 153.647 45.2162 159.801 53.1806C162.337 56.4631 173.953 71.9364 178.664 95.9725V95.9719Z" fill="#F4F7FA"/>
<path d="M35.4868 146.881C32.5358 147.054 30.1234 144.991 30.1234 142.282V44.6487C30.1234 41.9398 32.5358 39.8234 35.4868 39.9307L174.786 44.9856C177.043 45.0676 178.872 47.0487 178.872 49.4024V134.235C178.872 136.589 177.043 138.61 174.786 138.743L35.4868 146.881Z" fill="url(#paint0_linear_136_1113)"/>
<path d="M126.304 157.687C124.078 156.912 122.413 154.93 121.944 152.493L118.704 135.666L90.9828 136.698L87.5709 154.229C87.0933 156.684 89.0059 159.147 91.2086 160.052L102.806 164.813C104.963 165.698 107.282 166.051 109.587 165.844L134.098 163.644C134.814 163.58 135.389 162.989 135.472 162.23C135.556 161.473 136.058 160.621 135.375 160.384L126.305 157.688L126.304 157.687Z" fill="url(#paint1_linear_136_1113)"/>
<path d="M126.578 156.664C124.354 155.899 122.692 153.941 122.223 151.535L118.986 134.919L91.9406 135.94L88.5326 153.25C88.0555 155.675 89.318 158.106 91.5185 158.999L103.105 163.7C105.259 164.574 107.576 164.923 109.878 164.718L134.364 162.546C135.08 162.482 135.654 161.899 135.737 161.15C135.82 160.401 135.39 159.695 134.707 159.46L126.578 156.664Z" fill="url(#paint2_linear_136_1113)"/>
<path d="M36.5892 146.881C33.6382 147.054 31.2258 144.991 31.2258 142.282V44.6487C31.2258 41.9398 33.6382 39.8234 36.5892 39.9307L175.888 44.9856C178.146 45.0676 179.974 47.0487 179.974 49.4024V134.235C179.974 136.589 178.146 138.61 175.888 138.743L36.5892 146.881Z" fill="url(#paint3_linear_136_1113)"/>
<path d="M175.888 46.9806L36.5891 42.2064C35.0112 42.1525 33.7288 43.2814 33.7288 44.7283V142.146C33.7288 143.592 35.0112 144.693 36.5891 144.604L175.888 136.747C177.098 136.678 178.076 135.6 178.076 134.337V49.3412C178.076 48.0787 177.098 47.0215 175.888 46.98V46.9806Z" fill="url(#paint4_linear_136_1113)"/>
<path d="M36.5892 136.304C35.9746 136.334 35.4744 135.9 35.4744 135.337V44.7843C35.4744 44.2215 35.9746 43.78 36.5892 43.8L175.888 48.3773C176.36 48.393 176.743 48.8064 176.743 49.2986V128.535C176.743 129.027 176.36 129.447 175.888 129.47L36.5892 136.304Z" fill="url(#paint5_linear_136_1113)"/>
<path d="M171.144 57.8241L42.6997 54.8436V48.6177L171.144 52.3109V57.8241Z" fill="url(#paint6_linear_136_1113)"/>
<path d="M161.389 54.8138C161.389 55.2073 161.079 55.5189 160.696 55.5092C160.314 55.4995 160.003 55.1723 160.003 54.7777C160.003 54.3831 160.313 54.072 160.696 54.0823C161.079 54.0925 161.389 54.4197 161.389 54.8138Z" fill="url(#paint7_linear_136_1113)"/>
<path d="M164.232 54.8878C164.232 55.2803 163.923 55.5908 163.543 55.5811C163.162 55.5714 162.853 55.2452 162.853 54.8517C162.853 54.4582 163.162 54.1482 163.543 54.1584C163.923 54.1687 164.232 54.4948 164.232 54.8878Z" fill="url(#paint8_linear_136_1113)"/>
<path d="M167.059 54.9608C167.059 55.3522 166.752 55.6616 166.374 55.6525C165.996 55.6428 165.688 55.3172 165.688 54.9253C165.688 54.5333 165.996 54.2239 166.374 54.2336C166.753 54.2439 167.059 54.5695 167.059 54.9608Z" fill="url(#paint9_linear_136_1113)"/>
<path style="mix-blend-mode:multiply" opacity="0.3" d="M43.249 60.8013L98.2296 61.1215L97.7509 58.4466L42.7736 57.9873L43.249 60.8013Z" fill="url(#paint10_linear_136_1113)"/>
<path style="mix-blend-mode:multiply" opacity="0.3" d="M42.6221 64.6907L80.9504 64.7802L80.9773 63.5813L42.6501 63.4492L42.6221 64.6907Z" fill="url(#paint11_linear_136_1113)"/>
<path style="mix-blend-mode:multiply" opacity="0.3" d="M59.4657 69.6534L114.446 69.9736L114.506 67.2992L59.5293 66.8394L59.4657 69.6534Z" fill="url(#paint12_linear_136_1113)"/>
<path style="mix-blend-mode:multiply" opacity="0.3" d="M51.2916 73.5432L89.6199 73.6327L89.6469 72.4343L51.3197 72.3022L51.2916 73.5432Z" fill="url(#paint13_linear_136_1113)"/>
<path style="mix-blend-mode:multiply" opacity="0.3" d="M59.5094 78.5059L114.49 78.8266L114.55 76.1517L59.573 75.6924L59.5094 78.5059Z" fill="url(#paint14_linear_136_1113)"/>
<path style="mix-blend-mode:multiply" opacity="0.3" d="M42.71 82.3958L81.0383 82.4853L81.0658 81.2864L42.738 81.1543L42.71 82.3958Z" fill="url(#paint15_linear_136_1113)"/>
<path style="mix-blend-mode:multiply" opacity="0.3" d="M51.4674 87.3589L106.447 87.6791L106.508 85.0042L51.531 84.5449L51.4674 87.3589Z" fill="url(#paint16_linear_136_1113)"/>
<path style="mix-blend-mode:multiply" opacity="0.3" d="M59.4657 91.2483L97.794 91.3378L97.821 90.1394L59.4937 90.0068L59.4657 91.2483Z" fill="url(#paint17_linear_136_1113)"/>
<path style="mix-blend-mode:multiply" opacity="0.3" d="M42.8862 96.2109L97.8663 96.5317L97.9267 93.8568L42.9498 93.3975L42.8862 96.2109Z" fill="url(#paint18_linear_136_1113)"/>
<path style="mix-blend-mode:multiply" opacity="0.3" d="M42.7979 100.101L81.1267 100.19L81.1536 98.9915L42.8264 98.8594L42.7979 100.101Z" fill="url(#paint19_linear_136_1113)"/>
<path style="mix-blend-mode:multiply" opacity="0.3" d="M51.5552 105.064L106.536 105.384L106.596 102.709L51.6188 102.25L51.5552 105.064Z" fill="url(#paint20_linear_136_1113)"/>
<path style="mix-blend-mode:multiply" opacity="0.3" d="M51.4674 108.953L89.7957 109.043L89.8227 107.845L51.4954 107.712L51.4674 108.953Z" fill="url(#paint21_linear_136_1113)"/>
<path style="mix-blend-mode:multiply" opacity="0.3" d="M51.5994 113.916L106.579 114.237L106.64 111.562L51.663 111.102L51.5994 113.916Z" fill="url(#paint22_linear_136_1113)"/>
<path style="mix-blend-mode:multiply" opacity="0.3" d="M51.5116 117.805L89.8399 117.895L89.8669 116.697L51.5396 116.564L51.5116 117.805Z" fill="url(#paint23_linear_136_1113)"/>
<path style="mix-blend-mode:multiply" opacity="0.3" d="M43.0177 122.769L97.9983 123.089L98.0587 120.414L43.0819 119.955L43.0177 122.769Z" fill="url(#paint24_linear_136_1113)"/>
<path style="mix-blend-mode:multiply" opacity="0.3" d="M42.9299 126.659L81.2582 126.748L81.2857 125.549L42.958 125.417L42.9299 126.659Z" fill="url(#paint25_linear_136_1113)"/>
<path style="mix-blend-mode:multiply" opacity="0.3" d="M170.701 125.849L118.912 128.488V59.5542H170.701V125.849Z" fill="url(#paint26_linear_136_1113)"/>
<path d="M145.713 82.9829C145.713 82.9829 156.612 95.2379 147.317 114.927C146.451 116.761 143.913 116.951 142.776 115.271L135.529 104.575C134.367 102.861 133.983 100.735 134.472 98.722L136.98 88.3878L145.713 82.9829Z" fill="url(#paint27_linear_136_1113)"/>
<path d="M121.362 63.6883C121.362 63.6883 106.94 55.8797 89.8981 69.4301C88.3105 70.6921 88.7062 73.2058 90.6006 73.9293L102.67 78.5395C104.605 79.2786 106.762 79.1665 108.61 78.2306L118.098 73.4263L121.363 63.6889L121.362 63.6883Z" fill="url(#paint28_linear_136_1113)"/>
<path d="M146.79 81.624C146.79 81.624 157.689 93.879 148.394 113.568C147.528 115.402 144.99 115.592 143.853 113.912L136.606 103.216C135.444 101.502 135.06 99.376 135.549 97.3631L138.057 87.0289L146.79 81.624Z" fill="url(#paint29_linear_136_1113)"/>
<path d="M122.439 62.3285C122.439 62.3285 108.017 54.5198 90.9753 68.0702C89.3877 69.3322 89.7834 71.8455 91.6777 72.5694L103.747 77.1797C105.682 77.9188 107.839 77.8066 109.687 76.8708L119.175 72.0665L122.44 62.329L122.439 62.3285Z" fill="url(#paint30_linear_136_1113)"/>
<path d="M133.832 31.4866C149.135 16.0408 174.476 21.623 174.489 21.6543C174.522 21.6602 185.749 45.0559 174.211 63.4823C163.746 80.1966 140.48 92.3357 136.01 94.5588C135.529 94.7982 134.749 95.1254 134.464 94.671C128.911 85.8273 121.466 80.2375 112.526 77.2974C112.031 77.1346 112.186 76.3136 112.305 75.8068C113.431 71.0133 119.928 45.5216 133.833 31.4871L133.832 31.4866Z" fill="url(#paint31_linear_136_1113)"/>
<path style="mix-blend-mode:multiply" opacity="0.3" d="M143.686 54.8505C152.249 46.278 160.277 49.795 168.548 42.3254C171.568 39.5977 174.871 35.1783 176.73 27.5405C179.291 35.6656 182.179 50.7589 174.211 63.4828C163.746 80.1971 140.48 92.3362 136.01 94.5594C135.529 94.7987 134.749 95.126 134.464 94.6715C131.658 90.2036 128.369 86.568 124.65 83.6828C127.87 81.7718 130.182 79.6338 131.891 77.5912C138.783 69.3518 135.884 62.6618 143.686 54.8505H143.686Z" fill="url(#paint32_linear_136_1113)"/>
<path d="M164.391 34.3987C158.499 29.7297 151.244 25.5017 144.753 24.1734C157.012 18.9739 170.401 20.8882 173.716 21.4974C174.207 21.5874 174.62 21.9152 174.82 22.3723C176.17 25.4602 181.094 38.0569 178.835 51.1804C176.512 45.8014 170.284 39.0683 164.391 34.3993V34.3987Z" fill="url(#paint33_linear_136_1113)"/>
<path style="mix-blend-mode:multiply" opacity="0.3" d="M176.729 27.5405C176.741 27.5783 176.753 27.6165 176.766 27.6548C176.786 27.7195 176.806 27.7847 176.826 27.8505C176.847 27.9157 176.867 27.982 176.887 28.0483C176.907 28.1114 176.926 28.1745 176.945 28.2381C176.966 28.3087 176.988 28.3793 177.009 28.4505C177.027 28.5114 177.045 28.5729 177.063 28.6343C177.085 28.7098 177.107 28.7858 177.129 28.8618C177.147 28.9211 177.164 28.9804 177.181 29.0408C177.204 29.1211 177.227 29.2014 177.25 29.2828C177.266 29.3405 177.282 29.3982 177.299 29.4559C177.322 29.5411 177.346 29.6262 177.37 29.7125C177.385 29.768 177.401 29.8235 177.416 29.8796C177.44 29.9691 177.464 30.0591 177.488 30.1497C177.503 30.2041 177.518 30.2591 177.532 30.3141C177.557 30.4074 177.581 30.5012 177.605 30.5955C177.619 30.6489 177.633 30.7023 177.647 30.7556C177.672 30.8532 177.697 30.9513 177.722 31.0505C177.735 31.1023 177.748 31.154 177.761 31.2058C177.786 31.3076 177.811 31.4095 177.836 31.5125C177.849 31.5626 177.86 31.6133 177.873 31.664C177.898 31.7696 177.923 31.8764 177.948 31.9831C177.96 32.0316 177.971 32.0807 177.982 32.1297C178.008 32.2392 178.033 32.3497 178.058 32.4607C178.068 32.5082 178.079 32.5562 178.09 32.6041C178.115 32.7173 178.14 32.8311 178.166 32.9459C178.176 32.9923 178.185 33.0392 178.196 33.0861C178.221 33.2025 178.245 33.32 178.27 33.4376C178.28 33.4834 178.289 33.5292 178.299 33.575C178.323 33.6952 178.348 33.816 178.372 33.9373C178.381 33.9815 178.39 34.0257 178.398 34.0704C178.423 34.1944 178.447 34.319 178.471 34.444C178.479 34.4872 178.487 34.5303 178.495 34.5734C178.519 34.7006 178.542 34.8284 178.566 34.9567C178.573 34.9987 178.581 35.0408 178.588 35.0823C178.611 35.2133 178.635 35.3448 178.657 35.4769C178.664 35.5168 178.671 35.5567 178.678 35.5966C178.7 35.7314 178.723 35.8667 178.745 36.0025C178.751 36.0408 178.757 36.0796 178.763 36.1184C178.785 36.2564 178.807 36.395 178.828 36.5341C178.834 36.5718 178.839 36.6095 178.845 36.6473C178.866 36.788 178.886 36.9292 178.907 37.071C178.912 37.1076 178.917 37.1448 178.922 37.182C178.942 37.326 178.962 37.4699 178.981 37.6149C178.986 37.65 178.99 37.6855 178.995 37.7206C179.013 37.8677 179.032 38.0149 179.05 38.1632C179.054 38.1971 179.058 38.2316 179.063 38.2656C179.08 38.4155 179.098 38.5659 179.114 38.7173C179.118 38.7497 179.121 38.782 179.125 38.8144C179.141 38.9675 179.157 39.1217 179.173 39.2758C179.176 39.3071 179.178 39.3384 179.182 39.3691C179.197 39.5254 179.212 39.6823 179.226 39.8397C179.229 39.8688 179.231 39.8985 179.233 39.9276C179.247 40.0872 179.26 40.2473 179.273 40.4079C179.275 40.4359 179.277 40.4634 179.279 40.4915C179.292 40.6543 179.304 40.8171 179.314 40.981C179.316 41.0068 179.318 41.0333 179.319 41.0591C179.33 41.2246 179.34 41.3907 179.349 41.5572C179.35 41.582 179.351 41.6074 179.353 41.6322C179.361 41.8004 179.37 41.9691 179.377 42.1384C179.378 42.161 179.378 42.1837 179.38 42.2058C179.387 42.3777 179.393 42.5502 179.398 42.7233C179.398 42.7438 179.399 42.7637 179.399 42.7842C179.404 42.9594 179.409 43.1351 179.412 43.3114C179.412 43.3297 179.412 43.3481 179.412 43.3664C179.415 43.5448 179.417 43.7244 179.418 43.9039C179.418 43.919 179.418 43.9346 179.418 43.9497C179.419 44.1324 179.418 44.3157 179.417 44.499C179.417 44.5114 179.417 44.5233 179.417 44.5357C179.416 44.7222 179.413 44.9098 179.409 45.0974C179.409 45.1066 179.409 45.1152 179.408 45.1244C179.404 45.3152 179.398 45.5071 179.392 45.699C179.392 45.7033 179.392 45.7082 179.391 45.7125C179.328 47.5087 179.152 49.34 178.835 51.1815C177.35 47.7438 174.27 43.7535 170.702 40.1017C173.041 37.3421 175.308 33.3847 176.73 27.5421L176.729 27.5405Z" fill="url(#paint34_linear_136_1113)"/>
<path d="M163.494 63.7456C168.909 56.9112 167.147 46.4967 159.558 40.4842C151.97 34.4717 141.428 35.138 136.013 41.9724C130.598 48.8068 132.36 59.2213 139.949 65.2338C147.538 71.2463 158.079 70.58 163.494 63.7456Z" fill="url(#paint35_linear_136_1113)"/>
<path style="mix-blend-mode:multiply" d="M143.686 54.8503C150.673 47.8546 157.305 48.9091 164.003 45.4751C167.583 51.3004 167.613 58.5603 163.498 63.7527C158.083 70.5867 147.541 71.2525 139.953 65.2395C139.333 64.7479 138.751 64.226 138.21 63.6794C139.213 60.8012 140.628 57.9118 143.686 54.8503Z" fill="url(#paint36_linear_136_1113)"/>
<path d="M162.348 62.8368C167.311 56.5723 165.696 47.0261 158.74 41.5148C151.784 36.0036 142.122 36.6142 137.158 42.8787C132.195 49.1433 133.81 58.6894 140.766 64.2007C147.722 69.712 157.385 69.1013 162.348 62.8368Z" fill="url(#paint37_linear_136_1113)"/>
<path d="M160.725 61.5505C165.048 56.0936 163.641 47.778 157.582 42.9771C151.522 38.1762 143.105 38.708 138.782 44.1649C134.458 49.6217 135.865 57.9373 141.925 62.7382C147.984 67.5391 156.401 67.0074 160.725 61.5505Z" fill="url(#paint38_linear_136_1113)"/>
<path d="M134.857 95.0438C136.334 93.179 132.416 87.6135 126.104 82.6129C119.793 77.6124 113.479 75.0703 112.001 76.9351C110.524 78.7998 114.442 84.3653 120.754 89.3659C127.065 94.3665 133.38 96.9086 134.857 95.0438Z" fill="url(#paint39_linear_136_1113)"/>
<path d="M122.334 82.4364L127.239 86.3227C129.848 88.3906 130.943 91.8337 130.009 95.0289L129.121 98.0607C128.795 99.1766 127.442 99.6068 126.531 98.8849L110.267 85.9976C109.355 85.2752 109.465 83.8601 110.477 83.2871L113.226 81.7302C116.123 80.0892 119.725 80.3685 122.335 82.4364H122.334Z" fill="url(#paint40_linear_136_1113)"/>
<path d="M128.341 99.2522C129.736 97.4925 126.643 92.7205 121.435 88.5937C116.226 84.4669 110.874 82.548 109.479 84.3078C108.085 86.0676 111.177 90.8396 116.386 94.9664C121.594 99.0932 126.947 101.012 128.341 99.2522Z" fill="url(#paint41_linear_136_1113)"/>
<path d="M111.745 86.1081C110.685 87.4456 113.035 91.072 116.994 94.2089C120.952 97.3453 125.02 98.8041 126.08 97.4666C127.14 96.1291 124.79 92.5027 120.831 89.3658C116.873 86.2294 112.805 84.7707 111.745 86.1081Z" fill="url(#paint42_linear_136_1113)"/>
<path style="mix-blend-mode:color-burn" opacity="0.3" d="M143.686 54.8506C149.629 48.9008 155.314 48.7741 161.002 46.7568C163.989 51.4426 164.064 57.3509 160.729 61.559C156.405 67.0156 147.988 67.5471 141.929 62.746C141.043 62.0442 140.258 61.2668 139.574 60.435C140.502 58.6145 141.771 56.7665 143.685 54.8506H143.686Z" fill="url(#paint43_linear_136_1113)"/>
<path d="M42.4 136.004L102.271 133.067C104.174 132.403 106.657 131.175 108.25 128.747C112.305 122.566 106.077 115.484 109.902 109.782C112.507 105.901 116.557 107.447 120.253 102.851C123.015 99.4167 123.463 95.1827 123.43 92.2194C123.43 92.2194 119.688 86.5337 115.567 86.3213C113.677 89.4528 110.341 93.8243 105.033 95.4582C97.5946 97.7477 93.4787 92.4485 86.9843 94.5989C78.7892 97.3121 80.7714 107.264 72.6603 111.215C63.1622 115.842 53.8679 105.4 46.8771 109.496C43.373 111.549 39.994 117.521 42.4 136.005V136.004Z" fill="url(#paint44_linear_136_1113)"/>
<path d="M91.7164 104.693C92.1018 104.398 92.4867 104.103 92.8722 103.809C93.2091 103.904 98.7444 105.569 99.8404 110.438C99.9913 111.107 100.547 113.576 99.1946 115.163C96.9283 117.823 90.3509 116.775 87.2636 113.055C84.8377 110.133 84.5363 105.523 85.938 104.66C87.6345 103.615 92.6911 107.523 93.076 107.821C93.849 108.418 94.5509 109.054 94.6738 108.943C94.8824 108.753 93.222 106.582 91.7164 104.694V104.693Z" fill="url(#paint45_linear_136_1113)"/>
<path d="M49.0926 139.159C49.0926 139.159 49.3875 138.393 48.9255 137.992C48.4635 137.592 45.9088 136.433 44.6268 136.457C43.3449 136.482 44.3778 137.469 45.1098 138.029C45.8419 138.588 47.5492 139.759 47.9885 139.858C48.4279 139.958 49.0926 139.159 49.0926 139.159Z" fill="url(#paint46_linear_136_1113)"/>
<path d="M51.354 140.513C50.6096 139.933 49.96 139.481 49.4694 139.154C48.3837 138.432 47.9001 138.21 47.4155 138.058C46.9929 137.926 46.0354 137.681 45.9454 137.88C45.8543 138.081 46.7416 138.556 48.9217 140.21C49.2381 140.45 50.243 141.217 50.243 141.217L51.354 140.513V140.513Z" fill="url(#paint47_linear_136_1113)"/>
<path d="M83.7972 174.781C83.7972 174.781 83.5012 175.547 83.9627 175.948C84.4241 176.349 86.9772 177.511 88.2592 177.489C89.5411 177.467 88.5099 176.477 87.7783 175.917C87.0473 175.357 85.3417 174.183 84.9023 174.083C84.463 173.984 83.7972 174.781 83.7972 174.781Z" fill="url(#paint48_linear_136_1113)"/>
<path d="M83.9816 171.394C83.9271 172.369 84.029 173.161 84.1358 173.712C84.2889 174.498 84.3816 174.943 84.7546 175.338C85.4134 176.036 86.567 176.173 86.7341 175.892C86.9239 175.574 85.7029 174.953 85.298 173.461C85.1207 172.808 85.1622 172.216 85.2317 171.801L83.981 171.394H83.9816Z" fill="url(#paint49_linear_136_1113)"/>
<path d="M88.3713 131.622C90.0991 133.441 89.7217 136.04 89.1805 140.699C88.7266 144.607 88.1082 150.386 87.5266 157.703C86.9988 162.806 86.4705 167.91 85.9427 173.013H83.3029C82.2236 170.722 80.9384 167.213 80.8743 162.877C80.8209 159.285 81.6603 158.814 81.8225 154.746C81.9115 152.51 81.7136 151.256 80.0295 141.548C78.6899 133.826 78.4268 132.376 79.5018 131.2C81.3983 129.126 86.174 129.31 88.3713 131.622Z" fill="url(#paint50_linear_136_1113)"/>
<path style="mix-blend-mode:multiply" opacity="0.3" d="M83.0916 167.182C83.5461 165.758 84.7525 164.303 84.8339 161.48C84.9299 158.149 83.3331 157.318 83.5671 154.194C83.7919 151.193 85.3407 150.974 85.7843 148.017C86.2997 144.582 84.3892 143.684 83.7256 139.623C83.1196 135.918 83.9967 132.307 84.9099 129.894C82.8598 129.52 80.6517 129.942 79.5019 131.2C78.4269 132.376 78.6905 133.825 80.0296 141.547C81.7132 151.255 81.9116 152.509 81.8226 154.746C81.6603 158.813 80.8215 159.285 80.8744 162.876C80.9385 167.212 82.2237 170.721 83.3029 173.013H84.1768C82.766 170.447 82.6469 168.577 83.0922 167.181L83.0916 167.182Z" fill="url(#paint51_linear_136_1113)"/>
<path d="M48.6371 140.948C52.3379 146.046 59.4134 154.471 65.532 153.042C68.7671 152.287 69.9406 149.196 79.449 136.139C81.7358 132.998 83.6824 130.411 85.0646 128.594C81.3692 127.679 77.6733 126.764 73.9778 125.849C71.483 129.964 69.8431 133.449 68.8274 135.802C66.3994 141.427 65.5239 145.256 63.3137 145.488C62.2334 145.602 61.5331 144.783 60.0404 143.588C58.0862 142.023 55.0598 140.043 50.5374 138.519C49.904 139.329 49.2706 140.138 48.6366 140.948H48.6371Z" fill="url(#paint52_linear_136_1113)"/>
<path d="M75.3816 102.838C76.5951 103.213 78.3498 104.259 80.7983 103.876C81.5352 103.76 84.1466 103.351 85.0722 101.188C85.8873 99.2832 84.7272 97.3619 84.5827 97.1301C83.7498 95.7899 82.4657 95.2627 81.0312 94.6966C79.1708 93.963 78.332 94.1123 76.9498 93.7619C73.5304 92.8945 73.4641 90.6594 70.3945 89.1214C66.4716 87.1554 64.5557 89.7926 61.3007 88.0573C57.6463 86.109 58.9385 82.1878 55.7104 79.5878C51.2301 75.9791 40.7541 77.1015 37.4576 83.3252C35.5536 86.9198 35.9121 92.4665 38.5994 95.5802C40.166 97.3953 42.4139 98.3603 42.3013 99.9786C42.2215 101.13 40.8592 101.287 40.0603 102.924C39.0307 105.033 39.9848 107.455 40.139 107.846C41.5692 111.477 48.0916 113.711 53.8377 112.937C64.1989 111.54 68.7816 100.798 75.3811 102.837L75.3816 102.838Z" fill="url(#paint53_linear_136_1113)"/>
<path d="M74.1234 103.521C76.9573 103.51 80.4652 103.541 84.0506 103.92C91.759 104.733 91.456 108.569 90.0603 112.065C88.636 115.633 88.6856 118.784 88.7142 119.905C88.7606 121.711 89.0883 123.158 89.7449 126.054C90.8851 131.085 91.7342 132.24 90.9315 133.526C89.7606 135.402 86.4797 135.309 85.904 135.281C82.9897 135.141 82.3714 133.431 79.9142 133.16C77.0592 132.846 76.3994 134.99 72.4301 136.432C67.7449 138.135 61.7131 137.685 58.9115 134.548C57.8296 133.336 57.1358 131.663 57.6005 131.136C58.2339 130.419 60.4366 132.483 62.7816 131.664C64.3352 131.122 64.1951 129.928 66.0549 128.763C68.2937 127.361 69.6107 128.392 71.1288 127.487C73.497 126.075 72.9875 121.958 73.1789 115.179C73.2581 112.373 73.4786 108.379 74.1223 103.521H74.1234Z" fill="url(#paint54_linear_136_1113)"/>
<path d="M74.1234 103.521C70.0118 103.722 68.5423 108.001 64.2501 108.846C61.6496 109.357 57.7703 108.655 52.2005 103.245C51.4108 103.61 50.6215 103.976 49.8318 104.341C50.6431 109.199 52.8976 111.925 54.0038 113.073C60.3256 119.631 72.3159 119.43 78.8081 113.807C80.8453 112.043 81.994 110.046 82.6183 108.733C80.566 106.181 77.5795 103.353 74.1234 103.521Z" fill="url(#paint55_linear_136_1113)"/>
<path d="M83.1245 100.356C82.8679 100.172 82.5072 100.292 82.4097 100.593C82.1407 101.426 81.5843 102.842 80.8258 103.196C79.7342 103.705 78.09 103.482 77.8824 103.684C77.6754 103.885 82.7849 106.537 86.1892 105.331C86.2129 105.323 86.2361 105.312 86.2587 105.301L86.4528 105.196C86.8372 104.989 86.7504 104.415 86.3218 104.33C85.6652 104.2 83.945 103.706 83.5121 102.957C83.4625 102.87 83.4485 102.193 83.4609 102.095L83.6005 100.998C83.6221 100.828 83.5493 100.661 83.4102 100.561L83.125 100.356H83.1245Z" fill="url(#paint56_linear_136_1113)"/>
<path d="M82.3202 100.93C82.3202 100.93 82.8743 101.919 83.959 101.664C84.9304 101.435 84.6619 98.9649 83.9563 98.6026C83.7212 98.4819 83.2641 98.4684 82.939 98.6209C82.7105 98.7282 82.0587 99.3654 82.29 100.195C82.063 100.099 81.8485 100.136 81.7827 100.246C81.6991 100.386 81.8743 100.611 81.9142 100.662C82.0517 100.839 82.235 100.905 82.3202 100.93Z" fill="url(#paint57_linear_136_1113)"/>
<path d="M51.5363 103.552L51.1487 102.788C51.1487 102.788 53.1293 99.5484 51.5061 99.0282C49.8829 98.508 50.3406 99.4347 50.5244 99.8762C50.7082 100.318 50.4117 101.759 50.1303 102.199C49.8484 102.64 50.339 104.106 50.339 104.106L51.5368 103.552L51.5363 103.552Z" fill="url(#paint58_linear_136_1113)"/>
<path style="mix-blend-mode:multiply" opacity="0.3" d="M65.5643 134.291C66.5886 133.594 65.8835 132.227 67.0425 131.123C68.1034 130.113 69.2641 130.714 71.1606 130.173C73.4403 129.523 75.2064 127.672 76.0177 126.055C76.5961 124.902 76.5498 124.147 76.0177 118.241C75.511 112.617 75.3676 111.244 74.6452 111.061C73.3304 110.73 72.1525 114.862 69.5773 114.862C68.1228 114.862 67.9255 113.545 66.0932 112.857C62.9827 111.688 60.7595 114.437 57.435 114.335C56.5854 114.309 55.5541 114.087 54.3778 113.426C59.1692 118.049 66.8872 119.059 73.1444 116.964C73.0597 122.681 73.2818 126.205 71.1309 127.487C69.6128 128.392 68.2959 127.361 66.0571 128.763C64.1967 129.928 64.3368 131.122 62.7837 131.664C60.4387 132.482 58.236 130.419 57.6026 131.136C57.1805 131.614 57.7164 133.032 58.6258 134.196C59.16 133.974 59.7498 133.813 60.3918 133.763C62.8457 133.572 64.3573 135.113 65.5654 134.291H65.5643Z" fill="url(#paint59_linear_136_1113)"/>
<path d="M100.405 95.2043L100.544 94.4103L101.57 94.1591C101.799 94.103 102.038 94.2022 102.16 94.4038C102.808 95.4707 104.601 98.9591 103.289 103.078C103.22 103.294 103.024 103.445 102.797 103.454C102.385 103.471 101.937 103.428 101.937 103.428L100.405 95.2043Z" fill="url(#paint60_linear_136_1113)"/>
<path d="M92.5175 101.095L91.6345 103.437C91.6345 103.437 91.2889 104.06 91.2458 104.356C90.8151 104.529 90.1218 104.319 90.1218 104.319L90.3504 101.215L92.4507 101.047L92.5175 101.096V101.095Z" fill="url(#paint61_linear_136_1113)"/>
<path d="M92.6161 104.165L92.3126 103.207C92.3126 103.207 91.9471 102.417 90.9158 102.282C89.8846 102.147 89.8959 102.703 89.8959 102.703L90.5687 102.902C90.5687 102.902 91.0037 103.028 91.3024 103.659C91.7201 104.301 92.1428 104.596 92.1428 104.596L92.6161 104.165Z" fill="url(#paint62_linear_136_1113)"/>
<path d="M88.7638 99.4235C88.7638 99.4235 97.2124 97.5012 100.544 94.4111C103.728 97.7518 101.938 103.428 101.938 103.428C101.938 103.428 92.7509 101.325 89.0582 101.774C88.2765 101.035 88.7638 99.4235 88.7638 99.4235Z" fill="url(#paint63_linear_136_1113)"/>
<path d="M105.102 104.994C104.933 104.789 104.878 104.501 104.982 104.236C107.861 96.934 103.858 93.0952 103.819 93.0585C103.513 92.7749 103.496 92.2962 103.78 91.9906C104.064 91.6849 104.542 91.6677 104.848 91.9518C105.046 92.1356 109.642 96.5394 106.388 104.791C106.235 105.179 105.796 105.37 105.408 105.216C105.285 105.168 105.181 105.09 105.102 104.994Z" fill="url(#paint64_linear_136_1113)"/>
<path d="M121.733 159.155C121.233 158.698 120.547 157.262 120.522 156.814C120.36 153.834 119.692 148.272 121.653 145.8C121.988 145.377 124.243 146.349 124.803 146.138C126.391 146.409 126.926 146.601 128.562 146.117C133.393 144.686 131.795 134.517 140.098 137.159C146.18 139.095 149.187 143.767 154.08 135.649C158.972 127.531 175.005 117.729 179.392 128.862C181.91 135.251 172.53 138.494 171.539 145.043C170.597 151.266 165.977 153.693 159.133 153.025C152.288 152.356 153.414 156.321 151.764 161.706C149.781 168.173 141.024 163.424 137.168 160.886C134.063 158.843 124.777 155.735 121.733 159.155H121.733Z" fill="url(#paint65_linear_136_1113)"/>
<path d="M129.591 152.282C126.724 152.282 123.853 152.056 120.997 151.601L121.027 151.412C132.038 153.168 143.289 151.504 153.565 146.599C163.343 141.931 172.083 134.451 178.84 124.967L178.996 125.078C172.22 134.589 163.455 142.09 153.647 146.771C146.002 150.421 137.817 152.282 129.591 152.282Z" fill="#FCFDFE"/>
<path d="M151.23 164.503C147.596 159.644 139.73 154.064 133.695 152.066L133.755 151.885C139.821 153.894 147.728 159.503 151.382 164.389L151.229 164.503L151.23 164.503Z" fill="#FCFDFE"/>
<path d="M125.315 152.238L125.292 152.048C128.566 151.644 131.512 149.599 134.046 145.971C135.906 143.308 137.505 139.87 138.798 135.752L138.981 135.81C137.681 139.945 136.073 143.401 134.202 146.08C131.636 149.755 128.645 151.826 125.315 152.237V152.238Z" fill="#FCFDFE"/>
<path d="M170.917 150.178C167.022 147.706 161.1 144.982 155.007 146.054L154.974 145.866C161.127 144.784 167.096 147.526 171.019 150.017L170.917 150.178Z" fill="#FCFDFE"/>
<path d="M166.954 138.194L166.806 138.073C168.71 135.737 171.819 130.459 171.238 121.354L171.429 121.342C172.013 130.512 168.876 135.836 166.954 138.194Z" fill="#FCFDFE"/>
<path d="M126.187 163.502C123.58 161.595 121.01 159.623 118.48 157.589C118.412 157.606 120.73 150.974 125.349 149.293C134.415 146.099 133.487 138.445 134.13 134.541C134.844 128.937 138.442 124.361 143.242 126.799C148.619 129.401 154.191 121.168 157.432 112.713C158.739 108.446 164.881 105.674 169.098 106.527C173.453 107.304 175.885 111.705 172.943 120.034C169.944 129.892 160.566 131.839 155.779 135.048C151.075 138.195 154.727 144.68 148.213 146.23C142.636 147.718 136.597 147.716 136.025 152.983C135.527 158.226 133.243 161.521 126.187 163.502Z" fill="url(#paint66_linear_136_1113)"/>
<path d="M122.24 161.888L122.073 161.795C122.101 161.74 131.631 150.235 142.933 140.115C144.65 138.418 146.434 136.733 148.159 135.103C157.764 126.027 166.837 117.454 169.142 103.81L169.331 103.842C167.015 117.549 157.919 126.143 148.29 135.242C146.566 136.871 144.783 138.556 143.063 140.253C131.695 150.434 122.29 161.812 122.24 161.888V161.888Z" fill="#FCFDFE"/>
<path d="M156.997 126.659L156.932 126.48C161.929 124.643 168.357 121.676 171.811 120.082C174.604 118.793 174.611 118.797 174.691 118.856L174.576 119.009L174.633 118.933V119.027C174.509 119.047 173.353 119.58 171.891 120.255C168.435 121.85 162.003 124.82 156.997 126.659Z" fill="#FCFDFE"/>
<path d="M160.626 122.383L160.445 122.322C163.169 114.234 160.054 108.74 159.631 108.41L159.676 108.351L159.664 108.232C159.721 108.225 159.762 108.264 159.82 108.335C160.643 109.364 163.192 114.762 160.626 122.383Z" fill="#FCFDFE"/>
<path d="M135.976 146.98L135.819 146.872C140.987 139.388 139.498 129.073 138.618 124.985C138.57 124.766 138.555 124.695 138.554 124.661L138.745 124.653L138.65 124.657L138.745 124.653C138.747 124.677 138.774 124.801 138.804 124.945C139.689 129.057 141.187 139.434 135.976 146.98Z" fill="#FCFDFE"/>
<path d="M139.315 143.731L139.219 143.566C145.514 139.872 152.879 143.281 152.93 143.329L152.951 143.441L152.85 143.493L152.865 143.4L152.816 143.48C152.749 143.442 145.524 140.087 139.315 143.731V143.731Z" fill="#FCFDFE"/>
<path d="M123.826 160.028L123.66 159.932C124.576 158.343 125.455 155.273 124.445 149.673C124.407 149.462 124.398 149.343 124.417 149.316L124.571 149.428L124.494 149.372L124.589 149.377C124.59 149.4 124.61 149.511 124.633 149.639C125.653 155.296 124.757 158.411 123.825 160.028H123.826Z" fill="#FCFDFE"/>
<path d="M126.155 157.351L126.018 157.219C127.033 156.168 129.729 154.484 136.391 155.014C136.482 155.021 136.54 155.026 136.562 155.026L136.56 155.217C136.536 155.217 136.473 155.212 136.376 155.204C129.792 154.681 127.146 156.325 126.155 157.351H126.155Z" fill="#FCFDFE"/>
<defs>
<linearGradient id="paint0_linear_136_1113" x1="45.6652" y1="95.5231" x2="70.3682" y2="92.942" gradientUnits="userSpaceOnUse">
<stop stop-color="#26264F"/>
<stop offset="1" stop-color="#444B8C"/>
</linearGradient>
<linearGradient id="paint1_linear_136_1113" x1="98.3245" y1="170.991" x2="103.558" y2="163.494" gradientUnits="userSpaceOnUse">
<stop stop-color="#444B8C"/>
<stop offset="1" stop-color="#26264F"/>
</linearGradient>
<linearGradient id="paint2_linear_136_1113" x1="114.168" y1="169.069" x2="106.157" y2="125.586" gradientUnits="userSpaceOnUse">
<stop stop-color="#444B8C"/>
<stop offset="1" stop-color="#26264F"/>
</linearGradient>
<linearGradient id="paint3_linear_136_1113" x1="133.928" y1="49.0293" x2="174.013" y2="-8.182" gradientUnits="userSpaceOnUse">
<stop stop-color="#444B8C"/>
<stop offset="1" stop-color="#26264F"/>
</linearGradient>
<linearGradient id="paint4_linear_136_1113" x1="116.517" y1="55.8221" x2="66.3757" y2="215.079" gradientUnits="userSpaceOnUse">
<stop stop-color="#444B8C"/>
<stop offset="1" stop-color="#26264F"/>
</linearGradient>
<linearGradient id="paint5_linear_136_1113" x1="79.3288" y1="146.378" x2="145.796" y2="-1.83561" gradientUnits="userSpaceOnUse">
<stop offset="0.49" stop-color="#EBEFF2"/>
<stop offset="1" stop-color="white"/>
</linearGradient>
<linearGradient id="paint6_linear_136_1113" x1="106.822" y1="54.0473" x2="104.048" y2="77.008" gradientUnits="userSpaceOnUse">
<stop stop-color="#444B8C"/>
<stop offset="1" stop-color="#26264F"/>
</linearGradient>
<linearGradient id="paint7_linear_136_1113" x1="166.852" y1="41.7605" x2="161.126" y2="53.885" gradientUnits="userSpaceOnUse">
<stop stop-color="#FF9085"/>
<stop offset="1" stop-color="#FB6FBB"/>
</linearGradient>
<linearGradient id="paint8_linear_136_1113" x1="169.152" y1="42.9919" x2="163.445" y2="55.076" gradientUnits="userSpaceOnUse">
<stop stop-color="#FF9085"/>
<stop offset="1" stop-color="#FB6FBB"/>
</linearGradient>
<linearGradient id="paint9_linear_136_1113" x1="171.439" y1="44.2142" x2="165.751" y2="56.2595" gradientUnits="userSpaceOnUse">
<stop stop-color="#FF9085"/>
<stop offset="1" stop-color="#FB6FBB"/>
</linearGradient>
<linearGradient id="paint10_linear_136_1113" x1="129.961" y1="-9.93505" x2="63.0803" y2="68.2276" gradientUnits="userSpaceOnUse">
<stop stop-color="#E38DDD"/>
<stop offset="1" stop-color="#9571F6"/>
</linearGradient>
<linearGradient id="paint11_linear_136_1113" x1="127.636" y1="-12.8281" x2="60.1256" y2="66.0703" gradientUnits="userSpaceOnUse">
<stop stop-color="#E38DDD"/>
<stop offset="1" stop-color="#9571F6"/>
</linearGradient>
<linearGradient id="paint12_linear_136_1113" x1="147.006" y1="-1.73623" x2="79.4958" y2="77.1622" gradientUnits="userSpaceOnUse">
<stop stop-color="#E38DDD"/>
<stop offset="1" stop-color="#9571F6"/>
</linearGradient>
<linearGradient id="paint13_linear_136_1113" x1="136.305" y1="-3.97453" x2="68.7943" y2="74.9239" gradientUnits="userSpaceOnUse">
<stop stop-color="#E38DDD"/>
<stop offset="1" stop-color="#9571F6"/>
</linearGradient>
<linearGradient id="paint14_linear_136_1113" x1="147.05" y1="7.11629" x2="79.5392" y2="86.0147" gradientUnits="userSpaceOnUse">
<stop stop-color="#E38DDD"/>
<stop offset="1" stop-color="#9571F6"/>
</linearGradient>
<linearGradient id="paint15_linear_136_1113" x1="127.723" y1="4.87736" x2="60.2127" y2="83.7757" gradientUnits="userSpaceOnUse">
<stop stop-color="#E38DDD"/>
<stop offset="1" stop-color="#9571F6"/>
</linearGradient>
<linearGradient id="paint16_linear_136_1113" x1="139.007" y1="15.9688" x2="71.4966" y2="94.8672" gradientUnits="userSpaceOnUse">
<stop stop-color="#E38DDD"/>
<stop offset="1" stop-color="#9571F6"/>
</linearGradient>
<linearGradient id="paint17_linear_136_1113" x1="144.478" y1="13.7308" x2="76.9672" y2="92.6292" gradientUnits="userSpaceOnUse">
<stop stop-color="#E38DDD"/>
<stop offset="1" stop-color="#9571F6"/>
</linearGradient>
<linearGradient id="paint18_linear_136_1113" x1="130.425" y1="24.8202" x2="62.9144" y2="103.719" gradientUnits="userSpaceOnUse">
<stop stop-color="#E38DDD"/>
<stop offset="1" stop-color="#9571F6"/>
</linearGradient>
<linearGradient id="paint19_linear_136_1113" x1="127.81" y1="22.5821" x2="60.2991" y2="101.481" gradientUnits="userSpaceOnUse">
<stop stop-color="#E38DDD"/>
<stop offset="1" stop-color="#9571F6"/>
</linearGradient>
<linearGradient id="paint20_linear_136_1113" x1="139.093" y1="33.6738" x2="71.5831" y2="112.572" gradientUnits="userSpaceOnUse">
<stop stop-color="#E38DDD"/>
<stop offset="1" stop-color="#9571F6"/>
</linearGradient>
<linearGradient id="paint21_linear_136_1113" x1="136.478" y1="31.4356" x2="68.9683" y2="110.334" gradientUnits="userSpaceOnUse">
<stop stop-color="#E38DDD"/>
<stop offset="1" stop-color="#9571F6"/>
</linearGradient>
<linearGradient id="paint22_linear_136_1113" x1="139.137" y1="42.5257" x2="71.6263" y2="121.424" gradientUnits="userSpaceOnUse">
<stop stop-color="#E38DDD"/>
<stop offset="1" stop-color="#9571F6"/>
</linearGradient>
<linearGradient id="paint23_linear_136_1113" x1="136.522" y1="40.2882" x2="69.0116" y2="119.187" gradientUnits="userSpaceOnUse">
<stop stop-color="#E38DDD"/>
<stop offset="1" stop-color="#9571F6"/>
</linearGradient>
<linearGradient id="paint24_linear_136_1113" x1="130.555" y1="51.3777" x2="63.0443" y2="130.276" gradientUnits="userSpaceOnUse">
<stop stop-color="#E38DDD"/>
<stop offset="1" stop-color="#9571F6"/>
</linearGradient>
<linearGradient id="paint25_linear_136_1113" x1="127.94" y1="49.1402" x2="60.4296" y2="128.039" gradientUnits="userSpaceOnUse">
<stop stop-color="#E38DDD"/>
<stop offset="1" stop-color="#9571F6"/>
</linearGradient>
<linearGradient id="paint26_linear_136_1113" x1="281.698" y1="-67.3035" x2="127.09" y2="113.41" gradientUnits="userSpaceOnUse">
<stop stop-color="#E38DDD"/>
<stop offset="1" stop-color="#9571F6"/>
</linearGradient>
<linearGradient id="paint27_linear_136_1113" x1="153.838" y1="106.809" x2="134.515" y2="91.4989" gradientUnits="userSpaceOnUse">
<stop stop-color="#444B8C"/>
<stop offset="1" stop-color="#26264F"/>
</linearGradient>
<linearGradient id="paint28_linear_136_1113" x1="115.633" y1="76.5353" x2="96.3082" y2="61.2243" gradientUnits="userSpaceOnUse">
<stop stop-color="#444B8C"/>
<stop offset="1" stop-color="#26264F"/>
</linearGradient>
<linearGradient id="paint29_linear_136_1113" x1="123.248" y1="138.115" x2="139.017" y2="108.266" gradientUnits="userSpaceOnUse">
<stop stop-color="#FFC444"/>
<stop offset="1" stop-color="#F36F56"/>
</linearGradient>
<linearGradient id="paint30_linear_136_1113" x1="80.8367" y1="115.709" x2="96.606" y2="85.8595" gradientUnits="userSpaceOnUse">
<stop stop-color="#FFC444"/>
<stop offset="1" stop-color="#F36F56"/>
</linearGradient>
<linearGradient id="paint31_linear_136_1113" x1="147.554" y1="78.8017" x2="140.695" y2="2.63127" gradientUnits="userSpaceOnUse">
<stop stop-color="#FFC444"/>
<stop offset="1" stop-color="#F36F56"/>
</linearGradient>
<linearGradient id="paint32_linear_136_1113" x1="153.425" y1="78.2738" x2="146.566" y2="2.1037" gradientUnits="userSpaceOnUse">
<stop stop-color="#FFC444"/>
<stop offset="1" stop-color="#F36F56"/>
</linearGradient>
<linearGradient id="paint33_linear_136_1113" x1="153.614" y1="68.6726" x2="160.748" y2="41.6392" gradientUnits="userSpaceOnUse">
<stop stop-color="#FFC444"/>
<stop offset="1" stop-color="#F36F56"/>
</linearGradient>
<linearGradient id="paint34_linear_136_1113" x1="175.496" y1="45.8738" x2="172.926" y2="17.3355" gradientUnits="userSpaceOnUse">
<stop stop-color="#FFC444"/>
<stop offset="1" stop-color="#F36F56"/>
</linearGradient>
<linearGradient id="paint35_linear_136_1113" x1="163.494" y1="63.746" x2="136.012" y2="41.9725" gradientUnits="userSpaceOnUse">
<stop stop-color="#EBEFF2"/>
<stop offset="1" stop-color="white"/>
</linearGradient>
<linearGradient id="paint36_linear_136_1113" x1="163.142" y1="64.2025" x2="135.66" y2="42.4283" gradientUnits="userSpaceOnUse">
<stop stop-color="#EBEFF2"/>
<stop offset="1" stop-color="white"/>
</linearGradient>
<linearGradient id="paint37_linear_136_1113" x1="152.441" y1="40.691" x2="148.189" y2="59.934" gradientUnits="userSpaceOnUse">
<stop stop-color="#EBEFF2"/>
<stop offset="1" stop-color="white"/>
</linearGradient>
<linearGradient id="paint38_linear_136_1113" x1="147.883" y1="79.8088" x2="151.079" y2="33.7372" gradientUnits="userSpaceOnUse">
<stop stop-color="#444B8C"/>
<stop offset="1" stop-color="#26264F"/>
</linearGradient>
<linearGradient id="paint39_linear_136_1113" x1="116.072" y1="96.8895" x2="124.007" y2="85.1277" gradientUnits="userSpaceOnUse">
<stop stop-color="#FFC444"/>
<stop offset="1" stop-color="#F36F56"/>
</linearGradient>
<linearGradient id="paint40_linear_136_1113" x1="131.01" y1="95.8728" x2="112.174" y2="80.9487" gradientUnits="userSpaceOnUse">
<stop stop-color="#AA80F9"/>
<stop offset="1" stop-color="#6165D7"/>
</linearGradient>
<linearGradient id="paint41_linear_136_1113" x1="120.636" y1="87.0304" x2="114.226" y2="104.635" gradientUnits="userSpaceOnUse">
<stop stop-color="#AA80F9"/>
<stop offset="1" stop-color="#6165D7"/>
</linearGradient>
<linearGradient id="paint42_linear_136_1113" x1="120.226" y1="88.1786" x2="115.354" y2="101.558" gradientUnits="userSpaceOnUse">
<stop stop-color="#444B8C"/>
<stop offset="1" stop-color="#26264F"/>
</linearGradient>
<linearGradient id="paint43_linear_136_1113" x1="149.851" y1="79.9521" x2="153.047" y2="33.8817" gradientUnits="userSpaceOnUse">
<stop stop-color="#444B8C"/>
<stop offset="1" stop-color="#26264F"/>
</linearGradient>
<linearGradient id="paint44_linear_136_1113" x1="66.9509" y1="141.933" x2="103.532" y2="60.3612" gradientUnits="userSpaceOnUse">
<stop stop-color="#FF9085"/>
<stop offset="1" stop-color="#FB6FBB"/>
</linearGradient>
<linearGradient id="paint45_linear_136_1113" x1="90.9428" y1="103.971" x2="97.2409" y2="126.08" gradientUnits="userSpaceOnUse">
<stop stop-color="#AA80F9"/>
<stop offset="1" stop-color="#6165D7"/>
</linearGradient>
<linearGradient id="paint46_linear_136_1113" x1="51.6701" y1="144.71" x2="40.4193" y2="128.966" gradientUnits="userSpaceOnUse">
<stop stop-color="#AB316D"/>
<stop offset="1" stop-color="#792D3D"/>
</linearGradient>
<linearGradient id="paint47_linear_136_1113" x1="46.4445" y1="135.914" x2="60.8933" y2="157.642" gradientUnits="userSpaceOnUse">
<stop stop-color="#FFC444"/>
<stop offset="1" stop-color="#F36F56"/>
</linearGradient>
<linearGradient id="paint48_linear_136_1113" x1="81.2235" y1="169.216" x2="92.4523" y2="184.975" gradientUnits="userSpaceOnUse">
<stop stop-color="#AB316D"/>
<stop offset="1" stop-color="#792D3D"/>
</linearGradient>
<linearGradient id="paint49_linear_136_1113" x1="84.4851" y1="176.573" x2="90.0437" y2="158.137" gradientUnits="userSpaceOnUse">
<stop stop-color="#FFC444"/>
<stop offset="1" stop-color="#F36F56"/>
</linearGradient>
<linearGradient id="paint50_linear_136_1113" x1="91.5406" y1="172.098" x2="82.8295" y2="141.531" gradientUnits="userSpaceOnUse">
<stop stop-color="#FFC444"/>
<stop offset="1" stop-color="#F36F56"/>
</linearGradient>
<linearGradient id="paint51_linear_136_1113" x1="89.9347" y1="172.556" x2="81.2237" y2="141.988" gradientUnits="userSpaceOnUse">
<stop stop-color="#FFC444"/>
<stop offset="1" stop-color="#F36F56"/>
</linearGradient>
<linearGradient id="paint52_linear_136_1113" x1="75.2361" y1="150.104" x2="63.3245" y2="128.323" gradientUnits="userSpaceOnUse">
<stop stop-color="#FFC444"/>
<stop offset="1" stop-color="#F36F56"/>
</linearGradient>
<linearGradient id="paint53_linear_136_1113" x1="52.6717" y1="72.121" x2="64.43" y2="108.685" gradientUnits="userSpaceOnUse">
<stop stop-color="#444B8C"/>
<stop offset="1" stop-color="#26264F"/>
</linearGradient>
<linearGradient id="paint54_linear_136_1113" x1="70.2937" y1="106.466" x2="85.2856" y2="159.091" gradientUnits="userSpaceOnUse">
<stop stop-color="#AA80F9"/>
<stop offset="1" stop-color="#6165D7"/>
</linearGradient>
<linearGradient id="paint55_linear_136_1113" x1="66.4528" y1="107.561" x2="81.4442" y2="160.185" gradientUnits="userSpaceOnUse">
<stop stop-color="#AA80F9"/>
<stop offset="1" stop-color="#6165D7"/>
</linearGradient>
<linearGradient id="paint56_linear_136_1113" x1="79.1781" y1="111.859" x2="85.0241" y2="97.5794" gradientUnits="userSpaceOnUse">
<stop stop-color="#FFC444"/>
<stop offset="1" stop-color="#F36F56"/>
</linearGradient>
<linearGradient id="paint57_linear_136_1113" x1="81.0849" y1="97.6548" x2="93.0473" y2="110.295" gradientUnits="userSpaceOnUse">
<stop stop-color="#FFC444"/>
<stop offset="1" stop-color="#F36F56"/>
</linearGradient>
<linearGradient id="paint58_linear_136_1113" x1="51.3848" y1="95.998" x2="50.2969" y2="115.917" gradientUnits="userSpaceOnUse">
<stop stop-color="#FFC444"/>
<stop offset="1" stop-color="#F36F56"/>
</linearGradient>
<linearGradient id="paint59_linear_136_1113" x1="54.3773" y1="122.789" x2="76.4339" y2="122.789" gradientUnits="userSpaceOnUse">
<stop stop-color="#AA80F9"/>
<stop offset="1" stop-color="#6165D7"/>
</linearGradient>
<linearGradient id="paint60_linear_136_1113" x1="105.23" y1="97.9645" x2="97.4827" y2="100.039" gradientUnits="userSpaceOnUse">
<stop stop-color="#AB316D"/>
<stop offset="1" stop-color="#792D3D"/>
</linearGradient>
<linearGradient id="paint61_linear_136_1113" x1="94.4635" y1="101.785" x2="86.2844" y2="103.975" gradientUnits="userSpaceOnUse">
<stop stop-color="#AB316D"/>
<stop offset="1" stop-color="#792D3D"/>
</linearGradient>
<linearGradient id="paint62_linear_136_1113" x1="90.6286" y1="102.248" x2="92.0737" y2="104.411" gradientUnits="userSpaceOnUse">
<stop stop-color="#FFC444"/>
<stop offset="1" stop-color="#F36F56"/>
</linearGradient>
<linearGradient id="paint63_linear_136_1113" x1="99.9633" y1="94.6613" x2="86.1967" y2="114.852" gradientUnits="userSpaceOnUse">
<stop stop-color="#444B8C"/>
<stop offset="1" stop-color="#26264F"/>
</linearGradient>
<linearGradient id="paint64_linear_136_1113" x1="103.577" y1="98.5097" x2="107.549" y2="98.5097" gradientUnits="userSpaceOnUse">
<stop stop-color="#AB316D"/>
<stop offset="1" stop-color="#792D3D"/>
</linearGradient>
<linearGradient id="paint65_linear_136_1113" x1="179.746" y1="140.981" x2="61.6308" y2="161.085" gradientUnits="userSpaceOnUse">
<stop stop-color="#AA80F9"/>
<stop offset="1" stop-color="#6165D7"/>
</linearGradient>
<linearGradient id="paint66_linear_136_1113" x1="168.447" y1="107.78" x2="125.6" y2="162.043" gradientUnits="userSpaceOnUse">
<stop stop-color="#FFC444"/>
<stop offset="1" stop-color="#F36F56"/>
</linearGradient>
</defs>
</svg>
