<svg xmlns="http://www.w3.org/2000/svg" width="579" height="226" fill="none" viewBox="0 0 579 226"><mask id="path-1-inside-1_18_56" fill="#fff"><path fill-rule="evenodd" d="M50.2 82V139.982C40.5772 143.461 33.7 152.677 33.7 163.5C33.7 177.307 44.8928 188.5 58.7 188.5C72.5071 188.5 83.7 177.307 83.7 163.5C83.7 152.491 76.5836 143.143 66.7 139.807V105.5C66.7 88 70.2 70 90.7 60C111.2 50 128.7 49 150.2 76C165.699 95.4641 175.222 108.432 183.826 120.149L183.827 120.15L183.827 120.15C187.158 124.686 190.351 129.035 193.7 133.5C203.3 146.3 206.033 162.5 206.2 169V178.305L208.165 179.999C208.556 180.336 209.139 180.32 209.511 179.963L223.065 166.943C226.548 163.597 232.051 163.597 235.535 166.943L248.907 179.788C249.294 180.16 249.906 180.16 250.293 179.788L263.665 166.943C267.148 163.597 272.651 163.597 276.135 166.943L289.507 179.788C289.894 180.16 290.506 180.16 290.893 179.788L291.7 179.013V66C252.7 44 166 0 139.2 0C105.7 0 50.2 16.5 50.2 82Z" clip-rule="evenodd"/></mask><path fill="#000" fill-rule="evenodd" d="M50.2 82V139.982C40.5772 143.461 33.7 152.677 33.7 163.5C33.7 177.307 44.8928 188.5 58.7 188.5C72.5071 188.5 83.7 177.307 83.7 163.5C83.7 152.491 76.5836 143.143 66.7 139.807V105.5C66.7 88 70.2 70 90.7 60C111.2 50 128.7 49 150.2 76C165.699 95.4641 175.222 108.432 183.826 120.149L183.827 120.15L183.827 120.15C187.158 124.686 190.351 129.035 193.7 133.5C203.3 146.3 206.033 162.5 206.2 169V178.305L208.165 179.999C208.556 180.336 209.139 180.32 209.511 179.963L223.065 166.943C226.548 163.597 232.051 163.597 235.535 166.943L248.907 179.788C249.294 180.16 249.906 180.16 250.293 179.788L263.665 166.943C267.148 163.597 272.651 163.597 276.135 166.943L289.507 179.788C289.894 180.16 290.506 180.16 290.893 179.788L291.7 179.013V66C252.7 44 166 0 139.2 0C105.7 0 50.2 16.5 50.2 82Z" clip-rule="evenodd"/><path fill="#fff" d="M253.064 182.673L251.678 181.23V181.23L253.064 182.673ZM246.136 182.673L244.751 184.115L246.136 182.673ZM232.764 169.827L234.149 168.385L232.764 169.827ZM225.836 169.827L224.451 168.385L225.836 169.827ZM212.282 182.848L213.667 184.29H213.667L212.282 182.848ZM285.351 184.115C287.256 185.946 289.938 186.486 292.298 185.746L291.101 181.929C290.083 182.249 288.936 182.012 288.122 181.23L285.351 184.115ZM254.449 184.115L267.822 171.27L265.051 168.385L251.678 181.23L254.449 184.115ZM244.751 184.115C247.46 186.717 251.74 186.717 254.449 184.115L251.678 181.23C250.517 182.346 248.683 182.346 247.522 181.23L244.751 184.115ZM231.378 171.27L244.751 184.115L247.522 181.23L234.149 168.385L231.378 171.27ZM227.222 171.27C228.383 170.154 230.217 170.154 231.378 171.27L234.149 168.385C231.44 165.783 227.16 165.783 224.451 168.385L227.222 171.27ZM213.667 184.29L227.222 171.27L224.451 168.385L210.896 181.405L213.667 184.29ZM205.151 185.205C207.825 186.851 211.336 186.529 213.667 184.29L210.896 181.405C209.899 182.363 208.393 182.504 207.249 181.799L205.151 185.205ZM50.2 139.982L51.5598 143.744L54.2 142.789V139.982H50.2ZM66.7 139.807H62.7V142.679L65.4207 143.597L66.7 139.807ZM150.2 76L147.071 78.4917L150.2 76ZM183.826 120.149L180.602 122.517L180.614 122.533L180.626 122.549L183.826 120.149ZM183.827 120.15L180.627 122.55L180.633 122.559L180.64 122.567L183.827 120.15ZM183.827 120.15L187.051 117.783L187.033 117.758L187.014 117.733L183.827 120.15ZM193.7 133.5L190.5 135.9L193.7 133.5ZM206.2 169H210.2V168.949L210.199 168.897L206.2 169ZM206.2 178.305H202.2V180.138L203.588 181.335L206.2 178.305ZM208.165 179.999L210.777 176.969L210.777 176.969L208.165 179.999ZM209.511 179.963L206.74 177.078L206.74 177.078L209.511 179.963ZM223.065 166.943L220.294 164.058L223.065 166.943ZM235.535 166.943L232.764 169.827L232.764 169.827L235.535 166.943ZM248.907 179.788L246.136 182.673L246.136 182.673L248.907 179.788ZM250.293 179.788L253.064 182.673L253.064 182.673L250.293 179.788ZM263.665 166.943L260.894 164.058V164.058L263.665 166.943ZM276.135 166.943L273.364 169.827L276.135 166.943ZM289.507 179.788L286.736 182.673L286.736 182.673L289.507 179.788ZM290.893 179.788L293.664 182.673L293.664 182.673L290.893 179.788ZM291.7 179.013L294.471 181.897L295.7 180.717V179.013H291.7ZM291.7 66H295.7V63.6639L293.665 62.5161L291.7 66ZM54.2 139.982V82H46.2V139.982H54.2ZM37.7 163.5C37.7 154.415 43.4709 146.668 51.5598 143.744L48.8401 136.22C37.6834 140.253 29.7 150.939 29.7 163.5H37.7ZM58.7 184.5C47.102 184.5 37.7 175.098 37.7 163.5H29.7C29.7 179.516 42.6837 192.5 58.7 192.5V184.5ZM79.7 163.5C79.7 175.098 70.2979 184.5 58.7 184.5V192.5C74.7162 192.5 87.7 179.516 87.7 163.5H79.7ZM65.4207 143.597C73.7277 146.401 79.7 154.258 79.7 163.5H87.7C87.7 150.723 79.4395 139.886 67.9792 136.017L65.4207 143.597ZM62.7 105.5V139.807H70.7V105.5H62.7ZM88.9463 56.4049C77.8326 61.8262 71.156 69.5407 67.3419 78.3479C63.5841 87.0248 62.7 96.5412 62.7 105.5H70.7C70.7 96.9588 71.5658 88.7252 74.683 81.5271C77.7439 74.4593 83.0674 68.1738 92.4536 63.5951L88.9463 56.4049ZM153.329 73.5083C142.271 59.6213 131.765 52.3272 120.84 50.1988C109.942 48.0758 99.4773 51.2678 88.9463 56.4049L92.4536 63.5951C102.423 58.7322 110.958 56.4242 119.31 58.0512C127.634 59.6728 136.629 65.3787 147.071 78.4917L153.329 73.5083ZM187.05 117.782C178.437 106.052 168.878 93.0343 153.329 73.5083L147.071 78.4917C162.521 97.894 172.007 110.812 180.602 122.517L187.05 117.782ZM187.027 117.75L187.026 117.749L180.626 122.549L180.627 122.55L187.027 117.75ZM187.014 117.733L187.013 117.732L180.64 122.567L180.64 122.568L187.014 117.733ZM196.9 131.1C193.565 126.654 190.384 122.321 187.051 117.783L180.603 122.518C183.932 127.051 187.137 131.416 190.5 135.9L196.9 131.1ZM210.199 168.897C210.018 161.856 207.147 144.763 196.9 131.1L190.5 135.9C199.453 147.837 202.048 163.144 202.201 169.103L210.199 168.897ZM210.2 178.305V169H202.2V178.305H210.2ZM203.588 181.335L205.553 183.029L210.777 176.969L208.812 175.275L203.588 181.335ZM205.553 183.029C207.507 184.713 210.421 184.635 212.282 182.847L206.74 177.078C207.856 176.006 209.605 175.959 210.777 176.969L205.553 183.029ZM212.282 182.848L225.836 169.827L220.294 164.058L206.74 177.078L212.282 182.848ZM225.836 169.827C227.771 167.968 230.829 167.968 232.764 169.827L238.306 164.058C233.274 159.225 225.325 159.225 220.294 164.058L225.836 169.827ZM232.764 169.827L246.136 182.673L251.678 176.903L238.306 164.058L232.764 169.827ZM246.136 182.673C248.071 184.532 251.129 184.532 253.064 182.673L247.522 176.903C248.683 175.788 250.517 175.788 251.678 176.903L246.136 182.673ZM253.064 182.673L266.436 169.827L260.894 164.058L247.522 176.903L253.064 182.673ZM266.436 169.827C268.371 167.968 271.429 167.968 273.364 169.827L278.906 164.058C273.874 159.225 265.925 159.225 260.894 164.058L266.436 169.827ZM273.364 169.827L286.736 182.673L292.278 176.903L278.906 164.058L273.364 169.827ZM286.736 182.673C288.671 184.532 291.729 184.532 293.664 182.673L288.122 176.903C289.283 175.788 291.117 175.788 292.278 176.903L286.736 182.673ZM293.664 182.673L294.471 181.897L288.929 176.128L288.122 176.903L293.664 182.673ZM287.7 66V179.013H295.7V66H287.7ZM139.2 4C145.132 4 154.986 6.51258 167.504 10.9855C179.856 15.3992 194.308 21.5339 209.204 28.3841C238.99 42.082 270.317 58.5303 289.735 69.4839L293.665 62.5161C274.083 51.4697 242.56 34.918 212.546 21.1159C197.542 14.2161 182.856 7.97575 170.196 3.452C157.701 -1.01258 146.667 -4 139.2 -4V4ZM54.2 82C54.2 50.5904 67.4064 31.32 84.3904 19.7427C101.595 8.01525 122.981 4 139.2 4V-4C121.919 -4 98.8053 0.23475 79.8845 13.1323C60.7435 26.18 46.2 47.9096 46.2 82H54.2Z" mask="url(#path-1-inside-1_18_56)"/><mask id="path-3-inside-2_18_56" fill="#fff"><path fill-rule="evenodd" d="M497.7 163.5C497.7 152.866 504.34 143.782 513.7 140.169V105.5C513.7 88 510.2 70 489.7 60C469.2 50 451.7 49 430.2 76C414.7 95.4646 405.177 108.433 396.573 120.15C393.242 124.686 390.049 129.035 386.7 133.5C377.1 146.3 374.367 162.5 374.2 169V178.305L372.235 179.999C371.844 180.336 371.261 180.32 370.889 179.963L357.335 166.943C353.851 163.597 348.348 163.597 344.865 166.943L331.493 179.788C331.106 180.16 330.494 180.16 330.107 179.788L316.735 166.943C313.251 163.597 307.748 163.597 304.265 166.943L290.893 179.788C290.506 180.16 289.894 180.16 289.507 179.788L288.7 179.013V66C327.7 44 414.4 0 441.2 0C474.7 0 530.2 16.5 530.2 82V139.645C540.343 142.83 547.7 152.306 547.7 163.5C547.7 177.307 536.507 188.5 522.7 188.5C508.893 188.5 497.7 177.307 497.7 163.5ZM286.736 182.673L273.364 169.827C271.429 167.968 268.371 167.968 266.436 169.827L253.064 182.673C251.129 184.532 248.071 184.532 246.136 182.673L232.764 169.827C230.829 167.968 227.771 167.968 225.836 169.827L212.282 182.848C210.421 184.635 207.507 184.713 205.553 183.029L201.452 179.494C197.685 176.245 192.001 179.894 193.385 184.672L203.154 218.391C203.774 220.529 205.731 222 207.957 222H373.375C375.632 222 377.61 220.487 378.201 218.308L387.431 184.249C388.721 179.491 383.075 175.936 379.341 179.154L374.847 183.029C372.893 184.713 369.978 184.635 368.118 182.848L354.564 169.827C352.629 167.968 349.571 167.968 347.636 169.827L334.264 182.673C332.329 184.532 329.271 184.532 327.336 182.673L313.964 169.827C312.029 167.968 308.971 167.968 307.036 169.827L293.664 182.673C291.729 184.532 288.671 184.532 286.736 182.673Z" clip-rule="evenodd"/></mask><path fill="url(#paint0_radial_18_56)" fill-rule="evenodd" d="M497.7 163.5C497.7 152.866 504.34 143.782 513.7 140.169V105.5C513.7 88 510.2 70 489.7 60C469.2 50 451.7 49 430.2 76C414.7 95.4646 405.177 108.433 396.573 120.15C393.242 124.686 390.049 129.035 386.7 133.5C377.1 146.3 374.367 162.5 374.2 169V178.305L372.235 179.999C371.844 180.336 371.261 180.32 370.889 179.963L357.335 166.943C353.851 163.597 348.348 163.597 344.865 166.943L331.493 179.788C331.106 180.16 330.494 180.16 330.107 179.788L316.735 166.943C313.251 163.597 307.748 163.597 304.265 166.943L290.893 179.788C290.506 180.16 289.894 180.16 289.507 179.788L288.7 179.013V66C327.7 44 414.4 0 441.2 0C474.7 0 530.2 16.5 530.2 82V139.645C540.343 142.83 547.7 152.306 547.7 163.5C547.7 177.307 536.507 188.5 522.7 188.5C508.893 188.5 497.7 177.307 497.7 163.5ZM286.736 182.673L273.364 169.827C271.429 167.968 268.371 167.968 266.436 169.827L253.064 182.673C251.129 184.532 248.071 184.532 246.136 182.673L232.764 169.827C230.829 167.968 227.771 167.968 225.836 169.827L212.282 182.848C210.421 184.635 207.507 184.713 205.553 183.029L201.452 179.494C197.685 176.245 192.001 179.894 193.385 184.672L203.154 218.391C203.774 220.529 205.731 222 207.957 222H373.375C375.632 222 377.61 220.487 378.201 218.308L387.431 184.249C388.721 179.491 383.075 175.936 379.341 179.154L374.847 183.029C372.893 184.713 369.978 184.635 368.118 182.848L354.564 169.827C352.629 167.968 349.571 167.968 347.636 169.827L334.264 182.673C332.329 184.532 329.271 184.532 327.336 182.673L313.964 169.827C312.029 167.968 308.971 167.968 307.036 169.827L293.664 182.673C291.729 184.532 288.671 184.532 286.736 182.673Z" clip-rule="evenodd"/><path fill="#fff" d="M513.7 140.169L515.14 143.901L517.7 142.913V140.169H513.7ZM430.2 76L433.329 78.4917L430.2 76ZM396.573 120.15L399.797 122.517V122.517L396.573 120.15ZM386.7 133.5L389.9 135.9H389.9L386.7 133.5ZM374.2 169L370.201 168.897L370.2 168.949V169H374.2ZM374.2 178.305L376.812 181.335L378.2 180.138V178.305H374.2ZM372.235 179.999L369.623 176.969L369.623 176.969L372.235 179.999ZM370.889 179.963L368.118 182.848L370.889 179.963ZM357.335 166.943L354.564 169.827L357.335 166.943ZM344.865 166.943L342.094 164.058V164.058L344.865 166.943ZM331.493 179.788L334.264 182.673L334.264 182.673L331.493 179.788ZM330.107 179.788L327.336 182.673L327.336 182.673L330.107 179.788ZM316.735 166.943L319.506 164.058V164.058L316.735 166.943ZM304.265 166.943L301.494 164.058L304.265 166.943ZM290.893 179.788L293.664 182.673L293.664 182.673L290.893 179.788ZM289.507 179.788L286.736 182.673L289.507 179.788ZM288.7 179.013H284.7V180.717L285.929 181.897L288.7 179.013ZM288.7 66L286.735 62.5161L284.7 63.6639V66H288.7ZM530.2 139.645H526.2V142.581L529.001 143.461L530.2 139.645ZM273.364 169.827L276.135 166.943H276.135L273.364 169.827ZM286.736 182.673L289.507 179.788V179.788L286.736 182.673ZM266.436 169.827L269.207 172.712V172.712L266.436 169.827ZM253.064 182.673L250.293 179.788L250.293 179.788L253.064 182.673ZM246.136 182.673L248.907 179.788L248.907 179.788L246.136 182.673ZM232.764 169.827L235.535 166.943H235.535L232.764 169.827ZM225.836 169.827L228.607 172.712L228.607 172.712L225.836 169.827ZM212.282 182.848L215.053 185.732L212.282 182.848ZM205.553 183.029L208.165 179.999L208.165 179.999L205.553 183.029ZM201.452 179.494L198.841 182.523L198.841 182.523L201.452 179.494ZM193.385 184.672L189.543 185.785H189.543L193.385 184.672ZM203.154 218.391L206.996 217.278H206.996L203.154 218.391ZM378.201 218.308L374.34 217.262L378.201 218.308ZM387.431 184.249L391.292 185.296L387.431 184.249ZM379.341 179.154L376.729 176.125V176.125L379.341 179.154ZM374.847 183.029L372.235 179.999L374.847 183.029ZM368.118 182.848L365.347 185.732L368.118 182.848ZM354.564 169.827L351.793 172.712L351.793 172.712L354.564 169.827ZM347.636 169.827L344.865 166.943V166.943L347.636 169.827ZM334.264 182.673L337.035 185.557V185.557L334.264 182.673ZM327.336 182.673L324.565 185.557L327.336 182.673ZM313.964 169.827L316.735 166.943H316.735L313.964 169.827ZM307.036 169.827L309.807 172.712L309.807 172.712L307.036 169.827ZM293.664 182.673L290.893 179.788L290.893 179.788L293.664 182.673ZM512.26 136.437C501.408 140.626 493.7 151.158 493.7 163.5H501.7C501.7 154.573 507.271 146.938 515.14 143.901L512.26 136.437ZM509.7 105.5V140.169H517.7V105.5H509.7ZM487.946 63.5951C497.333 68.1738 502.656 74.4593 505.717 81.5271C508.834 88.7252 509.7 96.9588 509.7 105.5H517.7C517.7 96.5412 516.816 87.0248 513.058 78.3479C509.244 69.5407 502.567 61.8262 491.454 56.4049L487.946 63.5951ZM433.329 78.4917C443.771 65.3787 452.765 59.6728 461.09 58.0512C469.442 56.4242 477.977 58.7322 487.946 63.5951L491.454 56.4049C480.923 51.2678 470.458 48.0758 459.56 50.1988C448.634 52.3272 438.129 59.6213 427.071 73.5083L433.329 78.4917ZM399.797 122.517C408.392 110.813 417.879 97.8944 433.329 78.4917L427.071 73.5083C411.522 93.0347 401.963 106.053 393.349 117.782L399.797 122.517ZM389.9 135.9C393.263 131.416 396.468 127.051 399.797 122.517L393.349 117.782C390.016 122.321 386.835 126.653 383.5 131.1L389.9 135.9ZM378.199 169.103C378.351 163.144 380.947 147.837 389.9 135.9L383.5 131.1C373.253 144.763 370.382 161.856 370.201 168.897L378.199 169.103ZM378.2 178.305V169H370.2V178.305H378.2ZM374.847 183.029L376.812 181.335L371.588 175.275L369.623 176.969L374.847 183.029ZM368.118 182.848C369.978 184.635 372.893 184.713 374.847 183.029L369.623 176.969C370.795 175.959 372.544 176.006 373.66 177.078L368.118 182.848ZM354.564 169.827L368.118 182.848L373.66 177.078L360.106 164.058L354.564 169.827ZM347.636 169.827C349.571 167.968 352.629 167.968 354.564 169.827L360.106 164.058C355.074 159.225 347.125 159.225 342.094 164.058L347.636 169.827ZM334.264 182.673L347.636 169.827L342.094 164.058L328.722 176.903L334.264 182.673ZM327.336 182.673C329.271 184.532 332.329 184.532 334.264 182.673L328.722 176.903C329.883 175.788 331.717 175.788 332.878 176.903L327.336 182.673ZM313.964 169.827L327.336 182.673L332.878 176.903L319.506 164.058L313.964 169.827ZM307.036 169.827C308.971 167.968 312.029 167.968 313.964 169.827L319.506 164.058C314.474 159.225 306.525 159.225 301.494 164.058L307.036 169.827ZM293.664 182.673L307.036 169.827L301.494 164.058L288.122 176.903L293.664 182.673ZM286.736 182.673C288.671 184.532 291.729 184.532 293.664 182.673L288.122 176.903C289.283 175.788 291.117 175.788 292.278 176.903L286.736 182.673ZM285.929 181.897L286.736 182.673L292.278 176.903L291.471 176.128L285.929 181.897ZM284.7 66V179.013H292.7V66H284.7ZM441.2 -4C433.732 -4 422.699 -1.01258 410.204 3.452C397.544 7.97575 382.858 14.2161 367.854 21.1159C337.84 34.918 306.317 51.4697 286.735 62.5161L290.665 69.4839C310.083 58.5303 341.41 42.082 371.196 28.3841C386.092 21.5339 400.544 15.3992 412.896 10.9855C425.414 6.51258 435.267 4 441.2 4V-4ZM534.2 82C534.2 47.9096 519.656 26.18 500.515 13.1323C481.595 0.23475 458.481 -4 441.2 -4V4C457.419 4 478.805 8.01525 496.009 19.7427C512.994 31.32 526.2 50.5904 526.2 82H534.2ZM534.2 139.645V82H526.2V139.645H534.2ZM551.7 163.5C551.7 150.509 543.161 139.523 531.399 135.828L529.001 143.461C537.525 146.138 543.7 154.103 543.7 163.5H551.7ZM522.7 192.5C538.716 192.5 551.7 179.516 551.7 163.5H543.7C543.7 175.098 534.298 184.5 522.7 184.5V192.5ZM493.7 163.5C493.7 179.516 506.684 192.5 522.7 192.5V184.5C511.102 184.5 501.7 175.098 501.7 163.5H493.7ZM270.593 172.712L283.965 185.557L289.507 179.788L276.135 166.943L270.593 172.712ZM269.207 172.712C269.594 172.34 270.206 172.34 270.593 172.712L276.135 166.943C272.652 163.597 267.148 163.597 263.665 166.943L269.207 172.712ZM255.835 185.557L269.207 172.712L263.665 166.943L250.293 179.788L255.835 185.557ZM243.365 185.557C246.848 188.903 252.352 188.903 255.835 185.557L250.293 179.788C249.906 180.16 249.294 180.16 248.907 179.788L243.365 185.557ZM229.993 172.712L243.365 185.557L248.907 179.788L235.535 166.943L229.993 172.712ZM228.607 172.712C228.994 172.34 229.606 172.34 229.993 172.712L235.535 166.943C232.052 163.597 226.548 163.597 223.065 166.943L228.607 172.712ZM215.053 185.732L228.607 172.712L223.065 166.943L209.511 179.963L215.053 185.732ZM202.942 186.058C206.458 189.09 211.704 188.949 215.053 185.732L209.511 179.963C209.139 180.32 208.556 180.336 208.165 179.999L202.942 186.058ZM198.841 182.523L202.942 186.058L208.165 179.999L204.064 176.464L198.841 182.523ZM197.227 183.559C197.134 183.237 197.177 183.043 197.23 182.915C197.296 182.755 197.433 182.577 197.648 182.439C197.862 182.301 198.081 182.251 198.254 182.258C198.392 182.263 198.587 182.304 198.841 182.523L204.064 176.464C197.282 170.617 187.052 177.184 189.543 185.785L197.227 183.559ZM206.996 217.278L197.227 183.559L189.543 185.785L199.312 219.504L206.996 217.278ZM207.957 218C207.512 218 207.12 217.706 206.996 217.278L199.312 219.504C200.427 223.352 203.951 226 207.957 226V218ZM373.375 218H207.957V226H373.375V218ZM374.34 217.262C374.222 217.697 373.826 218 373.375 218V226C377.439 226 380.998 223.277 382.061 219.354L374.34 217.262ZM383.571 183.203L374.34 217.262L382.061 219.354L391.292 185.296L383.571 183.203ZM381.953 182.184C382.203 181.969 382.396 181.926 382.535 181.92C382.708 181.912 382.925 181.961 383.138 182.095C383.352 182.229 383.49 182.405 383.557 182.563C383.612 182.692 383.657 182.884 383.571 183.203L391.292 185.296C393.613 176.731 383.45 170.331 376.729 176.125L381.953 182.184ZM377.458 186.058L381.953 182.184L376.729 176.125L372.235 179.999L377.458 186.058ZM365.347 185.732C368.696 188.949 373.942 189.09 377.458 186.058L372.235 179.999C371.844 180.336 371.261 180.32 370.889 179.963L365.347 185.732ZM351.793 172.712L365.347 185.732L370.889 179.963L357.335 166.943L351.793 172.712ZM350.407 172.712C350.794 172.34 351.406 172.34 351.793 172.712L357.335 166.943C353.852 163.597 348.348 163.597 344.865 166.943L350.407 172.712ZM337.035 185.557L350.407 172.712L344.865 166.943L331.493 179.788L337.035 185.557ZM324.565 185.557C328.048 188.903 333.552 188.903 337.035 185.557L331.493 179.788C331.106 180.16 330.494 180.16 330.107 179.788L324.565 185.557ZM311.193 172.712L324.565 185.557L330.107 179.788L316.735 166.943L311.193 172.712ZM309.807 172.712C310.194 172.34 310.806 172.34 311.193 172.712L316.735 166.943C313.252 163.597 307.748 163.597 304.265 166.943L309.807 172.712ZM296.435 185.557L309.807 172.712L304.265 166.943L290.893 179.788L296.435 185.557ZM283.965 185.557C287.448 188.903 292.952 188.903 296.435 185.557L290.893 179.788C290.506 180.16 289.894 180.16 289.507 179.788L283.965 185.557Z" mask="url(#path-3-inside-2_18_56)"/><mask id="mask0_18_56" width="240" height="194" x="290" y="0" maskUnits="userSpaceOnUse" style="mask-type:alpha"><path fill="url(#paint1_radial_18_56)" d="M529.5 82V144.5H513V105.5C513 88 509.5 70 489 60C468.5 50 451 49 429.5 76C408 103 398 117.5 386 133.5C376.4 146.3 373.667 162.5 373.5 169V194H290V66C329 44 413.7 0 440.5 0C474 0 529.5 16.5 529.5 82Z"/></mask><g mask="url(#mask0_18_56)"><path fill="#fff" fill-rule="evenodd" d="M539.5 149.5V89C539.5 23.5 484 7 450.5 7C428.646 7 368.291 36.2583 325.61 58.9868C309.686 67.4671 300 84.1597 300 102.202V156.874L307.336 149.827C309.271 147.968 312.329 147.968 314.264 149.827L327.636 162.673C329.571 164.532 332.629 164.532 334.564 162.673L347.936 149.827C349.871 147.968 352.929 147.968 354.864 149.827L368.418 162.848C370.279 164.635 373.193 164.713 375.147 163.029L379.641 159.154C381.895 157.211 384.847 157.737 386.548 159.506C388.472 153.331 391.472 146.537 396 140.5C399.349 136.035 402.542 131.686 405.873 127.15C414.478 115.433 424 102.465 439.5 83C461 56 466.5 57 487 67C507.5 77 511 95 511 112.5V149.5H539.5ZM383.5 179.862L378.501 198.308C378.201 199.414 377.544 200.348 376.675 201H383.5V179.862Z" clip-rule="evenodd" opacity=".25"/></g><circle r="21" fill="#FFC400" transform="matrix(-1 0 0 1 522.7 163.5)"/><mask id="mask1_18_56" width="43" height="43" x="501" y="142" maskUnits="userSpaceOnUse" style="mask-type:alpha"><circle r="21" fill="#FFC400" transform="matrix(-1 0 0 1 522.7 163.5)"/></mask><g mask="url(#mask1_18_56)"><circle r="21" fill="#fff" fill-opacity=".25" transform="matrix(-1 0 0 1 531.1 171.9)"/></g><defs><radialGradient id="paint0_radial_18_56" cx="0" cy="0" r="1" gradientTransform="translate(341.439 234.5) rotate(-73.6042) scale(269.458 388.516)" gradientUnits="userSpaceOnUse"><stop stop-color="#38C67B"/><stop offset=".235" stop-color="#448CE0"/><stop offset=".455" stop-color="#C42EB5"/><stop offset=".66" stop-color="#D23131"/><stop offset=".833" stop-color="#F87226"/><stop offset="1" stop-color="#EEC32B"/></radialGradient><radialGradient id="paint1_radial_18_56" cx="0" cy="0" r="1" gradientTransform="translate(347.5 183.5) rotate(-64.4938) scale(229.907 283.829)" gradientUnits="userSpaceOnUse"><stop stop-color="#38C67B"/><stop offset=".235" stop-color="#448CE0"/><stop offset=".455" stop-color="#C42EB5"/><stop offset=".66" stop-color="#D23131"/><stop offset=".833" stop-color="#F87226"/><stop offset="1" stop-color="#EEC32B"/></radialGradient></defs></svg>