<svg width="200" height="200" viewBox="0 0 200 200" fill="none" xmlns="http://www.w3.org/2000/svg">
<path d="M97.2814 175.472C138.963 175.472 172.753 141.682 172.753 100C172.753 58.3181 138.963 24.5283 97.2814 24.5283C55.5995 24.5283 21.8097 58.3181 21.8097 100C21.8097 141.682 55.5995 175.472 97.2814 175.472Z" fill="#F4F7FA"/>
<path d="M175.476 153.22L23.7903 151.972V155.666C23.7903 156.669 24.4517 157.521 25.3477 157.673L68.2399 164.947C68.7488 165.034 69.2652 165.057 69.779 165.016L173.827 156.722C174.756 156.648 175.476 155.793 175.476 154.763V153.221V153.22Z" fill="url(#paint0_linear_136_1048)"/>
<path d="M120.43 147.232L25.3584 153.99C23.6571 154.111 22.2738 152.826 22.2738 151.119V82.7565C22.2738 81.0503 23.6571 79.667 25.3584 79.667H120.43C121.831 79.667 122.964 80.9177 122.964 82.46V144.259C122.964 145.801 121.831 147.132 120.43 147.232Z" fill="url(#paint1_linear_136_1048)"/>
<path d="M121.945 147.232L26.8743 153.99C25.173 154.111 23.7897 152.826 23.7897 151.119V82.7565C23.7897 81.0503 25.173 79.667 26.8743 79.667H121.945C123.347 79.667 124.48 80.9177 124.48 82.46V144.259C124.48 145.801 123.347 147.132 121.945 147.232Z" fill="url(#paint2_linear_136_1048)"/>
<path d="M121.075 85.9242V140.438C121.075 141.707 120.141 142.797 118.983 142.875L101.269 144.049L37.1606 148.299L30.4344 148.746C29.0511 148.836 27.9255 147.781 27.9255 146.389V86.5371C27.9255 85.1447 29.0511 84.0099 30.4344 84.0045L63.9913 83.8654L75.3665 83.8174L84.4274 83.7802L92.3956 83.7468L118.984 83.6358C120.141 83.632 121.076 84.6557 121.076 85.9242H121.075Z" fill="url(#paint3_linear_136_1048)"/>
<g style="mix-blend-mode:multiply" opacity="0.3">
<path style="mix-blend-mode:multiply" opacity="0.3" d="M112.233 121.697C113.809 121.431 114.971 119.931 114.831 118.346L114.351 112.944C114.211 111.359 112.82 110.286 111.245 110.549L108.205 111.052C107.549 108.596 106.642 106.274 105.509 104.106L108.098 102.076C109.394 101.06 109.707 99.2273 108.796 97.981L105.689 93.7319C104.776 92.4839 102.982 92.2937 101.682 93.3098L98.9574 95.437C97.2021 93.7761 95.2636 92.3157 93.179 91.0753L94.621 87.8468C95.2932 86.3416 94.6652 84.6532 93.2178 84.0753L92.3957 83.7476L84.4275 83.781L84.4253 83.7826L82.9423 87.091C80.5763 86.5928 78.1159 86.3335 75.5903 86.3411L75.366 83.8176L63.9908 83.8656C63.9536 84.099 63.9445 84.3379 63.9666 84.5783L64.2814 88.1292C61.8081 88.9141 59.4383 89.9416 57.1978 91.1767L55.1504 88.4052C54.2156 87.1406 52.3768 86.9465 51.0442 87.9718L46.4879 91.4748C45.1493 92.5023 44.8232 94.3648 45.7622 95.6311L47.773 98.3432C45.918 100.233 44.248 102.3 42.7892 104.503L39.6808 103.292C38.1941 102.713 36.4259 103.483 35.7321 105.014L33.3639 110.237C32.6679 111.771 33.3121 113.482 34.8043 114.058L37.7741 115.208C37.0242 117.724 36.5261 120.323 36.3078 122.969L33.1531 123.491C31.5127 123.764 30.2981 125.296 30.4426 126.915L30.9315 132.434C31.076 134.052 32.5218 135.139 34.1622 134.863L37.1412 134.361C37.7504 136.936 38.6318 139.375 39.7574 141.646L37.4135 143.477C36.0674 144.527 35.7396 146.401 36.6841 147.662L37.1617 148.301L101.27 144.05C102.098 142.959 102.87 141.828 103.583 140.662L105.965 141.584C107.406 142.139 109.113 141.365 109.781 139.853L112.054 134.704C112.721 133.195 112.097 131.518 110.66 130.958L108.155 129.981C108.824 127.446 109.234 124.834 109.364 122.181L112.234 121.698L112.233 121.697ZM75.0684 144.996C62.9234 147.097 52.1498 138.969 51.0722 126.829C49.9946 114.691 59.0334 103.248 71.1897 101.28C83.2738 99.3249 93.8803 107.482 94.945 119.489C96.0097 131.493 87.1412 142.909 75.0684 144.996Z" fill="url(#paint4_linear_136_1048)"/>
</g>
<path d="M77.7676 81.537C77.7676 82.1721 77.2782 82.6885 76.6738 82.6907C76.069 82.6923 75.5779 82.178 75.5779 81.5413C75.5779 80.9047 76.069 80.3882 76.6738 80.3877C77.2782 80.3877 77.7676 80.902 77.7676 81.537Z" fill="white"/>
<g style="mix-blend-mode:soft-light" opacity="0.48">
<path d="M99.0398 128.482C91.7104 124.516 85.9476 129.541 80.3864 124.582C77.0145 121.576 78.67 119.334 74.5212 114.841C69.9261 109.865 66.9341 111.538 62.3158 107.059C56.4765 101.396 59.3972 96.9905 54.367 92.9247C48.2651 87.9921 41.6846 92.5576 35.8759 87.8271C33.3708 85.7867 31.9961 82.8207 31.2781 79.6665H25.5945C24.5988 79.6665 23.7897 80.4784 23.7897 81.48V152.344C23.7897 153.346 24.5983 154.1 25.5945 154.029L122.487 147.111C122.963 147.077 123.384 146.798 123.655 146.393C116.562 146.133 112.205 143.741 109.419 141.269C103.97 136.432 104.915 131.662 99.0393 128.482H99.0398Z" fill="white"/>
</g>
<path d="M125.735 146.925L23.7903 154.038L68.2399 161.577C68.7488 161.663 69.2652 161.686 69.779 161.645L175.476 153.22L127.357 146.974C126.819 146.904 126.276 146.887 125.735 146.925H125.735Z" fill="url(#paint5_linear_136_1048)"/>
<path style="mix-blend-mode:multiply" opacity="0.3" d="M38.6658 154.217L123.537 148.207L149.805 151.589L65.6636 158.015L38.6658 154.217Z" fill="url(#paint6_linear_136_1048)"/>
<path d="M145.943 36.3643L70.6754 33.802C68.1568 33.7163 66.1067 35.7001 66.1067 38.2338V93.1659C66.1067 95.6996 68.1568 97.706 70.6754 97.6478L145.943 95.9168C148.125 95.8667 149.887 93.9254 149.887 91.581V40.7438C149.887 38.3993 148.126 36.4386 145.943 36.3643Z" fill="url(#paint7_linear_136_1048)"/>
<g style="mix-blend-mode:soft-light" opacity="0.74">
<path d="M67.5703 92.0115V39.4045C67.5703 37.06 69.4652 35.2212 71.794 35.2977L144.969 37.6934C146.995 37.7597 148.632 39.577 148.632 41.7522V90.5597C148.632 92.7349 146.995 94.5338 144.969 94.578L71.794 96.1656C69.4652 96.2163 67.5703 94.3565 67.5703 92.012V92.0115Z" fill="white"/>
</g>
<path d="M145.943 36.3643L70.6754 33.802C68.1568 33.7163 66.1067 35.7001 66.1067 38.2338V41.5244L149.887 43.7891V40.7438C149.887 38.3993 148.125 36.4386 145.943 36.3643H145.943Z" fill="url(#paint8_linear_136_1048)"/>
<path d="M74.2312 38.0363C74.2312 38.8594 73.5681 39.5074 72.7498 39.4837C71.9298 39.46 71.264 38.7716 71.264 37.9462C71.264 37.1209 71.9298 36.4729 72.7498 36.4988C73.5686 36.5247 74.2312 37.2131 74.2312 38.0363Z" fill="white"/>
<path d="M79.4037 38.1933C79.4037 39.0127 78.7471 39.658 77.9358 39.6343C77.1234 39.6106 76.4641 38.9254 76.4641 38.1038C76.4641 37.2823 77.1234 36.637 77.9358 36.6629C78.7471 36.6887 79.4037 37.3734 79.4037 38.1928V38.1933Z" fill="white"/>
<path d="M84.5294 38.3488C84.5294 39.1645 83.8787 39.8065 83.0749 39.7833C82.2701 39.7602 81.6167 39.0782 81.6167 38.2604C81.6167 37.4426 82.2701 36.8006 83.0749 36.8259C83.8787 36.8513 84.5294 37.5332 84.5294 38.3488Z" fill="white"/>
<path d="M145.284 76.8349L71.4329 77.1836V55.4629L145.284 56.5481V76.8349Z" fill="url(#paint9_linear_136_1048)"/>
<path d="M145.284 81.9577L71.4329 82.6682V80.3362L145.284 79.7793V81.9577Z" fill="white"/>
<path d="M145.284 87.3015L71.4329 88.3899V86.0573L145.284 85.123V87.3015Z" fill="white"/>
<path d="M111.151 50.7565L71.4329 49.9775V52.3102L111.151 53.0061V50.7565Z" fill="white"/>
<path d="M141.07 51.3433V53.5303L145.284 53.6042V51.4257L141.07 51.3433Z" fill="white"/>
<g style="mix-blend-mode:soft-light" opacity="0.5">
<g style="mix-blend-mode:soft-light" opacity="0.5">
<path d="M116.649 64.5028C107.856 51.7082 92.6463 55.7459 83.0312 41.6214C81.2975 39.0748 80.1218 36.4845 79.3148 34.0963L70.6754 33.802C68.1568 33.7163 66.1067 35.7001 66.1067 38.2338V93.1659C66.1067 95.6996 68.1568 97.706 70.6754 97.6478L127.92 96.3314C126.207 93.8688 124.625 91.1168 123.287 88.0424C118.156 76.2543 121.956 72.2246 116.649 64.5023V64.5028Z" fill="white"/>
</g>
</g>
<g style="mix-blend-mode:soft-light">
<g style="mix-blend-mode:soft-light">
<path d="M81.7433 60.9138L72.7471 60.8178V58.2378L81.7433 58.3537V60.9138Z" fill="white"/>
</g>
<g style="mix-blend-mode:soft-light">
<path d="M129.801 61.4256L87.4862 60.9749V58.4277L129.801 58.9722V61.4256Z" fill="white"/>
</g>
<g style="mix-blend-mode:soft-light">
<path d="M96.256 65.3859L87.4862 65.3255V62.7783L96.256 62.8581V65.3859Z" fill="white"/>
</g>
<g style="mix-blend-mode:soft-light">
<path d="M143.138 65.7081L101.856 65.4245V62.9092L143.138 63.2838V65.7081Z" fill="white"/>
</g>
<g style="mix-blend-mode:soft-light">
<path d="M96.256 69.704L87.4862 69.6771V67.1299L96.256 67.1762V69.704Z" fill="white"/>
</g>
<g style="mix-blend-mode:soft-light">
<path d="M143.138 69.8481L101.856 69.7214V67.2061L143.138 67.4244V69.8481Z" fill="white"/>
</g>
<g style="mix-blend-mode:soft-light">
<path d="M81.7433 74.0326L72.7471 74.039V71.459L81.7433 71.4725V74.0326Z" fill="white"/>
</g>
<g style="mix-blend-mode:soft-light">
<path d="M129.801 73.9979L87.4862 74.0281V71.481L129.801 71.5446V73.9979Z" fill="white"/>
</g>
</g>
<path d="M169.644 49.4047L121.321 48.8952C119.035 48.871 117.176 50.8074 117.176 53.2203V129.504C117.176 131.917 119.035 133.745 121.321 133.587L169.644 130.259C171.717 130.116 173.393 128.147 173.393 125.861V53.5837C173.393 51.2974 171.718 49.4268 169.644 49.4047Z" fill="url(#paint10_linear_136_1048)"/>
<g style="mix-blend-mode:soft-light" opacity="0.74">
<path d="M118.503 128.345V54.3022C118.503 52.0693 120.222 50.2747 122.335 50.2941L168.717 50.7227C170.643 50.7405 172.198 52.4742 172.198 54.5954V124.919C172.198 127.04 170.643 128.864 168.717 128.994L122.335 132.129C120.222 132.272 118.503 130.578 118.503 128.345Z" fill="white"/>
</g>
<path d="M169.644 49.4047L121.321 48.8952C119.035 48.871 117.176 50.8074 117.176 53.2203V56.3545L173.392 56.5529V53.5837C173.392 51.2974 171.717 49.4268 169.643 49.4047H169.644Z" fill="url(#paint11_linear_136_1048)"/>
<path d="M169.66 52.912C169.66 53.6894 169.068 54.3163 168.338 54.312C167.607 54.3083 167.014 53.6732 167.014 52.8937C167.014 52.1142 167.607 51.4872 168.338 51.4937C169.068 51.4996 169.66 52.1347 169.66 52.912Z" fill="white"/>
<path opacity="0.5" d="M169.017 80.4299L122.007 81.5382V60.7765L169.017 60.5835V80.4299Z" fill="white"/>
<path opacity="0.5" d="M169.017 124.277L122.007 127.75V106.988L169.017 104.43V124.277Z" fill="white"/>
<path opacity="0.5" d="M144.578 102.823L122.007 104.01V83.7975L144.578 83.0186V102.823Z" fill="white"/>
<path opacity="0.5" d="M169.036 101.837L146.789 103.217V83.0037L169.036 82.1401V101.837Z" fill="white"/>
<g opacity="0.15">
<path opacity="0.15" d="M156.946 94.9992C149.176 84.7696 139.428 84.4769 134 73.5308C130.07 65.6068 130.627 56.5841 132.372 49.0122L121.321 48.8957C119.036 48.8715 117.176 50.8079 117.176 53.2208V129.504C117.176 131.917 119.036 133.745 121.321 133.588L164.768 130.595C166.106 111.276 161.457 100.937 156.946 94.9992H156.946Z" fill="white"/>
</g>
<path d="M151.053 170.237C149.271 170.096 146.992 169.601 144.804 168.17C142.437 166.623 139.355 163.443 140.159 161.439C140.459 160.691 141.325 160.05 142.085 160.111C143.208 160.201 143.339 161.761 145.289 163.458C145.65 163.772 147.513 165.394 148.439 164.847C148.9 164.575 149.036 163.823 148.961 163.25C148.742 161.577 146.699 161.32 144.735 159.508C142.743 157.672 141.084 154.469 142.032 152.303C142.577 151.058 144.02 150.075 144.968 150.351C145.373 150.469 145.63 150.8 146.86 153.458C147.87 155.639 148.094 156.275 148.745 156.481C149.415 156.694 150.457 156.427 150.853 155.767C151.884 154.048 147.427 151.51 147.023 146.699C146.842 144.543 147.425 141.347 149.377 140.662C150.696 140.199 152.577 140.906 153.257 142.117C153.87 143.209 153.126 144.03 153.593 146.482C153.735 147.226 154.027 148.757 154.643 148.838C155.367 148.932 156.176 146.98 156.363 146.504C157.771 142.924 156.156 141.083 157.484 139.345C158.52 137.99 160.773 137.446 162.557 138.13C164.119 138.729 165.368 140.286 165.451 141.901C165.536 143.543 164.155 145.178 161.392 148.448C160.082 149.998 159.039 151.046 159.099 152.588C159.128 153.339 159.425 154.396 159.964 154.492C161.151 154.705 161.736 149.922 164.551 149.184C165.992 148.806 167.783 149.549 168.57 150.848C169.534 152.439 168.888 154.694 167.677 155.88C166.097 157.428 164.477 156.252 161.503 157.914C160.184 158.651 158.111 160.219 158.415 161.517C158.547 162.082 159.139 162.635 159.788 162.708C161.244 162.874 161.725 160.487 164.066 159.438C165.753 158.683 168.085 158.764 168.639 159.715C169.422 161.058 166.644 164.107 165.167 165.455C163.381 167.083 159.17 170.172 151.052 170.236L151.053 170.237Z" fill="url(#paint12_linear_136_1048)"/>
<g opacity="0.5">
<path opacity="0.5" d="M151.853 169.472C151.617 165.48 154.261 157.35 156.185 153.507C158.067 149.745 159.867 143.796 159.886 143.736L160.003 143.772C159.985 143.832 158.181 149.791 156.294 153.562C154.377 157.393 151.741 165.493 151.975 169.465L151.853 169.472V169.472Z" fill="white"/>
</g>
<path d="M146.854 170.757C145.513 168.895 143.544 165.535 143.192 161.039C143.046 159.187 142.762 155.568 144.976 152.447C146.08 150.891 148.419 148.591 150 149.254C151.017 149.681 151.649 151.306 151.362 152.541C151.072 153.787 150.019 153.902 148.873 156.016C148.449 156.798 147.964 157.716 148.337 158.235C148.648 158.667 149.502 158.747 150.142 158.487C151.465 157.95 151.052 156.303 152.482 155.122C153.499 154.282 155.194 153.887 155.926 154.575C156.561 155.173 156.45 156.568 155.889 157.499C154.99 158.988 153.378 158.552 152.328 160.18C151.861 160.902 151.53 161.994 151.938 162.425C152.403 162.917 153.771 162.492 154.647 161.948C155.805 161.231 155.848 160.467 156.61 160.371C157.46 160.265 158.523 161.074 158.69 161.97C158.923 163.225 157.383 164.578 156.164 165.167C154.604 165.919 153.444 165.478 152.682 166.506C152.402 166.883 152.146 167.499 152.375 167.873C152.702 168.406 153.885 168.23 154.671 168.113C156.582 167.829 157.108 167.135 157.793 167.472C158.486 167.814 158.844 168.965 158.544 169.773C158.378 170.222 157.877 170.918 155.396 171.353C153.66 171.658 150.742 171.872 146.854 170.759V170.757Z" fill="url(#paint13_linear_136_1048)"/>
<path d="M47.9207 120.198C47.9207 120.198 23.5584 84.8937 47.3579 56.8377L41.2614 55.7433L60.1617 50.1509L54.5072 65.3261L52.0754 60.566C52.0754 60.566 34.2096 77.9552 47.9207 120.198Z" fill="url(#paint14_linear_136_1048)"/>
<path d="M67.5083 136.927C67.5083 136.927 104.955 149.649 123.85 121.477L126.355 126.609L126.558 108.437L114.521 117.272L119.355 118.231C119.355 118.231 108.429 138.455 67.5083 136.927V136.927Z" fill="url(#paint15_linear_136_1048)"/>
<path d="M37.6797 121.239L37.98 124.623C38.0678 125.616 38.9552 126.283 39.9611 126.113L41.7886 125.805C42.1611 127.385 42.7029 128.88 43.3929 130.274L41.9552 131.396C41.1293 132.04 40.9287 133.19 41.5072 133.963L43.4775 136.594C44.0549 137.366 45.1907 137.467 46.0134 136.822L47.373 135.755C48.5072 136.862 49.7686 137.831 51.1325 138.644L50.456 140.154C50.0333 141.097 50.4263 142.14 51.3336 142.482L54.4215 143.646C55.3261 143.988 56.3999 143.5 56.8204 142.559L57.4678 141.108C59.0371 141.437 60.6711 141.591 62.3465 141.555L62.4797 143.054C62.567 144.038 63.4382 144.693 64.4247 144.517L67.7821 143.92C68.7654 143.745 69.491 142.808 69.4042 141.827L69.2716 140.332C70.8899 139.788 72.4317 139.075 73.8775 138.22L74.7471 139.393C75.311 140.154 76.4188 140.253 77.2209 139.615L79.9509 137.442C80.7503 136.805 80.9433 135.673 80.3816 134.913L79.4824 133.696C80.6333 132.457 81.6587 131.106 82.5385 129.668L83.9999 130.233C84.8829 130.575 85.9304 130.1 86.3401 129.173L87.7341 126.015C88.1428 125.089 87.7606 124.061 86.8797 123.718L85.3428 123.119C85.7525 121.564 86.0048 119.962 86.0845 118.335L87.8447 118.038C88.8107 117.875 89.5239 116.955 89.4376 115.983L89.1438 112.67C89.0576 111.698 88.2048 111.039 87.2382 111.199L85.374 111.508C84.9724 110.002 84.415 108.578 83.7207 107.249L85.3083 106.004C86.1034 105.381 86.2948 104.257 85.7363 103.493L83.8306 100.886C83.2711 100.121 82.1713 100.005 81.3735 100.627L79.7023 101.932C78.6252 100.914 77.4371 100.017 76.1584 99.2566L77.043 97.276C77.4554 96.3531 77.07 95.3181 76.1827 94.9634L73.153 93.7531C72.263 93.3979 71.2048 93.8588 70.7902 94.7833L69.8802 96.8135C68.4285 96.5073 66.9196 96.3483 65.3708 96.3537L65.1783 94.1817C65.0916 93.2006 64.2231 92.5305 63.2382 92.6847L59.8748 93.2113C58.8862 93.3661 58.1552 94.289 58.2425 95.2728L58.4355 97.4507C56.9185 97.9316 55.4651 98.5618 54.091 99.3192L52.8349 97.6189C52.2619 96.8432 51.1347 96.724 50.3163 97.3531L47.5223 99.5014C46.7013 100.133 46.5018 101.274 47.0775 102.051L48.311 103.715C47.1735 104.874 46.1482 106.141 45.2544 107.492L43.3476 106.749C42.4355 106.394 41.3509 106.866 40.9255 107.805L39.4732 111.009C39.0468 111.949 39.4425 112.999 40.3568 113.353L42.1783 114.057C41.7185 115.601 41.4134 117.194 41.2797 118.817L39.3444 119.138C38.3385 119.305 37.594 120.245 37.6818 121.238L37.6797 121.239ZM50.3325 121.187C49.6721 113.742 55.215 106.723 62.6716 105.517C70.0829 104.318 76.5875 109.32 77.2409 116.684C77.8942 124.047 72.4544 131.048 65.05 132.328C57.601 133.616 50.9929 128.631 50.3325 121.187Z" fill="white"/>
<defs>
<linearGradient id="paint0_linear_136_1048" x1="87.8803" y1="158.981" x2="77.2302" y2="163.454" gradientUnits="userSpaceOnUse">
<stop stop-color="#40447E"/>
<stop offset="1" stop-color="#3C3B6B"/>
</linearGradient>
<linearGradient id="paint1_linear_136_1048" x1="70.6129" y1="114.346" x2="59.7331" y2="118.916" gradientUnits="userSpaceOnUse">
<stop stop-color="#40447E"/>
<stop offset="1" stop-color="#3C3B6B"/>
</linearGradient>
<linearGradient id="paint2_linear_136_1048" x1="23.7902" y1="116.832" x2="124.48" y2="116.832" gradientUnits="userSpaceOnUse">
<stop stop-color="#40447E"/>
<stop offset="1" stop-color="#3C3B6B"/>
</linearGradient>
<linearGradient id="paint3_linear_136_1048" x1="87.436" y1="92.3468" x2="10.0247" y2="218.898" gradientUnits="userSpaceOnUse">
<stop stop-color="#FFC444"/>
<stop offset="1" stop-color="#F36F56"/>
</linearGradient>
<linearGradient id="paint4_linear_136_1048" x1="29.4626" y1="120.504" x2="114.005" y2="110.094" gradientUnits="userSpaceOnUse">
<stop stop-color="#FFC444"/>
<stop offset="1" stop-color="#F36F56"/>
</linearGradient>
<linearGradient id="paint5_linear_136_1048" x1="23.7903" y1="154.285" x2="175.476" y2="154.285" gradientUnits="userSpaceOnUse">
<stop stop-color="#40447E"/>
<stop offset="1" stop-color="#3C3B6B"/>
</linearGradient>
<linearGradient id="paint6_linear_136_1048" x1="38.6658" y1="153.111" x2="149.805" y2="153.111" gradientUnits="userSpaceOnUse">
<stop stop-color="#40447E"/>
<stop offset="1" stop-color="#3C3B6B"/>
</linearGradient>
<linearGradient id="paint7_linear_136_1048" x1="131.821" y1="17.2667" x2="62.994" y2="154.921" gradientUnits="userSpaceOnUse">
<stop stop-color="#FF9085"/>
<stop offset="1" stop-color="#FB6FBB"/>
</linearGradient>
<linearGradient id="paint8_linear_136_1048" x1="100.788" y1="12.009" x2="115.006" y2="68.8866" gradientUnits="userSpaceOnUse">
<stop stop-color="#AB316D"/>
<stop offset="1" stop-color="#792D3D"/>
</linearGradient>
<linearGradient id="paint9_linear_136_1048" x1="71.4329" y1="66.3233" x2="145.284" y2="66.3233" gradientUnits="userSpaceOnUse">
<stop stop-color="#FF9085"/>
<stop offset="1" stop-color="#FB6FBB"/>
</linearGradient>
<linearGradient id="paint10_linear_136_1048" x1="117.176" y1="91.2462" x2="173.392" y2="91.2462" gradientUnits="userSpaceOnUse">
<stop stop-color="#E38DDD"/>
<stop offset="1" stop-color="#9571F6"/>
</linearGradient>
<linearGradient id="paint11_linear_136_1048" x1="145.629" y1="51.643" x2="140.043" y2="102.131" gradientUnits="userSpaceOnUse">
<stop stop-color="#40447E"/>
<stop offset="1" stop-color="#3C3B6B"/>
</linearGradient>
<linearGradient id="paint12_linear_136_1048" x1="167.968" y1="132.58" x2="152.69" y2="161.732" gradientUnits="userSpaceOnUse">
<stop stop-color="#AA80F9"/>
<stop offset="1" stop-color="#6165D7"/>
</linearGradient>
<linearGradient id="paint13_linear_136_1048" x1="157.291" y1="154.513" x2="139.756" y2="175.534" gradientUnits="userSpaceOnUse">
<stop stop-color="#E38DDD"/>
<stop offset="1" stop-color="#9571F6"/>
</linearGradient>
<linearGradient id="paint14_linear_136_1048" x1="60.9956" y1="41.7658" x2="20.5929" y2="155.575" gradientUnits="userSpaceOnUse">
<stop stop-color="#FB6FBB"/>
<stop offset="1" stop-color="#FF9085"/>
</linearGradient>
<linearGradient id="paint15_linear_136_1048" x1="67.5083" y1="124.115" x2="126.558" y2="124.115" gradientUnits="userSpaceOnUse">
<stop stop-color="#E38DDD"/>
<stop offset="1" stop-color="#9571F6"/>
</linearGradient>
</defs>
</svg>
