<svg xmlns="http://www.w3.org/2000/svg" width="200" height="200" fill="none" viewBox="0 0 200 200"><path fill="#F4F7FA" d="M97.2814 175.472C138.963 175.472 172.753 141.682 172.753 100C172.753 58.3181 138.963 24.5283 97.2814 24.5283C55.5995 24.5283 21.8097 58.3181 21.8097 100C21.8097 141.682 55.5995 175.472 97.2814 175.472Z"/><path fill="url(#paint0_linear_165_427)" d="M175.476 153.22L23.7903 151.972V155.666C23.7903 156.669 24.4517 157.521 25.3477 157.673L68.2399 164.947C68.7488 165.034 69.2652 165.057 69.779 165.016L173.827 156.722C174.756 156.648 175.476 155.793 175.476 154.763V153.221V153.22Z"/><path fill="url(#paint1_linear_165_427)" d="M120.43 147.232L25.3584 153.99C23.6571 154.111 22.2738 152.826 22.2738 151.119V82.7565C22.2738 81.0503 23.6571 79.667 25.3584 79.667H120.43C121.831 79.667 122.964 80.9177 122.964 82.46V144.259C122.964 145.801 121.831 147.132 120.43 147.232Z"/><path fill="url(#paint2_linear_165_427)" d="M121.946 147.232L26.8744 153.99C25.1731 154.111 23.7898 152.826 23.7898 151.119V82.7565C23.7898 81.0503 25.1731 79.667 26.8744 79.667H121.946C123.347 79.667 124.48 80.9177 124.48 82.46V144.259C124.48 145.801 123.347 147.132 121.946 147.232Z"/><path fill="url(#paint3_linear_165_427)" d="M121.076 85.9242V140.438C121.076 141.707 120.141 142.797 118.983 142.875L101.269 144.049L37.1607 148.299L30.4346 148.746C29.0513 148.836 27.9257 147.781 27.9257 146.389V86.5371C27.9257 85.1447 29.0513 84.0099 30.4346 84.0045L63.9914 83.8654L75.3666 83.8174L84.4275 83.7802L92.3957 83.7468L118.984 83.6358C120.141 83.632 121.076 84.6557 121.076 85.9242H121.076Z"/><path style="mix-blend-mode:multiply" fill="url(#paint4_linear_165_427)" d="M112.233 121.697C113.809 121.43 114.971 119.931 114.831 118.346L114.351 112.944C114.211 111.359 112.82 110.285 111.245 110.548L108.205 111.052C107.549 108.595 106.642 106.273 105.509 104.105L108.098 102.076C109.394 101.06 109.707 99.2269 108.796 97.9805L105.689 93.7314C104.776 92.4835 102.982 92.2932 101.682 93.3093L98.9574 95.4366C97.2021 93.7756 95.2636 92.3153 93.179 91.0748L94.621 87.8463C95.2932 86.3411 94.6652 84.6527 93.2178 84.0748L92.3957 83.7471L84.4275 83.7805L84.4253 83.7821L82.9423 87.0905C80.5763 86.5924 78.1159 86.3331 75.5903 86.3406L75.366 83.8172L63.9908 83.8651C63.9536 84.0985 63.9445 84.3374 63.9666 84.5778L64.2814 88.1287C61.8081 88.9136 59.4383 89.9411 57.1978 91.1762L55.1504 88.4048C54.2156 87.1401 52.3768 86.946 51.0442 87.9713L46.4879 91.4743C45.1493 92.5018 44.8232 94.3643 45.7622 95.6306L47.773 98.3428C45.918 100.233 44.248 102.299 42.7892 104.502L39.6808 103.292C38.1941 102.712 36.4259 103.482 35.7321 105.013L33.3639 110.236C32.6679 111.771 33.3121 113.482 34.8043 114.058L37.7741 115.207C37.0242 117.723 36.5261 120.323 36.3078 122.969L33.1531 123.491C31.5127 123.763 30.2981 125.296 30.4426 126.914L30.9315 132.433C31.076 134.052 32.5218 135.138 34.1622 134.862L37.1412 134.361C37.7504 136.936 38.6318 139.374 39.7574 141.646L37.4135 143.477C36.0674 144.527 35.7396 146.4 36.6841 147.661L37.1617 148.3L101.27 144.05C102.098 142.959 102.87 141.828 103.583 140.661L105.965 141.583C107.406 142.138 109.113 141.365 109.781 139.852L112.054 134.703C112.721 133.195 112.097 131.517 110.66 130.958L108.155 129.98C108.824 127.446 109.234 124.834 109.364 122.18L112.234 121.697L112.233 121.697ZM75.0684 144.995C62.9234 147.096 52.1498 138.969 51.0722 126.829C49.9946 114.691 59.0334 103.248 71.1897 101.28C83.2738 99.3244 93.8803 107.482 94.945 119.488C96.0097 131.493 87.1412 142.909 75.0684 144.995Z" opacity=".3"/><path fill="#fff" d="M77.7676 81.537C77.7676 82.1721 77.2782 82.6885 76.6738 82.6907C76.069 82.6923 75.5779 82.178 75.5779 81.5413C75.5779 80.9047 76.069 80.3882 76.6738 80.3877C77.2782 80.3877 77.7676 80.902 77.7676 81.537Z"/><g style="mix-blend-mode:soft-light" opacity=".48"><path fill="#fff" d="M99.0399 128.482C91.7105 124.516 85.9478 129.541 80.3866 124.582C77.0146 121.576 78.6701 119.334 74.5213 114.841C69.9262 109.865 66.9343 111.538 62.3159 107.059C56.4766 101.396 59.3973 96.9905 54.3672 92.9247C48.2653 87.9921 41.6847 92.5576 35.876 87.8271C33.3709 85.7867 31.9963 82.8207 31.2782 79.6665H25.5946C24.599 79.6665 23.7898 80.4784 23.7898 81.48V152.344C23.7898 153.346 24.5984 154.1 25.5946 154.029L122.487 147.111C122.963 147.077 123.384 146.798 123.655 146.393C116.562 146.133 112.205 143.741 109.419 141.269C103.97 136.432 104.915 131.662 99.0394 128.482H99.0399Z"/></g><path fill="url(#paint5_linear_165_427)" d="M125.735 146.925L23.7903 154.038L68.2399 161.577C68.7488 161.663 69.2652 161.686 69.779 161.645L175.476 153.22L127.357 146.974C126.819 146.904 126.276 146.887 125.735 146.925H125.735Z"/><path style="mix-blend-mode:multiply" fill="url(#paint6_linear_165_427)" d="M38.6658 154.217L123.537 148.207L149.805 151.589L65.6636 158.015L38.6658 154.217Z" opacity=".3"/><path fill="url(#paint7_linear_165_427)" d="M145.943 36.3643L70.6754 33.802C68.1568 33.7163 66.1067 35.7001 66.1067 38.2338V93.1659C66.1067 95.6996 68.1568 97.706 70.6754 97.6478L145.943 95.9168C148.125 95.8667 149.887 93.9254 149.887 91.581V40.7438C149.887 38.3993 148.126 36.4386 145.943 36.3643Z"/><g style="mix-blend-mode:soft-light" opacity=".74"><path fill="#fff" d="M67.5703 92.0119V39.4049C67.5703 37.0605 69.4652 35.2217 71.794 35.2982L144.969 37.6939C146.995 37.7602 148.632 39.5774 148.632 41.7527V90.5602C148.632 92.7354 146.995 94.5343 144.969 94.5785L71.794 96.1661C69.4652 96.2168 67.5703 94.357 67.5703 92.0125V92.0119Z"/></g><path fill="url(#paint8_linear_165_427)" d="M145.943 36.3643L70.6754 33.802C68.1568 33.7163 66.1067 35.7001 66.1067 38.2338V41.5244L149.887 43.7891V40.7438C149.887 38.3993 148.125 36.4386 145.943 36.3643H145.943Z"/><path fill="#fff" d="M74.2313 38.0368C74.2313 38.8599 73.5682 39.5079 72.7499 39.4842C71.9299 39.4605 71.2642 38.7721 71.2642 37.9467C71.2642 37.1214 71.9299 36.4734 72.7499 36.4993C73.5687 36.5252 74.2313 37.2136 74.2313 38.0368Z"/><path fill="#fff" d="M79.4037 38.1933C79.4037 39.0127 78.7471 39.658 77.9358 39.6343C77.1234 39.6106 76.4641 38.9254 76.4641 38.1038C76.4641 37.2823 77.1234 36.637 77.9358 36.6629C78.7471 36.6887 79.4037 37.3734 79.4037 38.1928V38.1933Z"/><path fill="#fff" d="M84.5294 38.3488C84.5294 39.1645 83.8787 39.8065 83.0749 39.7833C82.2701 39.7602 81.6167 39.0782 81.6167 38.2604C81.6167 37.4426 82.2701 36.8006 83.0749 36.8259C83.8787 36.8513 84.5294 37.5332 84.5294 38.3488Z"/><path fill="url(#paint9_linear_165_427)" d="M145.284 76.8349L71.4329 77.1836V55.4629L145.284 56.5481V76.8349Z"/><path fill="#fff" d="M145.284 81.9577L71.4329 82.6682V80.3362L145.284 79.7793V81.9577Z"/><path fill="#fff" d="M145.284 87.302L71.4329 88.3904V86.0578L145.284 85.1235V87.302Z"/><path fill="#fff" d="M111.151 50.757L71.4329 49.978V52.3106L111.151 53.0066V50.757Z"/><path fill="#fff" d="M141.07 51.3433V53.5303L145.284 53.6042V51.4257L141.07 51.3433Z"/><g style="mix-blend-mode:soft-light" opacity=".5"><path fill="#fff" d="M116.649 64.5028C107.856 51.7082 92.6463 55.7459 83.0312 41.6214C81.2975 39.0748 80.1218 36.4845 79.3148 34.0963L70.6754 33.802C68.1568 33.7163 66.1067 35.7001 66.1067 38.2338V93.1659C66.1067 95.6996 68.1568 97.706 70.6754 97.6478L127.92 96.3314C126.207 93.8688 124.625 91.1168 123.287 88.0424C118.156 76.2543 121.956 72.2246 116.649 64.5023V64.5028Z"/></g><g style="mix-blend-mode:soft-light"><path fill="#fff" d="M81.7434 60.9138L72.7472 60.8178V58.2378L81.7434 58.3537V60.9138Z"/></g><g style="mix-blend-mode:soft-light"><path fill="#fff" d="M129.801 61.4256L87.4862 60.9749V58.4277L129.801 58.9722V61.4256Z"/></g><g style="mix-blend-mode:soft-light"><path fill="#fff" d="M96.256 65.3859L87.4862 65.3255V62.7783L96.256 62.8581V65.3859Z"/></g><g style="mix-blend-mode:soft-light"><path fill="#fff" d="M143.138 65.7076L101.856 65.4241V62.9087L143.138 63.2834V65.7076Z"/></g><g style="mix-blend-mode:soft-light"><path fill="#fff" d="M96.256 69.704L87.4862 69.6771V67.1299L96.256 67.1762V69.704Z"/></g><g style="mix-blend-mode:soft-light"><path fill="#fff" d="M143.138 69.8481L101.856 69.7214V67.2061L143.138 67.4244V69.8481Z"/></g><g style="mix-blend-mode:soft-light"><path fill="#fff" d="M81.7434 74.0326L72.7472 74.039V71.459L81.7434 71.4725V74.0326Z"/></g><g style="mix-blend-mode:soft-light"><path fill="#fff" d="M129.801 73.9979L87.4862 74.0281V71.481L129.801 71.5446V73.9979Z"/></g><path fill="url(#paint10_linear_165_427)" d="M169.644 49.4047L121.321 48.8952C119.036 48.871 117.176 50.8074 117.176 53.2203V129.504C117.176 131.917 119.036 133.745 121.321 133.587L169.644 130.259C171.718 130.116 173.393 128.147 173.393 125.861V53.5837C173.393 51.2974 171.718 49.4268 169.644 49.4047Z"/><g style="mix-blend-mode:soft-light" opacity=".74"><path fill="#fff" d="M118.503 128.345V54.3022C118.503 52.0693 120.222 50.2747 122.335 50.2941L168.717 50.7227C170.643 50.7405 172.198 52.4742 172.198 54.5954V124.919C172.198 127.04 170.643 128.864 168.717 128.994L122.335 132.129C120.222 132.272 118.503 130.578 118.503 128.345Z"/></g><path fill="url(#paint11_linear_165_427)" d="M169.644 49.4047L121.321 48.8952C119.036 48.871 117.176 50.8074 117.176 53.2203V56.3545L173.392 56.5529V53.5837C173.392 51.2974 171.718 49.4268 169.643 49.4047H169.644Z"/><path fill="#fff" d="M169.66 52.912C169.66 53.6894 169.068 54.3163 168.339 54.312C167.608 54.3083 167.014 53.6732 167.014 52.8937C167.014 52.1142 167.608 51.4872 168.339 51.4937C169.068 51.4996 169.66 52.1347 169.66 52.912Z"/><path fill="#fff" d="M169.017 80.4303L122.008 81.5387V60.777L169.017 60.584V80.4303Z" opacity=".5"/><path fill="#fff" d="M169.017 124.277L122.008 127.75V106.988L169.017 104.43V124.277Z" opacity=".5"/><path fill="#fff" d="M144.578 102.823L122.008 104.01V83.798L144.578 83.019V102.823Z" opacity=".5"/><path fill="#fff" d="M169.036 101.837L146.789 103.217V83.0037L169.036 82.1401V101.837Z" opacity=".5"/><path fill="#fff" d="M156.946 94.9992C149.176 84.7696 139.428 84.4769 134 73.5308C130.07 65.6068 130.627 56.5841 132.372 49.0122L121.321 48.8957C119.036 48.8715 117.176 50.8079 117.176 53.2208V129.504C117.176 131.917 119.036 133.745 121.321 133.588L164.768 130.595C166.106 111.276 161.457 100.937 156.947 94.9992H156.946Z" opacity=".15"/><path fill="url(#paint12_linear_165_427)" d="M151.053 170.237C149.271 170.096 146.992 169.601 144.804 168.17C142.437 166.623 139.355 163.443 140.159 161.439C140.459 160.691 141.325 160.05 142.085 160.111C143.208 160.201 143.339 161.761 145.289 163.458C145.65 163.772 147.513 165.394 148.439 164.847C148.9 164.575 149.036 163.823 148.961 163.25C148.742 161.577 146.699 161.32 144.735 159.508C142.743 157.672 141.084 154.469 142.032 152.303C142.577 151.058 144.02 150.075 144.968 150.351C145.373 150.469 145.63 150.8 146.86 153.458C147.87 155.639 148.094 156.275 148.745 156.481C149.415 156.694 150.457 156.427 150.853 155.767C151.884 154.048 147.427 151.51 147.023 146.699C146.842 144.543 147.425 141.347 149.377 140.662C150.696 140.199 152.577 140.906 153.257 142.117C153.87 143.209 153.126 144.03 153.593 146.482C153.735 147.226 154.027 148.757 154.643 148.838C155.367 148.932 156.176 146.98 156.363 146.504C157.771 142.924 156.156 141.083 157.484 139.345C158.52 137.99 160.773 137.446 162.557 138.13C164.119 138.729 165.368 140.286 165.451 141.901C165.536 143.543 164.155 145.178 161.392 148.448C160.082 149.998 159.039 151.046 159.099 152.588C159.128 153.339 159.425 154.396 159.964 154.492C161.151 154.705 161.736 149.922 164.551 149.184C165.992 148.806 167.783 149.549 168.57 150.848C169.534 152.439 168.888 154.694 167.677 155.88C166.097 157.428 164.477 156.252 161.503 157.914C160.184 158.651 158.111 160.219 158.415 161.517C158.547 162.082 159.139 162.635 159.788 162.708C161.244 162.874 161.725 160.487 164.066 159.438C165.753 158.683 168.085 158.764 168.639 159.715C169.422 161.058 166.644 164.107 165.167 165.455C163.381 167.083 159.17 170.172 151.052 170.236L151.053 170.237Z"/><path fill="#fff" d="M151.853 169.472C151.617 165.48 154.261 157.35 156.185 153.507C158.067 149.745 159.867 143.796 159.886 143.736L160.003 143.772C159.985 143.832 158.181 149.791 156.294 153.562C154.377 157.393 151.741 165.493 151.975 169.465L151.853 169.472V169.472Z" opacity=".5"/><path fill="url(#paint13_linear_165_427)" d="M146.854 170.757C145.513 168.895 143.544 165.535 143.192 161.039C143.046 159.187 142.762 155.568 144.976 152.447C146.08 150.891 148.419 148.591 150 149.254C151.017 149.681 151.649 151.306 151.362 152.541C151.072 153.787 150.019 153.902 148.873 156.016C148.449 156.798 147.964 157.716 148.337 158.235C148.648 158.667 149.502 158.747 150.142 158.487C151.465 157.95 151.052 156.303 152.482 155.122C153.499 154.282 155.194 153.887 155.926 154.575C156.561 155.173 156.45 156.568 155.889 157.499C154.99 158.988 153.378 158.552 152.328 160.18C151.861 160.902 151.53 161.994 151.938 162.425C152.403 162.917 153.771 162.492 154.647 161.948C155.805 161.231 155.848 160.467 156.61 160.371C157.46 160.265 158.523 161.074 158.69 161.97C158.923 163.225 157.383 164.578 156.164 165.167C154.604 165.919 153.444 165.478 152.682 166.506C152.402 166.883 152.146 167.499 152.375 167.873C152.702 168.406 153.885 168.23 154.671 168.113C156.582 167.829 157.108 167.135 157.793 167.472C158.486 167.814 158.844 168.965 158.544 169.773C158.378 170.222 157.877 170.918 155.396 171.353C153.66 171.658 150.742 171.872 146.854 170.759V170.757Z"/><path fill="url(#paint14_linear_165_427)" d="M47.9207 120.198C47.9207 120.198 23.5584 84.8937 47.3579 56.8377L41.2614 55.7433L60.1617 50.1509L54.5072 65.3261L52.0754 60.566C52.0754 60.566 34.2096 77.9552 47.9207 120.198Z"/><path fill="url(#paint15_linear_165_427)" d="M67.5083 136.927C67.5083 136.927 104.955 149.649 123.85 121.477L126.355 126.609L126.558 108.437L114.521 117.272L119.355 118.231C119.355 118.231 108.429 138.455 67.5083 136.927V136.927Z"/><path fill="#fff" d="M37.6798 121.239L37.9801 124.623C38.068 125.616 38.9553 126.283 39.9612 126.113L41.7887 125.805C42.1612 127.385 42.703 128.88 43.393 130.274L41.9553 131.396C41.1294 132.04 40.9289 133.19 41.5073 133.963L43.4777 136.594C44.055 137.366 45.1909 137.467 46.0135 136.822L47.3731 135.755C48.5073 136.862 49.7688 137.831 51.1326 138.644L50.4561 140.154C50.0335 141.097 50.4264 142.14 51.3337 142.482L54.4216 143.646C55.3262 143.988 56.4 143.5 56.8205 142.559L57.468 141.108C59.0372 141.437 60.6712 141.591 62.3467 141.555L62.4798 143.054C62.5671 144.038 63.4383 144.693 64.4248 144.517L67.7822 143.92C68.7655 143.745 69.4911 142.808 69.4043 141.827L69.2717 140.332C70.8901 139.788 72.4318 139.075 73.8777 138.22L74.7472 139.393C75.3111 140.154 76.4189 140.253 77.2211 139.615L79.951 137.442C80.7504 136.805 80.9434 135.673 80.3817 134.913L79.4825 133.696C80.6335 132.457 81.6588 131.106 82.5386 129.668L84 130.233C84.883 130.575 85.9305 130.1 86.3402 129.173L87.7343 126.015C88.1429 125.089 87.7607 124.061 86.8798 123.718L85.3429 123.119C85.7526 121.564 86.0049 119.962 86.0847 118.335L87.8448 118.038C88.8108 117.875 89.524 116.955 89.4378 115.983L89.144 112.67C89.0577 111.698 88.2049 111.039 87.2383 111.199L85.3741 111.508C84.9725 110.002 84.4151 108.578 83.7208 107.249L85.3084 106.004C86.1035 105.381 86.2949 104.257 85.7364 103.493L83.8308 100.886C83.2712 100.121 82.1715 100.005 81.3736 100.627L79.7025 101.932C78.6254 100.914 77.4372 100.017 76.1585 99.2566L77.0432 97.276C77.4556 96.3531 77.0701 95.3181 76.1828 94.9634L73.1531 93.7531C72.2631 93.3979 71.2049 93.8588 70.7903 94.7833L69.8804 96.8135C68.4286 96.5073 66.9197 96.3483 65.3709 96.3537L65.1785 94.1817C65.0917 93.2006 64.2232 92.5305 63.2383 92.6847L59.875 93.2113C58.8863 93.3661 58.1553 94.289 58.2426 95.2728L58.4356 97.4507C56.9186 97.9316 55.4653 98.5618 54.0911 99.3192L52.8351 97.6189C52.262 96.8432 51.1348 96.724 50.3165 97.3531L47.5224 99.5014C46.7014 100.133 46.5019 101.274 47.0777 102.051L48.3111 103.715C47.1736 104.874 46.1483 106.141 45.2545 107.492L43.3477 106.749C42.4356 106.394 41.351 106.866 40.9256 107.805L39.4733 111.009C39.0469 111.949 39.4426 112.999 40.3569 113.353L42.1785 114.057C41.7186 115.601 41.4135 117.194 41.2798 118.817L39.3445 119.138C38.3386 119.305 37.5941 120.245 37.682 121.238L37.6798 121.239ZM50.3326 121.187C49.6723 113.742 55.2151 106.723 62.6717 105.517C70.083 104.318 76.5876 109.32 77.241 116.684C77.8944 124.047 72.4545 131.048 65.0502 132.328C57.6011 133.616 50.993 128.631 50.3326 121.187Z"/><defs><linearGradient id="paint0_linear_165_427" x1="87.88" x2="77.23" y1="158.981" y2="163.454" gradientUnits="userSpaceOnUse"><stop stop-color="#40447E"/><stop offset="1" stop-color="#3C3B6B"/></linearGradient><linearGradient id="paint1_linear_165_427" x1="70.613" x2="59.733" y1="114.346" y2="118.916" gradientUnits="userSpaceOnUse"><stop stop-color="#40447E"/><stop offset="1" stop-color="#3C3B6B"/></linearGradient><linearGradient id="paint2_linear_165_427" x1="23.79" x2="124.48" y1="116.832" y2="116.832" gradientUnits="userSpaceOnUse"><stop stop-color="#40447E"/><stop offset="1" stop-color="#3C3B6B"/></linearGradient><linearGradient id="paint3_linear_165_427" x1="87.436" x2="10.025" y1="92.347" y2="218.898" gradientUnits="userSpaceOnUse"><stop stop-color="#FFC444"/><stop offset="1" stop-color="#F36F56"/></linearGradient><linearGradient id="paint4_linear_165_427" x1="29.463" x2="114.005" y1="120.504" y2="110.093" gradientUnits="userSpaceOnUse"><stop stop-color="#FFC444"/><stop offset="1" stop-color="#F36F56"/></linearGradient><linearGradient id="paint5_linear_165_427" x1="23.79" x2="175.476" y1="154.285" y2="154.285" gradientUnits="userSpaceOnUse"><stop stop-color="#40447E"/><stop offset="1" stop-color="#3C3B6B"/></linearGradient><linearGradient id="paint6_linear_165_427" x1="38.666" x2="149.805" y1="153.111" y2="153.111" gradientUnits="userSpaceOnUse"><stop stop-color="#40447E"/><stop offset="1" stop-color="#3C3B6B"/></linearGradient><linearGradient id="paint7_linear_165_427" x1="131.821" x2="62.994" y1="17.267" y2="154.921" gradientUnits="userSpaceOnUse"><stop stop-color="#FF9085"/><stop offset="1" stop-color="#FB6FBB"/></linearGradient><linearGradient id="paint8_linear_165_427" x1="100.788" x2="115.006" y1="12.009" y2="68.887" gradientUnits="userSpaceOnUse"><stop stop-color="#AB316D"/><stop offset="1" stop-color="#792D3D"/></linearGradient><linearGradient id="paint9_linear_165_427" x1="71.433" x2="145.284" y1="66.323" y2="66.323" gradientUnits="userSpaceOnUse"><stop stop-color="#FF9085"/><stop offset="1" stop-color="#FB6FBB"/></linearGradient><linearGradient id="paint10_linear_165_427" x1="117.176" x2="173.392" y1="91.246" y2="91.246" gradientUnits="userSpaceOnUse"><stop stop-color="#E38DDD"/><stop offset="1" stop-color="#9571F6"/></linearGradient><linearGradient id="paint11_linear_165_427" x1="145.629" x2="140.043" y1="51.643" y2="102.131" gradientUnits="userSpaceOnUse"><stop stop-color="#40447E"/><stop offset="1" stop-color="#3C3B6B"/></linearGradient><linearGradient id="paint12_linear_165_427" x1="167.968" x2="152.69" y1="132.58" y2="161.732" gradientUnits="userSpaceOnUse"><stop stop-color="#AA80F9"/><stop offset="1" stop-color="#6165D7"/></linearGradient><linearGradient id="paint13_linear_165_427" x1="157.291" x2="139.756" y1="154.513" y2="175.534" gradientUnits="userSpaceOnUse"><stop stop-color="#E38DDD"/><stop offset="1" stop-color="#9571F6"/></linearGradient><linearGradient id="paint14_linear_165_427" x1="60.996" x2="20.593" y1="41.766" y2="155.575" gradientUnits="userSpaceOnUse"><stop stop-color="#FB6FBB"/><stop offset="1" stop-color="#FF9085"/></linearGradient><linearGradient id="paint15_linear_165_427" x1="67.508" x2="126.558" y1="124.115" y2="124.115" gradientUnits="userSpaceOnUse"><stop stop-color="#E38DDD"/><stop offset="1" stop-color="#9571F6"/></linearGradient></defs></svg>