<svg xmlns="http://www.w3.org/2000/svg" width="1042" height="555" fill="none" viewBox="0 0 1042 555"><title>Use any framework</title><g clip-path="url(#clip0_72_283)"><path fill="#F2F2F2" d="M961.469 438.175C960.309 440.675 959.152 443.142 957.999 445.575C956.199 449.355 954.422 453.062 952.669 456.695C951.889 458.305 951.109 459.885 950.349 461.465C941.749 479.035 933.719 494.575 926.899 507.355C920.711 518.935 911.522 528.638 900.295 535.446C889.069 542.255 876.218 545.919 863.089 546.055L711.439 547.705H709.839L696.839 547.845L685.719 547.965L651.619 548.335H650.239L632.879 548.525H632.349L525.349 549.685L429.839 550.685L418.729 550.805L349.729 551.555H349.649L304.899 552.035H304.419L162.919 553.565L120.589 554.025C116.985 554.066 113.381 553.886 109.799 553.485V553.485C108.579 553.345 107.359 553.185 106.149 552.995C86.407 549.948 68.3051 540.228 54.859 525.455C36.649 505.425 23.399 482.055 14.499 456.695C13.2123 453.035 12.0123 449.328 10.899 445.575C-19.911 341.425 17.649 207.055 85.249 117.135C88.0823 113.375 90.9623 109.708 93.889 106.135L93.959 106.055C114.749 80.5351 138.059 59.2151 162.889 44.0551C206.889 17.1451 255.639 9.56509 303.589 32.1551C344.159 51.2751 382.039 60.2651 418.759 62.7051C422.469 62.9451 426.179 63.1251 429.869 63.2351C514.099 65.8851 593.039 35.5351 685.739 15.9451C689.429 15.1651 693.129 14.3951 696.859 13.6651C762.989 0.505089 836.349 -6.43491 923.589 8.15509C932.653 9.63575 941.596 11.7747 950.349 14.5551C954.196 15.7951 957.902 17.1284 961.469 18.5551C1003.11 35.4951 1025.82 66.7951 1035.47 106.015C1036.38 109.655 1037.17 113.358 1037.84 117.125C1054.95 211.465 1004.84 345.285 961.469 438.175Z"/><path fill="#000" d="M497.009 445.575C496.606 449.315 495.981 453.029 495.139 456.695H588.839V445.575H497.009ZM418.759 508.385L429.869 508.295V480.825C426.059 480.655 422.349 480.485 418.759 480.305V508.385ZM185.839 445.575V456.695H384.339V445.575H185.839ZM1035.52 106.055H961.519V18.565C957.952 17.1183 954.246 15.785 950.399 14.565V106.055H696.859V13.635C693.129 14.365 689.429 15.135 685.739 15.915V106.055H429.869V63.205C426.179 63.095 422.469 62.915 418.759 62.675V106.055H162.889V44.055C138.059 59.215 114.749 80.535 93.959 106.055H93.889V106.135C90.9557 109.735 88.0757 113.402 85.249 117.135H93.889V445.575H10.889C11.9957 449.328 13.1957 453.035 14.489 456.695H93.879V550.315C97.8734 551.537 101.951 552.469 106.079 553.105C107.289 553.295 108.509 553.455 109.729 553.595C113.311 553.996 116.915 554.176 120.519 554.135L162.849 553.675V456.675H418.759V550.885L429.869 550.765V456.695H685.739V548.055L696.859 547.935V456.695H950.349V461.465C951.109 459.885 951.889 458.305 952.669 456.695C954.422 453.062 956.199 449.355 957.999 445.575C959.152 443.148 960.309 440.682 961.469 438.175V117.175H1037.89C1037.22 113.382 1036.43 109.675 1035.52 106.055ZM162.889 445.575V117.135H418.759V445.575H162.889ZM429.889 445.575V117.135H685.739V445.575H429.889ZM950.369 445.575H696.859V117.135H950.349L950.369 445.575Z" opacity=".1"/><path fill="#65617D" d="M863.079 533.615V546.615L711.159 548.015L709.539 548.045L651.799 548.575L650.419 548.595L632.869 548.745H632.349L525.369 549.735L349.759 551.365H349.609L304.959 551.785L304.479 551.795L106.079 553.615V538.615L152.729 510.615L246.329 509.835L248.329 509.825L248.989 509.815L250.989 509.785L295.929 509.415L297.939 509.405L298.579 509.395L300.579 509.385L314.989 509.265L315.369 509.255L350.919 508.955H351.209L628.609 506.615L635.399 506.565H636.079L641.259 506.515L678.909 506.205L680.909 506.175L682.759 506.155H683.719L695.429 506.065L697.749 506.035L700.859 506.015L710.609 505.925L726.079 505.795L728.079 505.775L731.559 505.755H732.209L806.919 505.115L863.079 533.615Z"/><path fill="#000" d="M863.079 533.615V546.615L711.159 548.015L709.539 548.045L651.799 548.575L650.419 548.595L632.869 548.745H632.349L525.369 549.735L349.759 551.365H349.609L304.959 551.785L304.479 551.795L106.079 553.615V538.615L152.729 510.615L246.329 509.835L248.329 509.825L248.989 509.815L250.989 509.785L295.929 509.415L297.939 509.405L298.579 509.395L300.579 509.385L314.989 509.265L315.369 509.255L350.919 508.955H351.209L628.609 506.615L635.399 506.565H636.079L641.259 506.515L678.909 506.205L680.909 506.175L682.759 506.155H683.719L695.429 506.065L697.749 506.035L700.859 506.015L710.609 505.925L726.079 505.795L728.079 505.775L731.559 505.755H732.209L806.919 505.115L863.079 533.615Z" opacity=".2"/><path fill="#3F3D56" d="M296.089 483.625V508.115C296.09 509.275 295.761 510.411 295.141 511.392C294.522 512.373 293.637 513.157 292.589 513.655C291.809 514.033 290.956 514.238 290.089 514.255L255.189 514.995C254.257 515.017 253.332 514.822 252.489 514.425C251.423 513.936 250.519 513.151 249.886 512.164C249.254 511.176 248.918 510.028 248.919 508.855V483.625H296.089Z"/><path fill="#000" d="M296.089 483.625V508.115C296.09 509.275 295.761 510.411 295.141 511.392C294.522 512.373 293.637 513.157 292.589 513.655C291.809 514.033 290.956 514.238 290.089 514.255L255.189 514.995C254.257 515.017 253.332 514.822 252.489 514.425C251.423 513.936 250.519 513.151 249.886 512.164C249.254 511.176 248.918 510.028 248.919 508.855V483.625H296.089Z" opacity=".1"/><path fill="#3F3D56" d="M298.089 483.625V508.115C298.09 509.275 297.761 510.411 297.141 511.392C296.522 512.373 295.637 513.157 294.589 513.655C293.809 514.033 292.956 514.238 292.089 514.255L257.189 514.995C256.257 515.017 255.332 514.822 254.489 514.425C253.423 513.936 252.519 513.151 251.886 512.164C251.254 511.176 250.918 510.028 250.919 508.855V483.625H298.089Z"/><path fill="#3F3D56" d="M728.079 483.615H680.909V515.115H728.079V483.615Z"/><path fill="#000" d="M728.079 483.615H680.909V515.115H728.079V483.615Z" opacity=".1"/><path fill="#3F3D56" d="M726.079 483.615H678.909V515.115H726.079V483.615Z"/><path fill="#000" d="M298.079 483.615V488.585L250.909 489.845V483.615H298.079Z" opacity=".1"/><path fill="#65617D" d="M381.339 312.325V480.525C381.327 481.552 380.92 482.534 380.204 483.27C379.487 484.005 378.515 484.437 377.489 484.475L185.839 489.575H185.789C184.745 489.562 183.748 489.142 183.01 488.404C182.272 487.666 181.852 486.669 181.839 485.625V312.325C181.852 311.281 182.272 310.284 183.01 309.546C183.748 308.808 184.745 308.388 185.789 308.375H377.389C378.433 308.388 379.43 308.808 380.168 309.546C380.906 310.284 381.326 311.281 381.339 312.325V312.325Z"/><path fill="#000" d="M185.839 308.375V489.575H185.789C184.745 489.562 183.748 489.142 183.01 488.404C182.272 487.666 181.852 486.669 181.839 485.625V312.325C181.852 311.281 182.272 310.284 183.01 309.546C183.748 308.808 184.745 308.388 185.789 308.375H185.839Z" opacity=".1"/><path fill="#39374D" d="M194.579 319.115H372.079V467.365L194.579 471.365V319.115Z"/><path fill="#000" d="M726.079 483.615V490.025L678.909 488.765V483.615H726.079Z" opacity=".1"/><path fill="#65617D" d="M788.339 312.325V485.625C788.326 486.677 787.899 487.682 787.15 488.421C786.401 489.161 785.391 489.575 784.339 489.575V489.575L592.649 484.475C591.623 484.437 590.651 484.005 589.934 483.27C589.218 482.534 588.811 481.552 588.799 480.525V312.325C588.812 311.281 589.232 310.284 589.97 309.546C590.708 308.808 591.705 308.388 592.749 308.375H784.349C785.4 308.378 786.407 308.793 787.153 309.532C787.9 310.271 788.326 311.275 788.339 312.325V312.325Z"/><path fill="#000" d="M788.339 312.325V485.625C788.326 486.677 787.899 487.682 787.15 488.421C786.401 489.161 785.391 489.575 784.339 489.575V489.575V308.375C785.391 308.375 786.401 308.789 787.15 309.529C787.899 310.268 788.326 311.273 788.339 312.325Z" opacity=".1"/><path fill="#39374D" d="M775.579 319.115H598.079V467.365L775.579 471.365V319.115Z"/><path fill="#65617D" d="M583.839 312.325V480.525C583.827 481.552 583.42 482.534 582.704 483.27C581.987 484.005 581.015 484.437 579.989 484.475L388.339 489.575C387.287 489.575 386.277 489.161 385.528 488.421C384.779 487.682 384.352 486.677 384.339 485.625V312.325C384.352 311.281 384.772 310.284 385.51 309.546C386.248 308.808 387.245 308.388 388.289 308.375H579.889C580.933 308.388 581.93 308.808 582.668 309.546C583.406 310.284 583.826 311.281 583.839 312.325V312.325Z"/><path fill="#4267B2" d="M397.079 319.115H574.579V467.365L397.079 471.365V319.115Z"/><path fill="#000" d="M863.079 533.615V546.615L711.159 548.015L709.539 548.045L651.799 548.575L650.419 548.595L632.869 548.745H632.349L525.369 549.735L349.759 551.365H349.609L304.959 551.785L304.479 551.795L106.079 553.615V538.615L308.589 537.285H309.069L350.059 537.005H350.249L633.329 535.135H633.619L633.789 535.125H634.259L639.049 535.095H640.509L714.999 534.595L719.399 534.575L720.379 534.565L863.079 533.615Z" opacity=".1"/><path fill="#FBBEBE" d="M487.249 349.445C515.598 349.445 538.579 326.464 538.579 298.115C538.579 269.766 515.598 246.785 487.249 246.785C458.9 246.785 435.919 269.766 435.919 298.115C435.919 326.464 458.9 349.445 487.249 349.445Z"/><path fill="#FBBEBE" d="M538.589 377.125C538.589 377.125 439.089 389.125 448.589 377.125C452.029 372.785 452.979 359.925 452.789 345.275C452.729 340.825 452.569 336.215 452.339 331.625C451.239 309.625 448.589 288.125 448.589 288.125C448.589 288.125 535.589 247.125 525.589 279.625C521.589 292.755 522.899 311.195 525.939 328.505C526.829 333.555 527.859 338.505 528.939 343.205C531.575 354.669 534.796 365.99 538.589 377.125V377.125Z"/><path fill="#FF6584" d="M506.119 373.055C517.629 370.925 529.819 367.055 540.649 371.515C543.499 372.685 546.119 374.395 549.039 375.375C551.959 376.355 555.159 376.595 558.199 377.285C568.879 379.705 577.539 387.835 583.099 397.285C588.659 406.735 591.539 417.425 594.359 428.005L601.259 453.835C607.259 476.285 613.259 498.925 614.649 522.135C531.116 526.917 447.391 527.394 363.809 523.565C369.249 513.225 374.809 502.255 374.349 490.565C373.889 478.875 367.159 467.345 369.589 455.825C371.139 448.485 376.159 442.435 379.229 435.605C387.979 416.085 381.169 389.815 396.549 374.955C403.469 368.275 413.549 365.745 423.179 366.065C435.459 366.475 448.029 370.305 460.179 372.175C475.739 374.535 490.439 375.935 506.119 373.055Z"/><path fill="#000" d="M637.019 484.225L636.919 485.655V485.755L636.749 488.055L635.419 506.565L633.809 528.865L633.349 535.145L632.349 548.585V548.755L525.349 549.755L349.759 551.655V552.495H349.619V551.375L350.069 537.015L350.929 508.955L351.669 485.165L351.739 482.795C351.783 481.365 352.118 479.958 352.723 478.661C353.329 477.365 354.192 476.205 355.261 475.253C356.33 474.301 357.581 473.577 358.939 473.126C360.297 472.674 361.733 472.503 363.159 472.625C367.879 473.025 374.009 473.515 381.339 474.035L384.339 474.255C426.669 477.195 504.899 480.995 583.839 476.255C585.499 476.165 587.169 476.065 588.839 475.945C601.079 475.175 613.309 474.185 625.419 472.945C626.95 472.785 628.497 472.962 629.952 473.464C631.407 473.966 632.735 474.782 633.84 475.852C634.946 476.923 635.804 478.223 636.353 479.661C636.902 481.099 637.13 482.64 637.019 484.175V484.225Z" opacity=".1"/><path fill="#3F3D56" d="M349.729 552.495V551.655L525.349 549.745L632.349 548.745H632.649V548.575L633.649 535.135L634.079 529.135L635.719 506.525L637.009 488.625V488.185C637.069 487.36 637.032 486.531 636.899 485.715C636.905 485.682 636.905 485.648 636.899 485.615C636.624 483.927 635.937 482.334 634.899 480.975C633.798 479.563 632.355 478.455 630.707 477.755C629.059 477.055 627.26 476.787 625.479 476.975C613.369 478.215 601.139 479.205 588.899 479.975C587.229 480.095 585.559 480.195 583.899 480.285C504.959 484.975 426.729 481.175 384.399 478.285L381.399 478.065C374.069 477.545 367.939 477.065 363.219 476.655C360.622 476.436 358.037 477.186 355.961 478.762C353.885 480.337 352.467 482.625 351.979 485.185C351.878 485.726 351.818 486.275 351.799 486.825L351.119 508.985L350.189 537.055L349.749 551.415V552.535L349.729 552.495Z"/><path fill="#000" d="M637.319 491.235L636.089 506.565L634.259 529.415L633.799 535.135L632.799 547.945L632.739 548.585V548.755L632.589 550.235L632.699 548.755H632.409L525.409 549.755L349.759 551.655V551.375L350.249 537.015L351.249 508.955L351.889 490.305C351.92 489.244 352.217 488.208 352.751 487.291C353.286 486.374 354.041 485.605 354.949 485.055C356.081 484.361 357.405 484.046 358.729 484.155C360.829 484.325 363.409 484.525 366.419 484.745C371.309 485.105 377.339 485.525 384.359 485.965C397.359 486.785 413.669 487.665 432.359 488.385C484.359 490.385 554.559 491.055 621.239 485.215C624.239 484.955 627.339 484.665 630.369 484.375C631.568 484.255 632.777 484.485 633.849 485.035C634.153 485.186 634.441 485.367 634.709 485.575C635.58 486.206 636.269 487.054 636.709 488.035C636.811 488.23 636.895 488.434 636.959 488.645C637.259 489.474 637.382 490.356 637.319 491.235V491.235Z" opacity=".1"/><path fill="#000" d="M298.089 504.925V508.115C298.09 509.275 297.761 510.411 297.141 511.392C296.522 512.373 295.637 513.157 294.589 513.655L254.489 514.425C253.423 513.936 252.519 513.151 251.886 512.164C251.254 511.177 250.918 510.028 250.919 508.855V505.855L298.089 504.925Z" opacity=".1"/><path fill="#3F3D56" d="M298.579 515.535L246.329 516.535V507.865L298.579 506.865V515.535Z"/><path fill="#000" d="M298.579 515.535L246.329 516.535V507.865L298.579 506.865V515.535Z" opacity=".1"/><path fill="#3F3D56" d="M300.579 515.535L248.329 516.535V507.865L300.579 506.865V515.535Z"/><path fill="#000" d="M679.209 506.925V510.115C679.208 511.275 679.537 512.411 680.157 513.392C680.776 514.373 681.661 515.157 682.709 515.655L722.809 516.425C723.875 515.936 724.779 515.151 725.411 514.164C726.044 513.177 726.38 512.028 726.379 510.855V507.855L679.209 506.925Z" opacity=".1"/><path fill="#000" d="M678.709 517.535L730.959 518.535V509.865L678.709 508.865V517.535Z" opacity=".1"/><path fill="#3F3D56" d="M676.709 517.535L728.959 518.535V509.865L676.709 508.865V517.535Z"/><path fill="#3F3D56" d="M454.779 313.845C454.859 320.845 451.619 327.445 448.869 333.915C438.856 357.483 434.52 383.074 436.209 408.625C436.939 419.625 438.789 430.625 436.939 441.525C435.089 452.425 428.509 463.295 417.939 466.425C435.469 476.875 459.199 475.775 475.699 463.765C484.489 457.365 491.039 448.435 497.449 439.655C496.688 455.427 492.121 470.781 484.139 484.405C498.567 483.128 512.566 478.834 525.229 471.802C537.892 464.77 548.937 455.157 557.649 443.585C561.959 437.775 565.709 431.395 567.369 424.355C570.459 411.355 566.149 397.845 562.859 384.855C560.11 373.996 558.049 362.974 556.689 351.855C556.259 348.295 555.909 344.635 556.789 341.155C557.789 337.085 560.459 333.645 562.429 329.935C568.029 319.395 568.159 306.635 565.289 295.055C562.419 283.475 556.799 272.795 551.229 262.245C546.769 253.785 541.929 244.935 533.769 239.965C528.669 236.865 522.769 235.575 516.889 234.325L491.519 228.895C485.969 227.705 480.259 226.515 474.649 227.385C465.179 228.865 458.509 235.705 452.649 242.725C448.059 248.185 436.839 258.435 436.049 265.585C435.329 272.175 441.149 283.215 442.139 290.165C443.439 299.165 444.359 296.165 449.439 301.685C452.649 305.105 454.719 309.055 454.779 313.845Z"/><path fill="#61DAFB" d="M729.968 395.739C729.968 389.912 722.668 384.389 711.481 380.964C714.063 369.564 712.915 360.487 707.859 357.582C706.634 356.896 705.247 356.551 703.843 356.582V360.582C704.553 360.56 705.257 360.72 705.887 361.048C708.326 362.448 709.387 367.772 708.559 374.622C708.359 376.307 708.039 378.083 707.645 379.894C703.897 378.991 700.093 378.338 696.259 377.94C693.975 374.789 691.483 371.794 688.8 368.975C694.645 363.542 700.132 360.565 703.862 360.565V356.56C698.931 356.56 692.476 360.074 685.949 366.171C679.422 360.11 672.967 356.632 668.036 356.632V360.632C671.748 360.632 677.252 363.591 683.098 368.988C680.428 371.797 677.954 374.787 675.693 377.935C671.852 378.329 668.043 378.988 664.293 379.907C663.881 378.114 663.576 376.375 663.361 374.707C662.518 367.857 663.561 362.532 665.979 361.115C666.612 360.777 667.324 360.616 668.041 360.649V356.649C666.626 356.618 665.227 356.963 663.989 357.649C658.95 360.549 657.821 369.609 660.421 380.977C649.268 384.42 642.006 389.924 642.006 395.734C642.006 401.562 649.306 407.084 660.493 410.509C657.911 421.909 659.059 430.986 664.115 433.891C665.346 434.579 666.739 434.925 668.149 434.891C673.08 434.891 679.535 431.377 686.062 425.28C692.589 431.341 699.044 434.819 703.975 434.819C705.39 434.85 706.789 434.505 708.027 433.819C713.066 430.919 714.195 421.859 711.595 410.491C722.706 407.071 729.968 401.548 729.968 395.739ZM706.622 383.779C705.959 386.092 705.134 388.479 704.201 390.862C703.466 389.428 702.695 387.993 701.852 386.562C701.027 385.128 700.152 383.729 699.27 382.362C701.817 382.739 704.274 383.205 706.623 383.779H706.622ZM698.41 402.879C697.01 405.3 695.577 407.595 694.089 409.729C691.417 409.962 688.71 410.088 685.989 410.088C683.281 410.088 680.574 409.962 677.92 409.747C676.432 407.614 674.986 405.342 673.581 402.933C672.218 400.584 670.975 398.206 669.851 395.797C670.963 393.397 672.218 390.992 673.563 388.643C674.963 386.222 676.396 383.927 677.884 381.793C680.556 381.56 683.263 381.434 685.984 381.434C688.692 381.434 691.399 381.56 694.053 381.775C695.541 383.908 696.987 386.18 698.392 388.589C699.755 390.938 700.998 393.316 702.122 395.725C700.992 398.124 699.755 400.526 698.41 402.875V402.879ZM704.202 400.548C705.17 402.948 705.995 405.353 706.676 407.684C704.327 408.258 701.853 408.742 699.289 409.118C700.168 407.737 701.046 406.318 701.871 404.868C702.7 403.431 703.467 401.979 704.2 400.544L704.202 400.548ZM686.02 419.676C684.261 417.85 682.597 415.935 681.035 413.938C682.649 414.01 684.298 414.064 685.966 414.064C687.651 414.064 689.319 414.028 690.951 413.938C689.412 415.938 687.766 417.854 686.02 419.676ZM672.68 409.115C670.134 408.738 667.68 408.272 665.328 407.698C665.991 405.385 666.816 402.998 667.749 400.615C668.484 402.049 669.255 403.484 670.098 404.915C670.941 406.346 671.8 407.752 672.68 409.115ZM685.93 371.801C687.689 373.627 689.353 375.542 690.915 377.539C689.301 377.467 687.652 377.413 685.984 377.413C684.298 377.413 682.631 377.449 680.999 377.539C682.538 375.539 684.184 373.623 685.93 371.801V371.801ZM672.662 382.36C671.783 383.741 670.905 385.16 670.08 386.61C669.255 388.044 668.48 389.479 667.749 390.91C666.781 388.51 665.956 386.105 665.275 383.774C667.623 383.223 670.1 382.739 672.662 382.36ZM656.435 404.809C650.087 402.101 645.981 398.551 645.981 395.736C645.981 392.921 650.087 389.353 656.435 386.663C657.977 386 659.663 385.408 661.402 384.852C662.499 388.579 663.847 392.227 665.436 395.772C663.863 399.299 662.533 402.93 661.455 406.638C659.68 406.085 657.994 405.475 656.434 404.812L656.435 404.809ZM666.082 430.432C663.643 429.032 662.582 423.708 663.41 416.858C663.61 415.172 663.93 413.397 664.324 411.586C668.072 412.489 671.876 413.142 675.71 413.54C677.994 416.691 680.486 419.686 683.169 422.505C677.324 427.938 671.837 430.915 668.107 430.915C667.402 430.924 666.707 430.759 666.081 430.435L666.082 430.432ZM708.614 416.769C709.457 423.619 708.414 428.944 705.996 430.361C705.363 430.699 704.651 430.86 703.934 430.827C700.222 430.827 694.718 427.868 688.872 422.471C691.542 419.662 694.016 416.672 696.277 413.524C700.118 413.13 703.927 412.471 707.677 411.552C708.081 413.274 708.393 415.017 708.613 416.772L708.614 416.769ZM715.514 404.809C713.972 405.472 712.286 406.064 710.547 406.62C709.45 402.893 708.102 399.245 706.513 395.7C708.086 392.173 709.416 388.542 710.494 384.834C712.269 385.39 713.955 385.999 715.533 386.663C721.881 389.371 725.987 392.921 725.987 395.736C725.97 398.554 721.864 402.122 715.516 404.812L715.514 404.809Z"/><path fill="#61DAFB" d="M685.966 403.932C690.491 403.932 694.16 400.263 694.16 395.738C694.16 391.213 690.491 387.544 685.966 387.544C681.441 387.544 677.772 391.213 677.772 395.738C677.772 400.263 681.441 403.932 685.966 403.932Z"/><path fill="#41B883" d="M292.343 359L281.585 377.634L270.826 359H235L281.585 439.688L328.169 359H292.343Z"/><path fill="#34495E" d="M292.343 359L281.585 377.634L270.826 359H253.634L281.585 407.412L309.535 359H292.343Z"/></g><defs><clipPath id="clip0_72_283"><rect width="1041.28" height="554.141" fill="#fff"/></clipPath></defs></svg>