<svg xmlns="http://www.w3.org/2000/svg" width="1050" height="563" fill="none" viewBox="0 0 1050 563"><title>Boost your productivity</title><g clip-path="url(#clip0_73_492)" filter="url(#filter0_d_73_492)"><path fill="#F2F2F2" d="M965.469 438.175C964.309 440.675 963.152 443.142 961.999 445.575C960.199 449.355 958.422 453.062 956.669 456.695C955.889 458.305 955.109 459.885 954.349 461.465C945.749 479.035 937.719 494.575 930.899 507.355C924.711 518.935 915.522 528.638 904.295 535.446C893.069 542.255 880.218 545.919 867.089 546.055L715.439 547.705H713.839L700.839 547.845L689.719 547.965L655.619 548.335H654.239L636.879 548.525H636.349L529.349 549.685L433.839 550.685L422.729 550.805L353.729 551.555H353.649L308.899 552.035H308.419L166.919 553.565L124.589 554.025C120.985 554.066 117.381 553.886 113.799 553.485V553.485C112.579 553.345 111.359 553.185 110.149 552.995C90.407 549.948 72.3051 540.228 58.859 525.455C40.649 505.425 27.399 482.055 18.499 456.695C17.2123 453.035 16.0123 449.328 14.899 445.575C-15.911 341.425 21.649 207.055 89.249 117.135C92.0823 113.375 94.9623 109.708 97.889 106.135L97.959 106.055C118.749 80.5351 142.059 59.2151 166.889 44.0551C210.889 17.1451 259.639 9.56509 307.589 32.1551C348.159 51.2751 386.039 60.2651 422.759 62.7051C426.469 62.9451 430.179 63.1251 433.869 63.2351C518.099 65.8851 597.039 35.5351 689.739 15.9451C693.429 15.1651 697.129 14.3951 700.859 13.6651C766.989 0.505089 840.349 -6.43491 927.589 8.15509C936.653 9.63575 945.596 11.7747 954.349 14.5551C958.196 15.7951 961.902 17.1284 965.469 18.5551C1007.11 35.4951 1029.82 66.7951 1039.47 106.015C1040.38 109.655 1041.17 113.358 1041.84 117.125C1058.95 211.465 1008.84 345.285 965.469 438.175Z"/><path fill="#000" d="M501.009 445.575C500.606 449.315 499.982 453.029 499.139 456.695H592.839V445.575H501.009ZM422.759 508.385L433.869 508.295V480.825C430.059 480.655 426.349 480.485 422.759 480.305V508.385ZM189.839 445.575V456.695H388.339V445.575H189.839ZM1039.52 106.055H965.519V18.565C961.952 17.1183 958.246 15.785 954.399 14.565V106.055H700.859V13.635C697.129 14.365 693.429 15.135 689.739 15.915V106.055H433.869V63.205C430.179 63.095 426.469 62.915 422.759 62.675V106.055H166.889V44.055C142.059 59.215 118.749 80.535 97.959 106.055H97.889V106.135C94.9557 109.735 92.0757 113.402 89.249 117.135H97.889V445.575H14.889C15.9957 449.328 17.1957 453.035 18.489 456.695H97.879V550.315C101.873 551.537 105.951 552.469 110.079 553.105C111.289 553.295 112.509 553.455 113.729 553.595C117.311 553.996 120.915 554.176 124.519 554.135L166.849 553.675V456.675H422.759V550.885L433.869 550.765V456.695H689.739V548.055L700.859 547.935V456.695H954.349V461.465C955.109 459.885 955.889 458.305 956.669 456.695C958.422 453.062 960.199 449.355 961.999 445.575C963.152 443.148 964.309 440.682 965.469 438.175V117.175H1041.89C1041.22 113.382 1040.43 109.675 1039.52 106.055ZM166.889 445.575V117.135H422.759V445.575H166.889ZM433.889 445.575V117.135H689.739V445.575H433.889ZM954.369 445.575H700.859V117.135H954.349L954.369 445.575Z" opacity=".1"/><path fill="#65617D" d="M867.079 533.615V546.615L715.159 548.015L713.539 548.045L655.799 548.575L654.419 548.595L636.869 548.745H636.349L529.369 549.735L353.759 551.365H353.609L308.959 551.785L308.479 551.795L110.079 553.615V538.615L156.729 510.615L250.329 509.835L252.329 509.825L252.989 509.815L254.989 509.785L299.929 509.415L301.939 509.405L302.579 509.395L304.579 509.385L318.989 509.265L319.369 509.255L354.919 508.955H355.209L632.609 506.615L639.399 506.565H640.079L645.259 506.515L682.909 506.205L684.909 506.175L686.759 506.155H687.719L699.429 506.065L701.749 506.035L704.859 506.015L714.609 505.925L730.079 505.795L732.079 505.775L735.559 505.755H736.209L810.919 505.115L867.079 533.615Z"/><path fill="#000" d="M867.079 533.615V546.615L715.159 548.015L713.539 548.045L655.799 548.575L654.419 548.595L636.869 548.745H636.349L529.369 549.735L353.759 551.365H353.609L308.959 551.785L308.479 551.795L110.079 553.615V538.615L156.729 510.615L250.329 509.835L252.329 509.825L252.989 509.815L254.989 509.785L299.929 509.415L301.939 509.405L302.579 509.395L304.579 509.385L318.989 509.265L319.369 509.255L354.919 508.955H355.209L632.609 506.615L639.399 506.565H640.079L645.259 506.515L682.909 506.205L684.909 506.175L686.759 506.155H687.719L699.429 506.065L701.749 506.035L704.859 506.015L714.609 505.925L730.079 505.795L732.079 505.775L735.559 505.755H736.209L810.919 505.115L867.079 533.615Z" opacity=".2"/><path fill="#3F3D56" d="M300.089 483.625V508.115C300.09 509.275 299.761 510.411 299.141 511.392C298.522 512.373 297.637 513.157 296.589 513.655C295.809 514.033 294.956 514.238 294.089 514.255L259.189 514.995C258.257 515.017 257.333 514.822 256.489 514.425C255.423 513.936 254.519 513.151 253.887 512.164C253.254 511.176 252.918 510.028 252.919 508.855V483.625H300.089Z"/><path fill="#000" d="M300.089 483.625V508.115C300.09 509.275 299.761 510.411 299.141 511.392C298.522 512.373 297.637 513.157 296.589 513.655C295.809 514.033 294.956 514.238 294.089 514.255L259.189 514.995C258.257 515.017 257.333 514.822 256.489 514.425C255.423 513.936 254.519 513.151 253.887 512.164C253.254 511.176 252.918 510.028 252.919 508.855V483.625H300.089Z" opacity=".1"/><path fill="#3F3D56" d="M302.089 483.625V508.115C302.09 509.275 301.761 510.411 301.141 511.392C300.522 512.373 299.637 513.157 298.589 513.655C297.809 514.033 296.956 514.238 296.089 514.255L261.189 514.995C260.257 515.017 259.333 514.822 258.489 514.425C257.423 513.936 256.519 513.151 255.887 512.164C255.254 511.176 254.918 510.028 254.919 508.855V483.625H302.089Z"/><path fill="#3F3D56" d="M732.079 483.615H684.909V515.115H732.079V483.615Z"/><path fill="#000" d="M732.079 483.615H684.909V515.115H732.079V483.615Z" opacity=".1"/><path fill="#3F3D56" d="M730.079 483.615H682.909V515.115H730.079V483.615Z"/><path fill="#000" d="M302.079 483.615V488.585L254.909 489.845V483.615H302.079Z" opacity=".1"/><path fill="#65617D" d="M385.339 312.325V480.525C385.327 481.552 384.92 482.534 384.204 483.27C383.487 484.005 382.515 484.437 381.489 484.475L189.839 489.575H189.789C188.745 489.562 187.748 489.142 187.01 488.404C186.272 487.666 185.852 486.669 185.839 485.625V312.325C185.852 311.281 186.272 310.284 187.01 309.546C187.748 308.808 188.745 308.388 189.789 308.375H381.389C382.433 308.388 383.43 308.808 384.168 309.546C384.906 310.284 385.326 311.281 385.339 312.325V312.325Z"/><path fill="#000" d="M189.839 308.375V489.575H189.789C188.745 489.562 187.748 489.142 187.01 488.404C186.272 487.666 185.852 486.669 185.839 485.625V312.325C185.852 311.281 186.272 310.284 187.01 309.546C187.748 308.808 188.745 308.388 189.789 308.375H189.839Z" opacity=".1"/><path fill="#39374D" d="M198.579 319.115H376.079V467.365L198.579 471.365V319.115Z"/><path fill="#000" d="M730.079 483.615V490.025L682.909 488.765V483.615H730.079Z" opacity=".1"/><path fill="#65617D" d="M792.339 312.325V485.625C792.326 486.677 791.899 487.682 791.15 488.421C790.401 489.161 789.391 489.575 788.339 489.575V489.575L596.649 484.475C595.623 484.437 594.651 484.005 593.934 483.27C593.218 482.534 592.811 481.552 592.799 480.525V312.325C592.812 311.281 593.232 310.284 593.97 309.546C594.708 308.808 595.705 308.388 596.749 308.375H788.349C789.4 308.378 790.407 308.793 791.153 309.532C791.9 310.271 792.326 311.275 792.339 312.325V312.325Z"/><path fill="#000" d="M792.339 312.325V485.625C792.326 486.677 791.899 487.682 791.15 488.421C790.401 489.161 789.391 489.575 788.339 489.575V489.575V308.375C789.391 308.375 790.401 308.789 791.15 309.529C791.899 310.268 792.326 311.273 792.339 312.325Z" opacity=".1"/><path fill="#39374D" d="M779.579 319.115H602.079V467.365L779.579 471.365V319.115Z"/><path fill="#65617D" d="M587.839 312.325V480.525C587.827 481.552 587.42 482.534 586.704 483.27C585.987 484.005 585.015 484.437 583.989 484.475L392.339 489.575C391.287 489.575 390.277 489.161 389.528 488.421C388.779 487.682 388.352 486.677 388.339 485.625V312.325C388.352 311.281 388.772 310.284 389.51 309.546C390.248 308.808 391.245 308.388 392.289 308.375H583.889C584.933 308.388 585.93 308.808 586.668 309.546C587.406 310.284 587.826 311.281 587.839 312.325V312.325Z"/><path fill="#4267B2" d="M401.079 319.115H578.579V467.365L401.079 471.365V319.115Z"/><path fill="#000" d="M867.079 533.615V546.615L715.159 548.015L713.539 548.045L655.799 548.575L654.419 548.595L636.869 548.745H636.349L529.369 549.735L353.759 551.365H353.609L308.959 551.785L308.479 551.795L110.079 553.615V538.615L312.589 537.285H313.069L354.059 537.005H354.249L637.329 535.135H637.619L637.789 535.125H638.259L643.049 535.095H644.509L718.999 534.595L723.399 534.575L724.379 534.565L867.079 533.615Z" opacity=".1"/><path fill="#FBBEBE" d="M491.249 349.445C519.598 349.445 542.579 326.464 542.579 298.115C542.579 269.766 519.598 246.785 491.249 246.785C462.9 246.785 439.919 269.766 439.919 298.115C439.919 326.464 462.9 349.445 491.249 349.445Z"/><path fill="#FBBEBE" d="M542.589 377.125C542.589 377.125 443.089 389.125 452.589 377.125C456.029 372.785 456.979 359.925 456.789 345.275C456.729 340.825 456.569 336.215 456.339 331.625C455.239 309.625 452.589 288.125 452.589 288.125C452.589 288.125 539.589 247.125 529.589 279.625C525.589 292.755 526.899 311.195 529.939 328.505C530.829 333.555 531.859 338.505 532.939 343.205C535.575 354.669 538.796 365.99 542.589 377.125V377.125Z"/><path fill="#FF6584" d="M510.119 373.055C521.629 370.925 533.819 367.055 544.649 371.515C547.499 372.685 550.119 374.395 553.039 375.375C555.959 376.355 559.159 376.595 562.199 377.285C572.879 379.705 581.539 387.835 587.099 397.285C592.659 406.735 595.539 417.425 598.359 428.005L605.259 453.835C611.259 476.285 617.259 498.925 618.649 522.135C535.116 526.917 451.391 527.394 367.809 523.565C373.249 513.225 378.809 502.255 378.349 490.565C377.889 478.875 371.159 467.345 373.589 455.825C375.139 448.485 380.159 442.435 383.229 435.605C391.979 416.085 385.169 389.815 400.549 374.955C407.469 368.275 417.549 365.745 427.179 366.065C439.459 366.475 452.029 370.305 464.179 372.175C479.739 374.535 494.439 375.935 510.119 373.055Z"/><path fill="#000" d="M641.019 484.225L640.919 485.655V485.755L640.749 488.055L639.419 506.565L637.809 528.865L637.349 535.145L636.349 548.585V548.755L529.349 549.755L353.759 551.655V552.495H353.619V551.375L354.069 537.015L354.929 508.955L355.669 485.165L355.739 482.795C355.783 481.365 356.118 479.958 356.723 478.661C357.329 477.365 358.192 476.205 359.261 475.253C360.33 474.301 361.581 473.577 362.939 473.126C364.297 472.674 365.733 472.503 367.159 472.625C371.879 473.025 378.009 473.515 385.339 474.035L388.339 474.255C430.669 477.195 508.899 480.995 587.839 476.255C589.499 476.165 591.169 476.065 592.839 475.945C605.079 475.175 617.309 474.185 629.419 472.945C630.95 472.785 632.497 472.962 633.952 473.464C635.407 473.966 636.735 474.782 637.84 475.852C638.946 476.923 639.804 478.223 640.353 479.661C640.902 481.099 641.13 482.64 641.019 484.175V484.225Z" opacity=".1"/><path fill="#3F3D56" d="M353.729 552.495V551.655L529.349 549.745L636.349 548.745H636.649V548.575L637.649 535.135L638.079 529.135L639.719 506.525L641.009 488.625V488.185C641.069 487.36 641.032 486.531 640.899 485.715C640.905 485.682 640.905 485.648 640.899 485.615C640.624 483.927 639.937 482.334 638.899 480.975C637.798 479.563 636.355 478.455 634.707 477.755C633.059 477.055 631.26 476.787 629.479 476.975C617.369 478.215 605.139 479.205 592.899 479.975C591.229 480.095 589.559 480.195 587.899 480.285C508.959 484.975 430.729 481.175 388.399 478.285L385.399 478.065C378.069 477.545 371.939 477.065 367.219 476.655C364.622 476.436 362.037 477.186 359.961 478.762C357.885 480.337 356.467 482.625 355.979 485.185C355.878 485.726 355.818 486.275 355.799 486.825L355.119 508.985L354.189 537.055L353.749 551.415V552.535L353.729 552.495Z"/><path fill="#000" d="M641.319 491.235L640.089 506.565L638.259 529.415L637.799 535.135L636.799 547.945L636.739 548.585V548.755L636.589 550.235L636.699 548.755H636.409L529.409 549.755L353.759 551.655V551.375L354.249 537.015L355.249 508.955L355.889 490.305C355.921 489.244 356.217 488.208 356.751 487.291C357.286 486.374 358.041 485.605 358.949 485.055C360.081 484.361 361.405 484.046 362.729 484.155C364.829 484.325 367.409 484.525 370.419 484.745C375.309 485.105 381.339 485.525 388.359 485.965C401.359 486.785 417.669 487.665 436.359 488.385C488.359 490.385 558.559 491.055 625.239 485.215C628.239 484.955 631.339 484.665 634.369 484.375C635.568 484.255 636.777 484.485 637.849 485.035C638.153 485.186 638.441 485.367 638.709 485.575C639.58 486.206 640.269 487.054 640.709 488.035C640.811 488.23 640.895 488.434 640.959 488.645C641.259 489.474 641.382 490.356 641.319 491.235V491.235Z" opacity=".1"/><path fill="#000" d="M302.089 504.925V508.115C302.09 509.275 301.761 510.411 301.141 511.392C300.522 512.373 299.637 513.157 298.589 513.655L258.489 514.425C257.423 513.936 256.519 513.151 255.887 512.164C255.254 511.177 254.918 510.028 254.919 508.855V505.855L302.089 504.925Z" opacity=".1"/><path fill="#3F3D56" d="M302.579 515.535L250.329 516.535V507.865L302.579 506.865V515.535Z"/><path fill="#000" d="M302.579 515.535L250.329 516.535V507.865L302.579 506.865V515.535Z" opacity=".1"/><path fill="#3F3D56" d="M304.579 515.535L252.329 516.535V507.865L304.579 506.865V515.535Z"/><path fill="#000" d="M683.209 506.925V510.115C683.208 511.275 683.537 512.411 684.157 513.392C684.776 514.373 685.661 515.157 686.709 515.655L726.809 516.425C727.875 515.936 728.779 515.151 729.411 514.164C730.044 513.177 730.38 512.028 730.379 510.855V507.855L683.209 506.925Z" opacity=".1"/><path fill="#000" d="M682.709 517.535L734.959 518.535V509.865L682.709 508.865V517.535Z" opacity=".1"/><path fill="#3F3D56" d="M680.709 517.535L732.959 518.535V509.865L680.709 508.865V517.535Z"/><path fill="#3F3D56" d="M458.779 313.845C458.859 320.845 455.619 327.445 452.869 333.915C442.856 357.483 438.52 383.074 440.209 408.625C440.939 419.625 442.789 430.625 440.939 441.525C439.089 452.425 432.509 463.295 421.939 466.425C439.469 476.875 463.199 475.775 479.699 463.765C488.489 457.365 495.039 448.435 501.449 439.655C500.688 455.427 496.121 470.781 488.139 484.405C502.567 483.128 516.566 478.834 529.229 471.802C541.892 464.77 552.937 455.157 561.649 443.585C565.959 437.775 569.709 431.395 571.369 424.355C574.459 411.355 570.149 397.845 566.859 384.855C564.11 373.996 562.049 362.974 560.689 351.855C560.259 348.295 559.909 344.635 560.789 341.155C561.789 337.085 564.459 333.645 566.429 329.935C572.029 319.395 572.159 306.635 569.289 295.055C566.419 283.475 560.799 272.795 555.229 262.245C550.769 253.785 545.929 244.935 537.769 239.965C532.669 236.865 526.769 235.575 520.889 234.325L495.519 228.895C489.969 227.705 484.259 226.515 478.649 227.385C469.179 228.865 462.509 235.705 456.649 242.725C452.059 248.185 440.839 258.435 440.049 265.585C439.329 272.175 445.149 283.215 446.139 290.165C447.439 299.165 448.359 296.165 453.439 301.685C456.649 305.105 458.719 309.055 458.779 313.845Z"/><path fill="#fff" fill-rule="evenodd" d="M284.139 370.832H327.774V388.494H284.139V370.832Z" clip-rule="evenodd"/><path fill="#3ECC5F" fill-rule="evenodd" d="M244.66 428.493C242.837 428.493 241.047 428.013 239.469 427.101C237.891 426.189 236.581 424.877 235.671 423.298C234.756 424.876 234.272 426.668 234.27 428.492C234.268 430.316 234.746 432.109 235.658 433.69C236.569 435.27 237.881 436.582 239.462 437.494C241.042 438.405 242.835 438.884 244.659 438.882H255.05V428.493H244.66Z" clip-rule="evenodd"/><path fill="#3ECC5F" fill-rule="evenodd" d="M291.402 373.625L327.775 371.352V366.157C327.775 364.793 327.506 363.442 326.984 362.181C326.462 360.921 325.697 359.775 324.732 358.811C323.767 357.846 322.622 357.081 321.361 356.559C320.1 356.036 318.749 355.768 317.385 355.768H270.635L269.335 353.519C269.203 353.291 269.014 353.101 268.786 352.969C268.558 352.837 268.299 352.767 268.035 352.767C267.771 352.767 267.512 352.837 267.284 352.969C267.056 353.101 266.866 353.291 266.735 353.519L265.435 355.768L264.135 353.519C264.003 353.291 263.814 353.101 263.586 352.969C263.358 352.837 263.099 352.767 262.835 352.767C262.571 352.767 262.312 352.837 262.084 352.969C261.856 353.101 261.666 353.291 261.535 353.519L260.235 355.768L258.935 353.519C258.803 353.291 258.614 353.101 258.386 352.969C258.158 352.837 257.899 352.767 257.635 352.767C257.371 352.767 257.112 352.837 256.884 352.969C256.656 353.101 256.466 353.291 256.335 353.519L255.035 355.768H255.001L252.849 353.617C252.663 353.431 252.431 353.298 252.177 353.23C251.923 353.162 251.655 353.162 251.401 353.23C251.147 353.298 250.915 353.432 250.729 353.618C250.543 353.803 250.409 354.035 250.341 354.289L249.645 356.942L246.945 356.219C246.691 356.151 246.423 356.151 246.169 356.22C245.915 356.288 245.683 356.422 245.497 356.608C245.311 356.794 245.177 357.026 245.109 357.28C245.041 357.534 245.041 357.802 245.109 358.056L245.831 360.756L243.181 361.466C242.927 361.534 242.695 361.668 242.509 361.854C242.323 362.04 242.189 362.272 242.12 362.526C242.052 362.781 242.052 363.048 242.12 363.303C242.188 363.557 242.322 363.789 242.508 363.975L244.66 366.127C244.66 366.138 244.66 366.149 244.66 366.16L242.411 367.46C242.182 367.592 241.993 367.781 241.861 368.009C241.729 368.237 241.659 368.496 241.659 368.76C241.659 369.024 241.729 369.283 241.861 369.511C241.993 369.739 242.182 369.928 242.411 370.06L244.66 371.36L242.411 372.66C242.182 372.792 241.993 372.981 241.861 373.209C241.729 373.437 241.659 373.696 241.659 373.96C241.659 374.224 241.729 374.483 241.861 374.711C241.993 374.939 242.182 375.128 242.411 375.26L244.661 376.542L242.412 377.842C242.183 377.974 241.994 378.163 241.862 378.391C241.73 378.619 241.66 378.878 241.66 379.142C241.66 379.406 241.73 379.665 241.862 379.893C241.994 380.121 242.183 380.31 242.412 380.442L244.661 381.742L242.412 383.042C242.183 383.174 241.994 383.363 241.862 383.591C241.73 383.819 241.66 384.078 241.66 384.342C241.66 384.606 241.73 384.865 241.862 385.093C241.994 385.321 242.183 385.51 242.412 385.642L244.661 386.942L242.412 388.242C242.183 388.374 241.994 388.563 241.862 388.791C241.73 389.019 241.66 389.278 241.66 389.542C241.66 389.806 241.73 390.065 241.862 390.293C241.994 390.521 242.183 390.71 242.412 390.842L244.661 392.142L242.412 393.442C242.183 393.574 241.994 393.763 241.862 393.991C241.73 394.219 241.66 394.478 241.66 394.742C241.66 395.006 241.73 395.265 241.862 395.493C241.994 395.721 242.183 395.91 242.412 396.042L244.661 397.342L242.412 398.642C242.183 398.774 241.994 398.963 241.862 399.191C241.73 399.419 241.66 399.678 241.66 399.942C241.66 400.206 241.73 400.465 241.862 400.693C241.994 400.921 242.183 401.11 242.412 401.242L244.661 402.542L242.412 403.842C242.183 403.974 241.994 404.163 241.862 404.391C241.73 404.619 241.66 404.878 241.66 405.142C241.66 405.406 241.73 405.665 241.862 405.893C241.994 406.121 242.183 406.31 242.412 406.442L244.661 407.742L242.412 409.042C242.183 409.174 241.994 409.363 241.862 409.591C241.73 409.819 241.66 410.078 241.66 410.342C241.66 410.606 241.73 410.865 241.862 411.093C241.994 411.321 242.183 411.51 242.412 411.642L244.661 412.942L242.412 414.242C242.183 414.374 241.994 414.563 241.862 414.791C241.73 415.019 241.66 415.278 241.66 415.542C241.66 415.806 241.73 416.065 241.862 416.293C241.994 416.521 242.183 416.71 242.412 416.842L244.661 418.142L242.412 419.442C242.183 419.574 241.994 419.763 241.862 419.991C241.73 420.219 241.66 420.478 241.66 420.742C241.66 421.006 241.73 421.265 241.862 421.493C241.994 421.721 242.183 421.91 242.412 422.042L244.661 423.342L242.412 424.642C242.183 424.774 241.994 424.963 241.862 425.191C241.73 425.419 241.66 425.678 241.66 425.942C241.66 426.206 241.73 426.465 241.862 426.693C241.994 426.921 242.183 427.11 242.412 427.242L244.661 428.542C244.674 431.289 245.774 433.919 247.721 435.856C249.668 437.794 252.303 438.882 255.05 438.882H317.385C318.749 438.882 320.101 438.613 321.361 438.091C322.622 437.569 323.767 436.804 324.732 435.839C325.697 434.874 326.462 433.729 326.984 432.468C327.506 431.208 327.775 429.856 327.775 428.492V386.935L291.402 384.662C289.998 384.573 288.681 383.953 287.719 382.928C286.756 381.903 286.221 380.549 286.221 379.143C286.221 377.737 286.756 376.383 287.719 375.358C288.681 374.333 289.998 373.713 291.402 373.624" clip-rule="evenodd"/><path fill="#3ECC5F" fill-rule="evenodd" d="M306.996 438.882H322.58V418.103H306.996V438.882Z" clip-rule="evenodd"/><path fill="#44D860" fill-rule="evenodd" d="M332.97 425.895C332.859 425.899 332.748 425.91 332.638 425.928C332.618 425.85 332.6 425.772 332.578 425.694C332.92 425.554 333.229 425.342 333.482 425.073C333.736 424.804 333.929 424.483 334.049 424.133C334.168 423.783 334.212 423.412 334.176 423.044C334.141 422.675 334.027 422.319 333.842 421.999C333.657 421.678 333.406 421.401 333.106 421.185C332.805 420.97 332.462 420.821 332.099 420.749C331.736 420.677 331.362 420.684 331.002 420.768C330.642 420.853 330.304 421.013 330.011 421.239C329.954 421.18 329.896 421.122 329.837 421.064C330.057 420.77 330.213 420.433 330.293 420.075C330.374 419.717 330.377 419.346 330.303 418.987C330.23 418.627 330.08 418.287 329.866 417.99C329.651 417.692 329.375 417.444 329.057 417.26C328.739 417.077 328.386 416.964 328.021 416.927C327.655 416.891 327.287 416.932 326.939 417.049C326.591 417.166 326.271 417.355 326.002 417.604C325.733 417.853 325.519 418.157 325.376 418.495C325.299 418.473 325.222 418.455 325.145 418.435C325.208 418.062 325.188 417.68 325.088 417.316C324.988 416.952 324.81 416.613 324.566 416.325C324.322 416.036 324.018 415.804 323.675 415.645C323.332 415.486 322.959 415.404 322.581 415.404C322.203 415.404 321.83 415.486 321.487 415.645C321.144 415.804 320.84 416.036 320.596 416.325C320.352 416.613 320.174 416.952 320.074 417.316C319.974 417.68 319.954 418.062 320.017 418.435C319.94 418.455 319.863 418.473 319.786 418.495C319.643 418.156 319.43 417.851 319.161 417.601C318.892 417.35 318.572 417.16 318.223 417.042C317.875 416.925 317.505 416.883 317.139 416.919C316.773 416.955 316.419 417.069 316.1 417.252C315.781 417.436 315.505 417.685 315.29 417.984C315.075 418.282 314.926 418.623 314.853 418.983C314.779 419.344 314.784 419.716 314.865 420.074C314.946 420.433 315.103 420.77 315.325 421.064C314.177 422.184 313.303 423.554 312.774 425.068C312.244 426.582 312.072 428.198 312.272 429.79C312.471 431.381 313.037 432.905 313.924 434.241C314.811 435.577 315.995 436.69 317.385 437.492C318.774 438.294 320.33 438.763 321.931 438.862C323.532 438.962 325.134 438.689 326.611 438.065C328.089 437.442 329.403 436.485 330.448 435.268C331.494 434.052 332.244 432.61 332.639 431.056C332.991 431.103 333.35 431.077 333.691 430.98C334.033 430.883 334.352 430.717 334.627 430.492C334.901 430.266 335.127 429.987 335.289 429.671C335.452 429.354 335.547 429.008 335.57 428.653C335.593 428.299 335.542 427.943 335.422 427.609C335.302 427.274 335.114 426.968 334.87 426.709C334.626 426.451 334.332 426.245 334.005 426.105C333.678 425.965 333.326 425.893 332.971 425.895" clip-rule="evenodd"/><path fill="#3ECC5F" fill-rule="evenodd" d="M312.191 407.713H327.775V397.324H312.191V407.713Z" clip-rule="evenodd"/><path fill="#44D860" fill-rule="evenodd" d="M332.969 403.818C333.314 403.818 333.644 403.681 333.888 403.437C334.132 403.193 334.269 402.863 334.269 402.518C334.269 402.173 334.132 401.843 333.888 401.599C333.644 401.355 333.314 401.218 332.969 401.218C332.913 401.22 332.858 401.226 332.803 401.235C332.793 401.196 332.784 401.157 332.773 401.118C333.05 401.002 333.279 400.794 333.42 400.529C333.562 400.264 333.607 399.958 333.548 399.663C333.489 399.368 333.33 399.103 333.097 398.913C332.865 398.722 332.573 398.618 332.273 398.618C331.989 398.619 331.714 398.713 331.49 398.887C331.461 398.858 331.432 398.829 331.403 398.8C331.573 398.577 331.665 398.304 331.666 398.024C331.664 397.726 331.56 397.437 331.371 397.206C331.181 396.976 330.918 396.817 330.626 396.758C330.334 396.698 330.03 396.741 329.765 396.879C329.501 397.017 329.291 397.241 329.173 397.515C328.401 397.297 327.588 397.261 326.799 397.41C326.011 397.559 325.267 397.889 324.627 398.373C323.988 398.857 323.469 399.483 323.111 400.202C322.754 400.921 322.568 401.712 322.568 402.515C322.568 403.318 322.754 404.109 323.111 404.828C323.469 405.547 323.988 406.173 324.627 406.657C325.267 407.141 326.011 407.471 326.799 407.62C327.588 407.769 328.401 407.733 329.173 407.515C329.291 407.789 329.501 408.014 329.765 408.151C330.03 408.289 330.334 408.332 330.626 408.272C330.918 408.213 331.181 408.054 331.371 407.824C331.56 407.593 331.664 407.304 331.666 407.006C331.665 406.726 331.573 406.453 331.403 406.23C331.432 406.201 331.461 406.172 331.49 406.143C331.714 406.317 331.989 406.411 332.273 406.412C332.573 406.412 332.865 406.308 333.097 406.117C333.33 405.927 333.489 405.662 333.548 405.367C333.607 405.072 333.562 404.766 333.42 404.501C333.279 404.236 333.05 404.028 332.773 403.912C332.784 403.874 332.793 403.834 332.803 403.795C332.858 403.804 332.913 403.81 332.969 403.812" clip-rule="evenodd"/><path fill="#000" fill-rule="evenodd" d="M265.439 372.65C265.094 372.65 264.764 372.513 264.52 372.269C264.276 372.025 264.139 371.695 264.139 371.35C264.094 370.347 263.663 369.401 262.938 368.707C262.212 368.014 261.247 367.627 260.243 367.627C259.239 367.627 258.274 368.014 257.548 368.707C256.823 369.401 256.392 370.347 256.347 371.35C256.347 371.521 256.313 371.69 256.248 371.847C256.183 372.005 256.087 372.148 255.966 372.269C255.846 372.39 255.702 372.486 255.544 372.551C255.387 372.616 255.218 372.65 255.047 372.65C254.876 372.65 254.707 372.616 254.55 372.551C254.392 372.486 254.248 372.39 254.128 372.269C254.007 372.148 253.911 372.005 253.846 371.847C253.781 371.69 253.747 371.521 253.747 371.35C253.747 369.628 254.431 367.976 255.649 366.758C256.867 365.541 258.518 364.856 260.241 364.856C261.963 364.856 263.614 365.541 264.832 366.758C266.05 367.976 266.734 369.628 266.734 371.35C266.734 371.695 266.597 372.025 266.353 372.269C266.109 372.513 265.779 372.65 265.434 372.65" clip-rule="evenodd"/><path fill="#FFFF50" fill-rule="evenodd" d="M286.217 438.882H317.385C318.749 438.882 320.1 438.613 321.361 438.091C322.621 437.569 323.766 436.804 324.731 435.839C325.696 434.874 326.461 433.729 326.983 432.469C327.505 431.208 327.774 429.857 327.774 428.493V392.13H296.606C293.851 392.13 291.208 393.224 289.26 395.173C287.312 397.121 286.217 399.764 286.217 402.519V438.882Z" clip-rule="evenodd"/><path fill="#000" fill-rule="evenodd" d="M319.993 408.233H293.999C293.861 408.233 293.729 408.178 293.632 408.081C293.534 407.983 293.479 407.851 293.479 407.713C293.479 407.576 293.534 407.444 293.632 407.346C293.729 407.249 293.861 407.194 293.999 407.194H319.993C320.131 407.194 320.263 407.249 320.36 407.346C320.458 407.444 320.512 407.576 320.512 407.713C320.512 407.851 320.458 407.983 320.36 408.081C320.263 408.178 320.131 408.233 319.993 408.233V408.233ZM319.993 418.622H293.999C293.861 418.622 293.729 418.567 293.632 418.47C293.534 418.372 293.479 418.24 293.479 418.102C293.479 417.965 293.534 417.833 293.632 417.735C293.729 417.638 293.861 417.583 293.999 417.583H319.993C320.131 417.583 320.263 417.638 320.36 417.735C320.458 417.833 320.512 417.965 320.512 418.102C320.512 418.24 320.458 418.372 320.36 418.47C320.263 418.567 320.131 418.622 319.993 418.622V418.622ZM319.993 429.011H293.999C293.861 429.011 293.729 428.956 293.632 428.859C293.534 428.761 293.479 428.629 293.479 428.491C293.479 428.354 293.534 428.222 293.632 428.124C293.729 428.027 293.861 427.972 293.999 427.972H319.993C320.131 427.972 320.263 428.027 320.36 428.124C320.458 428.222 320.512 428.354 320.512 428.491C320.512 428.629 320.458 428.761 320.36 428.859C320.263 428.956 320.131 429.011 319.993 429.011V429.011ZM319.993 403.134H293.999C293.861 403.134 293.729 403.079 293.632 402.982C293.534 402.884 293.479 402.752 293.479 402.614C293.479 402.477 293.534 402.345 293.632 402.247C293.729 402.15 293.861 402.095 293.999 402.095H319.993C320.131 402.095 320.263 402.15 320.36 402.247C320.458 402.345 320.512 402.477 320.512 402.614C320.512 402.752 320.458 402.884 320.36 402.982C320.263 403.079 320.131 403.134 319.993 403.134V403.134ZM319.993 413.427H293.999C293.861 413.427 293.729 413.372 293.632 413.275C293.534 413.177 293.479 413.045 293.479 412.907C293.479 412.77 293.534 412.638 293.632 412.54C293.729 412.443 293.861 412.388 293.999 412.388H319.993C320.131 412.388 320.263 412.443 320.36 412.54C320.458 412.638 320.512 412.77 320.512 412.907C320.512 413.045 320.458 413.177 320.36 413.275C320.263 413.372 320.131 413.427 319.993 413.427V413.427ZM319.993 423.816H293.999C293.861 423.816 293.729 423.761 293.632 423.664C293.534 423.566 293.479 423.434 293.479 423.296C293.479 423.159 293.534 423.027 293.632 422.929C293.729 422.832 293.861 422.777 293.999 422.777H319.993C320.131 422.777 320.263 422.832 320.36 422.929C320.458 423.027 320.512 423.159 320.512 423.296C320.512 423.434 320.458 423.566 320.36 423.664C320.263 423.761 320.131 423.816 319.993 423.816V423.816ZM327.775 375.823C327.769 375.823 327.764 375.823 327.757 375.823C326.152 375.878 325.392 377.483 324.722 378.9C324.022 380.38 323.482 381.343 322.596 381.314C321.615 381.279 321.054 380.17 320.459 378.997C319.776 377.65 318.997 376.121 317.359 376.178C315.777 376.232 315.015 377.629 314.342 378.862C313.627 380.175 313.142 380.974 312.201 380.937C311.201 380.901 310.668 379.999 310.052 378.956C309.366 377.794 308.573 376.489 306.968 376.533C305.413 376.586 304.649 377.772 303.974 378.819C303.261 379.925 302.761 380.6 301.81 380.56C300.785 380.524 300.256 379.776 299.643 378.91C298.955 377.937 298.18 376.836 296.581 376.889C295.973 376.943 295.388 377.142 294.873 377.469C294.358 377.795 293.929 378.241 293.622 378.768C292.982 379.58 292.482 380.224 291.422 380.183C291.286 380.182 291.156 380.233 291.058 380.327C290.96 380.421 290.902 380.549 290.897 380.684C290.892 380.82 290.941 380.952 291.032 381.052C291.123 381.153 291.25 381.214 291.385 381.222C292.007 381.21 292.615 381.037 293.149 380.72C293.684 380.402 294.127 379.951 294.435 379.411C295.046 378.634 295.574 377.963 296.613 377.928C297.613 377.885 298.083 378.507 298.792 379.51C299.466 380.463 300.23 381.543 301.769 381.599C303.381 381.653 304.156 380.448 304.843 379.382C305.457 378.429 305.987 377.607 306.999 377.572C307.93 377.537 308.437 378.272 309.152 379.484C309.826 380.625 310.589 381.918 312.158 381.975C313.781 382.031 314.565 380.614 315.248 379.359C315.84 378.274 316.398 377.25 317.388 377.216C318.319 377.194 318.805 378.045 319.523 379.465C320.194 380.791 320.955 382.293 322.549 382.351H322.637C324.229 382.351 324.984 380.751 325.652 379.341C326.244 378.089 326.804 376.91 327.765 376.862L327.775 375.823Z" clip-rule="evenodd"/><path fill="#3ECC5F" fill-rule="evenodd" d="M275.828 438.882H296.607V418.103H275.828V438.882Z" clip-rule="evenodd"/><path fill="#D8D8D8" d="M326.723 385.214L288.174 395.55C287.107 395.836 286.474 396.933 286.76 398L290.213 410.88C290.499 411.947 291.596 412.58 292.663 412.294L331.212 401.958C332.279 401.672 332.913 400.575 332.626 399.508L329.173 386.628C328.887 385.561 327.79 384.928 326.723 385.214Z"/><path fill="#4A4A4A" d="M298.979 403.989L298.46 404.128C297.927 404.271 297.61 404.82 297.753 405.353L297.892 405.872C298.035 406.405 298.584 406.722 299.117 406.579L299.636 406.44C300.169 406.297 300.486 405.748 300.343 405.215L300.204 404.696C300.061 404.163 299.512 403.846 298.979 403.989Z"/><path fill="#4A4A4A" d="M301.883 403.211L301.364 403.35C300.831 403.493 300.514 404.041 300.657 404.575L300.796 405.093C300.939 405.627 301.488 405.943 302.021 405.8L302.54 405.661C303.073 405.518 303.39 404.97 303.247 404.436L303.107 403.918C302.964 403.384 302.416 403.068 301.883 403.211Z"/><path fill="#4A4A4A" d="M304.786 402.432L304.268 402.571C303.734 402.714 303.418 403.263 303.561 403.796L303.7 404.315C303.843 404.848 304.391 405.165 304.925 405.022L305.443 404.882C305.977 404.739 306.293 404.191 306.15 403.658L306.011 403.139C305.868 402.606 305.32 402.289 304.786 402.432Z"/><path fill="#4A4A4A" d="M307.69 401.653L307.172 401.793C306.638 401.936 306.322 402.484 306.465 403.017L306.604 403.536C306.747 404.07 307.295 404.386 307.829 404.243L308.347 404.104C308.881 403.961 309.197 403.413 309.054 402.879L308.915 402.36C308.772 401.827 308.224 401.51 307.69 401.653Z"/><path fill="#4A4A4A" d="M310.594 400.875L310.075 401.014C309.542 401.157 309.225 401.705 309.368 402.239L309.507 402.758C309.65 403.291 310.199 403.607 310.732 403.464L311.251 403.325C311.784 403.182 312.101 402.634 311.958 402.101L311.819 401.582C311.676 401.048 311.127 400.732 310.594 400.875Z"/><path fill="#4A4A4A" d="M313.498 400.096L312.979 400.235C312.446 400.378 312.129 400.927 312.272 401.46L312.411 401.979C312.554 402.512 313.103 402.829 313.636 402.686L314.155 402.547C314.688 402.404 315.005 401.855 314.862 401.322L314.723 400.803C314.58 400.27 314.031 399.953 313.498 400.096Z"/><path fill="#4A4A4A" d="M316.402 399.318L315.883 399.457C315.349 399.6 315.033 400.148 315.176 400.682L315.315 401.2C315.458 401.734 316.006 402.05 316.54 401.907L317.059 401.768C317.592 401.625 317.909 401.077 317.766 400.543L317.626 400.025C317.483 399.491 316.935 399.175 316.402 399.318Z"/><path fill="#4A4A4A" d="M319.306 398.539L318.788 398.678C318.254 398.821 317.938 399.369 318.081 399.903L318.22 400.422C318.363 400.955 318.911 401.272 319.445 401.128L319.963 400.989C320.497 400.846 320.813 400.298 320.67 399.765L320.531 399.246C320.388 398.712 319.84 398.396 319.306 398.539Z"/><path fill="#4A4A4A" d="M322.21 397.76L321.691 397.899C321.158 398.043 320.842 398.591 320.985 399.124L321.124 399.643C321.267 400.176 321.815 400.493 322.348 400.35L322.867 400.211C323.401 400.068 323.717 399.519 323.574 398.986L323.435 398.467C323.292 397.934 322.744 397.617 322.21 397.76Z"/><path fill="#4A4A4A" fill-rule="evenodd" d="M290.282 406.321L296.446 404.668C296.512 404.65 296.581 404.646 296.649 404.654C296.717 404.663 296.782 404.685 296.842 404.719C296.901 404.753 296.953 404.799 296.994 404.853C297.036 404.908 297.067 404.969 297.084 405.036L297.473 406.485C297.508 406.618 297.49 406.759 297.421 406.878C297.352 406.998 297.239 407.085 297.106 407.12L290.94 408.774C290.874 408.791 290.805 408.796 290.737 408.787C290.669 408.778 290.604 408.755 290.545 408.721C290.485 408.687 290.434 408.641 290.392 408.586C290.351 408.532 290.321 408.47 290.303 408.404L289.915 406.957C289.88 406.824 289.898 406.682 289.967 406.563C290.036 406.444 290.149 406.357 290.282 406.321V406.321ZM324.222 397.221L330.388 395.568C330.521 395.532 330.662 395.551 330.781 395.62C330.901 395.689 330.988 395.802 331.023 395.935L331.412 397.384C331.429 397.45 331.434 397.518 331.425 397.586C331.416 397.654 331.394 397.719 331.36 397.778C331.326 397.837 331.281 397.889 331.227 397.93C331.172 397.972 331.111 398.002 331.045 398.02L324.878 399.673C324.745 399.709 324.603 399.69 324.484 399.621C324.365 399.553 324.278 399.439 324.242 399.306L323.854 397.857C323.818 397.724 323.837 397.583 323.905 397.463C323.974 397.344 324.088 397.257 324.221 397.221L324.222 397.221Z" clip-rule="evenodd"/><path fill="#4A4A4A" fill-rule="evenodd" d="M288.71 400.457L291.064 399.826C291.197 399.791 291.338 399.809 291.458 399.878C291.577 399.947 291.664 400.06 291.7 400.193L292.088 401.642C292.106 401.708 292.11 401.776 292.101 401.844C292.092 401.912 292.07 401.977 292.036 402.036C292.002 402.095 291.957 402.147 291.903 402.188C291.849 402.23 291.787 402.26 291.721 402.278L289.367 402.909C289.301 402.927 289.232 402.931 289.165 402.922C289.097 402.913 289.032 402.891 288.973 402.857C288.913 402.822 288.862 402.777 288.82 402.722C288.779 402.668 288.748 402.606 288.731 402.54L288.343 401.093C288.307 400.96 288.326 400.818 288.395 400.699C288.464 400.58 288.577 400.493 288.71 400.457V400.457Z" clip-rule="evenodd"/><path fill="#4A4A4A" d="M293.504 399.172L292.985 399.311C292.452 399.454 292.135 400.003 292.279 400.536L292.418 401.055C292.561 401.588 293.109 401.905 293.642 401.762L294.161 401.622C294.695 401.479 295.011 400.931 294.868 400.398L294.729 399.879C294.586 399.346 294.038 399.029 293.504 399.172Z"/><path fill="#4A4A4A" d="M296.408 398.393L295.889 398.533C295.356 398.676 295.039 399.224 295.182 399.757L295.321 400.276C295.464 400.81 296.013 401.126 296.546 400.983L297.065 400.844C297.598 400.701 297.915 400.153 297.772 399.619L297.633 399.1C297.49 398.567 296.941 398.25 296.408 398.393Z"/><path fill="#4A4A4A" d="M299.313 397.615L298.794 397.754C298.261 397.897 297.944 398.445 298.087 398.979L298.226 399.497C298.369 400.031 298.918 400.347 299.451 400.204L299.97 400.065C300.503 399.922 300.82 399.374 300.677 398.84L300.538 398.322C300.395 397.788 299.846 397.472 299.313 397.615Z"/><path fill="#4A4A4A" d="M302.216 396.836L301.698 396.975C301.164 397.118 300.848 397.667 300.991 398.2L301.13 398.719C301.273 399.252 301.821 399.569 302.355 399.426L302.874 399.287C303.407 399.144 303.723 398.595 303.58 398.062L303.441 397.543C303.298 397.01 302.75 396.693 302.216 396.836Z"/><path fill="#4A4A4A" d="M305.12 396.058L304.602 396.197C304.068 396.34 303.752 396.888 303.895 397.421L304.034 397.94C304.177 398.474 304.725 398.79 305.259 398.647L305.777 398.508C306.311 398.365 306.627 397.817 306.484 397.283L306.345 396.764C306.202 396.231 305.654 395.915 305.12 396.058Z"/><path fill="#4A4A4A" d="M308.024 395.279L307.505 395.418C306.972 395.561 306.655 396.109 306.798 396.643L306.938 397.162C307.081 397.695 307.629 398.012 308.162 397.868L308.681 397.729C309.215 397.586 309.531 397.038 309.388 396.505L309.249 395.986C309.106 395.452 308.557 395.136 308.024 395.279Z"/><path fill="#4A4A4A" d="M310.928 394.5L310.409 394.639C309.876 394.782 309.559 395.331 309.702 395.864L309.841 396.383C309.984 396.916 310.533 397.233 311.066 397.09L311.585 396.951C312.118 396.808 312.435 396.259 312.292 395.726L312.153 395.207C312.01 394.674 311.461 394.357 310.928 394.5Z"/><path fill="#4A4A4A" d="M313.832 393.722L313.313 393.861C312.78 394.004 312.463 394.552 312.606 395.086L312.745 395.604C312.888 396.138 313.437 396.454 313.97 396.311L314.489 396.172C315.022 396.029 315.339 395.481 315.196 394.947L315.057 394.429C314.914 393.895 314.365 393.579 313.832 393.722Z"/><path fill="#4A4A4A" d="M316.735 392.943L316.217 393.082C315.683 393.225 315.367 393.774 315.51 394.307L315.649 394.826C315.792 395.359 316.34 395.676 316.874 395.533L317.392 395.394C317.926 395.251 318.242 394.702 318.099 394.169L317.96 393.65C317.817 393.117 317.269 392.8 316.735 392.943Z"/><path fill="#4A4A4A" d="M319.639 392.165L319.121 392.304C318.587 392.447 318.271 392.995 318.414 393.529L318.553 394.047C318.696 394.581 319.244 394.897 319.778 394.754L320.296 394.615C320.83 394.472 321.146 393.924 321.003 393.39L320.864 392.872C320.721 392.338 320.173 392.022 319.639 392.165Z"/><path fill="#4A4A4A" d="M322.543 391.386L322.024 391.525C321.491 391.668 321.174 392.217 321.317 392.75L321.457 393.269C321.6 393.802 322.148 394.119 322.681 393.976L323.2 393.837C323.733 393.694 324.05 393.145 323.907 392.612L323.768 392.093C323.625 391.56 323.076 391.243 322.543 391.386Z"/><path fill="#4A4A4A" d="M325.447 390.608L324.928 390.747C324.395 390.89 324.078 391.438 324.221 391.972L324.36 392.49C324.503 393.024 325.052 393.34 325.585 393.197L326.104 393.058C326.637 392.915 326.954 392.367 326.811 391.833L326.672 391.314C326.529 390.781 325.98 390.465 325.447 390.608Z"/><path fill="#4A4A4A" d="M328.351 389.829L327.832 389.968C327.299 390.111 326.982 390.659 327.125 391.193L327.264 391.712C327.407 392.245 327.956 392.562 328.489 392.419L329.008 392.279C329.541 392.136 329.858 391.588 329.715 391.055L329.576 390.536C329.432 390.002 328.884 389.686 328.351 389.829Z"/><path fill="#4A4A4A" fill-rule="evenodd" d="M328.727 389.376L326.374 390.007C326.241 390.043 326.099 390.024 325.98 389.955C325.86 389.886 325.773 389.773 325.738 389.64L325.349 388.191C325.332 388.125 325.327 388.057 325.336 387.989C325.345 387.922 325.367 387.856 325.401 387.797C325.435 387.738 325.481 387.687 325.535 387.645C325.589 387.604 325.65 387.573 325.716 387.556L328.07 386.924C328.136 386.907 328.205 386.902 328.273 386.911C328.34 386.92 328.406 386.942 328.465 386.977C328.524 387.011 328.576 387.057 328.617 387.111C328.659 387.165 328.689 387.227 328.706 387.293L329.094 388.74C329.13 388.873 329.111 389.015 329.043 389.134C328.974 389.253 328.86 389.34 328.727 389.376V389.376Z" clip-rule="evenodd"/><path fill="#4A4A4A" d="M323.933 390.661L324.452 390.522C324.985 390.379 325.302 389.831 325.159 389.297L325.02 388.779C324.877 388.245 324.328 387.929 323.795 388.072L323.276 388.211C322.743 388.354 322.426 388.902 322.569 389.436L322.708 389.954C322.851 390.488 323.4 390.804 323.933 390.661Z"/><path fill="#4A4A4A" d="M321.029 391.44L321.548 391.301C322.082 391.158 322.398 390.609 322.255 390.076L322.116 389.557C321.973 389.024 321.425 388.707 320.891 388.85L320.372 388.989C319.839 389.132 319.523 389.681 319.666 390.214L319.805 390.733C319.948 391.266 320.496 391.583 321.029 391.44Z"/><path fill="#4A4A4A" d="M318.125 392.219L318.643 392.08C319.177 391.937 319.493 391.388 319.35 390.855L319.211 390.336C319.068 389.803 318.52 389.486 317.986 389.629L317.468 389.768C316.934 389.911 316.618 390.46 316.761 390.993L316.9 391.512C317.043 392.045 317.591 392.362 318.125 392.219Z"/><path fill="#4A4A4A" d="M315.221 392.997L315.74 392.858C316.273 392.715 316.589 392.167 316.446 391.633L316.307 391.115C316.164 390.581 315.616 390.265 315.083 390.408L314.564 390.547C314.03 390.69 313.714 391.238 313.857 391.772L313.996 392.29C314.139 392.824 314.687 393.14 315.221 392.997Z"/><path fill="#4A4A4A" d="M312.317 393.776L312.836 393.637C313.369 393.494 313.686 392.945 313.543 392.412L313.404 391.893C313.261 391.36 312.712 391.043 312.179 391.186L311.66 391.325C311.127 391.468 310.81 392.017 310.953 392.55L311.092 393.069C311.235 393.602 311.784 393.919 312.317 393.776Z"/><path fill="#4A4A4A" d="M309.413 394.554L309.932 394.415C310.465 394.272 310.782 393.724 310.639 393.19L310.5 392.672C310.357 392.138 309.808 391.822 309.275 391.965L308.756 392.104C308.223 392.247 307.906 392.795 308.049 393.329L308.188 393.847C308.331 394.381 308.88 394.697 309.413 394.554Z"/><path fill="#4A4A4A" d="M306.51 395.333L307.028 395.194C307.562 395.051 307.878 394.502 307.735 393.969L307.596 393.45C307.453 392.917 306.905 392.6 306.371 392.743L305.853 392.882C305.319 393.025 305.003 393.574 305.146 394.107L305.285 394.626C305.428 395.159 305.976 395.476 306.51 395.333Z"/><path fill="#4A4A4A" d="M303.606 396.111L304.124 395.972C304.658 395.829 304.974 395.281 304.831 394.747L304.692 394.229C304.549 393.695 304.001 393.379 303.467 393.522L302.949 393.661C302.415 393.804 302.099 394.352 302.242 394.886L302.381 395.404C302.524 395.938 303.072 396.254 303.606 396.111Z"/><path fill="#4A4A4A" d="M300.702 396.89L301.221 396.751C301.754 396.608 302.071 396.06 301.927 395.526L301.788 395.007C301.645 394.474 301.097 394.157 300.564 394.3L300.045 394.44C299.511 394.583 299.195 395.131 299.338 395.664L299.477 396.183C299.62 396.717 300.168 397.033 300.702 396.89Z"/><path fill="#4A4A4A" d="M297.797 397.669L298.316 397.53C298.849 397.387 299.166 396.838 299.023 396.305L298.884 395.786C298.741 395.253 298.192 394.936 297.659 395.079L297.14 395.218C296.607 395.361 296.29 395.91 296.433 396.443L296.572 396.962C296.715 397.495 297.264 397.812 297.797 397.669Z"/><path fill="#4A4A4A" d="M294.893 398.447L295.412 398.308C295.945 398.165 296.262 397.617 296.119 397.083L295.98 396.565C295.837 396.031 295.288 395.715 294.755 395.858L294.236 395.997C293.703 396.14 293.386 396.688 293.529 397.222L293.669 397.74C293.812 398.274 294.36 398.59 294.893 398.447Z"/><path fill="#4A4A4A" d="M291.99 399.226L292.508 399.087C293.042 398.944 293.358 398.395 293.215 397.862L293.076 397.343C292.933 396.81 292.385 396.493 291.851 396.636L291.333 396.775C290.799 396.918 290.483 397.467 290.626 398L290.765 398.519C290.908 399.052 291.456 399.369 291.99 399.226Z"/><path fill="#4A4A4A" d="M289.087 400.004L289.605 399.865C290.139 399.722 290.455 399.174 290.312 398.64L290.173 398.122C290.03 397.588 289.482 397.272 288.948 397.415L288.43 397.554C287.896 397.697 287.58 398.245 287.723 398.779L287.862 399.297C288.005 399.831 288.553 400.147 289.087 400.004Z"/><path fill="#4A4A4A" d="M323.933 390.661L324.452 390.522C324.985 390.379 325.302 389.831 325.159 389.297L325.02 388.779C324.877 388.245 324.328 387.929 323.795 388.072L323.276 388.211C322.743 388.354 322.426 388.902 322.569 389.436L322.708 389.954C322.851 390.488 323.4 390.804 323.933 390.661Z"/><path fill="#4A4A4A" d="M321.029 391.44L321.548 391.301C322.082 391.158 322.398 390.609 322.255 390.076L322.116 389.557C321.973 389.024 321.425 388.707 320.891 388.85L320.372 388.989C319.839 389.132 319.523 389.681 319.666 390.214L319.805 390.733C319.948 391.266 320.496 391.583 321.029 391.44Z"/><path fill="#4A4A4A" d="M318.125 392.219L318.643 392.08C319.177 391.937 319.493 391.388 319.35 390.855L319.211 390.336C319.068 389.803 318.52 389.486 317.986 389.629L317.468 389.768C316.934 389.911 316.618 390.46 316.761 390.993L316.9 391.512C317.043 392.045 317.591 392.362 318.125 392.219Z"/><path fill="#4A4A4A" d="M315.221 392.997L315.74 392.858C316.273 392.715 316.589 392.167 316.446 391.633L316.307 391.115C316.164 390.581 315.616 390.265 315.083 390.408L314.564 390.547C314.03 390.69 313.714 391.238 313.857 391.772L313.996 392.29C314.139 392.824 314.687 393.14 315.221 392.997Z"/><path fill="#4A4A4A" d="M312.317 393.776L312.836 393.637C313.369 393.494 313.686 392.945 313.543 392.412L313.404 391.893C313.261 391.36 312.712 391.043 312.179 391.186L311.66 391.325C311.127 391.468 310.81 392.017 310.953 392.55L311.092 393.069C311.235 393.602 311.784 393.919 312.317 393.776Z"/><path fill="#4A4A4A" d="M309.413 394.554L309.932 394.415C310.465 394.272 310.782 393.724 310.639 393.19L310.5 392.672C310.357 392.138 309.808 391.822 309.275 391.965L308.756 392.104C308.223 392.247 307.906 392.795 308.049 393.329L308.188 393.847C308.331 394.381 308.88 394.697 309.413 394.554Z"/><path fill="#4A4A4A" d="M306.51 395.333L307.028 395.194C307.562 395.051 307.878 394.502 307.735 393.969L307.596 393.45C307.453 392.917 306.905 392.6 306.371 392.743L305.853 392.882C305.319 393.025 305.003 393.574 305.146 394.107L305.285 394.626C305.428 395.159 305.976 395.476 306.51 395.333Z"/><path fill="#4A4A4A" d="M303.606 396.111L304.124 395.972C304.658 395.829 304.974 395.281 304.831 394.747L304.692 394.229C304.549 393.695 304.001 393.379 303.467 393.522L302.949 393.661C302.415 393.804 302.099 394.352 302.242 394.886L302.381 395.404C302.524 395.938 303.072 396.254 303.606 396.111Z"/><path fill="#4A4A4A" d="M300.702 396.89L301.221 396.751C301.754 396.608 302.071 396.06 301.927 395.526L301.788 395.007C301.645 394.474 301.097 394.157 300.564 394.3L300.045 394.44C299.511 394.583 299.195 395.131 299.338 395.664L299.477 396.183C299.62 396.717 300.168 397.033 300.702 396.89Z"/><path fill="#4A4A4A" d="M297.797 397.669L298.316 397.53C298.849 397.387 299.166 396.838 299.023 396.305L298.884 395.786C298.741 395.253 298.192 394.936 297.659 395.079L297.14 395.218C296.607 395.361 296.29 395.91 296.433 396.443L296.572 396.962C296.715 397.495 297.264 397.812 297.797 397.669Z"/><path fill="#4A4A4A" d="M294.893 398.447L295.412 398.308C295.945 398.165 296.262 397.617 296.119 397.083L295.98 396.565C295.837 396.031 295.288 395.715 294.755 395.858L294.236 395.997C293.703 396.14 293.386 396.688 293.529 397.222L293.669 397.74C293.812 398.274 294.36 398.59 294.893 398.447Z"/><path fill="#4A4A4A" d="M291.99 399.226L292.508 399.087C293.042 398.944 293.358 398.395 293.215 397.862L293.076 397.343C292.933 396.81 292.385 396.493 291.851 396.636L291.333 396.775C290.799 396.918 290.483 397.467 290.626 398L290.765 398.519C290.908 399.052 291.456 399.369 291.99 399.226Z"/><path fill="#4A4A4A" d="M289.087 400.004L289.605 399.865C290.139 399.722 290.455 399.174 290.312 398.64L290.173 398.122C290.03 397.588 289.482 397.272 288.948 397.415L288.43 397.554C287.896 397.697 287.58 398.245 287.723 398.779L287.862 399.297C288.005 399.831 288.553 400.147 289.087 400.004Z"/><path fill="#4A4A4A" fill-rule="evenodd" d="M289.488 403.36L292.84 402.462C292.973 402.426 293.114 402.445 293.234 402.513C293.353 402.582 293.44 402.696 293.476 402.828L293.864 404.277C293.882 404.343 293.886 404.412 293.877 404.479C293.868 404.547 293.846 404.612 293.812 404.671C293.778 404.73 293.733 404.782 293.679 404.823C293.625 404.865 293.563 404.895 293.497 404.913L290.146 405.812C290.08 405.829 290.011 405.834 289.943 405.825C289.875 405.816 289.81 405.794 289.751 405.759C289.692 405.725 289.64 405.679 289.598 405.625C289.557 405.571 289.527 405.509 289.509 405.443L289.122 403.997C289.104 403.931 289.099 403.862 289.108 403.795C289.117 403.727 289.139 403.662 289.173 403.603C289.207 403.543 289.252 403.492 289.306 403.45C289.361 403.408 289.422 403.378 289.488 403.36V403.36Z" clip-rule="evenodd"/><path fill="#4A4A4A" d="M295.372 401.783L294.853 401.922C294.32 402.065 294.003 402.613 294.146 403.147L294.285 403.665C294.429 404.199 294.977 404.515 295.51 404.372L296.029 404.233C296.562 404.09 296.879 403.542 296.736 403.008L296.597 402.49C296.454 401.956 295.905 401.64 295.372 401.783Z"/><path fill="#4A4A4A" d="M298.276 401.004L297.757 401.143C297.224 401.286 296.907 401.835 297.05 402.368L297.189 402.887C297.332 403.42 297.881 403.737 298.414 403.594L298.933 403.455C299.466 403.311 299.783 402.763 299.64 402.23L299.501 401.711C299.358 401.178 298.809 400.861 298.276 401.004Z"/><path fill="#4A4A4A" d="M301.18 400.225L300.661 400.365C300.128 400.508 299.811 401.056 299.954 401.589L300.093 402.108C300.236 402.642 300.785 402.958 301.318 402.815L301.837 402.676C302.37 402.533 302.687 401.985 302.544 401.451L302.404 400.932C302.261 400.399 301.713 400.082 301.18 400.225Z"/><path fill="#4A4A4A" d="M304.083 399.447L303.565 399.586C303.031 399.729 302.715 400.277 302.858 400.811L302.997 401.33C303.14 401.863 303.688 402.179 304.222 402.036L304.74 401.897C305.274 401.754 305.59 401.206 305.447 400.673L305.308 400.154C305.165 399.62 304.617 399.304 304.083 399.447Z"/><path fill="#4A4A4A" d="M306.988 398.668L306.469 398.807C305.936 398.95 305.62 399.499 305.763 400.032L305.902 400.551C306.045 401.084 306.593 401.401 307.126 401.258L307.645 401.119C308.179 400.976 308.495 400.427 308.352 399.894L308.213 399.375C308.07 398.842 307.522 398.525 306.988 398.668Z"/><path fill="#4A4A4A" d="M309.892 397.89L309.373 398.029C308.84 398.172 308.523 398.72 308.666 399.253L308.805 399.772C308.948 400.306 309.497 400.622 310.03 400.479L310.549 400.34C311.082 400.197 311.399 399.649 311.256 399.115L311.117 398.596C310.974 398.063 310.425 397.747 309.892 397.89Z"/><path fill="#4A4A4A" d="M312.796 397.111L312.277 397.25C311.744 397.393 311.427 397.941 311.57 398.475L311.709 398.994C311.852 399.527 312.401 399.844 312.934 399.701L313.453 399.561C313.986 399.418 314.303 398.87 314.16 398.337L314.021 397.818C313.878 397.284 313.329 396.968 312.796 397.111Z"/><path fill="#4A4A4A" d="M315.699 396.333L315.18 396.472C314.646 396.615 314.33 397.163 314.473 397.697L314.612 398.215C314.755 398.749 315.303 399.065 315.837 398.922L316.356 398.783C316.889 398.64 317.206 398.092 317.063 397.558L316.923 397.04C316.78 396.506 316.232 396.19 315.699 396.333Z"/><path fill="#4A4A4A" d="M318.603 395.554L318.085 395.693C317.551 395.836 317.235 396.384 317.378 396.918L317.517 397.436C317.66 397.97 318.208 398.286 318.742 398.143L319.26 398.004C319.794 397.861 320.11 397.313 319.967 396.779L319.828 396.261C319.685 395.727 319.137 395.411 318.603 395.554Z"/><path fill="#4A4A4A" d="M321.507 394.775L320.988 394.914C320.455 395.057 320.139 395.606 320.282 396.139L320.421 396.658C320.564 397.191 321.112 397.508 321.645 397.365L322.164 397.226C322.698 397.083 323.014 396.534 322.871 396.001L322.732 395.482C322.589 394.949 322.041 394.632 321.507 394.775Z"/><path fill="#4A4A4A" d="M324.411 393.997L323.892 394.136C323.359 394.279 323.042 394.827 323.185 395.361L323.324 395.879C323.467 396.413 324.016 396.729 324.549 396.586L325.068 396.447C325.601 396.304 325.918 395.756 325.775 395.222L325.636 394.704C325.493 394.17 324.944 393.854 324.411 393.997Z"/><path fill="#4A4A4A" fill-rule="evenodd" d="M326.423 393.457L329.591 392.608C329.724 392.572 329.866 392.591 329.985 392.66C330.104 392.729 330.191 392.842 330.227 392.975L330.615 394.424C330.651 394.557 330.632 394.698 330.564 394.818C330.495 394.937 330.382 395.024 330.249 395.059L327.08 395.909C327.014 395.927 326.945 395.931 326.877 395.922C326.809 395.913 326.744 395.891 326.685 395.857C326.626 395.822 326.574 395.777 326.533 395.723C326.491 395.668 326.461 395.606 326.443 395.54L326.056 394.094C326.038 394.028 326.033 393.96 326.042 393.892C326.051 393.824 326.073 393.759 326.107 393.7C326.141 393.641 326.186 393.589 326.24 393.547C326.295 393.506 326.356 393.475 326.422 393.458L326.423 393.457Z" clip-rule="evenodd"/><path fill="#4A4A4A" d="M292.078 409.087L291.559 409.226C291.025 409.369 290.709 409.917 290.852 410.451L290.991 410.969C291.134 411.503 291.682 411.819 292.216 411.676L292.735 411.537C293.268 411.394 293.585 410.846 293.442 410.312L293.302 409.793C293.159 409.26 292.611 408.944 292.078 409.087Z"/><path fill="#4A4A4A" d="M294.981 408.308L294.463 408.447C293.929 408.59 293.613 409.138 293.756 409.672L293.895 410.191C294.038 410.724 294.586 411.041 295.12 410.898L295.638 410.758C296.172 410.615 296.488 410.067 296.345 409.534L296.206 409.015C296.063 408.481 295.515 408.165 294.981 408.308Z"/><path fill="#4A4A4A" d="M297.885 407.529L297.367 407.669C296.833 407.812 296.517 408.36 296.66 408.893L296.799 409.412C296.942 409.946 297.49 410.262 298.024 410.119L298.542 409.98C299.076 409.837 299.392 409.288 299.249 408.755L299.11 408.236C298.967 407.703 298.419 407.386 297.885 407.529Z"/><path fill="#4A4A4A" d="M300.789 406.751L300.27 406.89C299.737 407.033 299.42 407.581 299.563 408.115L299.702 408.633C299.845 409.167 300.394 409.483 300.927 409.34L301.446 409.201C301.979 409.058 302.296 408.51 302.153 407.976L302.014 407.458C301.871 406.924 301.322 406.608 300.789 406.751Z"/><path fill="#4A4A4A" fill-rule="evenodd" d="M302.71 406.236L316.68 402.49C316.813 402.455 316.954 402.473 317.074 402.542C317.193 402.611 317.28 402.724 317.316 402.857L317.704 404.306C317.722 404.372 317.726 404.441 317.717 404.508C317.709 404.576 317.686 404.641 317.652 404.7C317.618 404.759 317.573 404.811 317.519 404.852C317.465 404.894 317.403 404.924 317.337 404.942L303.367 408.688C303.301 408.705 303.232 408.71 303.165 408.701C303.097 408.692 303.032 408.67 302.973 408.636C302.913 408.601 302.862 408.556 302.82 408.502C302.779 408.448 302.748 408.386 302.731 408.32L302.343 406.872C302.307 406.739 302.326 406.597 302.394 406.478C302.463 406.359 302.577 406.272 302.71 406.236V406.236ZM318.137 402.1L319.947 401.614C320.08 401.579 320.222 401.597 320.341 401.666C320.46 401.735 320.547 401.848 320.583 401.981L320.971 403.43C320.989 403.496 320.993 403.565 320.984 403.632C320.976 403.7 320.953 403.765 320.919 403.824C320.885 403.883 320.84 403.935 320.786 403.976C320.732 404.018 320.67 404.048 320.604 404.066L318.794 404.551C318.661 404.587 318.519 404.568 318.4 404.5C318.281 404.431 318.194 404.317 318.158 404.184L317.77 402.735C317.734 402.603 317.753 402.461 317.821 402.342C317.89 402.222 318.004 402.135 318.137 402.1V402.1Z" clip-rule="evenodd"/><path fill="#4A4A4A" d="M322.387 400.96L321.868 401.099C321.335 401.242 321.018 401.791 321.161 402.324L321.3 402.843C321.443 403.376 321.992 403.693 322.525 403.55L323.044 403.411C323.577 403.268 323.894 402.719 323.751 402.186L323.612 401.667C323.469 401.134 322.92 400.817 322.387 400.96Z"/><path fill="#4A4A4A" d="M325.291 400.182L324.772 400.321C324.238 400.464 323.922 401.012 324.065 401.545L324.204 402.064C324.347 402.598 324.895 402.914 325.429 402.771L325.948 402.632C326.481 402.489 326.798 401.941 326.655 401.407L326.515 400.888C326.372 400.355 325.824 400.039 325.291 400.182Z"/><path fill="#4A4A4A" d="M330.735 398.722L330.216 398.861C329.683 399.004 329.366 399.552 329.509 400.086L329.648 400.604C329.791 401.138 330.34 401.454 330.873 401.311L331.392 401.172C331.925 401.029 332.242 400.481 332.099 399.947L331.96 399.429C331.817 398.895 331.268 398.579 330.735 398.722Z"/><path fill="#4A4A4A" d="M326.807 400.893L326.662 400.351C326.644 400.286 326.64 400.217 326.649 400.149C326.658 400.082 326.68 400.017 326.714 399.958C326.748 399.899 326.793 399.847 326.847 399.805C326.901 399.764 326.963 399.733 327.029 399.716L328.477 399.328C328.61 399.292 328.751 399.311 328.871 399.379C328.99 399.448 329.077 399.562 329.112 399.694L329.258 400.236L326.807 400.893Z"/><path fill="#4A4A4A" d="M329.356 400.599L329.501 401.141C329.519 401.207 329.523 401.276 329.514 401.343C329.505 401.411 329.483 401.476 329.449 401.535C329.415 401.594 329.37 401.646 329.316 401.687C329.262 401.729 329.2 401.759 329.134 401.777L327.686 402.165C327.553 402.201 327.412 402.182 327.292 402.113C327.173 402.045 327.086 401.931 327.051 401.798L326.905 401.256L329.356 400.599Z"/><path fill="#4A4A4A" d="M327.561 385.566L287.815 396.222C287.514 396.303 287.335 396.612 287.416 396.913C287.496 397.213 287.806 397.391 288.107 397.311L327.853 386.654C328.154 386.574 328.332 386.264 328.252 385.964C328.171 385.663 327.862 385.485 327.561 385.566Z"/><path fill="#D8D8D8" d="M290.243 395.766L288.681 396.185C288.48 396.238 288.361 396.445 288.415 396.645C288.469 396.846 288.675 396.965 288.875 396.911L290.438 396.492C290.639 396.438 290.758 396.232 290.704 396.031C290.65 395.831 290.444 395.712 290.243 395.766Z" opacity=".136"/><path fill="#D8D8D8" d="M293.377 394.926L291.814 395.345C291.614 395.398 291.495 395.604 291.548 395.805C291.602 396.006 291.808 396.125 292.009 396.071L293.572 395.652C293.772 395.598 293.891 395.392 293.838 395.191C293.784 394.991 293.578 394.872 293.377 394.926Z" opacity=".136"/><path fill="#D8D8D8" d="M295.787 394.279L294.225 394.698C294.024 394.752 293.905 394.958 293.959 395.159C294.012 395.359 294.219 395.478 294.419 395.425L295.982 395.006C296.183 394.952 296.302 394.746 296.248 394.545C296.194 394.344 295.988 394.225 295.787 394.279Z" opacity=".136"/><path fill="#D8D8D8" d="M298.197 393.633L296.635 394.052C296.434 394.106 296.315 394.312 296.369 394.513C296.423 394.713 296.629 394.832 296.829 394.778L298.392 394.359C298.593 394.306 298.712 394.099 298.658 393.899C298.604 393.698 298.398 393.579 298.197 393.633Z" opacity=".136"/><path fill="#D8D8D8" d="M300.609 392.987L299.046 393.406C298.845 393.459 298.726 393.666 298.78 393.866C298.834 394.067 299.04 394.186 299.241 394.132L300.803 393.713C301.004 393.659 301.123 393.453 301.069 393.252C301.015 393.052 300.809 392.933 300.609 392.987Z" opacity=".136"/><path fill="#D8D8D8" d="M303.621 392.179L302.058 392.598C301.857 392.652 301.738 392.858 301.792 393.058C301.846 393.259 302.052 393.378 302.252 393.324L303.815 392.905C304.016 392.851 304.135 392.645 304.081 392.445C304.027 392.244 303.821 392.125 303.621 392.179Z" opacity=".136"/><path fill="#D8D8D8" d="M306.031 391.533L304.468 391.952C304.267 392.005 304.148 392.212 304.202 392.412C304.256 392.613 304.462 392.732 304.663 392.678L306.226 392.259C306.426 392.205 306.545 391.999 306.491 391.798C306.438 391.598 306.231 391.479 306.031 391.533Z" opacity=".136"/><path fill="#D8D8D8" d="M308.442 390.886L306.879 391.305C306.679 391.359 306.56 391.565 306.613 391.766C306.667 391.967 306.873 392.086 307.074 392.032L308.637 391.613C308.837 391.559 308.956 391.353 308.902 391.152C308.849 390.952 308.642 390.833 308.442 390.886Z" opacity=".136"/><path fill="#D8D8D8" d="M310.852 390.24L309.289 390.659C309.089 390.713 308.97 390.919 309.023 391.12C309.077 391.32 309.283 391.439 309.484 391.386L311.047 390.967C311.247 390.913 311.366 390.707 311.313 390.506C311.259 390.305 311.053 390.186 310.852 390.24Z" opacity=".136"/><path fill="#D8D8D8" d="M313.865 389.432L312.302 389.851C312.102 389.905 311.983 390.111 312.036 390.312C312.09 390.512 312.296 390.631 312.497 390.578L314.06 390.159C314.26 390.105 314.379 389.899 314.326 389.698C314.272 389.498 314.066 389.379 313.865 389.432Z" opacity=".136"/><path fill="#D8D8D8" d="M316.275 388.786L314.712 389.205C314.512 389.259 314.393 389.465 314.447 389.666C314.5 389.866 314.707 389.985 314.907 389.931L316.47 389.512C316.67 389.459 316.789 389.252 316.736 389.052C316.682 388.851 316.476 388.732 316.275 388.786Z" opacity=".136"/><path fill="#D8D8D8" d="M318.686 388.14L317.123 388.559C316.923 388.612 316.804 388.819 316.858 389.019C316.911 389.22 317.118 389.339 317.318 389.285L318.881 388.866C319.082 388.812 319.201 388.606 319.147 388.405C319.093 388.205 318.887 388.086 318.686 388.14Z" opacity=".136"/><path fill="#D8D8D8" d="M321.699 387.332L320.136 387.751C319.936 387.805 319.817 388.011 319.871 388.211C319.924 388.412 320.131 388.531 320.331 388.477L321.894 388.058C322.095 388.004 322.214 387.798 322.16 387.598C322.106 387.397 321.9 387.278 321.699 387.332Z" opacity=".136"/><path fill="#D8D8D8" d="M324.109 386.686L322.547 387.105C322.346 387.158 322.227 387.365 322.281 387.565C322.335 387.766 322.541 387.885 322.741 387.831L324.304 387.412C324.505 387.358 324.624 387.152 324.57 386.951C324.516 386.751 324.31 386.632 324.109 386.686Z" opacity=".136"/><path fill="#D8D8D8" d="M326.52 386.04L324.957 386.459C324.756 386.512 324.637 386.719 324.691 386.919C324.745 387.12 324.951 387.239 325.152 387.185L326.714 386.766C326.915 386.712 327.034 386.506 326.98 386.305C326.926 386.105 326.72 385.986 326.52 386.04Z" opacity=".136"/><path fill="#44D860" fill-rule="evenodd" d="M306.996 425.895C306.885 425.899 306.774 425.91 306.664 425.928C306.644 425.85 306.626 425.772 306.604 425.694C306.946 425.554 307.255 425.342 307.508 425.073C307.762 424.804 307.955 424.483 308.075 424.133C308.194 423.783 308.238 423.412 308.202 423.044C308.167 422.675 308.053 422.319 307.868 421.999C307.683 421.678 307.432 421.401 307.132 421.185C306.831 420.97 306.488 420.821 306.125 420.749C305.762 420.677 305.388 420.684 305.028 420.768C304.668 420.853 304.33 421.013 304.037 421.239C303.98 421.18 303.922 421.122 303.863 421.064C304.083 420.77 304.239 420.433 304.319 420.075C304.4 419.717 304.403 419.346 304.329 418.987C304.256 418.627 304.106 418.287 303.892 417.99C303.677 417.692 303.401 417.444 303.083 417.26C302.765 417.077 302.412 416.964 302.047 416.927C301.681 416.891 301.313 416.932 300.965 417.049C300.617 417.166 300.297 417.355 300.028 417.604C299.759 417.853 299.545 418.157 299.402 418.495C299.325 418.473 299.248 418.455 299.171 418.435C299.234 418.062 299.214 417.68 299.114 417.316C299.014 416.952 298.836 416.613 298.592 416.325C298.348 416.036 298.044 415.804 297.701 415.645C297.358 415.486 296.985 415.404 296.607 415.404C296.229 415.404 295.856 415.486 295.513 415.645C295.17 415.804 294.866 416.036 294.622 416.325C294.378 416.613 294.2 416.952 294.1 417.316C294 417.68 293.98 418.062 294.043 418.435C293.966 418.455 293.889 418.473 293.812 418.495C293.669 418.156 293.456 417.851 293.187 417.601C292.918 417.35 292.598 417.16 292.249 417.042C291.901 416.925 291.531 416.883 291.165 416.919C290.799 416.955 290.445 417.069 290.126 417.252C289.807 417.436 289.531 417.685 289.316 417.984C289.101 418.282 288.952 418.623 288.879 418.983C288.805 419.344 288.81 419.716 288.891 420.074C288.972 420.433 289.129 420.77 289.351 421.064C288.203 422.184 287.329 423.554 286.8 425.068C286.27 426.582 286.098 428.198 286.298 429.79C286.497 431.381 287.063 432.905 287.95 434.241C288.837 435.577 290.021 436.69 291.411 437.492C292.8 438.294 294.356 438.763 295.957 438.862C297.558 438.962 299.16 438.689 300.637 438.065C302.115 437.442 303.429 436.485 304.474 435.268C305.52 434.052 306.27 432.61 306.665 431.056C307.017 431.103 307.376 431.077 307.717 430.98C308.059 430.883 308.378 430.717 308.653 430.492C308.927 430.266 309.153 429.987 309.315 429.671C309.478 429.354 309.573 429.008 309.596 428.653C309.619 428.299 309.568 427.943 309.448 427.609C309.328 427.274 309.14 426.968 308.896 426.709C308.652 426.451 308.358 426.245 308.031 426.105C307.704 425.965 307.352 425.893 306.997 425.895" clip-rule="evenodd"/><path fill="#3ECC5F" fill-rule="evenodd" d="M275.828 407.713H296.607V397.324H275.828V407.713Z" clip-rule="evenodd"/><path fill="#44D860" fill-rule="evenodd" d="M301.801 403.818C302.146 403.818 302.476 403.681 302.72 403.437C302.964 403.193 303.101 402.863 303.101 402.518C303.101 402.173 302.964 401.843 302.72 401.599C302.476 401.355 302.146 401.218 301.801 401.218C301.745 401.22 301.69 401.226 301.635 401.235C301.625 401.196 301.616 401.157 301.605 401.118C301.882 401.002 302.111 400.794 302.252 400.529C302.394 400.264 302.439 399.958 302.38 399.663C302.321 399.368 302.162 399.103 301.929 398.913C301.697 398.722 301.406 398.618 301.105 398.618C300.821 398.619 300.546 398.713 300.322 398.887C300.293 398.858 300.264 398.829 300.235 398.8C300.405 398.577 300.497 398.304 300.498 398.024C300.496 397.726 300.392 397.437 300.203 397.206C300.013 396.976 299.75 396.817 299.458 396.758C299.166 396.698 298.862 396.741 298.597 396.879C298.333 397.017 298.124 397.241 298.005 397.515C297.233 397.297 296.42 397.261 295.631 397.41C294.843 397.559 294.099 397.889 293.459 398.373C292.82 398.857 292.301 399.483 291.943 400.202C291.586 400.921 291.4 401.712 291.4 402.515C291.4 403.318 291.586 404.109 291.943 404.828C292.301 405.547 292.82 406.173 293.459 406.657C294.099 407.141 294.843 407.471 295.631 407.62C296.42 407.769 297.233 407.733 298.005 407.515C298.124 407.789 298.333 408.014 298.597 408.151C298.862 408.289 299.166 408.332 299.458 408.272C299.75 408.213 300.013 408.054 300.203 407.824C300.392 407.593 300.496 407.304 300.498 407.006C300.497 406.726 300.405 406.453 300.235 406.23C300.264 406.201 300.293 406.172 300.322 406.143C300.546 406.317 300.821 406.411 301.105 406.412C301.406 406.412 301.697 406.308 301.929 406.117C302.162 405.927 302.321 405.662 302.38 405.367C302.439 405.072 302.394 404.766 302.252 404.501C302.111 404.236 301.882 404.028 301.605 403.912C301.616 403.874 301.625 403.834 301.635 403.795C301.69 403.804 301.745 403.81 301.801 403.812" clip-rule="evenodd"/><path fill="#000" fill-rule="evenodd" d="M306.997 365.507C306.911 365.506 306.826 365.497 306.742 365.481C306.658 365.465 306.577 365.44 306.498 365.408C306.42 365.376 306.345 365.336 306.274 365.289C306.204 365.24 306.137 365.186 306.074 365.128C306.015 365.066 305.961 364.999 305.913 364.928C305.77 364.715 305.694 364.463 305.695 364.206C305.696 364.12 305.705 364.035 305.721 363.951C305.738 363.868 305.762 363.786 305.793 363.707C305.826 363.629 305.866 363.555 305.913 363.484C306.007 363.342 306.129 363.22 306.271 363.126C306.342 363.079 306.417 363.04 306.495 363.007C306.574 362.975 306.655 362.95 306.739 362.934C306.907 362.898 307.08 362.898 307.248 362.934C307.415 362.966 307.575 363.031 307.716 363.126C307.786 363.175 307.853 363.229 307.916 363.287C307.974 363.35 308.028 363.417 308.077 363.487C308.124 363.557 308.164 363.632 308.197 363.71C308.261 363.869 308.295 364.039 308.297 364.21C308.296 364.554 308.159 364.884 307.918 365.129C307.855 365.187 307.788 365.241 307.718 365.29C307.648 365.337 307.573 365.376 307.495 365.409C307.336 365.474 307.167 365.508 306.995 365.509L306.997 365.507ZM317.384 364.86C317.04 364.858 316.71 364.722 316.464 364.481C316.406 364.418 316.352 364.351 316.303 364.281C316.16 364.068 316.084 363.816 316.085 363.559C316.087 363.215 316.223 362.886 316.464 362.64C316.527 362.582 316.594 362.528 316.664 362.479C316.735 362.432 316.81 362.393 316.888 362.36C316.967 362.328 317.048 362.303 317.132 362.287C317.3 362.251 317.473 362.251 317.641 362.287C317.808 362.319 317.968 362.384 318.109 362.479C318.179 362.528 318.246 362.582 318.309 362.64C318.55 362.886 318.686 363.215 318.688 363.559C318.687 363.645 318.678 363.73 318.662 363.814C318.646 363.898 318.621 363.979 318.589 364.058C318.554 364.135 318.515 364.21 318.47 364.281C318.421 364.351 318.367 364.418 318.309 364.481C318.246 364.539 318.179 364.593 318.109 364.642C317.895 364.785 317.644 364.861 317.387 364.86" clip-rule="evenodd"/><path fill="#F4900C" d="M671.8 435.4C671.277 435.4 670.751 435.23 670.314 434.886C669.412 434.174 669.141 432.926 669.666 431.903L686.382 399.4H657.4C656.397 399.4 655.499 398.776 655.151 397.838C654.801 396.897 655.072 395.841 655.83 395.183L708.633 349.583C709.082 349.197 709.641 349 710.2 349C710.723 349 711.249 349.17 711.683 349.514C712.588 350.224 712.859 351.477 712.336 352.499L695.62 385H724.6C725.603 385 726.501 385.624 726.849 386.562C727.199 387.503 726.928 388.562 726.167 389.217L673.37 434.817C672.918 435.206 672.359 435.4 671.8 435.4Z"/></g><defs><filter id="filter0_d_73_492" width="1049.28" height="562.141" x="0" y="0" color-interpolation-filters="sRGB" filterUnits="userSpaceOnUse"><feFlood flood-opacity="0" result="BackgroundImageFix"/><feColorMatrix in="SourceAlpha" result="hardAlpha" type="matrix" values="0 0 0 0 0 0 0 0 0 0 0 0 0 0 0 0 0 0 127 0"/><feOffset dy="4"/><feGaussianBlur stdDeviation="2"/><feComposite in2="hardAlpha" operator="out"/><feColorMatrix type="matrix" values="0 0 0 0 0 0 0 0 0 0 0 0 0 0 0 0 0 0 0.25 0"/><feBlend in2="BackgroundImageFix" mode="normal" result="effect1_dropShadow_73_492"/><feBlend in="SourceGraphic" in2="effect1_dropShadow_73_492" mode="normal" result="shape"/></filter><clipPath id="clip0_73_492"><rect width="1041.28" height="554.141" fill="#fff" transform="translate(4)"/></clipPath></defs></svg>