<svg xmlns="http://www.w3.org/2000/svg" width="579" height="579" fill="none" viewBox="0 0 579 579"><mask id="path-1-inside-1_139_212" fill="#fff"><path fill-rule="evenodd" d="M50.5 261V318.982C40.8772 322.461 34 331.677 34 342.5C34 356.307 45.1929 367.5 59 367.5C72.8071 367.5 84 356.307 84 342.5C84 331.491 76.8837 322.143 67 318.807V284.5C67 267 70.5 249 91 239C111.5 229 129 228 150.5 255C165.999 274.464 175.522 287.432 184.126 299.149L184.127 299.15L184.127 299.15C187.458 303.686 190.651 308.035 194 312.5C203.6 325.3 206.333 341.5 206.5 348V357.305L208.465 358.999C208.856 359.336 209.439 359.32 209.811 358.963L223.365 345.943C226.848 342.597 232.352 342.597 235.835 345.943L249.207 358.788C249.594 359.16 250.206 359.16 250.593 358.788L263.965 345.943C267.448 342.597 272.952 342.597 276.435 345.943L289.807 358.788C290.194 359.16 290.806 359.16 291.193 358.788L292 358.013V245C253 223 166.3 179 139.5 179C106 179 50.5 195.5 50.5 261Z" clip-rule="evenodd"/></mask><path fill="#000" fill-rule="evenodd" d="M50.5 261V318.982C40.8772 322.461 34 331.677 34 342.5C34 356.307 45.1929 367.5 59 367.5C72.8071 367.5 84 356.307 84 342.5C84 331.491 76.8837 322.143 67 318.807V284.5C67 267 70.5 249 91 239C111.5 229 129 228 150.5 255C165.999 274.464 175.522 287.432 184.126 299.149L184.127 299.15L184.127 299.15C187.458 303.686 190.651 308.035 194 312.5C203.6 325.3 206.333 341.5 206.5 348V357.305L208.465 358.999C208.856 359.336 209.439 359.32 209.811 358.963L223.365 345.943C226.848 342.597 232.352 342.597 235.835 345.943L249.207 358.788C249.594 359.16 250.206 359.16 250.593 358.788L263.965 345.943C267.448 342.597 272.952 342.597 276.435 345.943L289.807 358.788C290.194 359.16 290.806 359.16 291.193 358.788L292 358.013V245C253 223 166.3 179 139.5 179C106 179 50.5 195.5 50.5 261Z" clip-rule="evenodd"/><path fill="#fff" d="M253.364 361.673L251.978 360.23L251.978 360.23L253.364 361.673ZM246.436 361.673L245.051 363.115L245.051 363.115L246.436 361.673ZM233.064 348.827L234.449 347.385L234.449 347.385L233.064 348.827ZM226.136 348.827L224.751 347.385L224.751 347.385L226.136 348.827ZM212.582 361.848L213.967 363.29L213.967 363.29L212.582 361.848ZM285.651 363.115C287.556 364.946 290.238 365.486 292.599 364.746L291.401 360.929C290.383 361.249 289.236 361.012 288.422 360.23L285.651 363.115ZM254.749 363.115L268.122 350.27L265.351 347.385L251.978 360.23L254.749 363.115ZM245.051 363.115C247.76 365.717 252.04 365.717 254.749 363.115L251.978 360.23C250.817 361.346 248.983 361.346 247.822 360.23L245.051 363.115ZM231.678 350.27L245.051 363.115L247.822 360.23L234.449 347.385L231.678 350.27ZM227.522 350.27C228.683 349.154 230.517 349.154 231.678 350.27L234.449 347.385C231.74 344.783 227.46 344.783 224.751 347.385L227.522 350.27ZM213.967 363.29L227.522 350.27L224.751 347.385L211.196 360.405L213.967 363.29ZM205.451 364.205C208.125 365.851 211.636 365.529 213.967 363.29L211.196 360.405C210.199 361.363 208.693 361.504 207.549 360.799L205.451 364.205ZM50.5 318.982L51.8599 322.744L54.5 321.789V318.982H50.5ZM67 318.807H63V321.679L65.7208 322.597L67 318.807ZM150.5 255L147.371 257.492L147.371 257.492L150.5 255ZM184.126 299.149L180.902 301.517L180.914 301.533L180.926 301.549L184.126 299.149ZM184.127 299.15L180.927 301.55L180.933 301.559L180.94 301.567L184.127 299.15ZM184.127 299.15L187.351 296.783L187.333 296.758L187.314 296.733L184.127 299.15ZM194 312.5L190.8 314.9L190.8 314.9L194 312.5ZM206.5 348H210.5V347.949L210.499 347.897L206.5 348ZM206.5 357.305H202.5V359.138L203.888 360.335L206.5 357.305ZM208.465 358.999L211.077 355.969L211.077 355.969L208.465 358.999ZM209.811 358.963L207.04 356.078L207.04 356.078L209.811 358.963ZM223.365 345.943L220.594 343.058L220.594 343.058L223.365 345.943ZM235.835 345.943L233.064 348.827L233.064 348.827L235.835 345.943ZM249.207 358.788L246.436 361.673L246.436 361.673L249.207 358.788ZM250.593 358.788L253.364 361.673L253.364 361.673L250.593 358.788ZM263.965 345.943L261.194 343.058L261.194 343.058L263.965 345.943ZM276.435 345.943L273.664 348.827L276.435 345.943ZM289.807 358.788L287.036 361.673L287.036 361.673L289.807 358.788ZM291.193 358.788L293.964 361.673L293.964 361.673L291.193 358.788ZM292 358.013L294.771 360.897L296 359.717V358.013H292ZM292 245H296V242.664L293.965 241.516L292 245ZM54.5 318.982V261H46.5V318.982H54.5ZM38 342.5C38 333.415 43.771 325.668 51.8599 322.744L49.1401 315.22C37.9835 319.253 30 329.939 30 342.5H38ZM59 363.5C47.402 363.5 38 354.098 38 342.5H30C30 358.516 42.9837 371.5 59 371.5V363.5ZM80 342.5C80 354.098 70.598 363.5 59 363.5V371.5C75.0163 371.5 88 358.516 88 342.5H80ZM65.7208 322.597C74.0277 325.401 80 333.258 80 342.5H88C88 329.723 79.7396 318.886 68.2792 315.017L65.7208 322.597ZM63 284.5V318.807H71V284.5H63ZM89.2463 235.405C78.1326 240.826 71.456 248.541 67.6419 257.348C63.8842 266.025 63 275.541 63 284.5H71C71 275.959 71.8658 267.725 74.9831 260.527C78.044 253.459 83.3674 247.174 92.7537 242.595L89.2463 235.405ZM153.629 252.508C142.571 238.621 132.065 231.327 121.14 229.199C110.242 227.076 99.7774 230.268 89.2463 235.405L92.7537 242.595C102.723 237.732 111.258 235.424 119.61 237.051C127.935 238.673 136.929 244.379 147.371 257.492L153.629 252.508ZM187.35 296.782C178.737 285.052 169.178 272.034 153.629 252.508L147.371 257.492C162.821 276.894 172.307 289.812 180.902 301.517L187.35 296.782ZM187.327 296.75L187.326 296.749L180.926 301.549L180.927 301.55L187.327 296.75ZM187.314 296.733L187.313 296.732L180.94 301.567L180.94 301.568L187.314 296.733ZM197.2 310.1C193.865 305.654 190.684 301.321 187.351 296.783L180.903 301.518C184.232 306.051 187.437 310.416 190.8 314.9L197.2 310.1ZM210.499 347.897C210.318 340.856 207.447 323.763 197.2 310.1L190.8 314.9C199.753 326.837 202.349 342.144 202.501 348.103L210.499 347.897ZM210.5 357.305V348H202.5V357.305H210.5ZM203.888 360.335L205.853 362.029L211.077 355.969L209.112 354.275L203.888 360.335ZM205.853 362.029C207.807 363.713 210.721 363.635 212.582 361.847L207.04 356.078C208.156 355.006 209.905 354.959 211.077 355.969L205.853 362.029ZM212.582 361.848L226.136 348.827L220.594 343.058L207.04 356.078L212.582 361.848ZM226.136 348.827C228.071 346.968 231.129 346.968 233.064 348.827L238.606 343.058C233.574 338.225 225.625 338.225 220.594 343.058L226.136 348.827ZM233.064 348.827L246.436 361.673L251.978 355.903L238.606 343.058L233.064 348.827ZM246.436 361.673C248.371 363.532 251.429 363.532 253.364 361.673L247.822 355.903C248.983 354.788 250.817 354.788 251.978 355.903L246.436 361.673ZM253.364 361.673L266.736 348.827L261.194 343.058L247.822 355.903L253.364 361.673ZM266.736 348.827C268.671 346.968 271.729 346.968 273.664 348.827L279.206 343.058C274.174 338.225 266.225 338.225 261.194 343.058L266.736 348.827ZM273.664 348.827L287.036 361.673L292.578 355.903L279.206 343.058L273.664 348.827ZM287.036 361.673C288.971 363.532 292.029 363.532 293.964 361.673L288.422 355.903C289.583 354.788 291.417 354.788 292.578 355.903L287.036 361.673ZM293.964 361.673L294.771 360.897L289.229 355.128L288.422 355.903L293.964 361.673ZM288 245V358.013H296V245H288ZM139.5 183C145.433 183 155.286 185.513 167.804 189.986C180.156 194.399 194.608 200.534 209.504 207.384C239.29 221.082 270.617 237.53 290.035 248.484L293.965 241.516C274.383 230.47 242.86 213.918 212.846 200.116C197.842 193.216 183.156 186.976 170.496 182.452C158.001 177.987 146.967 175 139.5 175V183ZM54.5 261C54.5 229.59 67.7064 210.32 84.6905 198.743C101.895 187.015 123.281 183 139.5 183V175C122.219 175 99.1054 179.235 80.1845 192.132C61.0436 205.18 46.5 226.91 46.5 261H54.5Z" mask="url(#path-1-inside-1_139_212)"/><mask id="path-3-inside-2_139_212" fill="#fff"><path fill-rule="evenodd" d="M498 342.5C498 331.866 504.64 322.782 514 319.169V284.5C514 267 510.5 249 490 239C469.5 229 452 228 430.5 255C415 274.465 405.478 287.433 396.873 299.15C393.542 303.686 390.349 308.035 387 312.5C377.4 325.3 374.667 341.5 374.5 348V357.305L372.535 358.999C372.144 359.336 371.561 359.32 371.189 358.963L357.635 345.943C354.152 342.597 348.648 342.597 345.165 345.943L331.793 358.788C331.406 359.16 330.794 359.16 330.407 358.788L317.035 345.943C313.552 342.597 308.048 342.597 304.565 345.943L291.193 358.788C290.806 359.16 290.194 359.16 289.807 358.788L289 358.013V245C328 223 414.7 179 441.5 179C475 179 530.5 195.5 530.5 261V318.645C540.643 321.83 548 331.306 548 342.5C548 356.307 536.807 367.5 523 367.5C509.193 367.5 498 356.307 498 342.5ZM287.036 361.673L273.664 348.827C271.729 346.968 268.671 346.968 266.736 348.827L253.364 361.673C251.429 363.532 248.371 363.532 246.436 361.673L233.064 348.827C231.129 346.968 228.071 346.968 226.136 348.827L212.582 361.848C210.721 363.635 207.807 363.713 205.853 362.029L201.753 358.494C197.985 355.245 192.301 358.894 193.685 363.672L203.455 397.391C204.074 399.529 206.031 401 208.257 401H373.675C375.932 401 377.91 399.487 378.501 397.308L387.731 363.249C389.021 358.491 383.375 354.936 379.641 358.154L375.147 362.029C373.193 363.713 370.279 363.635 368.418 361.848L354.864 348.827C352.929 346.968 349.871 346.968 347.936 348.827L334.564 361.673C332.629 363.532 329.571 363.532 327.636 361.673L314.264 348.827C312.329 346.968 309.271 346.968 307.336 348.827L293.964 361.673C292.029 363.532 288.971 363.532 287.036 361.673Z" clip-rule="evenodd"/></mask><path fill="url(#paint0_radial_139_212)" fill-rule="evenodd" d="M498 342.5C498 331.866 504.64 322.782 514 319.169V284.5C514 267 510.5 249 490 239C469.5 229 452 228 430.5 255C415 274.465 405.478 287.433 396.873 299.15C393.542 303.686 390.349 308.035 387 312.5C377.4 325.3 374.667 341.5 374.5 348V357.305L372.535 358.999C372.144 359.336 371.561 359.32 371.189 358.963L357.635 345.943C354.152 342.597 348.648 342.597 345.165 345.943L331.793 358.788C331.406 359.16 330.794 359.16 330.407 358.788L317.035 345.943C313.552 342.597 308.048 342.597 304.565 345.943L291.193 358.788C290.806 359.16 290.194 359.16 289.807 358.788L289 358.013V245C328 223 414.7 179 441.5 179C475 179 530.5 195.5 530.5 261V318.645C540.643 321.83 548 331.306 548 342.5C548 356.307 536.807 367.5 523 367.5C509.193 367.5 498 356.307 498 342.5ZM287.036 361.673L273.664 348.827C271.729 346.968 268.671 346.968 266.736 348.827L253.364 361.673C251.429 363.532 248.371 363.532 246.436 361.673L233.064 348.827C231.129 346.968 228.071 346.968 226.136 348.827L212.582 361.848C210.721 363.635 207.807 363.713 205.853 362.029L201.753 358.494C197.985 355.245 192.301 358.894 193.685 363.672L203.455 397.391C204.074 399.529 206.031 401 208.257 401H373.675C375.932 401 377.91 399.487 378.501 397.308L387.731 363.249C389.021 358.491 383.375 354.936 379.641 358.154L375.147 362.029C373.193 363.713 370.279 363.635 368.418 361.848L354.864 348.827C352.929 346.968 349.871 346.968 347.936 348.827L334.564 361.673C332.629 363.532 329.571 363.532 327.636 361.673L314.264 348.827C312.329 346.968 309.271 346.968 307.336 348.827L293.964 361.673C292.029 363.532 288.971 363.532 287.036 361.673Z" clip-rule="evenodd"/><path fill="#fff" d="M514 319.169L515.44 322.901L518 321.913V319.169H514ZM430.5 255L433.629 257.492L433.629 257.492L430.5 255ZM396.873 299.15L400.097 301.517L400.097 301.517L396.873 299.15ZM387 312.5L390.2 314.9L390.2 314.9L387 312.5ZM374.5 348L370.501 347.897L370.5 347.949V348H374.5ZM374.5 357.305L377.112 360.335L378.5 359.138V357.305H374.5ZM372.535 358.999L369.923 355.969L369.923 355.969L372.535 358.999ZM371.189 358.963L368.418 361.848L368.418 361.848L371.189 358.963ZM357.635 345.943L354.864 348.827L357.635 345.943ZM345.165 345.943L342.394 343.058L342.394 343.058L345.165 345.943ZM331.793 358.788L334.564 361.673L334.564 361.673L331.793 358.788ZM330.407 358.788L327.636 361.673L327.636 361.673L330.407 358.788ZM317.035 345.943L319.806 343.058L319.806 343.058L317.035 345.943ZM304.565 345.943L301.794 343.058L301.794 343.058L304.565 345.943ZM291.193 358.788L293.964 361.673L293.964 361.673L291.193 358.788ZM289.807 358.788L287.036 361.673L287.036 361.673L289.807 358.788ZM289 358.013H285V359.717L286.229 360.897L289 358.013ZM289 245L287.035 241.516L285 242.664V245H289ZM530.5 318.645H526.5V321.581L529.301 322.461L530.5 318.645ZM273.664 348.827L276.435 345.943L276.435 345.943L273.664 348.827ZM287.036 361.673L289.807 358.788L289.807 358.788L287.036 361.673ZM266.736 348.827L269.507 351.712L269.507 351.712L266.736 348.827ZM253.364 361.673L250.593 358.788L250.593 358.788L253.364 361.673ZM246.436 361.673L249.207 358.788L249.207 358.788L246.436 361.673ZM233.064 348.827L235.835 345.943L235.835 345.943L233.064 348.827ZM226.136 348.827L228.907 351.712L228.907 351.712L226.136 348.827ZM212.582 361.848L215.353 364.732L212.582 361.848ZM205.853 362.029L208.465 358.999L208.465 358.999L205.853 362.029ZM201.753 358.494L199.141 361.523L199.141 361.523L201.753 358.494ZM193.685 363.672L189.843 364.785L189.843 364.785L193.685 363.672ZM203.455 397.391L207.297 396.278L207.297 396.278L203.455 397.391ZM378.501 397.308L374.64 396.262L374.64 396.262L378.501 397.308ZM387.731 363.249L391.592 364.296L391.592 364.296L387.731 363.249ZM379.641 358.154L377.029 355.125L377.029 355.125L379.641 358.154ZM375.147 362.029L372.535 358.999L372.535 358.999L375.147 362.029ZM368.418 361.848L365.647 364.732L365.647 364.732L368.418 361.848ZM354.864 348.827L352.093 351.712L352.093 351.712L354.864 348.827ZM347.936 348.827L345.165 345.943L345.165 345.943L347.936 348.827ZM334.564 361.673L337.335 364.557L337.335 364.557L334.564 361.673ZM327.636 361.673L324.865 364.557L324.865 364.557L327.636 361.673ZM314.264 348.827L317.035 345.943L317.035 345.943L314.264 348.827ZM307.336 348.827L310.107 351.712L310.107 351.712L307.336 348.827ZM293.964 361.673L291.193 358.788L291.193 358.788L293.964 361.673ZM512.56 315.437C501.708 319.626 494 330.158 494 342.5H502C502 333.573 507.571 325.938 515.44 322.901L512.56 315.437ZM510 284.5V319.169H518V284.5H510ZM488.246 242.595C497.633 247.174 502.956 253.459 506.017 260.527C509.134 267.725 510 275.959 510 284.5H518C518 275.541 517.116 266.025 513.358 257.348C509.544 248.541 502.867 240.826 491.754 235.405L488.246 242.595ZM433.629 257.492C444.071 244.379 453.065 238.673 461.39 237.051C469.742 235.424 478.277 237.732 488.246 242.595L491.754 235.405C481.223 230.268 470.758 227.076 459.86 229.199C448.935 231.327 438.429 238.621 427.371 252.508L433.629 257.492ZM400.097 301.517C408.692 289.813 418.179 276.894 433.629 257.492L427.371 252.508C411.822 272.035 402.263 285.053 393.649 296.782L400.097 301.517ZM390.2 314.9C393.563 310.416 396.768 306.051 400.097 301.517L393.649 296.782C390.316 301.321 387.135 305.653 383.8 310.1L390.2 314.9ZM378.499 348.103C378.651 342.144 381.247 326.837 390.2 314.9L383.8 310.1C373.553 323.763 370.682 340.856 370.501 347.897L378.499 348.103ZM378.5 357.305V348H370.5V357.305H378.5ZM375.147 362.029L377.112 360.335L371.888 354.275L369.923 355.969L375.147 362.029ZM368.418 361.848C370.278 363.635 373.193 363.713 375.147 362.029L369.923 355.969C371.095 354.959 372.844 355.006 373.96 356.078L368.418 361.848ZM354.864 348.827L368.418 361.848L373.96 356.078L360.406 343.058L354.864 348.827ZM347.936 348.827C349.871 346.968 352.929 346.968 354.864 348.827L360.406 343.058C355.374 338.225 347.425 338.225 342.394 343.058L347.936 348.827ZM334.564 361.673L347.936 348.827L342.394 343.058L329.022 355.903L334.564 361.673ZM327.636 361.673C329.571 363.532 332.629 363.532 334.564 361.673L329.022 355.903C330.183 354.788 332.017 354.788 333.178 355.903L327.636 361.673ZM314.264 348.827L327.636 361.673L333.178 355.903L319.806 343.058L314.264 348.827ZM307.336 348.827C309.271 346.968 312.329 346.968 314.264 348.827L319.806 343.058C314.774 338.225 306.825 338.225 301.794 343.058L307.336 348.827ZM293.964 361.673L307.336 348.827L301.794 343.058L288.422 355.903L293.964 361.673ZM287.036 361.673C288.971 363.532 292.029 363.532 293.964 361.673L288.422 355.903C289.583 354.788 291.417 354.788 292.578 355.903L287.036 361.673ZM286.229 360.897L287.036 361.673L292.578 355.903L291.771 355.128L286.229 360.897ZM285 245V358.013H293V245H285ZM441.5 175C434.033 175 422.999 177.987 410.504 182.452C397.844 186.976 383.158 193.216 368.154 200.116C338.14 213.918 306.617 230.47 287.035 241.516L290.965 248.484C310.383 237.53 341.71 221.082 371.496 207.384C386.392 200.534 400.844 194.399 413.196 189.986C425.714 185.513 435.567 183 441.5 183V175ZM534.5 261C534.5 226.91 519.956 205.18 500.815 192.132C481.895 179.235 458.781 175 441.5 175V183C457.719 183 479.105 187.015 496.31 198.743C513.294 210.32 526.5 229.59 526.5 261H534.5ZM534.5 318.645V261H526.5V318.645H534.5ZM552 342.5C552 329.509 543.461 318.523 531.699 314.828L529.301 322.461C537.825 325.138 544 333.103 544 342.5H552ZM523 371.5C539.016 371.5 552 358.516 552 342.5H544C544 354.098 534.598 363.5 523 363.5V371.5ZM494 342.5C494 358.516 506.984 371.5 523 371.5V363.5C511.402 363.5 502 354.098 502 342.5H494ZM270.893 351.712L284.265 364.557L289.807 358.788L276.435 345.943L270.893 351.712ZM269.507 351.712C269.894 351.34 270.506 351.34 270.893 351.712L276.435 345.943C272.952 342.597 267.448 342.597 263.965 345.943L269.507 351.712ZM256.135 364.557L269.507 351.712L263.965 345.943L250.593 358.788L256.135 364.557ZM243.665 364.557C247.148 367.903 252.652 367.903 256.135 364.557L250.593 358.788C250.206 359.16 249.594 359.16 249.207 358.788L243.665 364.557ZM230.293 351.712L243.665 364.557L249.207 358.788L235.835 345.943L230.293 351.712ZM228.907 351.712C229.294 351.34 229.906 351.34 230.293 351.712L235.835 345.943C232.352 342.597 226.848 342.597 223.365 345.943L228.907 351.712ZM215.353 364.732L228.907 351.712L223.365 345.943L209.811 358.963L215.353 364.732ZM203.242 365.058C206.758 368.09 212.004 367.949 215.353 364.732L209.811 358.963C209.439 359.32 208.856 359.336 208.465 358.999L203.242 365.058ZM199.141 361.523L203.242 365.058L208.465 358.999L204.364 355.464L199.141 361.523ZM197.527 362.559C197.434 362.237 197.477 362.043 197.53 361.915C197.596 361.755 197.733 361.577 197.948 361.439C198.162 361.301 198.381 361.251 198.554 361.258C198.692 361.263 198.887 361.304 199.141 361.523L204.364 355.464C197.582 349.617 187.352 356.184 189.843 364.785L197.527 362.559ZM207.297 396.278L197.527 362.559L189.843 364.785L199.613 398.504L207.297 396.278ZM208.257 397C207.812 397 207.42 396.706 207.297 396.278L199.613 398.504C200.727 402.352 204.251 405 208.257 405V397ZM373.675 397H208.257V405H373.675V397ZM374.64 396.262C374.522 396.697 374.126 397 373.675 397V405C377.739 405 381.298 402.277 382.361 398.354L374.64 396.262ZM383.871 362.203L374.64 396.262L382.361 398.354L391.592 364.296L383.871 362.203ZM382.253 361.184C382.503 360.969 382.696 360.926 382.835 360.92C383.008 360.912 383.225 360.961 383.438 361.095C383.652 361.229 383.79 361.405 383.857 361.563C383.912 361.692 383.957 361.884 383.871 362.203L391.592 364.296C393.913 355.731 383.75 349.331 377.029 355.125L382.253 361.184ZM377.758 365.058L382.253 361.184L377.029 355.125L372.535 358.999L377.758 365.058ZM365.647 364.732C368.996 367.949 374.242 368.09 377.758 365.058L372.535 358.999C372.144 359.336 371.561 359.32 371.189 358.963L365.647 364.732ZM352.093 351.712L365.647 364.732L371.189 358.963L357.635 345.943L352.093 351.712ZM350.707 351.712C351.094 351.34 351.706 351.34 352.093 351.712L357.635 345.943C354.152 342.597 348.648 342.597 345.165 345.943L350.707 351.712ZM337.335 364.557L350.707 351.712L345.165 345.943L331.793 358.788L337.335 364.557ZM324.865 364.557C328.348 367.903 333.852 367.903 337.335 364.557L331.793 358.788C331.406 359.16 330.794 359.16 330.407 358.788L324.865 364.557ZM311.493 351.712L324.865 364.557L330.407 358.788L317.035 345.943L311.493 351.712ZM310.107 351.712C310.494 351.34 311.106 351.34 311.493 351.712L317.035 345.943C313.552 342.597 308.048 342.597 304.565 345.943L310.107 351.712ZM296.735 364.557L310.107 351.712L304.565 345.943L291.193 358.788L296.735 364.557ZM284.265 364.557C287.748 367.903 293.252 367.903 296.735 364.557L291.193 358.788C290.806 359.16 290.194 359.16 289.807 358.788L284.265 364.557Z" mask="url(#path-3-inside-2_139_212)"/><mask id="mask0_139_212" width="240" height="194" x="290" y="179" maskUnits="userSpaceOnUse" style="mask-type:alpha"><path fill="url(#paint1_radial_139_212)" d="M529.8 261V323.5H513.3V284.5C513.3 267 509.8 249 489.3 239C468.8 229 451.3 228 429.8 255C408.3 282 398.3 296.5 386.3 312.5C376.7 325.3 373.967 341.5 373.8 348V373H290.3V245C329.3 223 414 179 440.8 179C474.3 179 529.8 195.5 529.8 261Z"/></mask><g mask="url(#mask0_139_212)"><path fill="#fff" fill-rule="evenodd" d="M539.8 328.5V268C539.8 202.5 484.3 186 450.8 186C428.946 186 368.591 215.258 325.91 237.987C309.986 246.467 300.3 263.16 300.3 281.202V335.874L307.636 328.827C309.571 326.968 312.629 326.968 314.564 328.827L327.936 341.673C329.871 343.532 332.929 343.532 334.864 341.673L348.236 328.827C350.171 326.968 353.229 326.968 355.164 328.827L368.718 341.848C370.579 343.635 373.493 343.713 375.447 342.029L379.941 338.154C382.195 336.211 385.147 336.737 386.848 338.506C388.772 332.331 391.772 325.537 396.3 319.5C399.649 315.035 402.842 310.686 406.173 306.15C414.778 294.433 424.3 281.465 439.8 262C461.3 235 466.8 236 487.3 246C507.8 256 511.3 274 511.3 291.5V328.5H539.8ZM383.8 358.862L378.801 377.308C378.501 378.414 377.844 379.348 376.975 380H383.8V358.862Z" clip-rule="evenodd" opacity=".25"/></g><circle r="21" fill="#FFC400" transform="matrix(-1 0 0 1 523 342.5)"/><mask id="mask1_139_212" width="42" height="43" x="502" y="321" maskUnits="userSpaceOnUse" style="mask-type:alpha"><circle r="21" fill="#FFC400" transform="matrix(-1 0 0 1 523 342.5)"/></mask><g mask="url(#mask1_139_212)"><circle r="21" fill="#fff" fill-opacity=".25" transform="matrix(-1 0 0 1 531.4 350.9)"/></g><defs><radialGradient id="paint0_radial_139_212" cx="0" cy="0" r="1" gradientTransform="translate(341.739 413.5) rotate(-73.6042) scale(269.458 388.516)" gradientUnits="userSpaceOnUse"><stop stop-color="#38C67B"/><stop offset=".235" stop-color="#448CE0"/><stop offset=".455" stop-color="#C42EB5"/><stop offset=".66" stop-color="#D23131"/><stop offset=".833" stop-color="#F87226"/><stop offset="1" stop-color="#EEC32B"/></radialGradient><radialGradient id="paint1_radial_139_212" cx="0" cy="0" r="1" gradientTransform="translate(347.8 362.5) rotate(-64.4938) scale(229.907 283.829)" gradientUnits="userSpaceOnUse"><stop stop-color="#38C67B"/><stop offset=".235" stop-color="#448CE0"/><stop offset=".455" stop-color="#C42EB5"/><stop offset=".66" stop-color="#D23131"/><stop offset=".833" stop-color="#F87226"/><stop offset="1" stop-color="#EEC32B"/></radialGradient></defs></svg>